<svg width="19" height="18" viewBox="0 0 19 18" fill="none" xmlns="http://www.w3.org/2000/svg">
<path d="M4.12631 17.9595L0.272698 17.9484L0.237773 5.94173L4.09141 5.95282L4.12631 17.9595ZM2.1597 4.26407C0.912939 4.2605 0.00359104 3.36018 9.42742e-06 2.12585C-0.00357218 0.891514 1.0139 -0.00322906 2.14731 8.75913e-06C3.39407 0.00360126 4.30342 0.903902 4.307 2.13823C4.31061 3.37257 3.40646 4.26767 2.1597 4.26407ZM18.1807 18L14.3271 17.9889L14.3082 11.4806C14.3027 9.57297 13.5077 9.00964 12.3741 9.00632C11.2407 9.00307 10.1099 9.89752 10.1148 11.5807L10.1334 17.9768L6.27981 17.9657L6.2449 5.959L9.87184 5.96945L9.87673 7.65262C10.2145 6.86812 11.571 5.6377 13.4977 5.6432C15.6514 5.64947 17.9217 6.89029 17.9325 10.5933L17.954 17.9993L18.1807 18Z" fill="#F7F3FF"/>
</svg>
