<svg width="28" height="28" viewBox="0 0 28 28" fill="none" xmlns="http://www.w3.org/2000/svg">
<rect x="0.7" y="0.7" width="26.6" height="26.6" rx="6.3" fill="url(#paint0_radial_54957_8018)"/>
<path fill-rule="evenodd" clip-rule="evenodd" d="M6.03982 12.3015C5.96975 10.7093 6.76449 9.1981 8.10083 8.36399L11.8686 6.01224C13.2049 5.17812 14.8745 5.15119 16.2142 5.9509L19.7241 8.04609C20.9414 8.77275 21.7117 10.0796 21.7753 11.5263L21.9589 15.6977C22.029 17.2899 21.2343 18.8011 19.8979 19.6352L16.1301 21.987C14.7938 22.8211 13.1242 22.848 11.7846 22.0483L8.27465 19.9531C7.05735 19.2265 6.28709 17.9196 6.22341 16.4729L6.03982 12.3015ZM13.0898 9.99765C13.763 10.2707 14.436 10.5904 15.0819 10.9096L10.2008 10.8112C9.88633 10.7913 9.5231 10.9134 9.28589 11.2409C9.23414 11.3124 9.16419 11.4171 9.10517 11.54C9.05486 11.6447 8.96789 11.852 8.97689 12.1055C9.05547 14.4484 9.03844 17.5614 9.69526 19.2042L8.81327 18.6071L8.81323 18.6022C8.10272 18.1047 7.65961 17.2942 7.62034 16.402L7.43675 12.2306C7.39013 11.1713 7.91965 10.1542 8.82346 9.59006C9.28322 9.30309 9.88778 9.21006 10.6379 9.29761C11.3872 9.38506 12.2235 9.64625 13.0898 9.99765ZM13.814 17.6246L17.029 12.246L10.9067 12.246L13.814 17.6246ZM10.9872 16.7961C10.9032 16.1368 10.8445 15.4625 10.7962 14.8114L13.145 19.3214C13.4605 19.7068 13.8872 19.6904 14.0203 19.6835C14.1362 19.6776 14.4152 19.5701 14.6275 19.4375C16.5031 18.2668 19.4417 16.3757 20.5216 14.9127L20.5559 15.7345L20.5604 15.7317L20.562 15.7686C20.6086 16.8279 20.0791 17.845 19.1753 18.4092L15.4075 20.7609C14.5037 21.3251 13.3825 21.3383 12.4912 20.8062C12.1359 20.5942 11.8133 20.1353 11.5467 19.3949C11.285 18.6684 11.1106 17.7647 10.9872 16.7961ZM18.1818 10.6269C16.235 9.57793 14.1434 7.83708 11.8126 7.70649C11.8126 7.70649 12.1989 7.48184 12.4424 7.33121C12.5007 7.29516 12.5912 7.23831 12.5912 7.23831C13.4951 6.67416 14.6162 6.66092 15.5075 7.19298L19.0174 9.28817C19.8257 9.77066 20.3361 10.6367 20.3784 11.5973C20.3998 12.0835 20.1783 12.6513 19.6905 13.302C19.2084 13.9449 18.5205 14.5964 17.7434 15.2332C17.3509 15.5548 16.9424 15.8672 16.535 16.1683C16.3778 16.2769 16.2209 16.3838 16.0652 16.4889L18.62 12.322C18.7981 12.0511 18.8816 11.6601 18.7172 11.2803C18.6851 11.2062 18.6367 11.1048 18.5704 11.0032C18.5124 10.9143 18.3959 10.7541 18.2052 10.6402C18.1975 10.6356 18.1897 10.6312 18.1818 10.6269Z" fill="white"/>
<rect x="0.7" y="0.7" width="26.6" height="26.6" rx="6.3" stroke="url(#paint1_linear_54957_8018)" stroke-width="0.6"/>
<defs>
<radialGradient id="paint0_radial_54957_8018" cx="0" cy="0" r="1" gradientUnits="userSpaceOnUse" gradientTransform="translate(14 3.32143) rotate(90) scale(47.7668 86.4896)">
<stop offset="0.144824" stop-color="#6A5DB8"/>
<stop offset="0.995554" stop-color="#68C5A9"/>
</radialGradient>
<linearGradient id="paint1_linear_54957_8018" x1="14" y1="-19.6471" x2="14" y2="49.1765" gradientUnits="userSpaceOnUse">
<stop stop-color="#69B0AC"/>
<stop offset="0.760784" stop-color="#6A87B2"/>
</linearGradient>
</defs>
</svg>
