<svg width="543" height="200" viewBox="0 0 543 200" fill="none" xmlns="http://www.w3.org/2000/svg">
<path d="M49.6177 144.834H60.5131H49.6177ZM49.6177 150.282H60.5131H49.6177ZM49.6177 155.73H53.7035H49.6177ZM46.8938 166.625H63.237C64.7414 166.625 65.9609 165.406 65.9609 163.902V142.111C65.9609 140.606 64.7414 139.387 63.237 139.387H46.8938C45.3894 139.387 44.1699 140.606 44.1699 142.111V163.902C44.1699 165.406 45.3894 166.625 46.8938 166.625Z" fill="white"/>
<path d="M49.6177 144.834H60.5131M49.6177 150.282H60.5131M49.6177 155.73H53.7035M46.8938 166.625H63.237C64.7414 166.625 65.9609 165.406 65.9609 163.902V142.111C65.9609 140.606 64.7414 139.387 63.237 139.387H46.8938C45.3894 139.387 44.1699 140.606 44.1699 142.111V163.902C44.1699 165.406 45.3894 166.625 46.8938 166.625Z" stroke="#362C6B" stroke-width="2.5" stroke-linecap="round" stroke-linejoin="round"/>
<path d="M44.4477 139.448H55.3432H44.4477ZM44.4477 144.895H55.3432H44.4477ZM44.4477 150.343H48.5335H44.4477ZM41.7239 161.239H58.0671C59.5715 161.239 60.791 160.019 60.791 158.515V136.724C60.791 135.22 59.5715 134 58.0671 134H41.7239C40.2195 134 39 135.22 39 136.724V158.515C39 160.019 40.2195 161.239 41.7239 161.239Z" fill="white"/>
<path d="M44.4477 139.448H55.3432M44.4477 144.895H55.3432M44.4477 150.343H48.5335M41.7239 161.239H58.0671C59.5715 161.239 60.791 160.019 60.791 158.515V136.724C60.791 135.22 59.5715 134 58.0671 134H41.7239C40.2195 134 39 135.22 39 136.724V158.515C39 160.019 40.2195 161.239 41.7239 161.239Z" stroke="#362C6B" stroke-width="2.5" stroke-linecap="round" stroke-linejoin="round"/>
<path d="M49.6177 95.4516H60.5131H49.6177ZM49.6177 100.899H60.5131H49.6177ZM49.6177 106.347H53.7035H49.6177ZM46.8938 117.243H63.237C64.7414 117.243 65.9609 116.023 65.9609 114.519V92.7278C65.9609 91.2234 64.7414 90.0039 63.237 90.0039H46.8938C45.3894 90.0039 44.1699 91.2234 44.1699 92.7278V114.519C44.1699 116.023 45.3894 117.243 46.8938 117.243Z" fill="white"/>
<path d="M49.6177 95.4516H60.5131M49.6177 100.899H60.5131M49.6177 106.347H53.7035M46.8938 117.243H63.237C64.7414 117.243 65.9609 116.023 65.9609 114.519V92.7278C65.9609 91.2234 64.7414 90.0039 63.237 90.0039H46.8938C45.3894 90.0039 44.1699 91.2234 44.1699 92.7278V114.519C44.1699 116.023 45.3894 117.243 46.8938 117.243Z" stroke="#362C6B" stroke-width="2.5" stroke-linecap="round" stroke-linejoin="round"/>
<path d="M44.4477 90.0649H55.3432H44.4477ZM44.4477 95.5127H55.3432H44.4477ZM44.4477 100.96H48.5335H44.4477ZM41.7239 111.856H58.0671C59.5715 111.856 60.791 110.636 60.791 109.132V87.3411C60.791 85.8367 59.5715 84.6172 58.0671 84.6172H41.7239C40.2195 84.6172 39 85.8367 39 87.3411V109.132C39 110.636 40.2195 111.856 41.7239 111.856Z" fill="white"/>
<path d="M44.4477 90.0649H55.3432M44.4477 95.5127H55.3432M44.4477 100.96H48.5335M41.7239 111.856H58.0671C59.5715 111.856 60.791 110.636 60.791 109.132V87.3411C60.791 85.8367 59.5715 84.6172 58.0671 84.6172H41.7239C40.2195 84.6172 39 85.8367 39 87.3411V109.132C39 110.636 40.2195 111.856 41.7239 111.856Z" stroke="#362C6B" stroke-width="2.5" stroke-linecap="round" stroke-linejoin="round"/>
<path d="M49.6177 45.8345H60.5131H49.6177ZM49.6177 51.2822H60.5131H49.6177ZM49.6177 56.7299H53.7035H49.6177ZM46.8938 67.6254H63.237C64.7414 67.6254 65.9609 66.4059 65.9609 64.9016V43.1106C65.9609 41.6062 64.7414 40.3867 63.237 40.3867H46.8938C45.3894 40.3867 44.1699 41.6062 44.1699 43.1106V64.9016C44.1699 66.4059 45.3894 67.6254 46.8938 67.6254Z" fill="white"/>
<path d="M49.6177 45.8345H60.5131M49.6177 51.2822H60.5131M49.6177 56.7299H53.7035M46.8938 67.6254H63.237C64.7414 67.6254 65.9609 66.4059 65.9609 64.9016V43.1106C65.9609 41.6062 64.7414 40.3867 63.237 40.3867H46.8938C45.3894 40.3867 44.1699 41.6062 44.1699 43.1106V64.9016C44.1699 66.4059 45.3894 67.6254 46.8938 67.6254Z" stroke="#362C6B" stroke-width="2.5" stroke-linecap="round" stroke-linejoin="round"/>
<path d="M44.4477 40.4477H55.3432H44.4477ZM44.4477 45.8955H55.3432H44.4477ZM44.4477 51.3432H48.5335H44.4477ZM41.7239 62.2387H58.0671C59.5715 62.2387 60.791 61.0192 60.791 59.5148V37.7239C60.791 36.2195 59.5715 35 58.0671 35H41.7239C40.2195 35 39 36.2195 39 37.7239V59.5148C39 61.0192 40.2195 62.2387 41.7239 62.2387Z" fill="white"/>
<path d="M44.4477 40.4477H55.3432M44.4477 45.8955H55.3432M44.4477 51.3432H48.5335M41.7239 62.2387H58.0671C59.5715 62.2387 60.791 61.0192 60.791 59.5148V37.7239C60.791 36.2195 59.5715 35 58.0671 35H41.7239C40.2195 35 39 36.2195 39 37.7239V59.5148C39 61.0192 40.2195 62.2387 41.7239 62.2387Z" stroke="#362C6B" stroke-width="2.5" stroke-linecap="round" stroke-linejoin="round"/>
<path d="M419.391 87.4268C419.391 78.0379 427.002 70.4268 436.391 70.4268H472.536C481.925 70.4268 489.536 78.0379 489.536 87.4268V123.572C489.536 132.961 481.925 140.572 472.536 140.572H436.391C427.002 140.572 419.391 132.961 419.391 123.572V87.4268Z" fill="#362C6B"/>
<path fill-rule="evenodd" clip-rule="evenodd" d="M437.349 55C435.684 55 434.335 56.349 434.335 58.0131V61.8699C434.335 63.534 435.684 64.8831 437.349 64.8831C439.013 64.8831 440.362 63.534 440.362 61.8699V58.0131C440.362 56.349 439.013 55 437.349 55ZM437.349 146.117C435.684 146.117 434.335 147.466 434.335 149.13V152.987C434.335 154.651 435.684 156 437.349 156C439.013 156 440.362 154.651 440.362 152.987V149.13C440.362 147.466 439.013 146.117 437.349 146.117ZM468.565 58.0131C468.565 56.349 469.914 55 471.578 55C473.242 55 474.591 56.349 474.591 58.0131V61.8699C474.591 63.534 473.242 64.8831 471.578 64.8831C469.914 64.8831 468.565 63.534 468.565 61.8699V58.0131ZM471.578 146.117C469.914 146.117 468.565 147.466 468.565 149.13V152.987C468.565 154.651 469.914 156 471.578 156C473.242 156 474.591 154.651 474.591 152.987V149.13C474.591 147.466 473.242 146.117 471.578 146.117ZM451.45 58.0131C451.45 56.349 452.799 55 454.463 55C456.127 55 457.476 56.349 457.476 58.0131V61.8699C457.476 63.534 456.127 64.8831 454.463 64.8831C452.799 64.8831 451.45 63.534 451.45 61.8699V58.0131ZM454.463 146.117C452.799 146.117 451.45 147.466 451.45 149.13V152.987C451.45 154.651 452.799 156 454.463 156C456.127 156 457.476 154.651 457.476 152.987V149.13C457.476 147.466 456.127 146.117 454.463 146.117ZM413.844 88.3854C413.844 86.7213 412.495 85.3723 410.831 85.3723H406.974C405.31 85.3723 403.961 86.7213 403.961 88.3854C403.961 90.0495 405.31 91.3985 406.974 91.3985H410.831C412.495 91.3985 413.844 90.0495 413.844 88.3854ZM504.961 88.3854C504.961 86.7213 503.612 85.3723 501.948 85.3723H498.091C496.427 85.3723 495.078 86.7213 495.078 88.3854C495.078 90.0495 496.427 91.3985 498.091 91.3985H501.948C503.612 91.3985 504.961 90.0495 504.961 88.3854ZM501.948 119.601C503.612 119.601 504.961 120.95 504.961 122.615C504.961 124.279 503.612 125.628 501.948 125.628H498.091C496.427 125.628 495.078 124.279 495.078 122.615C495.078 120.95 496.427 119.601 498.091 119.601H501.948ZM413.844 122.614C413.844 120.95 412.495 119.601 410.831 119.601H406.974C405.31 119.601 403.961 120.95 403.961 122.614C403.961 124.279 405.31 125.628 406.974 125.628H410.831C412.495 125.628 413.844 124.279 413.844 122.614ZM501.948 102.487C503.612 102.487 504.961 103.836 504.961 105.5C504.961 107.164 503.612 108.513 501.948 108.513H498.091C496.427 108.513 495.078 107.164 495.078 105.5C495.078 103.836 496.427 102.487 498.091 102.487H501.948ZM413.844 105.5C413.844 103.836 412.495 102.487 410.831 102.487H406.974C405.31 102.487 403.961 103.836 403.961 105.5C403.961 107.164 405.31 108.513 406.974 108.513H410.831C412.495 108.513 413.844 107.164 413.844 105.5Z" fill="#362C6B"/>
<path fill-rule="evenodd" clip-rule="evenodd" d="M435.521 101.787C435.351 97.9273 437.278 94.2637 440.517 92.2416L449.651 86.5404C452.891 84.5184 456.938 84.4531 460.186 86.3917L468.695 91.471C471.646 93.2326 473.513 96.4007 473.667 99.9079L474.113 110.02C474.282 113.88 472.356 117.544 469.116 119.566L459.982 125.267C456.743 127.289 452.695 127.354 449.448 125.416L440.939 120.336C437.988 118.575 436.12 115.407 435.966 111.899L435.521 101.787ZM452.612 96.202C454.244 96.8639 455.875 97.639 457.441 98.4129L445.608 98.1744C444.846 98.1259 443.965 98.422 443.39 99.2159C443.265 99.3892 443.095 99.643 442.952 99.9409C442.83 100.195 442.619 100.697 442.641 101.312C442.832 106.992 442.79 114.538 444.383 118.521L442.244 117.073L442.244 117.062C440.522 115.855 439.448 113.89 439.353 111.728L438.907 101.615C438.794 99.0472 440.078 96.5815 442.269 95.2139C443.384 94.5182 444.849 94.2927 446.668 94.5049C448.484 94.717 450.512 95.3501 452.612 96.202ZM454.367 114.692L462.161 101.652L447.319 101.652L454.367 114.692ZM447.515 112.683C447.311 111.085 447.169 109.45 447.052 107.872L452.746 118.805C453.51 119.739 454.545 119.699 454.868 119.683C455.148 119.668 455.825 119.408 456.34 119.086C460.886 116.248 468.01 111.664 470.628 108.117L470.711 110.109L470.722 110.103L470.726 110.192C470.839 112.76 469.555 115.226 467.364 116.593L458.23 122.295C456.039 123.662 453.321 123.694 451.161 122.405C450.299 121.89 449.517 120.778 448.871 118.983C448.237 117.222 447.814 115.031 447.515 112.683ZM464.956 97.7275C460.237 95.1845 455.166 90.9643 449.516 90.6477C449.516 90.6477 450.452 90.1031 451.042 89.7379C451.184 89.6505 451.403 89.5127 451.403 89.5127C453.594 88.1451 456.312 88.113 458.473 89.4028L466.982 94.4821C468.941 95.6517 470.179 97.7511 470.281 100.08C470.333 101.259 469.796 102.635 468.613 104.212C467.445 105.771 465.777 107.351 463.893 108.894C462.942 109.674 461.951 110.431 460.964 111.161C460.583 111.424 460.202 111.683 459.825 111.938L466.018 101.837C466.45 101.18 466.652 100.232 466.254 99.3116C466.176 99.1319 466.059 98.8861 465.898 98.6396C465.757 98.4242 465.475 98.0357 465.013 97.7598C464.994 97.7486 464.975 97.7379 464.956 97.7275Z" fill="white"/>
<path d="M86.9609 56H144.461V104V154H87.9609" stroke="#362C6B" stroke-width="3"/>
<path d="M232.961 104L217.961 95.3397V112.66L232.961 104ZM86.9609 105.5H219.461V102.5H86.9609V105.5Z" fill="#362C6B"/>
<path d="M388.961 105L373.961 96.3397V113.66L388.961 105ZM303.961 106.5H375.461V103.5H303.961V106.5Z" fill="#362C6B"/>
<path d="M249 116.5V92.5L270 91.5V116.5H249Z" fill="white"/>
<path d="M275.5 123V86H289V123H275.5Z" fill="white"/>
<path d="M272.197 80.0203L244.757 85.2265C244.294 85.3146 243.961 85.7357 243.961 86.2065V122.773C243.961 123.244 244.294 123.665 244.757 123.753L272.197 128.959C272.258 128.971 272.32 128.99 272.381 128.99C272.607 128.99 272.817 128.921 272.993 128.775C273.219 128.588 273.361 128.301 273.361 128.01V80.9697C273.361 80.6787 273.219 80.3916 272.993 80.204C272.768 80.0164 272.484 79.9667 272.197 80.0203ZM275.5 86V92.7297H277.281V94.6897H275.5V99.5897H277.281V101.55H275.5V106.45H277.281V108.41H275.5V114.29H277.281V116.25H275.5V123H290.021C291.1 123 291.981 122.12 291.981 121.04V87.8297C291.981 86.7501 291.1 85.8697 290.021 85.8697L275.5 86ZM279.241 92.7297H287.081V94.6897H279.241V92.7297ZM250.515 95.3634H255.537L258.171 100.845C258.378 101.278 258.561 101.81 258.722 102.407H258.753C258.856 102.051 259.055 101.492 259.335 100.784L262.244 95.3634H266.838L261.356 104.428L266.991 113.677H262.122L258.937 107.705C258.818 107.483 258.695 107.074 258.569 106.48H258.538C258.477 106.76 258.332 107.196 258.11 107.767L254.925 113.677H250.025L255.874 104.52L250.515 95.3634ZM279.241 99.5897H287.081V101.55H279.241V99.5897ZM279.241 106.45H287.081V108.41H279.241V106.45ZM279.241 114.29H287.081V116.25H279.241V114.29Z" fill="#362C6B"/>
</svg>
