<svg width="517" height="175" viewBox="0 0 517 175" fill="none" xmlns="http://www.w3.org/2000/svg">
<rect x="10" y="10" width="497" height="35" rx="17.5" fill="#362C6B"/>
<rect x="10" y="70" width="252" height="35" rx="17.5" fill="#6C5FAD" fill-opacity="0.5"/>
<rect x="10" y="130" width="131" height="35" rx="17.5" fill="#7E6ED2" fill-opacity="0.2"/>
<path d="M497 160C497 157.239 499.239 155 502 155V155C504.761 155 507 157.239 507 160V160C507 162.761 504.761 165 502 165V165C499.239 165 497 162.761 497 160V160Z" fill="#E5E2F6"/>
<path d="M460 160C460 157.239 462.239 155 465 155V155C467.761 155 470 157.239 470 160V160C470 162.761 467.761 165 465 165V165C462.239 165 460 162.761 460 160V160Z" fill="#B6B0D7"/>
<path fill-rule="evenodd" clip-rule="evenodd" d="M428 155C425.239 155 423 157.239 423 160C423 162.761 425.239 165 428 165C430.761 165 433 162.761 433 160C433 157.239 430.761 155 428 155Z" fill="#362C6B"/>
<path fill-rule="evenodd" clip-rule="evenodd" d="M27.5 98C30.8208 98 33.7816 96.4584 35.7056 94.0518C34.634 92.7242 32.9933 91.875 31.1542 91.875H23.8465C22.0074 91.875 20.3666 92.7243 19.2949 94.052C21.2189 96.4584 24.1794 97.9999 27.5 98ZM22.7504 84.75C22.7504 82.1256 24.876 80 27.5004 80C30.1248 80 32.2504 82.1256 32.2504 84.75C32.2504 87.3744 30.1248 89.5 27.5004 89.5C24.876 89.5 22.7504 87.3744 22.7504 84.75Z" fill="white"/>
<rect x="17.5" y="77.5" width="20" height="20" rx="10" stroke="white"/>
<path fill-rule="evenodd" clip-rule="evenodd" d="M27.5 38C30.8208 38 33.7816 36.4584 35.7056 34.0518C34.634 32.7242 32.9933 31.875 31.1542 31.875H23.8465C22.0074 31.875 20.3666 32.7243 19.2949 34.052C21.2189 36.4584 24.1794 37.9999 27.5 38ZM22.7504 24.75C22.7504 22.1256 24.876 20 27.5004 20C30.1248 20 32.2504 22.1256 32.2504 24.75C32.2504 27.3744 30.1248 29.5 27.5004 29.5C24.876 29.5 22.7504 27.3744 22.7504 24.75Z" fill="white"/>
<rect x="17.5" y="17.5" width="20" height="20" rx="10" stroke="white"/>
<path fill-rule="evenodd" clip-rule="evenodd" d="M27.5 158C30.8208 158 33.7816 156.458 35.7056 154.052C34.634 152.724 32.9933 151.875 31.1542 151.875H23.8465C22.0074 151.875 20.3666 152.724 19.2949 154.052C21.2189 156.458 24.1794 158 27.5 158ZM22.7504 144.75C22.7504 142.126 24.876 140 27.5004 140C30.1248 140 32.2504 142.126 32.2504 144.75C32.2504 147.374 30.1248 149.5 27.5004 149.5C24.876 149.5 22.7504 147.374 22.7504 144.75Z" fill="white"/>
<rect x="17.5" y="137.5" width="20" height="20" rx="10" stroke="white"/>
<path d="M112.052 149.38C110.945 149.38 110.072 149.013 109.432 148.28C108.792 147.533 108.472 146.44 108.472 145C108.472 143.587 108.792 142.513 109.432 141.78C110.072 141.047 110.945 140.68 112.052 140.68C113.159 140.68 114.032 141.053 114.672 141.8C115.312 142.533 115.632 143.607 115.632 145.02C115.632 146.447 115.312 147.533 114.672 148.28C114.032 149.013 113.159 149.38 112.052 149.38ZM112.052 147.16C112.265 147.16 112.425 147.007 112.532 146.7C112.639 146.38 112.692 145.82 112.692 145.02C112.692 144.233 112.632 143.687 112.512 143.38C112.405 143.06 112.252 142.9 112.052 142.9C111.839 142.9 111.672 143.06 111.552 143.38C111.445 143.687 111.392 144.233 111.392 145.02C111.392 145.82 111.445 146.38 111.552 146.7C111.672 147.007 111.839 147.16 112.052 147.16ZM111.612 155L119.892 140.76H123.392L115.112 155H111.612ZM122.952 155.08C121.845 155.08 120.972 154.713 120.332 153.98C119.692 153.233 119.372 152.14 119.372 150.7C119.372 149.287 119.692 148.213 120.332 147.48C120.972 146.747 121.845 146.38 122.952 146.38C124.059 146.38 124.932 146.753 125.572 147.5C126.212 148.233 126.532 149.307 126.532 150.72C126.532 152.147 126.212 153.233 125.572 153.98C124.932 154.713 124.059 155.08 122.952 155.08ZM122.952 152.86C123.165 152.86 123.325 152.707 123.432 152.4C123.539 152.08 123.592 151.52 123.592 150.72C123.592 149.933 123.532 149.387 123.412 149.08C123.305 148.76 123.152 148.6 122.952 148.6C122.739 148.6 122.572 148.76 122.452 149.08C122.345 149.387 122.292 149.933 122.292 150.72C122.292 151.52 122.345 152.08 122.452 152.4C122.572 152.707 122.739 152.86 122.952 152.86Z" fill="white"/>
<path d="M233.052 89.38C231.945 89.38 231.072 89.0133 230.432 88.28C229.792 87.5333 229.472 86.44 229.472 85C229.472 83.5867 229.792 82.5133 230.432 81.78C231.072 81.0467 231.945 80.68 233.052 80.68C234.159 80.68 235.032 81.0533 235.672 81.8C236.312 82.5333 236.632 83.6067 236.632 85.02C236.632 86.4467 236.312 87.5333 235.672 88.28C235.032 89.0133 234.159 89.38 233.052 89.38ZM233.052 87.16C233.265 87.16 233.425 87.0067 233.532 86.7C233.639 86.38 233.692 85.82 233.692 85.02C233.692 84.2333 233.632 83.6867 233.512 83.38C233.405 83.06 233.252 82.9 233.052 82.9C232.839 82.9 232.672 83.06 232.552 83.38C232.445 83.6867 232.392 84.2333 232.392 85.02C232.392 85.82 232.445 86.38 232.552 86.7C232.672 87.0067 232.839 87.16 233.052 87.16ZM232.612 95L240.892 80.76H244.392L236.112 95H232.612ZM243.952 95.08C242.845 95.08 241.972 94.7133 241.332 93.98C240.692 93.2333 240.372 92.14 240.372 90.7C240.372 89.2867 240.692 88.2133 241.332 87.48C241.972 86.7467 242.845 86.38 243.952 86.38C245.059 86.38 245.932 86.7533 246.572 87.5C247.212 88.2333 247.532 89.3067 247.532 90.72C247.532 92.1467 247.212 93.2333 246.572 93.98C245.932 94.7133 245.059 95.08 243.952 95.08ZM243.952 92.86C244.165 92.86 244.325 92.7067 244.432 92.4C244.539 92.08 244.592 91.52 244.592 90.72C244.592 89.9333 244.532 89.3867 244.412 89.08C244.305 88.76 244.152 88.6 243.952 88.6C243.739 88.6 243.572 88.76 243.452 89.08C243.345 89.3867 243.292 89.9333 243.292 90.72C243.292 91.52 243.345 92.08 243.452 92.4C243.572 92.7067 243.739 92.86 243.952 92.86Z" fill="white"/>
<path d="M480.052 29.38C478.945 29.38 478.072 29.0133 477.432 28.28C476.792 27.5333 476.472 26.44 476.472 25C476.472 23.5867 476.792 22.5133 477.432 21.78C478.072 21.0467 478.945 20.68 480.052 20.68C481.159 20.68 482.032 21.0533 482.672 21.8C483.312 22.5333 483.632 23.6067 483.632 25.02C483.632 26.4467 483.312 27.5333 482.672 28.28C482.032 29.0133 481.159 29.38 480.052 29.38ZM480.052 27.16C480.265 27.16 480.425 27.0067 480.532 26.7C480.639 26.38 480.692 25.82 480.692 25.02C480.692 24.2333 480.632 23.6867 480.512 23.38C480.405 23.06 480.252 22.9 480.052 22.9C479.839 22.9 479.672 23.06 479.552 23.38C479.445 23.6867 479.392 24.2333 479.392 25.02C479.392 25.82 479.445 26.38 479.552 26.7C479.672 27.0067 479.839 27.16 480.052 27.16ZM479.612 35L487.892 20.76H491.392L483.112 35H479.612ZM490.952 35.08C489.845 35.08 488.972 34.7133 488.332 33.98C487.692 33.2333 487.372 32.14 487.372 30.7C487.372 29.2867 487.692 28.2133 488.332 27.48C488.972 26.7467 489.845 26.38 490.952 26.38C492.059 26.38 492.932 26.7533 493.572 27.5C494.212 28.2333 494.532 29.3067 494.532 30.72C494.532 32.1467 494.212 33.2333 493.572 33.98C492.932 34.7133 492.059 35.08 490.952 35.08ZM490.952 32.86C491.165 32.86 491.325 32.7067 491.432 32.4C491.539 32.08 491.592 31.52 491.592 30.72C491.592 29.9333 491.532 29.3867 491.412 29.08C491.305 28.76 491.152 28.6 490.952 28.6C490.739 28.6 490.572 28.76 490.452 29.08C490.345 29.3867 490.292 29.9333 490.292 30.72C490.292 31.52 490.345 32.08 490.452 32.4C490.572 32.7067 490.739 32.86 490.952 32.86Z" fill="white"/>
</svg>
