<svg width="492" height="155" viewBox="0 0 492 155" fill="none" xmlns="http://www.w3.org/2000/svg">
<path d="M209 60C209 49.5066 217.507 41 228 41H263C273.493 41 282 49.5066 282 60V95C282 105.493 273.493 114 263 114H228C217.507 114 209 105.493 209 95V60Z" fill="#362C6B"/>
<path d="M232.065 39.3169C239.485 31.8969 251.515 31.8969 258.935 39.3169L283.684 64.0656C291.104 71.4856 291.104 83.5157 283.684 90.9357L258.935 115.684C251.515 123.104 239.485 123.104 232.065 115.684L207.316 90.9357C199.896 83.5157 199.896 71.4856 207.316 64.0656L232.065 39.3169Z" fill="#362C6B"/>
<rect x="408" width="84" height="35" rx="17.5" fill="#362C6B"/>
<path d="M408 17H261C252.163 17 245 24.1634 245 33V41.5" stroke="#362C6B" stroke-width="2"/>
<rect y="61" width="84" height="35" rx="17.5" fill="#7E6ED2" fill-opacity="0.2"/>
<rect x="104" y="120" width="84" height="35" rx="17.5" fill="#6C5FAD" fill-opacity="0.5"/>
<path d="M245 114V121C245 129.837 237.837 137 229 137H188" stroke="#362C6B" stroke-width="2"/>
<rect x="408" y="120" width="84" height="35" rx="17.5" fill="#696195"/>
<path d="M84 79H209" stroke="#362C6B" stroke-width="2"/>
<path d="M282 79H381.5C390.337 79 397.5 86.1634 397.5 95V127C397.5 132.523 401.977 137 407.5 137V137" stroke="#362C6B" stroke-width="2"/>
<rect x="104" width="84" height="35" rx="17.5" fill="#F5F4F7"/>
<rect x="104.25" y="0.25" width="83.5" height="34.5" rx="17.25" stroke="#6A5DB8" stroke-opacity="0.2" stroke-width="0.5"/>
<rect width="84" height="35" rx="17.5" fill="#F5F4F7"/>
<rect x="0.25" y="0.25" width="83.5" height="34.5" rx="17.25" stroke="#6A5DB8" stroke-opacity="0.2" stroke-width="0.5"/>
<g filter="url(#filter0_b_54960_8217)">
<rect x="304" width="84" height="35" rx="17.5" fill="#F5F4F7" fill-opacity="0.5"/>
<rect x="304.25" y="0.25" width="83.5" height="34.5" rx="17.25" stroke="#6A5DB8" stroke-opacity="0.2" stroke-width="0.5"/>
</g>
<g filter="url(#filter1_b_54960_8217)">
<rect x="104" y="61" width="84" height="35" rx="17.5" fill="#F5F4F7" fill-opacity="0.5"/>
<rect x="104.25" y="61.25" width="83.5" height="34.5" rx="17.25" stroke="#6A5DB8" stroke-opacity="0.2" stroke-width="0.5"/>
</g>
<rect x="408" y="61" width="84" height="35" rx="17.5" fill="#F5F4F7"/>
<rect x="408.25" y="61.25" width="83.5" height="34.5" rx="17.25" stroke="#6A5DB8" stroke-opacity="0.2" stroke-width="0.5"/>
<g filter="url(#filter2_b_54960_8217)">
<rect x="304" y="61" width="84" height="35" rx="17.5" fill="#F5F4F7" fill-opacity="0.5"/>
<rect x="304.25" y="61.25" width="83.5" height="34.5" rx="17.25" stroke="#6A5DB8" stroke-opacity="0.2" stroke-width="0.5"/>
</g>
<rect y="120" width="84" height="35" rx="17.5" fill="#F5F4F7"/>
<rect x="0.25" y="120.25" width="83.5" height="34.5" rx="17.25" stroke="#6A5DB8" stroke-opacity="0.2" stroke-width="0.5"/>
<rect x="304" y="120" width="84" height="35" rx="17.5" fill="#F5F4F7"/>
<rect x="304.25" y="120.25" width="83.5" height="34.5" rx="17.25" stroke="#6A5DB8" stroke-opacity="0.2" stroke-width="0.5"/>
<path fill-rule="evenodd" clip-rule="evenodd" d="M226.542 73.7871C226.373 69.9273 228.299 66.2637 231.539 64.2416L240.673 58.5404C243.912 56.5184 247.96 56.4531 251.207 58.3917L259.716 63.471C262.667 65.2326 264.535 68.4007 264.689 71.9079L265.134 82.0203C265.304 85.8801 263.377 89.5437 260.138 91.5657L251.004 97.2669C247.764 99.289 243.717 99.3543 240.469 97.4156L231.96 92.3364C229.009 90.5748 227.142 87.4067 226.988 83.8995L226.542 73.7871ZM243.633 68.202C245.265 68.8639 246.897 69.639 248.463 70.4129L236.63 70.1744C235.867 70.1259 234.987 70.422 234.412 71.2159C234.286 71.3892 234.117 71.643 233.974 71.9409C233.852 72.1949 233.641 72.6973 233.663 73.3119C233.853 78.9916 233.812 86.5384 235.404 90.5208L233.266 89.0734L233.266 89.0615C231.543 87.8555 230.469 85.8904 230.374 83.7275L229.929 73.6151C229.816 71.0472 231.1 68.5815 233.291 67.2139C234.405 66.5182 235.871 66.2927 237.689 66.5049C239.506 66.717 241.533 67.3501 243.633 68.202ZM245.389 86.6916L253.183 73.6525L238.341 73.6524L245.389 86.6916ZM238.536 84.683C238.332 83.0847 238.19 81.45 238.073 79.8717L243.767 90.8048C244.532 91.7391 245.566 91.6994 245.889 91.6828C246.17 91.6684 246.846 91.4077 247.361 91.0865C251.908 88.2484 259.032 83.6639 261.65 80.1172L261.733 82.1095L261.744 82.1028L261.748 82.1922C261.861 84.7602 260.577 87.2259 258.386 88.5935L249.252 94.2947C247.061 95.6623 244.343 95.6944 242.182 94.4045C241.321 93.8904 240.539 92.778 239.892 90.9831C239.258 89.222 238.835 87.0311 238.536 84.683ZM255.977 69.7275C251.258 67.1845 246.187 62.9643 240.537 62.6477C240.537 62.6477 241.474 62.1031 242.064 61.7379C242.205 61.6506 242.425 61.5127 242.425 61.5127C244.616 60.1451 247.334 60.113 249.494 61.4028L258.003 66.4821C259.963 67.6517 261.2 69.7511 261.302 72.0798C261.354 73.2586 260.817 74.6351 259.635 76.2125C258.466 77.7711 256.798 79.3505 254.915 80.8942C253.963 81.6738 252.973 82.4313 251.985 83.1611C251.604 83.4243 251.224 83.6834 250.846 83.9384L257.04 73.8367C257.471 73.1801 257.674 72.2322 257.275 71.3116C257.198 71.1319 257.08 70.8861 256.919 70.6396C256.779 70.4242 256.497 70.0357 256.034 69.7598C256.015 69.7486 255.997 69.7379 255.977 69.7275Z" fill="white"/>
<defs>
<filter id="filter0_b_54960_8217" x="294" y="-10" width="104" height="55" filterUnits="userSpaceOnUse" color-interpolation-filters="sRGB">
<feFlood flood-opacity="0" result="BackgroundImageFix"/>
<feGaussianBlur in="BackgroundImageFix" stdDeviation="5"/>
<feComposite in2="SourceAlpha" operator="in" result="effect1_backgroundBlur_54960_8217"/>
<feBlend mode="normal" in="SourceGraphic" in2="effect1_backgroundBlur_54960_8217" result="shape"/>
</filter>
<filter id="filter1_b_54960_8217" x="94" y="51" width="104" height="55" filterUnits="userSpaceOnUse" color-interpolation-filters="sRGB">
<feFlood flood-opacity="0" result="BackgroundImageFix"/>
<feGaussianBlur in="BackgroundImageFix" stdDeviation="5"/>
<feComposite in2="SourceAlpha" operator="in" result="effect1_backgroundBlur_54960_8217"/>
<feBlend mode="normal" in="SourceGraphic" in2="effect1_backgroundBlur_54960_8217" result="shape"/>
</filter>
<filter id="filter2_b_54960_8217" x="294" y="51" width="104" height="55" filterUnits="userSpaceOnUse" color-interpolation-filters="sRGB">
<feFlood flood-opacity="0" result="BackgroundImageFix"/>
<feGaussianBlur in="BackgroundImageFix" stdDeviation="5"/>
<feComposite in2="SourceAlpha" operator="in" result="effect1_backgroundBlur_54960_8217"/>
<feBlend mode="normal" in="SourceGraphic" in2="effect1_backgroundBlur_54960_8217" result="shape"/>
</filter>
</defs>
</svg>
