<svg width="543" height="200" viewBox="0 0 543 200" fill="none" xmlns="http://www.w3.org/2000/svg">
<path d="M234 82C234 71.5066 242.507 63 253 63H288C298.493 63 307 71.5066 307 82V117C307 127.493 298.493 136 288 136H253C242.507 136 234 127.493 234 117V82Z" fill="#362C6B"/>
<path fill-rule="evenodd" clip-rule="evenodd" d="M251.542 95.7871C251.373 91.9273 253.299 88.2637 256.539 86.2416L265.673 80.5404C268.912 78.5184 272.96 78.4531 276.207 80.3917L284.716 85.471C287.667 87.2326 289.535 90.4007 289.689 93.9079L290.134 104.02C290.304 107.88 288.377 111.544 285.138 113.566L276.004 119.267C272.764 121.289 268.717 121.354 265.469 119.416L256.96 114.336C254.009 112.575 252.142 109.407 251.988 105.899L251.542 95.7871ZM268.633 90.202C270.265 90.8639 271.897 91.639 273.463 92.4129L261.63 92.1744C260.867 92.1259 259.987 92.422 259.412 93.2159C259.286 93.3892 259.117 93.643 258.974 93.9409C258.852 94.1949 258.641 94.6973 258.663 95.3119C258.853 100.992 258.812 108.538 260.404 112.521L258.266 111.073L258.266 111.062C256.543 109.855 255.469 107.89 255.374 105.728L254.929 95.6151C254.816 93.0472 256.1 90.5815 258.291 89.2139C259.405 88.5182 260.871 88.2927 262.689 88.5049C264.506 88.717 266.533 89.3501 268.633 90.202ZM270.389 108.692L278.183 95.6525L263.341 95.6524L270.389 108.692ZM263.536 106.683C263.332 105.085 263.19 103.45 263.073 101.872L268.767 112.805C269.532 113.739 270.566 113.699 270.889 113.683C271.17 113.668 271.846 113.408 272.361 113.086C276.908 110.248 284.032 105.664 286.65 102.117L286.733 104.109L286.744 104.103L286.748 104.192C286.861 106.76 285.577 109.226 283.386 110.593L274.252 116.295C272.061 117.662 269.343 117.694 267.182 116.405C266.321 115.89 265.539 114.778 264.892 112.983C264.258 111.222 263.835 109.031 263.536 106.683ZM280.977 91.7275C276.258 89.1845 271.187 84.9643 265.537 84.6477C265.537 84.6477 266.474 84.1031 267.064 83.7379C267.205 83.6505 267.425 83.5127 267.425 83.5127C269.616 82.1451 272.334 82.113 274.494 83.4028L283.003 88.4821C284.963 89.6517 286.2 91.7511 286.302 94.0798C286.354 95.2586 285.817 96.6351 284.635 98.2125C283.466 99.7711 281.798 101.351 279.915 102.894C278.963 103.674 277.973 104.431 276.985 105.161C276.604 105.424 276.224 105.683 275.846 105.938L282.04 95.8367C282.471 95.1801 282.674 94.2322 282.275 93.3116C282.198 93.1319 282.08 92.8861 281.919 92.6396C281.779 92.4242 281.497 92.0357 281.034 91.7598C281.016 91.7486 280.997 91.7379 280.977 91.7275Z" fill="white"/>
<rect x="129" y="22" width="84" height="35" rx="17.5" fill="#362C6B" fill-opacity="0.05"/>
<rect x="129.5" y="22.5" width="83" height="34" rx="17" stroke="#6A5DB8" stroke-opacity="0.31"/>
<rect x="433" y="22" width="84" height="35" rx="17.5" fill="#362C6B"/>
<path d="M433 39H286C277.163 39 270 46.1634 270 55V63.5" stroke="black" stroke-opacity="0.8" stroke-width="2"/>
<rect x="25" y="22" width="84" height="35" rx="17.5" fill="#362C6B" fill-opacity="0.05"/>
<rect x="25.5" y="22.5" width="83" height="34" rx="17" stroke="#6A5DB8" stroke-opacity="0.31"/>
<rect x="329" y="22" width="84" height="35" rx="17.5" fill="#362C6B" fill-opacity="0.05"/>
<rect x="329.5" y="22.5" width="83" height="34" rx="17" stroke="#6A5DB8" stroke-opacity="0.31"/>
<rect x="129" y="83" width="84" height="35" rx="17.5" fill="#362C6B" fill-opacity="0.05"/>
<rect x="129.5" y="83.5" width="83" height="34" rx="17" stroke="#6A5DB8" stroke-opacity="0.31"/>
<rect x="433" y="83" width="84" height="35" rx="17.5" fill="#362C6B" fill-opacity="0.05"/>
<rect x="433.5" y="83.5" width="83" height="34" rx="17" stroke="#6A5DB8" stroke-opacity="0.31"/>
<rect x="25" y="83" width="84" height="35" rx="17.5" fill="#362C6B" fill-opacity="0.2"/>
<rect x="329" y="83" width="84" height="35" rx="17.5" fill="#362C6B" fill-opacity="0.05"/>
<rect x="329.5" y="83.5" width="83" height="34" rx="17" stroke="#6A5DB8" stroke-opacity="0.31"/>
<rect x="129" y="142" width="84" height="35" rx="17.5" fill="#362C6B" fill-opacity="0.5"/>
<path d="M270 136V143C270 151.837 262.837 159 254 159H213" stroke="black" stroke-opacity="0.8" stroke-width="2"/>
<rect x="433" y="142" width="84" height="35" rx="17.5" fill="#362C6B" fill-opacity="0.8"/>
<rect x="25" y="142" width="84" height="35" rx="17.5" fill="#362C6B" fill-opacity="0.05"/>
<rect x="25.5" y="142.5" width="83" height="34" rx="17" stroke="#6A5DB8" stroke-opacity="0.31"/>
<rect x="329" y="142" width="84" height="35" rx="17.5" fill="#362C6B" fill-opacity="0.05"/>
<rect x="329.5" y="142.5" width="83" height="34" rx="17" stroke="#6A5DB8" stroke-opacity="0.31"/>
<path d="M109 101H234" stroke="black" stroke-opacity="0.8" stroke-width="2"/>
<path d="M307 101H406.5C415.337 101 422.5 108.163 422.5 117V149C422.5 154.523 426.977 159 432.5 159V159" stroke="black" stroke-opacity="0.8" stroke-width="2"/>
</svg>
