<svg width="486" height="152" viewBox="0 0 486 152" fill="none" xmlns="http://www.w3.org/2000/svg">
<path d="M20.6177 119.834H31.5131ZM20.6177 125.282H31.5131ZM20.6177 130.73H24.7035ZM17.8938 141.625H34.237C35.7414 141.625 36.9609 140.406 36.9609 138.902V117.111C36.9609 115.606 35.7414 114.387 34.237 114.387H17.8938C16.3894 114.387 15.1699 115.606 15.1699 117.111V138.902C15.1699 140.406 16.3894 141.625 17.8938 141.625Z" fill="white"/>
<path d="M20.6177 119.834H31.5131M20.6177 125.282H31.5131M20.6177 130.73H24.7035M17.8938 141.625H34.237C35.7414 141.625 36.9609 140.406 36.9609 138.902V117.111C36.9609 115.606 35.7414 114.387 34.237 114.387H17.8938C16.3894 114.387 15.1699 115.606 15.1699 117.111V138.902C15.1699 140.406 16.3894 141.625 17.8938 141.625Z" stroke="#362C6B" stroke-width="2.5" stroke-linecap="round" stroke-linejoin="round"/>
<path d="M15.4477 114.448H26.3432ZM15.4477 119.895H26.3432ZM15.4477 125.343H19.5335ZM12.7239 136.239H29.0671C30.5715 136.239 31.791 135.019 31.791 133.515V111.724C31.791 110.22 30.5715 109 29.0671 109H12.7239C11.2195 109 10 110.22 10 111.724V133.515C10 135.019 11.2195 136.239 12.7239 136.239Z" fill="white"/>
<path d="M15.4477 114.448H26.3432M15.4477 119.895H26.3432M15.4477 125.343H19.5335M12.7239 136.239H29.0671C30.5715 136.239 31.791 135.019 31.791 133.515V111.724C31.791 110.22 30.5715 109 29.0671 109H12.7239C11.2195 109 10 110.22 10 111.724V133.515C10 135.019 11.2195 136.239 12.7239 136.239Z" stroke="#362C6B" stroke-width="2.5" stroke-linecap="round" stroke-linejoin="round"/>
<path d="M20.6177 70.4516H31.5131ZM20.6177 75.8994H31.5131ZM20.6177 81.3471H24.7035ZM17.8938 92.2426H34.237C35.7414 92.2426 36.9609 91.0231 36.9609 89.5187V67.7278C36.9609 66.2234 35.7414 65.0039 34.237 65.0039H17.8938C16.3894 65.0039 15.1699 66.2234 15.1699 67.7278V89.5187C15.1699 91.0231 16.3894 92.2426 17.8938 92.2426Z" fill="white"/>
<path d="M20.6177 70.4516H31.5131M20.6177 75.8994H31.5131M20.6177 81.3471H24.7035M17.8938 92.2426H34.237C35.7414 92.2426 36.9609 91.0231 36.9609 89.5187V67.7278C36.9609 66.2234 35.7414 65.0039 34.237 65.0039H17.8938C16.3894 65.0039 15.1699 66.2234 15.1699 67.7278V89.5187C15.1699 91.0231 16.3894 92.2426 17.8938 92.2426Z" stroke="#362C6B" stroke-width="2.5" stroke-linecap="round" stroke-linejoin="round"/>
<path d="M15.4477 65.0649H26.3432ZM15.4477 70.5127H26.3432ZM15.4477 75.9604H19.5335ZM12.7239 86.8559H29.0671C30.5715 86.8559 31.791 85.6364 31.791 84.132V62.3411C31.791 60.8367 30.5715 59.6172 29.0671 59.6172H12.7239C11.2195 59.6172 10 60.8367 10 62.3411V84.132C10 85.6364 11.2195 86.8559 12.7239 86.8559Z" fill="white"/>
<path d="M15.4477 65.0649H26.3432M15.4477 70.5127H26.3432M15.4477 75.9604H19.5335M12.7239 86.8559H29.0671C30.5715 86.8559 31.791 85.6364 31.791 84.132V62.3411C31.791 60.8367 30.5715 59.6172 29.0671 59.6172H12.7239C11.2195 59.6172 10 60.8367 10 62.3411V84.132C10 85.6364 11.2195 86.8559 12.7239 86.8559Z" stroke="#362C6B" stroke-width="2.5" stroke-linecap="round" stroke-linejoin="round"/>
<path d="M20.6177 20.8345H31.5131ZM20.6177 26.2822H31.5131ZM20.6177 31.7299H24.7035ZM17.8938 42.6254H34.237C35.7414 42.6254 36.9609 41.4059 36.9609 39.9016V18.1106C36.9609 16.6062 35.7414 15.3867 34.237 15.3867H17.8938C16.3894 15.3867 15.1699 16.6062 15.1699 18.1106V39.9016C15.1699 41.4059 16.3894 42.6254 17.8938 42.6254Z" fill="white"/>
<path d="M20.6177 20.8345H31.5131M20.6177 26.2822H31.5131M20.6177 31.7299H24.7035M17.8938 42.6254H34.237C35.7414 42.6254 36.9609 41.4059 36.9609 39.9016V18.1106C36.9609 16.6062 35.7414 15.3867 34.237 15.3867H17.8938C16.3894 15.3867 15.1699 16.6062 15.1699 18.1106V39.9016C15.1699 41.4059 16.3894 42.6254 17.8938 42.6254Z" stroke="#362C6B" stroke-width="2.5" stroke-linecap="round" stroke-linejoin="round"/>
<path d="M15.4477 15.4477H26.3432ZM15.4477 20.8955H26.3432ZM15.4477 26.3432H19.5335ZM12.7239 37.2387H29.0671C30.5715 37.2387 31.791 36.0192 31.791 34.5148V12.7239C31.791 11.2195 30.5715 10 29.0671 10H12.7239C11.2195 10 10 11.2195 10 12.7239V34.5148C10 36.0192 11.2195 37.2387 12.7239 37.2387Z" fill="white"/>
<path d="M15.4477 15.4477H26.3432M15.4477 20.8955H26.3432M15.4477 26.3432H19.5335M12.7239 37.2387H29.0671C30.5715 37.2387 31.791 36.0192 31.791 34.5148V12.7239C31.791 11.2195 30.5715 10 29.0671 10H12.7239C11.2195 10 10 11.2195 10 12.7239V34.5148C10 36.0192 11.2195 37.2387 12.7239 37.2387Z" stroke="#362C6B" stroke-width="2.5" stroke-linecap="round" stroke-linejoin="round"/>
<path d="M390.391 62.4268C390.391 53.0379 398.002 45.4268 407.391 45.4268H443.536C452.925 45.4268 460.536 53.0379 460.536 62.4268V98.5723C460.536 107.961 452.925 115.572 443.536 115.572H407.391C398.002 115.572 390.391 107.961 390.391 98.5723V62.4268Z" fill="#362C6B"/>
<path fill-rule="evenodd" clip-rule="evenodd" d="M408.349 30C406.684 30 405.335 31.349 405.335 33.0131V36.8699C405.335 38.534 406.684 39.8831 408.349 39.8831C410.013 39.8831 411.362 38.534 411.362 36.8699V33.0131C411.362 31.349 410.013 30 408.349 30ZM408.349 121.117C406.684 121.117 405.335 122.466 405.335 124.13V127.987C405.335 129.651 406.684 131 408.349 131C410.013 131 411.362 129.651 411.362 127.987V124.13C411.362 122.466 410.013 121.117 408.349 121.117ZM439.565 33.0131C439.565 31.349 440.914 30 442.578 30C444.242 30 445.591 31.349 445.591 33.0131V36.8699C445.591 38.534 444.242 39.8831 442.578 39.8831C440.914 39.8831 439.565 38.534 439.565 36.8699V33.0131ZM442.578 121.117C440.914 121.117 439.565 122.466 439.565 124.13V127.987C439.565 129.651 440.914 131 442.578 131C444.242 131 445.591 129.651 445.591 127.987V124.13C445.591 122.466 444.242 121.117 442.578 121.117ZM422.45 33.0131C422.45 31.349 423.799 30 425.463 30C427.127 30 428.476 31.349 428.476 33.0131V36.8699C428.476 38.534 427.127 39.8831 425.463 39.8831C423.799 39.8831 422.45 38.534 422.45 36.8699V33.0131ZM425.463 121.117C423.799 121.117 422.45 122.466 422.45 124.13V127.987C422.45 129.651 423.799 131 425.463 131C427.127 131 428.476 129.651 428.476 127.987V124.13C428.476 122.466 427.127 121.117 425.463 121.117ZM384.844 63.3854C384.844 61.7213 383.495 60.3723 381.831 60.3723H377.974C376.31 60.3723 374.961 61.7213 374.961 63.3854C374.961 65.0495 376.31 66.3985 377.974 66.3985H381.831C383.495 66.3985 384.844 65.0495 384.844 63.3854ZM475.961 63.3854C475.961 61.7213 474.612 60.3723 472.948 60.3723H469.091C467.427 60.3723 466.078 61.7213 466.078 63.3854C466.078 65.0495 467.427 66.3985 469.091 66.3985H472.948C474.612 66.3985 475.961 65.0495 475.961 63.3854ZM472.948 94.6014C474.612 94.6014 475.961 95.9504 475.961 97.6145C475.961 99.2786 474.612 100.628 472.948 100.628H469.091C467.427 100.628 466.078 99.2786 466.078 97.6145C466.078 95.9504 467.427 94.6014 469.091 94.6014H472.948ZM384.844 97.6145C384.844 95.9504 383.495 94.6014 381.831 94.6014H377.974C376.31 94.6014 374.961 95.9504 374.961 97.6145C374.961 99.2786 376.31 100.628 377.974 100.628H381.831C383.495 100.628 384.844 99.2786 384.844 97.6145ZM472.948 77.4868C474.612 77.4868 475.961 78.8358 475.961 80.4999C475.961 82.164 474.612 83.5131 472.948 83.5131H469.091C467.427 83.5131 466.078 82.164 466.078 80.4999C466.078 78.8358 467.427 77.4868 469.091 77.4868H472.948ZM384.844 80.4999C384.844 78.8358 383.495 77.4868 381.831 77.4868H377.974C376.31 77.4868 374.961 78.8358 374.961 80.4999C374.961 82.164 376.31 83.5131 377.974 83.5131H381.831C383.495 83.5131 384.844 82.164 384.844 80.4999Z" fill="#362C6B"/>
<path fill-rule="evenodd" clip-rule="evenodd" d="M406.521 76.7871C406.351 72.9273 408.278 69.2637 411.517 67.2416L420.651 61.5404C423.891 59.5184 427.938 59.4531 431.186 61.3917L439.695 66.471C442.646 68.2326 444.513 71.4007 444.667 74.9079L445.113 85.0203C445.282 88.8801 443.356 92.5437 440.116 94.5657L430.982 100.267C427.743 102.289 423.695 102.354 420.448 100.416L411.939 95.3364C408.988 93.5748 407.12 90.4067 406.966 86.8995L406.521 76.7871ZM423.612 71.202C425.244 71.8639 426.875 72.639 428.441 73.4129L416.608 73.1744C415.846 73.1259 414.965 73.422 414.39 74.2159C414.265 74.3892 414.095 74.643 413.952 74.9409C413.83 75.1949 413.619 75.6973 413.641 76.3119C413.832 81.9916 413.79 89.5384 415.383 93.5208L413.244 92.0734L413.244 92.0615C411.522 90.8555 410.448 88.8904 410.353 86.7275L409.907 76.6151C409.794 74.0472 411.078 71.5815 413.269 70.2139C414.384 69.5182 415.849 69.2927 417.668 69.5049C419.484 69.717 421.512 70.3501 423.612 71.202ZM425.367 89.6916L433.161 76.6525L418.319 76.6524L425.367 89.6916ZM418.515 87.683C418.311 86.0847 418.169 84.45 418.052 82.8717L423.746 93.8048C424.51 94.7391 425.545 94.6994 425.868 94.6828C426.148 94.6684 426.825 94.4077 427.34 94.0865C431.886 91.2484 439.01 86.6639 441.628 83.1172L441.711 85.1095L441.722 85.1028L441.726 85.1922C441.839 87.7602 440.555 90.2259 438.364 91.5935L429.23 97.2947C427.039 98.6623 424.321 98.6944 422.161 97.4045C421.299 96.8904 420.517 95.778 419.871 93.9831C419.237 92.222 418.814 90.0311 418.515 87.683ZM435.956 72.7275C431.237 70.1845 426.166 65.9643 420.516 65.6477C420.516 65.6477 421.452 65.1031 422.042 64.7379C422.184 64.6506 422.403 64.5127 422.403 64.5127C424.594 63.1451 427.312 63.113 429.473 64.4028L437.982 69.4821C439.941 70.6517 441.179 72.7511 441.281 75.0798C441.333 76.2586 440.796 77.6351 439.613 79.2125C438.445 80.7711 436.777 82.3505 434.893 83.8942C433.942 84.6738 432.951 85.4313 431.964 86.1611C431.583 86.4243 431.202 86.6834 430.825 86.9384L437.018 76.8367C437.45 76.1801 437.652 75.2322 437.254 74.3116C437.176 74.1319 437.059 73.8861 436.898 73.6396C436.757 73.4242 436.475 73.0357 436.013 72.7598C435.994 72.7486 435.975 72.7379 435.956 72.7275Z" fill="white"/>
<path d="M37 30C36.4477 30 36 30.4477 36 31C36 31.5523 36.4477 32 37 32V30ZM37 32H67.4609V30H37V32ZM65.4609 128H38V130H65.4609V128ZM114.461 79C114.461 106.062 92.5229 128 65.4609 128V130C93.6275 130 116.461 107.167 116.461 79H114.461ZM67.4609 32C93.4183 32 114.461 53.0426 114.461 79H116.461C116.461 51.938 94.5229 30 67.4609 30V32Z" fill="url(#paint0_linear_54977_8701)"/>
<path d="M263 78C262.448 78 262 78.4477 262 79C262 79.5523 262.448 80 263 80L263 78ZM360 79L350 73.2265L350 84.7735L360 79ZM263 80L351 80L351 78L263 78L263 80Z" fill="url(#paint1_linear_54977_8701)"/>
<path d="M37 78C36.4477 78 36 78.4477 36 79C36 79.5523 36.4477 80 37 80V78ZM201 79L191 73.2265V84.7735L201 79ZM37 80H192V78H37V80Z" fill="url(#paint2_linear_54977_8701)"/>
<path d="M220 91.5V67.5L241 66.5V91.5H220Z" fill="white"/>
<path d="M246.5 98V61H260V98H246.5Z" fill="white"/>
<path d="M243.197 55.0203L215.757 60.2265C215.294 60.3146 214.961 60.7357 214.961 61.2065V97.7728C214.961 98.2436 215.294 98.6647 215.757 98.7528L243.197 103.959C243.258 103.971 243.32 103.99 243.381 103.99C243.607 103.99 243.817 103.921 243.993 103.775C244.219 103.588 244.361 103.301 244.361 103.01V55.9697C244.361 55.6787 244.219 55.3916 243.993 55.204C243.768 55.0164 243.484 54.9667 243.197 55.0203ZM246.5 61V67.7297H248.281V69.6897H246.5V74.5897H248.281V76.5497H246.5V81.4497H248.281V83.4097H246.5V89.2896H248.281V91.2496H246.5V98H261.021C262.1 98 262.981 97.1195 262.981 96.04V62.8297C262.981 61.7501 262.1 60.8697 261.021 60.8697L246.5 61ZM250.241 67.7297H258.081V69.6897H250.241V67.7297ZM221.515 70.3634H226.537L229.171 75.8453C229.378 76.2779 229.561 76.81 229.722 77.4072H229.753C229.856 77.0511 230.055 76.4922 230.335 75.784L233.244 70.3634H237.838L232.356 79.4284L237.991 88.6772H233.122L229.937 82.7053C229.818 82.4832 229.695 82.0736 229.569 81.4803H229.538C229.477 81.7597 229.332 82.1961 229.11 82.7665L225.925 88.6772H221.025L226.874 79.5203L221.515 70.3634ZM250.241 74.5897H258.081V76.5497H250.241V74.5897ZM250.241 81.4497H258.081V83.4097H250.241V81.4497ZM250.241 89.2896H258.081V91.2496H250.241V89.2896Z" fill="#362C6B"/>
<path d="M113.379 76.6203C114.55 75.4488 116.45 75.4488 117.621 76.6203L117.879 76.878C119.051 78.0496 119.051 79.9491 117.879 81.1206L117.621 81.3783C116.45 82.5499 114.55 82.5499 113.379 81.3783L113.121 81.1206C111.949 79.9491 111.949 78.0496 113.121 76.878L113.379 76.6203Z" fill="#9B95BD"/>
<defs>
<linearGradient id="paint0_linear_54977_8701" x1="115" y1="80" x2="32.5" y2="80" gradientUnits="userSpaceOnUse">
<stop stop-color="#9B95BD"/>
<stop offset="0.931949" stop-color="#9B95BD" stop-opacity="0"/>
</linearGradient>
<linearGradient id="paint1_linear_54977_8701" x1="356.372" y1="79" x2="263.026" y2="79" gradientUnits="userSpaceOnUse">
<stop offset="0.427693" stop-color="#9B95BD"/>
<stop offset="1" stop-color="#9B95BD" stop-opacity="0"/>
</linearGradient>
<linearGradient id="paint2_linear_54977_8701" x1="195.651" y1="79" x2="34" y2="79" gradientUnits="userSpaceOnUse">
<stop offset="0.584504" stop-color="#9B95BD"/>
<stop offset="0.983498" stop-color="#9B95BD" stop-opacity="0"/>
</linearGradient>
</defs>
</svg>
