<svg width="497" height="155" viewBox="0 0 497 155" fill="none" xmlns="http://www.w3.org/2000/svg">
<rect width="497" height="35" rx="17.5" fill="#362C6B"/>
<rect y="60" width="252" height="35" rx="17.5" fill="#6C5FAD" fill-opacity="0.5"/>
<rect y="120" width="131" height="35" rx="17.5" fill="#7E6ED2" fill-opacity="0.2"/>
<path d="M487 150C487 147.239 489.239 145 492 145V145C494.761 145 497 147.239 497 150V150C497 152.761 494.761 155 492 155V155C489.239 155 487 152.761 487 150V150Z" fill="#E5E2F6"/>
<path d="M450 150C450 147.239 452.239 145 455 145V145C457.761 145 460 147.239 460 150V150C460 152.761 457.761 155 455 155V155C452.239 155 450 152.761 450 150V150Z" fill="#B6B0D7"/>
<path fill-rule="evenodd" clip-rule="evenodd" d="M418 145C415.239 145 413 147.239 413 150C413 152.761 415.239 155 418 155C420.761 155 423 152.761 423 150C423 147.239 420.761 145 418 145Z" fill="#362C6B"/>
<path fill-rule="evenodd" clip-rule="evenodd" d="M17.5 88C20.8208 88 23.7816 86.4584 25.7056 84.0518C24.634 82.7242 22.9933 81.875 21.1542 81.875H13.8465C12.0074 81.875 10.3666 82.7243 9.29492 84.052C11.2189 86.4584 14.1794 87.9999 17.5 88ZM12.7504 74.75C12.7504 72.1256 14.876 70 17.5004 70C20.1248 70 22.2504 72.1256 22.2504 74.75C22.2504 77.3744 20.1248 79.5 17.5004 79.5C14.876 79.5 12.7504 77.3744 12.7504 74.75Z" fill="white"/>
<rect x="7.5" y="67.5" width="20" height="20" rx="10" stroke="white"/>
<path fill-rule="evenodd" clip-rule="evenodd" d="M17.5 28C20.8208 28 23.7816 26.4584 25.7056 24.0518C24.634 22.7242 22.9933 21.875 21.1542 21.875H13.8465C12.0074 21.875 10.3666 22.7243 9.29492 24.052C11.2189 26.4584 14.1794 27.9999 17.5 28ZM12.7504 14.75C12.7504 12.1256 14.876 10 17.5004 10C20.1248 10 22.2504 12.1256 22.2504 14.75C22.2504 17.3744 20.1248 19.5 17.5004 19.5C14.876 19.5 12.7504 17.3744 12.7504 14.75Z" fill="white"/>
<rect x="7.5" y="7.5" width="20" height="20" rx="10" stroke="white"/>
<path fill-rule="evenodd" clip-rule="evenodd" d="M17.5 148C20.8208 148 23.7816 146.458 25.7056 144.052C24.634 142.724 22.9933 141.875 21.1542 141.875H13.8465C12.0074 141.875 10.3666 142.724 9.29492 144.052C11.2189 146.458 14.1794 148 17.5 148ZM12.7504 134.75C12.7504 132.126 14.876 130 17.5004 130C20.1248 130 22.2504 132.126 22.2504 134.75C22.2504 137.374 20.1248 139.5 17.5004 139.5C14.876 139.5 12.7504 137.374 12.7504 134.75Z" fill="white"/>
<rect x="7.5" y="127.5" width="20" height="20" rx="10" stroke="white"/>
<path d="M102.052 139.38C100.945 139.38 100.072 139.013 99.432 138.28C98.792 137.533 98.472 136.44 98.472 135C98.472 133.587 98.792 132.513 99.432 131.78C100.072 131.047 100.945 130.68 102.052 130.68C103.159 130.68 104.032 131.053 104.672 131.8C105.312 132.533 105.632 133.607 105.632 135.02C105.632 136.447 105.312 137.533 104.672 138.28C104.032 139.013 103.159 139.38 102.052 139.38ZM102.052 137.16C102.265 137.16 102.425 137.007 102.532 136.7C102.639 136.38 102.692 135.82 102.692 135.02C102.692 134.233 102.632 133.687 102.512 133.38C102.405 133.06 102.252 132.9 102.052 132.9C101.839 132.9 101.672 133.06 101.552 133.38C101.445 133.687 101.392 134.233 101.392 135.02C101.392 135.82 101.445 136.38 101.552 136.7C101.672 137.007 101.839 137.16 102.052 137.16ZM101.612 145L109.892 130.76H113.392L105.112 145H101.612ZM112.952 145.08C111.845 145.08 110.972 144.713 110.332 143.98C109.692 143.233 109.372 142.14 109.372 140.7C109.372 139.287 109.692 138.213 110.332 137.48C110.972 136.747 111.845 136.38 112.952 136.38C114.059 136.38 114.932 136.753 115.572 137.5C116.212 138.233 116.532 139.307 116.532 140.72C116.532 142.147 116.212 143.233 115.572 143.98C114.932 144.713 114.059 145.08 112.952 145.08ZM112.952 142.86C113.165 142.86 113.325 142.707 113.432 142.4C113.539 142.08 113.592 141.52 113.592 140.72C113.592 139.933 113.532 139.387 113.412 139.08C113.305 138.76 113.152 138.6 112.952 138.6C112.739 138.6 112.572 138.76 112.452 139.08C112.345 139.387 112.292 139.933 112.292 140.72C112.292 141.52 112.345 142.08 112.452 142.4C112.572 142.707 112.739 142.86 112.952 142.86Z" fill="white"/>
<path d="M223.052 79.38C221.945 79.38 221.072 79.0133 220.432 78.28C219.792 77.5333 219.472 76.44 219.472 75C219.472 73.5867 219.792 72.5133 220.432 71.78C221.072 71.0467 221.945 70.68 223.052 70.68C224.159 70.68 225.032 71.0533 225.672 71.8C226.312 72.5333 226.632 73.6067 226.632 75.02C226.632 76.4467 226.312 77.5333 225.672 78.28C225.032 79.0133 224.159 79.38 223.052 79.38ZM223.052 77.16C223.265 77.16 223.425 77.0067 223.532 76.7C223.639 76.38 223.692 75.82 223.692 75.02C223.692 74.2333 223.632 73.6867 223.512 73.38C223.405 73.06 223.252 72.9 223.052 72.9C222.839 72.9 222.672 73.06 222.552 73.38C222.445 73.6867 222.392 74.2333 222.392 75.02C222.392 75.82 222.445 76.38 222.552 76.7C222.672 77.0067 222.839 77.16 223.052 77.16ZM222.612 85L230.892 70.76H234.392L226.112 85H222.612ZM233.952 85.08C232.845 85.08 231.972 84.7133 231.332 83.98C230.692 83.2333 230.372 82.14 230.372 80.7C230.372 79.2867 230.692 78.2133 231.332 77.48C231.972 76.7467 232.845 76.38 233.952 76.38C235.059 76.38 235.932 76.7533 236.572 77.5C237.212 78.2333 237.532 79.3067 237.532 80.72C237.532 82.1467 237.212 83.2333 236.572 83.98C235.932 84.7133 235.059 85.08 233.952 85.08ZM233.952 82.86C234.165 82.86 234.325 82.7067 234.432 82.4C234.539 82.08 234.592 81.52 234.592 80.72C234.592 79.9333 234.532 79.3867 234.412 79.08C234.305 78.76 234.152 78.6 233.952 78.6C233.739 78.6 233.572 78.76 233.452 79.08C233.345 79.3867 233.292 79.9333 233.292 80.72C233.292 81.52 233.345 82.08 233.452 82.4C233.572 82.7067 233.739 82.86 233.952 82.86Z" fill="white"/>
<path d="M470.052 19.38C468.945 19.38 468.072 19.0133 467.432 18.28C466.792 17.5333 466.472 16.44 466.472 15C466.472 13.5867 466.792 12.5133 467.432 11.78C468.072 11.0467 468.945 10.68 470.052 10.68C471.159 10.68 472.032 11.0533 472.672 11.8C473.312 12.5333 473.632 13.6067 473.632 15.02C473.632 16.4467 473.312 17.5333 472.672 18.28C472.032 19.0133 471.159 19.38 470.052 19.38ZM470.052 17.16C470.265 17.16 470.425 17.0067 470.532 16.7C470.639 16.38 470.692 15.82 470.692 15.02C470.692 14.2333 470.632 13.6867 470.512 13.38C470.405 13.06 470.252 12.9 470.052 12.9C469.839 12.9 469.672 13.06 469.552 13.38C469.445 13.6867 469.392 14.2333 469.392 15.02C469.392 15.82 469.445 16.38 469.552 16.7C469.672 17.0067 469.839 17.16 470.052 17.16ZM469.612 25L477.892 10.76H481.392L473.112 25H469.612ZM480.952 25.08C479.845 25.08 478.972 24.7133 478.332 23.98C477.692 23.2333 477.372 22.14 477.372 20.7C477.372 19.2867 477.692 18.2133 478.332 17.48C478.972 16.7467 479.845 16.38 480.952 16.38C482.059 16.38 482.932 16.7533 483.572 17.5C484.212 18.2333 484.532 19.3067 484.532 20.72C484.532 22.1467 484.212 23.2333 483.572 23.98C482.932 24.7133 482.059 25.08 480.952 25.08ZM480.952 22.86C481.165 22.86 481.325 22.7067 481.432 22.4C481.539 22.08 481.592 21.52 481.592 20.72C481.592 19.9333 481.532 19.3867 481.412 19.08C481.305 18.76 481.152 18.6 480.952 18.6C480.739 18.6 480.572 18.76 480.452 19.08C480.345 19.3867 480.292 19.9333 480.292 20.72C480.292 21.52 480.345 22.08 480.452 22.4C480.572 22.7067 480.739 22.86 480.952 22.86Z" fill="white"/>
</svg>
