<svg width="468" height="135" viewBox="0 0 468 135" fill="none" xmlns="http://www.w3.org/2000/svg">
<path d="M12.6177 111.834H23.5131ZM12.6177 117.282H23.5131ZM12.6177 122.73H16.7035ZM9.89379 133.625H26.237C27.7414 133.625 28.9609 132.406 28.9609 130.902V109.111C28.9609 107.606 27.7414 106.387 26.237 106.387H9.89379C8.38944 106.387 7.16992 107.606 7.16992 109.111V130.902C7.16992 132.406 8.38944 133.625 9.89379 133.625Z" fill="white"/>
<path d="M12.6177 111.834H23.5131M12.6177 117.282H23.5131M12.6177 122.73H16.7035M9.89379 133.625H26.237C27.7414 133.625 28.9609 132.406 28.9609 130.902V109.111C28.9609 107.606 27.7414 106.387 26.237 106.387H9.89379C8.38944 106.387 7.16992 107.606 7.16992 109.111V130.902C7.16992 132.406 8.38944 133.625 9.89379 133.625Z" stroke="#362C6B" stroke-width="2.5" stroke-linecap="round" stroke-linejoin="round"/>
<path d="M7.44774 106.448H18.3432ZM7.44774 111.895H18.3432ZM7.44774 117.343H11.5335ZM4.72387 128.239H21.0671C22.5715 128.239 23.791 127.019 23.791 125.515V103.724C23.791 102.22 22.5715 101 21.0671 101H4.72387C3.21952 101 2 102.22 2 103.724V125.515C2 127.019 3.21952 128.239 4.72387 128.239Z" fill="white"/>
<path d="M7.44774 106.448H18.3432M7.44774 111.895H18.3432M7.44774 117.343H11.5335M4.72387 128.239H21.0671C22.5715 128.239 23.791 127.019 23.791 125.515V103.724C23.791 102.22 22.5715 101 21.0671 101H4.72387C3.21952 101 2 102.22 2 103.724V125.515C2 127.019 3.21952 128.239 4.72387 128.239Z" stroke="#362C6B" stroke-width="2.5" stroke-linecap="round" stroke-linejoin="round"/>
<path d="M12.6177 62.4516H23.5131ZM12.6177 67.8994H23.5131ZM12.6177 73.3471H16.7035ZM9.89379 84.2426H26.237C27.7414 84.2426 28.9609 83.0231 28.9609 81.5187V59.7278C28.9609 58.2234 27.7414 57.0039 26.237 57.0039H9.89379C8.38944 57.0039 7.16992 58.2234 7.16992 59.7278V81.5187C7.16992 83.0231 8.38944 84.2426 9.89379 84.2426Z" fill="white"/>
<path d="M12.6177 62.4516H23.5131M12.6177 67.8994H23.5131M12.6177 73.3471H16.7035M9.89379 84.2426H26.237C27.7414 84.2426 28.9609 83.0231 28.9609 81.5187V59.7278C28.9609 58.2234 27.7414 57.0039 26.237 57.0039H9.89379C8.38944 57.0039 7.16992 58.2234 7.16992 59.7278V81.5187C7.16992 83.0231 8.38944 84.2426 9.89379 84.2426Z" stroke="#362C6B" stroke-width="2.5" stroke-linecap="round" stroke-linejoin="round"/>
<path d="M7.44774 57.0649H18.3432ZM7.44774 62.5127H18.3432ZM7.44774 67.9604H11.5335ZM4.72387 78.8559H21.0671C22.5715 78.8559 23.791 77.6364 23.791 76.132V54.3411C23.791 52.8367 22.5715 51.6172 21.0671 51.6172H4.72387C3.21952 51.6172 2 52.8367 2 54.3411V76.132C2 77.6364 3.21952 78.8559 4.72387 78.8559Z" fill="white"/>
<path d="M7.44774 57.0649H18.3432M7.44774 62.5127H18.3432M7.44774 67.9604H11.5335M4.72387 78.8559H21.0671C22.5715 78.8559 23.791 77.6364 23.791 76.132V54.3411C23.791 52.8367 22.5715 51.6172 21.0671 51.6172H4.72387C3.21952 51.6172 2 52.8367 2 54.3411V76.132C2 77.6364 3.21952 78.8559 4.72387 78.8559Z" stroke="#362C6B" stroke-width="2.5" stroke-linecap="round" stroke-linejoin="round"/>
<path d="M12.6177 12.8345H23.5131ZM12.6177 18.2822H23.5131ZM12.6177 23.7299H16.7035ZM9.89379 34.6254H26.237C27.7414 34.6254 28.9609 33.4059 28.9609 31.9016V10.1106C28.9609 8.60624 27.7414 7.38672 26.237 7.38672H9.89379C8.38944 7.38672 7.16992 8.60624 7.16992 10.1106V31.9016C7.16992 33.4059 8.38944 34.6254 9.89379 34.6254Z" fill="white"/>
<path d="M12.6177 12.8345H23.5131M12.6177 18.2822H23.5131M12.6177 23.7299H16.7035M9.89379 34.6254H26.237C27.7414 34.6254 28.9609 33.4059 28.9609 31.9016V10.1106C28.9609 8.60624 27.7414 7.38672 26.237 7.38672H9.89379C8.38944 7.38672 7.16992 8.60624 7.16992 10.1106V31.9016C7.16992 33.4059 8.38944 34.6254 9.89379 34.6254Z" stroke="#362C6B" stroke-width="2.5" stroke-linecap="round" stroke-linejoin="round"/>
<path d="M7.44774 7.44774H18.3432ZM7.44774 12.8955H18.3432ZM7.44774 18.3432H11.5335ZM4.72387 29.2387H21.0671C22.5715 29.2387 23.791 28.0192 23.791 26.5148V4.72387C23.791 3.21952 22.5715 2 21.0671 2H4.72387C3.21952 2 2 3.21952 2 4.72387V26.5148C2 28.0192 3.21952 29.2387 4.72387 29.2387Z" fill="white"/>
<path d="M7.44774 7.44774H18.3432M7.44774 12.8955H18.3432M7.44774 18.3432H11.5335M4.72387 29.2387H21.0671C22.5715 29.2387 23.791 28.0192 23.791 26.5148V4.72387C23.791 3.21952 22.5715 2 21.0671 2H4.72387C3.21952 2 2 3.21952 2 4.72387V26.5148C2 28.0192 3.21952 29.2387 4.72387 29.2387Z" stroke="#362C6B" stroke-width="2.5" stroke-linecap="round" stroke-linejoin="round"/>
<path d="M382.391 54.4268C382.391 45.0379 390.002 37.4268 399.391 37.4268H435.536C444.925 37.4268 452.536 45.0379 452.536 54.4268V90.5723C452.536 99.9612 444.925 107.572 435.536 107.572H399.391C390.002 107.572 382.391 99.9612 382.391 90.5723V54.4268Z" fill="#362C6B"/>
<path fill-rule="evenodd" clip-rule="evenodd" d="M400.349 22C398.684 22 397.335 23.349 397.335 25.0131V28.8699C397.335 30.534 398.684 31.8831 400.349 31.8831C402.013 31.8831 403.362 30.534 403.362 28.8699V25.0131C403.362 23.349 402.013 22 400.349 22ZM400.349 113.117C398.684 113.117 397.335 114.466 397.335 116.13V119.987C397.335 121.651 398.684 123 400.349 123C402.013 123 403.362 121.651 403.362 119.987V116.13C403.362 114.466 402.013 113.117 400.349 113.117ZM431.565 25.0131C431.565 23.349 432.914 22 434.578 22C436.242 22 437.591 23.349 437.591 25.0131V28.8699C437.591 30.534 436.242 31.8831 434.578 31.8831C432.914 31.8831 431.565 30.534 431.565 28.8699V25.0131ZM434.578 113.117C432.914 113.117 431.565 114.466 431.565 116.13V119.987C431.565 121.651 432.914 123 434.578 123C436.242 123 437.591 121.651 437.591 119.987V116.13C437.591 114.466 436.242 113.117 434.578 113.117ZM414.45 25.0131C414.45 23.349 415.799 22 417.463 22C419.127 22 420.476 23.349 420.476 25.0131V28.8699C420.476 30.534 419.127 31.8831 417.463 31.8831C415.799 31.8831 414.45 30.534 414.45 28.8699V25.0131ZM417.463 113.117C415.799 113.117 414.45 114.466 414.45 116.13V119.987C414.45 121.651 415.799 123 417.463 123C419.127 123 420.476 121.651 420.476 119.987V116.13C420.476 114.466 419.127 113.117 417.463 113.117ZM376.844 55.3854C376.844 53.7213 375.495 52.3723 373.831 52.3723H369.974C368.31 52.3723 366.961 53.7213 366.961 55.3854C366.961 57.0495 368.31 58.3985 369.974 58.3985H373.831C375.495 58.3985 376.844 57.0495 376.844 55.3854ZM467.961 55.3854C467.961 53.7213 466.612 52.3723 464.948 52.3723H461.091C459.427 52.3723 458.078 53.7213 458.078 55.3854C458.078 57.0495 459.427 58.3985 461.091 58.3985H464.948C466.612 58.3985 467.961 57.0495 467.961 55.3854ZM464.948 86.6014C466.612 86.6014 467.961 87.9504 467.961 89.6145C467.961 91.2786 466.612 92.6276 464.948 92.6276H461.091C459.427 92.6276 458.078 91.2786 458.078 89.6145C458.078 87.9504 459.427 86.6014 461.091 86.6014H464.948ZM376.844 89.6145C376.844 87.9504 375.495 86.6014 373.831 86.6014H369.974C368.31 86.6014 366.961 87.9504 366.961 89.6145C366.961 91.2786 368.31 92.6276 369.974 92.6276H373.831C375.495 92.6276 376.844 91.2786 376.844 89.6145ZM464.948 69.4868C466.612 69.4868 467.961 70.8358 467.961 72.4999C467.961 74.164 466.612 75.5131 464.948 75.5131H461.091C459.427 75.5131 458.078 74.164 458.078 72.4999C458.078 70.8358 459.427 69.4868 461.091 69.4868H464.948ZM376.844 72.4999C376.844 70.8358 375.495 69.4868 373.831 69.4868H369.974C368.31 69.4868 366.961 70.8358 366.961 72.4999C366.961 74.164 368.31 75.5131 369.974 75.5131H373.831C375.495 75.5131 376.844 74.164 376.844 72.4999Z" fill="#362C6B"/>
<path fill-rule="evenodd" clip-rule="evenodd" d="M398.521 68.7871C398.351 64.9273 400.278 61.2637 403.517 59.2416L412.651 53.5404C415.891 51.5184 419.938 51.4531 423.186 53.3917L431.695 58.471C434.646 60.2326 436.513 63.4007 436.667 66.9079L437.113 77.0203C437.282 80.8801 435.356 84.5437 432.116 86.5657L422.982 92.2669C419.743 94.289 415.695 94.3543 412.448 92.4156L403.939 87.3364C400.988 85.5748 399.12 82.4067 398.966 78.8995L398.521 68.7871ZM415.612 63.202C417.244 63.8639 418.875 64.639 420.441 65.4129L408.608 65.1744C407.846 65.1259 406.965 65.422 406.39 66.2159C406.265 66.3892 406.095 66.643 405.952 66.9409C405.83 67.1949 405.619 67.6973 405.641 68.3119C405.832 73.9916 405.79 81.5384 407.383 85.5208L405.244 84.0734L405.244 84.0615C403.522 82.8555 402.448 80.8904 402.353 78.7275L401.907 68.6151C401.794 66.0472 403.078 63.5815 405.269 62.2139C406.384 61.5182 407.849 61.2927 409.668 61.5049C411.484 61.717 413.512 62.3501 415.612 63.202ZM417.367 81.6916L425.161 68.6525L410.319 68.6524L417.367 81.6916ZM410.515 79.683C410.311 78.0847 410.169 76.45 410.052 74.8717L415.746 85.8048C416.51 86.7391 417.545 86.6994 417.868 86.6828C418.148 86.6684 418.825 86.4077 419.34 86.0865C423.886 83.2484 431.01 78.6639 433.628 75.1172L433.711 77.1095L433.722 77.1028L433.726 77.1922C433.839 79.7602 432.555 82.2259 430.364 83.5935L421.23 89.2947C419.039 90.6623 416.321 90.6944 414.161 89.4045C413.299 88.8904 412.517 87.778 411.871 85.9831C411.237 84.222 410.814 82.0311 410.515 79.683ZM427.956 64.7275C423.237 62.1845 418.166 57.9643 412.516 57.6477C412.516 57.6477 413.452 57.1031 414.042 56.7379C414.184 56.6506 414.403 56.5127 414.403 56.5127C416.594 55.1451 419.312 55.113 421.473 56.4028L429.982 61.4821C431.941 62.6517 433.179 64.7511 433.281 67.0798C433.333 68.2586 432.796 69.6351 431.613 71.2125C430.445 72.7711 428.777 74.3505 426.893 75.8942C425.942 76.6738 424.951 77.4313 423.964 78.1611C423.583 78.4243 423.202 78.6834 422.825 78.9384L429.018 68.8367C429.45 68.1801 429.652 67.2322 429.254 66.3116C429.176 66.1319 429.059 65.8861 428.898 65.6396C428.757 65.4242 428.475 65.0357 428.013 64.7598C427.994 64.7486 427.975 64.7379 427.956 64.7275Z" fill="white"/>
<path d="M29 22C28.4477 22 28 22.4477 28 23C28 23.5523 28.4477 24 29 24V22ZM29 24H59.4609V22H29V24ZM57.4609 120H30V122H57.4609V120ZM106.461 71C106.461 98.062 84.5229 120 57.4609 120V122C85.6275 122 108.461 99.1665 108.461 71H106.461ZM59.4609 24C85.4183 24 106.461 45.0426 106.461 71H108.461C108.461 43.938 86.5229 22 59.4609 22V24Z" fill="url(#paint0_linear_54960_8192)"/>
<path d="M255 70C254.448 70 254 70.4477 254 71C254 71.5523 254.448 72 255 72L255 70ZM352 71L342 65.2265L342 76.7735L352 71ZM255 72L343 72L343 70L255 70L255 72Z" fill="url(#paint1_linear_54960_8192)"/>
<path d="M29 70C28.4477 70 28 70.4477 28 71C28 71.5523 28.4477 72 29 72V70ZM193 71L183 65.2265V76.7735L193 71ZM29 72H184V70H29V72Z" fill="url(#paint2_linear_54960_8192)"/>
<path d="M212 83.5V59.5L233 58.5V83.5H212Z" fill="white"/>
<path d="M238.5 90V53H252V90H238.5Z" fill="white"/>
<path d="M235.197 47.0203L207.757 52.2265C207.294 52.3146 206.961 52.7357 206.961 53.2065V89.7728C206.961 90.2436 207.294 90.6647 207.757 90.7528L235.197 95.959C235.258 95.9705 235.32 95.9897 235.381 95.9897C235.607 95.9897 235.817 95.9207 235.993 95.7753C236.219 95.5877 236.361 95.3006 236.361 95.0097V47.9697C236.361 47.6787 236.219 47.3916 235.993 47.204C235.768 47.0164 235.484 46.9667 235.197 47.0203ZM238.5 53V59.7297H240.281V61.6897H238.5V66.5897H240.281V68.5497H238.5V73.4497H240.281V75.4097H238.5V81.2896H240.281V83.2496H238.5V90H253.021C254.1 90 254.981 89.1195 254.981 88.04V54.8297C254.981 53.7501 254.1 52.8697 253.021 52.8697L238.5 53ZM242.241 59.7297H250.081V61.6897H242.241V59.7297ZM213.515 62.3634H218.537L221.171 67.8453C221.378 68.2779 221.561 68.81 221.722 69.4072H221.753C221.856 69.0511 222.055 68.4922 222.335 67.784L225.244 62.3634H229.838L224.356 71.4284L229.991 80.6772H225.122L221.937 74.7053C221.818 74.4832 221.695 74.0736 221.569 73.4803H221.538C221.477 73.7597 221.332 74.1961 221.11 74.7665L217.925 80.6772H213.025L218.874 71.5203L213.515 62.3634ZM242.241 66.5897H250.081V68.5497H242.241V66.5897ZM242.241 73.4497H250.081V75.4097H242.241V73.4497ZM242.241 81.2896H250.081V83.2496H242.241V81.2896Z" fill="#362C6B"/>
<path d="M105.379 68.6203C106.55 67.4488 108.45 67.4488 109.621 68.6203L109.879 68.878C111.051 70.0496 111.051 71.9491 109.879 73.1206L109.621 73.3783C108.45 74.5499 106.55 74.5499 105.379 73.3783L105.121 73.1206C103.949 71.9491 103.949 70.0496 105.121 68.878L105.379 68.6203Z" fill="#9B95BD"/>
<defs>
<linearGradient id="paint0_linear_54960_8192" x1="107" y1="72" x2="24.5" y2="72" gradientUnits="userSpaceOnUse">
<stop stop-color="#9B95BD"/>
<stop offset="0.931949" stop-color="#9B95BD" stop-opacity="0"/>
</linearGradient>
<linearGradient id="paint1_linear_54960_8192" x1="348.372" y1="71" x2="255.026" y2="71" gradientUnits="userSpaceOnUse">
<stop offset="0.427693" stop-color="#9B95BD"/>
<stop offset="1" stop-color="#9B95BD" stop-opacity="0"/>
</linearGradient>
<linearGradient id="paint2_linear_54960_8192" x1="187.651" y1="71" x2="26" y2="71" gradientUnits="userSpaceOnUse">
<stop offset="0.584504" stop-color="#9B95BD"/>
<stop offset="0.983498" stop-color="#9B95BD" stop-opacity="0"/>
</linearGradient>
</defs>
</svg>
