<svg width="543" height="200" viewBox="0 0 543 200" fill="none" xmlns="http://www.w3.org/2000/svg">
<rect x="23" y="22" width="497" height="35" rx="17.5" fill="#362C6B"/>
<rect x="23" y="82" width="252" height="35" rx="17.5" fill="#362C6B" fill-opacity="0.5"/>
<rect x="23" y="142" width="131" height="35" rx="17.5" fill="#362C6B" fill-opacity="0.2"/>
<path d="M38.052 161.38C36.9453 161.38 36.072 161.013 35.432 160.28C34.792 159.533 34.472 158.44 34.472 157C34.472 155.587 34.792 154.513 35.432 153.78C36.072 153.047 36.9453 152.68 38.052 152.68C39.1586 152.68 40.032 153.053 40.672 153.8C41.312 154.533 41.632 155.607 41.632 157.02C41.632 158.447 41.312 159.533 40.672 160.28C40.032 161.013 39.1586 161.38 38.052 161.38ZM38.052 159.16C38.2653 159.16 38.4253 159.007 38.532 158.7C38.6386 158.38 38.692 157.82 38.692 157.02C38.692 156.233 38.632 155.687 38.512 155.38C38.4053 155.06 38.252 154.9 38.052 154.9C37.8386 154.9 37.672 155.06 37.552 155.38C37.4453 155.687 37.392 156.233 37.392 157.02C37.392 157.82 37.4453 158.38 37.552 158.7C37.672 159.007 37.8386 159.16 38.052 159.16ZM37.612 167L45.892 152.76H49.392L41.112 167H37.612ZM48.952 167.08C47.8453 167.08 46.972 166.713 46.332 165.98C45.692 165.233 45.372 164.14 45.372 162.7C45.372 161.287 45.692 160.213 46.332 159.48C46.972 158.747 47.8453 158.38 48.952 158.38C50.0586 158.38 50.932 158.753 51.572 159.5C52.212 160.233 52.532 161.307 52.532 162.72C52.532 164.147 52.212 165.233 51.572 165.98C50.932 166.713 50.0586 167.08 48.952 167.08ZM48.952 164.86C49.1653 164.86 49.3253 164.707 49.432 164.4C49.5386 164.08 49.592 163.52 49.592 162.72C49.592 161.933 49.532 161.387 49.412 161.08C49.3053 160.76 49.152 160.6 48.952 160.6C48.7386 160.6 48.572 160.76 48.452 161.08C48.3453 161.387 48.292 161.933 48.292 162.72C48.292 163.52 48.3453 164.08 48.452 164.4C48.572 164.707 48.7386 164.86 48.952 164.86Z" fill="white"/>
<path d="M38.052 101.38C36.9453 101.38 36.072 101.013 35.432 100.28C34.792 99.5333 34.472 98.44 34.472 97C34.472 95.5867 34.792 94.5133 35.432 93.78C36.072 93.0467 36.9453 92.68 38.052 92.68C39.1586 92.68 40.032 93.0533 40.672 93.8C41.312 94.5333 41.632 95.6067 41.632 97.02C41.632 98.4467 41.312 99.5333 40.672 100.28C40.032 101.013 39.1586 101.38 38.052 101.38ZM38.052 99.16C38.2653 99.16 38.4253 99.0067 38.532 98.7C38.6386 98.38 38.692 97.82 38.692 97.02C38.692 96.2333 38.632 95.6867 38.512 95.38C38.4053 95.06 38.252 94.9 38.052 94.9C37.8386 94.9 37.672 95.06 37.552 95.38C37.4453 95.6867 37.392 96.2333 37.392 97.02C37.392 97.82 37.4453 98.38 37.552 98.7C37.672 99.0067 37.8386 99.16 38.052 99.16ZM37.612 107L45.892 92.76H49.392L41.112 107H37.612ZM48.952 107.08C47.8453 107.08 46.972 106.713 46.332 105.98C45.692 105.233 45.372 104.14 45.372 102.7C45.372 101.287 45.692 100.213 46.332 99.48C46.972 98.7467 47.8453 98.38 48.952 98.38C50.0586 98.38 50.932 98.7533 51.572 99.5C52.212 100.233 52.532 101.307 52.532 102.72C52.532 104.147 52.212 105.233 51.572 105.98C50.932 106.713 50.0586 107.08 48.952 107.08ZM48.952 104.86C49.1653 104.86 49.3253 104.707 49.432 104.4C49.5386 104.08 49.592 103.52 49.592 102.72C49.592 101.933 49.532 101.387 49.412 101.08C49.3053 100.76 49.152 100.6 48.952 100.6C48.7386 100.6 48.572 100.76 48.452 101.08C48.3453 101.387 48.292 101.933 48.292 102.72C48.292 103.52 48.3453 104.08 48.452 104.4C48.572 104.707 48.7386 104.86 48.952 104.86Z" fill="white"/>
<path d="M38.052 41.38C36.9453 41.38 36.072 41.0133 35.432 40.28C34.792 39.5333 34.472 38.44 34.472 37C34.472 35.5867 34.792 34.5133 35.432 33.78C36.072 33.0467 36.9453 32.68 38.052 32.68C39.1586 32.68 40.032 33.0533 40.672 33.8C41.312 34.5333 41.632 35.6067 41.632 37.02C41.632 38.4467 41.312 39.5333 40.672 40.28C40.032 41.0133 39.1586 41.38 38.052 41.38ZM38.052 39.16C38.2653 39.16 38.4253 39.0067 38.532 38.7C38.6386 38.38 38.692 37.82 38.692 37.02C38.692 36.2333 38.632 35.6867 38.512 35.38C38.4053 35.06 38.252 34.9 38.052 34.9C37.8386 34.9 37.672 35.06 37.552 35.38C37.4453 35.6867 37.392 36.2333 37.392 37.02C37.392 37.82 37.4453 38.38 37.552 38.7C37.672 39.0067 37.8386 39.16 38.052 39.16ZM37.612 47L45.892 32.76H49.392L41.112 47H37.612ZM48.952 47.08C47.8453 47.08 46.972 46.7133 46.332 45.98C45.692 45.2333 45.372 44.14 45.372 42.7C45.372 41.2867 45.692 40.2133 46.332 39.48C46.972 38.7467 47.8453 38.38 48.952 38.38C50.0586 38.38 50.932 38.7533 51.572 39.5C52.212 40.2333 52.532 41.3067 52.532 42.72C52.532 44.1467 52.212 45.2333 51.572 45.98C50.932 46.7133 50.0586 47.08 48.952 47.08ZM48.952 44.86C49.1653 44.86 49.3253 44.7067 49.432 44.4C49.5386 44.08 49.592 43.52 49.592 42.72C49.592 41.9333 49.532 41.3867 49.412 41.08C49.3053 40.76 49.152 40.6 48.952 40.6C48.7386 40.6 48.572 40.76 48.452 41.08C48.3453 41.3867 48.292 41.9333 48.292 42.72C48.292 43.52 48.3453 44.08 48.452 44.4C48.572 44.7067 48.7386 44.86 48.952 44.86Z" fill="white"/>
</svg>
