<svg width="838" height="241" viewBox="0 0 838 241" fill="none" xmlns="http://www.w3.org/2000/svg">
<path d="M38.6094 214.594L826 213.469" stroke="black"/>
<path d="M95.7109 222.114V214.594" stroke="black"/>
<path d="M95.7104 234.233C95.0683 234.233 94.5215 234.058 94.0698 233.709C93.6181 233.356 93.2729 232.846 93.0342 232.179C92.7956 231.508 92.6763 230.699 92.6763 229.75C92.6763 228.807 92.7956 228.001 93.0342 227.334C93.2757 226.663 93.6223 226.152 94.074 225.8C94.5286 225.444 95.074 225.267 95.7104 225.267C96.3467 225.267 96.8908 225.444 97.3425 225.8C97.797 226.152 98.1436 226.663 98.3823 227.334C98.6237 228.001 98.7445 228.807 98.7445 229.75C98.7445 230.699 98.6252 231.508 98.3865 232.179C98.1479 232.846 97.8027 233.356 97.351 233.709C96.8993 234.058 96.3524 234.233 95.7104 234.233ZM95.7104 233.295C96.3467 233.295 96.8411 232.989 97.1933 232.375C97.5456 231.761 97.7217 230.886 97.7217 229.75C97.7217 228.994 97.6408 228.351 97.4788 227.819C97.3198 227.288 97.0896 226.883 96.7885 226.605C96.4902 226.327 96.1308 226.187 95.7104 226.187C95.0797 226.187 94.5868 226.498 94.2317 227.121C93.8766 227.74 93.699 228.616 93.699 229.75C93.699 230.506 93.7786 231.148 93.9377 231.676C94.0967 232.204 94.3254 232.606 94.6237 232.882C94.9249 233.158 95.2871 233.295 95.7104 233.295Z" fill="black"/>
<path d="M209.91 222.114V214.594" stroke="black"/>
<path d="M211.091 225.386V234.114H210.034V226.494H209.983L207.853 227.909V226.835L210.034 225.386H211.091Z" fill="black"/>
<path d="M324.109 222.114V214.594" stroke="black"/>
<path d="M321.379 234.114V233.346L324.26 230.193C324.598 229.824 324.877 229.503 325.095 229.23C325.314 228.954 325.476 228.696 325.581 228.454C325.689 228.21 325.743 227.954 325.743 227.687C325.743 227.381 325.669 227.115 325.521 226.891C325.377 226.666 325.178 226.493 324.925 226.371C324.672 226.248 324.388 226.187 324.073 226.187C323.737 226.187 323.445 226.257 323.195 226.396C322.948 226.533 322.756 226.724 322.619 226.971C322.486 227.219 322.419 227.508 322.419 227.841H321.414C321.414 227.329 321.531 226.881 321.767 226.494C322.003 226.108 322.324 225.807 322.73 225.591C323.139 225.375 323.598 225.267 324.107 225.267C324.618 225.267 325.071 225.375 325.466 225.591C325.861 225.807 326.171 226.098 326.395 226.464C326.619 226.831 326.732 227.239 326.732 227.687C326.732 228.008 326.673 228.322 326.557 228.629C326.443 228.933 326.244 229.273 325.96 229.648C325.679 230.02 325.289 230.474 324.789 231.011L322.828 233.108V233.176H326.885V234.114H321.379Z" fill="black"/>
<path d="M438.309 222.114V214.594" stroke="black"/>
<path d="M438.34 234.233C437.777 234.233 437.276 234.136 436.836 233.943C436.398 233.75 436.05 233.481 435.792 233.138C435.536 232.791 435.397 232.389 435.374 231.932H436.448C436.471 232.213 436.567 232.456 436.738 232.66C436.908 232.862 437.131 233.018 437.407 233.129C437.682 233.24 437.988 233.295 438.323 233.295C438.698 233.295 439.03 233.23 439.32 233.099C439.61 232.969 439.837 232.787 440.002 232.554C440.167 232.321 440.249 232.051 440.249 231.744C440.249 231.423 440.17 231.141 440.01 230.896C439.851 230.649 439.618 230.456 439.312 230.317C439.005 230.177 438.63 230.108 438.187 230.108H437.488V229.17H438.187C438.533 229.17 438.837 229.108 439.099 228.983C439.363 228.858 439.569 228.682 439.716 228.454C439.867 228.227 439.942 227.96 439.942 227.653C439.942 227.358 439.877 227.101 439.746 226.882C439.616 226.663 439.431 226.493 439.192 226.371C438.956 226.248 438.678 226.187 438.357 226.187C438.056 226.187 437.772 226.243 437.505 226.354C437.241 226.462 437.025 226.619 436.857 226.827C436.689 227.031 436.599 227.278 436.584 227.568H435.562C435.579 227.111 435.716 226.71 435.975 226.366C436.233 226.02 436.572 225.75 436.989 225.557C437.41 225.364 437.871 225.267 438.374 225.267C438.914 225.267 439.377 225.376 439.763 225.595C440.15 225.811 440.447 226.096 440.654 226.452C440.861 226.807 440.965 227.19 440.965 227.602C440.965 228.094 440.836 228.513 440.577 228.859C440.322 229.206 439.974 229.446 439.533 229.579V229.648C440.084 229.739 440.515 229.973 440.824 230.351C441.134 230.726 441.289 231.19 441.289 231.744C441.289 232.219 441.16 232.645 440.901 233.023C440.645 233.398 440.296 233.693 439.853 233.909C439.41 234.125 438.905 234.233 438.34 234.233Z" fill="black"/>
<path d="M552.504 222.114V214.594" stroke="black"/>
<path d="M549.353 232.324V231.454L553.188 225.386H553.819V226.733H553.392L550.495 231.318V231.386H555.659V232.324H549.353ZM553.461 234.114V232.06V231.655V225.386H554.466V234.114H553.461Z" fill="black"/>
<path d="M666.703 222.114V214.594" stroke="black"/>
<path d="M666.683 234.233C666.183 234.233 665.733 234.133 665.332 233.935C664.931 233.736 664.61 233.463 664.369 233.116C664.127 232.77 663.995 232.375 663.973 231.932H664.995C665.035 232.327 665.214 232.653 665.532 232.912C665.853 233.168 666.237 233.295 666.683 233.295C667.041 233.295 667.359 233.212 667.637 233.044C667.919 232.876 668.139 232.646 668.298 232.354C668.46 232.058 668.541 231.724 668.541 231.352C668.541 230.971 668.457 230.632 668.289 230.334C668.125 230.033 667.897 229.795 667.608 229.622C667.318 229.449 666.987 229.361 666.615 229.358C666.348 229.355 666.073 229.396 665.792 229.481C665.511 229.564 665.279 229.67 665.098 229.801L664.109 229.682L664.637 225.386H669.171V226.324H665.524L665.217 228.898H665.268C665.447 228.756 665.671 228.638 665.941 228.544C666.211 228.45 666.493 228.403 666.785 228.403C667.319 228.403 667.795 228.531 668.213 228.787C668.633 229.04 668.963 229.386 669.201 229.827C669.443 230.267 669.564 230.77 669.564 231.335C669.564 231.892 669.439 232.389 669.189 232.827C668.941 233.261 668.6 233.605 668.166 233.858C667.731 234.108 667.237 234.233 666.683 234.233Z" fill="black"/>
<path d="M780.902 222.114V214.594" stroke="black"/>
<path d="M780.959 234.233C780.601 234.227 780.243 234.159 779.885 234.028C779.527 233.898 779.2 233.677 778.905 233.368C778.609 233.055 778.372 232.633 778.193 232.102C778.014 231.568 777.925 230.898 777.925 230.091C777.925 229.318 777.997 228.633 778.142 228.037C778.287 227.437 778.497 226.933 778.773 226.524C779.048 226.112 779.381 225.8 779.77 225.587C780.162 225.373 780.604 225.267 781.095 225.267C781.584 225.267 782.018 225.365 782.399 225.561C782.783 225.754 783.095 226.024 783.337 226.371C783.578 226.717 783.734 227.116 783.805 227.568H782.766C782.669 227.176 782.482 226.851 782.203 226.592C781.925 226.334 781.555 226.204 781.095 226.204C780.419 226.204 779.886 226.498 779.497 227.087C779.111 227.675 778.916 228.5 778.913 229.562H778.982C779.141 229.321 779.33 229.115 779.548 228.944C779.77 228.771 780.014 228.638 780.281 228.544C780.548 228.45 780.831 228.403 781.129 228.403C781.629 228.403 782.087 228.528 782.501 228.778C782.916 229.025 783.249 229.368 783.499 229.805C783.749 230.24 783.874 230.739 783.874 231.301C783.874 231.841 783.753 232.335 783.511 232.784C783.27 233.23 782.93 233.585 782.493 233.849C782.058 234.111 781.547 234.239 780.959 234.233ZM780.959 233.295C781.317 233.295 781.638 233.206 781.922 233.027C782.209 232.848 782.435 232.608 782.599 232.307C782.767 232.006 782.851 231.67 782.851 231.301C782.851 230.94 782.77 230.612 782.608 230.317C782.449 230.018 782.229 229.781 781.947 229.605C781.669 229.429 781.351 229.341 780.993 229.341C780.723 229.341 780.472 229.395 780.239 229.503C780.006 229.608 779.801 229.753 779.625 229.937C779.452 230.122 779.315 230.334 779.216 230.572C779.116 230.808 779.067 231.057 779.067 231.318C779.067 231.665 779.148 231.989 779.31 232.29C779.474 232.591 779.699 232.834 779.983 233.018C780.27 233.203 780.595 233.295 780.959 233.295Z" fill="black"/>
<path d="M38.6094 14.0739V214.594" stroke="black"/>
<path d="M31.3672 214.593H38.6063" stroke="black"/>
<path d="M21.5858 211.674C20.9437 211.674 20.3969 211.499 19.9452 211.15C19.4935 210.797 19.1483 210.288 18.9097 209.62C18.671 208.949 18.5517 208.14 18.5517 207.191C18.5517 206.248 18.671 205.442 18.9097 204.775C19.1511 204.104 19.4977 203.593 19.9494 203.241C20.404 202.886 20.9494 202.708 21.5858 202.708C22.2222 202.708 22.7662 202.886 23.2179 203.241C23.6724 203.593 24.019 204.104 24.2577 204.775C24.4991 205.442 24.6199 206.248 24.6199 207.191C24.6199 208.14 24.5006 208.949 24.2619 209.62C24.0233 210.288 23.6781 210.797 23.2264 211.15C22.7747 211.499 22.2278 211.674 21.5858 211.674ZM21.5858 210.736C22.2222 210.736 22.7165 210.43 23.0687 209.816C23.421 209.202 23.5972 208.327 23.5972 207.191C23.5972 206.435 23.5162 205.792 23.3543 205.261C23.1952 204.729 22.9651 204.324 22.6639 204.046C22.3656 203.768 22.0062 203.628 21.5858 203.628C20.9551 203.628 20.4622 203.94 20.1071 204.562C19.752 205.181 19.5744 206.057 19.5744 207.191C19.5744 207.947 19.654 208.589 19.8131 209.117C19.9722 209.645 20.2008 210.047 20.4991 210.323C20.8003 210.599 21.1625 210.736 21.5858 210.736Z" fill="black"/>
<path d="M31.3672 164.464H38.6063" stroke="black"/>
<path d="M11.6732 161.425V160.658L14.5538 157.505C14.8919 157.135 15.1703 156.814 15.3891 156.542C15.6078 156.266 15.7698 156.008 15.8749 155.766C15.9828 155.522 16.0368 155.266 16.0368 154.999C16.0368 154.692 15.9629 154.427 15.8152 154.202C15.6703 153.978 15.4715 153.804 15.2186 153.682C14.9658 153.56 14.6817 153.499 14.3663 153.499C14.0311 153.499 13.7385 153.569 13.4885 153.708C13.2413 153.844 13.0496 154.036 12.9132 154.283C12.7797 154.53 12.7129 154.82 12.7129 155.152H11.7073C11.7073 154.641 11.8251 154.192 12.0609 153.806C12.2967 153.419 12.6178 153.118 13.024 152.902C13.4331 152.687 13.8919 152.579 14.4004 152.579C14.9118 152.579 15.3649 152.687 15.7598 152.902C16.1547 153.118 16.4644 153.41 16.6888 153.776C16.9132 154.143 17.0254 154.55 17.0254 154.999C17.0254 155.32 16.9672 155.634 16.8507 155.941C16.7371 156.245 16.5382 156.584 16.2541 156.959C15.9729 157.331 15.5823 157.786 15.0823 158.323L13.122 160.419V160.488H17.1788V161.425H11.6732ZM21.6661 161.544C21.1661 161.544 20.7158 161.445 20.3152 161.246C19.9146 161.047 19.5936 160.775 19.3521 160.428C19.1107 160.081 18.9786 159.687 18.9558 159.243H19.9786C20.0183 159.638 20.1973 159.965 20.5155 160.223C20.8365 160.479 21.22 160.607 21.6661 160.607C22.024 160.607 22.3422 160.523 22.6206 160.356C22.9019 160.188 23.122 159.958 23.2811 159.665C23.443 159.37 23.524 159.036 23.524 158.664C23.524 158.283 23.4402 157.944 23.2726 157.645C23.1078 157.344 22.8805 157.107 22.5908 156.934C22.301 156.76 21.97 156.672 21.5979 156.669C21.3308 156.667 21.0567 156.708 20.7754 156.793C20.4942 156.875 20.2626 156.982 20.0808 157.113L19.0922 156.993L19.6206 152.698H24.1547V153.635H20.507L20.2001 156.209H20.2513C20.4303 156.067 20.6547 155.949 20.9246 155.856C21.1945 155.762 21.4757 155.715 21.7683 155.715C22.3024 155.715 22.7783 155.843 23.1959 156.098C23.6163 156.351 23.9459 156.698 24.1845 157.138C24.426 157.579 24.5467 158.081 24.5467 158.647C24.5467 159.204 24.4217 159.701 24.1717 160.138C23.9246 160.573 23.5837 160.917 23.149 161.169C22.7144 161.419 22.22 161.544 21.6661 161.544Z" fill="black"/>
<path d="M31.3672 114.333H38.6063" stroke="black"/>
<path d="M14.1661 111.414C13.6661 111.414 13.2158 111.315 12.8152 111.116C12.4146 110.917 12.0936 110.644 11.8521 110.298C11.6107 109.951 11.4786 109.556 11.4558 109.113H12.4786C12.5183 109.508 12.6973 109.835 13.0155 110.093C13.3365 110.349 13.72 110.477 14.1661 110.477C14.524 110.477 14.8422 110.393 15.1206 110.225C15.4019 110.058 15.622 109.827 15.7811 109.535C15.943 109.239 16.024 108.906 16.024 108.533C16.024 108.153 15.9402 107.813 15.7726 107.515C15.6078 107.214 15.3805 106.977 15.0908 106.803C14.801 106.63 14.47 106.542 14.0979 106.539C13.8308 106.536 13.5567 106.577 13.2754 106.663C12.9942 106.745 12.7626 106.852 12.5808 106.982L11.5922 106.863L12.1206 102.568H16.6547V103.505H13.007L12.7001 106.079H12.7513C12.9303 105.937 13.1547 105.819 13.4246 105.725C13.6945 105.631 13.9757 105.585 14.2683 105.585C14.8024 105.585 15.2783 105.712 15.6959 105.968C16.1163 106.221 16.4459 106.568 16.6845 107.008C16.926 107.448 17.0467 107.951 17.0467 108.516C17.0467 109.073 16.9217 109.57 16.6717 110.008C16.4246 110.443 16.0837 110.786 15.649 111.039C15.2144 111.289 14.72 111.414 14.1661 111.414ZM21.5862 111.414C20.9441 111.414 20.3972 111.239 19.9455 110.89C19.4938 110.538 19.1487 110.028 18.91 109.36C18.6714 108.69 18.5521 107.88 18.5521 106.931C18.5521 105.988 18.6714 105.183 18.91 104.515C19.1515 103.845 19.4981 103.333 19.9498 102.981C20.4043 102.626 20.9498 102.448 21.5862 102.448C22.2225 102.448 22.7666 102.626 23.2183 102.981C23.6728 103.333 24.0194 103.845 24.258 104.515C24.4995 105.183 24.6202 105.988 24.6202 106.931C24.6202 107.88 24.5009 108.69 24.2623 109.36C24.0237 110.028 23.6785 110.538 23.2268 110.89C22.7751 111.239 22.2282 111.414 21.5862 111.414ZM21.5862 110.477C22.2225 110.477 22.7168 110.17 23.0691 109.556C23.4214 108.943 23.5975 108.068 23.5975 106.931C23.5975 106.175 23.5166 105.532 23.3546 105.001C23.1955 104.47 22.9654 104.065 22.6643 103.786C22.366 103.508 22.0066 103.369 21.5862 103.369C20.9555 103.369 20.4626 103.68 20.1075 104.302C19.7524 104.921 19.5748 105.798 19.5748 106.931C19.5748 107.687 19.6543 108.329 19.8134 108.857C19.9725 109.386 20.2012 109.788 20.4995 110.063C20.8006 110.339 21.1629 110.477 21.5862 110.477Z" fill="black"/>
<path d="M31.3672 64.2035H38.6063" stroke="black"/>
<path d="M12.4732 61.1649L16.3766 53.4433V53.3751H11.8766V52.4376H17.4675V53.4263L13.5812 61.1649H12.4732ZM21.6661 61.2842C21.1661 61.2842 20.7158 61.1848 20.3152 60.9859C19.9146 60.7871 19.5936 60.5143 19.3521 60.1678C19.1107 59.8212 18.9786 59.4263 18.9558 58.9831H19.9786C20.0183 59.378 20.1973 59.7047 20.5155 59.9632C20.8365 60.2189 21.22 60.3467 21.6661 60.3467C22.024 60.3467 22.3422 60.2629 22.6206 60.0953C22.9019 59.9277 23.122 59.6976 23.2811 59.405C23.443 59.1095 23.524 58.7757 23.524 58.4036C23.524 58.0229 23.4402 57.6834 23.2726 57.3851C23.1078 57.084 22.8805 56.8467 22.5908 56.6734C22.301 56.5001 21.97 56.4121 21.5979 56.4092C21.3308 56.4064 21.0567 56.4476 20.7754 56.5328C20.4942 56.6152 20.2626 56.7217 20.0808 56.8524L19.0922 56.7331L19.6206 52.4376H24.1547V53.3751H20.507L20.2001 55.949H20.2513C20.4303 55.807 20.6547 55.6891 20.9246 55.5953C21.1945 55.5016 21.4757 55.4547 21.7683 55.4547C22.3024 55.4547 22.7783 55.5825 23.1959 55.8382C23.6163 56.0911 23.9459 56.4376 24.1845 56.878C24.426 57.3183 24.5467 57.8212 24.5467 58.3865C24.5467 58.9433 24.4217 59.4405 24.1717 59.878C23.9246 60.3126 23.5837 60.6564 23.149 60.9092C22.7144 61.1592 22.22 61.2842 21.6661 61.2842Z" fill="black"/>
<path d="M31.3711 14.0736H38.6102" stroke="black"/>
<path d="M8.73049 7.56509V16.2924H7.67367V8.67304H7.62254L5.49185 10.0878V9.01395L7.67367 7.56509H8.73049ZM14.087 16.4117C13.445 16.4117 12.8981 16.237 12.4464 15.8875C11.9947 15.5353 11.6495 15.0253 11.4109 14.3577C11.1723 13.6872 11.0529 12.8776 11.0529 11.9287C11.0529 10.9855 11.1723 10.1801 11.4109 9.51253C11.6524 8.84207 11.999 8.33071 12.4507 7.97844C12.9052 7.62332 13.4507 7.44577 14.087 7.44577C14.7234 7.44577 15.2674 7.62332 15.7191 7.97844C16.1737 8.33071 16.5203 8.84207 16.7589 9.51253C17.0004 10.1801 17.1211 10.9855 17.1211 11.9287C17.1211 12.8776 17.0018 13.6872 16.7632 14.3577C16.5245 15.0253 16.1794 15.5353 15.7276 15.8875C15.2759 16.237 14.7291 16.4117 14.087 16.4117ZM14.087 15.4742C14.7234 15.4742 15.2177 15.1674 15.57 14.5537C15.9223 13.9401 16.0984 13.0651 16.0984 11.9287C16.0984 11.173 16.0174 10.5296 15.8555 9.99832C15.6964 9.46707 15.4663 9.06224 15.1651 8.78384C14.8669 8.50543 14.5075 8.36622 14.087 8.36622C13.4563 8.36622 12.9634 8.6773 12.6083 9.29946C12.2532 9.91878 12.0757 10.7952 12.0757 11.9287C12.0757 12.6844 12.1552 13.3264 12.3143 13.8549C12.4734 14.3833 12.7021 14.7853 13.0004 15.0608C13.3015 15.3364 13.6637 15.4742 14.087 15.4742ZM21.587 16.4117C20.945 16.4117 20.3981 16.237 19.9464 15.8875C19.4947 15.5353 19.1495 15.0253 18.9109 14.3577C18.6723 13.6872 18.5529 12.8776 18.5529 11.9287C18.5529 10.9855 18.6723 10.1801 18.9109 9.51253C19.1524 8.84207 19.499 8.33071 19.9507 7.97844C20.4052 7.62332 20.9507 7.44577 21.587 7.44577C22.2234 7.44577 22.7674 7.62332 23.2191 7.97844C23.6737 8.33071 24.0203 8.84207 24.2589 9.51253C24.5004 10.1801 24.6211 10.9855 24.6211 11.9287C24.6211 12.8776 24.5018 13.6872 24.2632 14.3577C24.0245 15.0253 23.6794 15.5353 23.2276 15.8875C22.7759 16.237 22.2291 16.4117 21.587 16.4117ZM21.587 15.4742C22.2234 15.4742 22.7177 15.1674 23.07 14.5537C23.4223 13.9401 23.5984 13.0651 23.5984 11.9287C23.5984 11.173 23.5174 10.5296 23.3555 9.99832C23.1964 9.46707 22.9663 9.06224 22.6651 8.78384C22.3669 8.50543 22.0075 8.36622 21.587 8.36622C20.9563 8.36622 20.4634 8.6773 20.1083 9.29946C19.7532 9.91878 19.5757 10.7952 19.5757 11.9287C19.5757 12.6844 19.6552 13.3264 19.8143 13.8549C19.9734 14.3833 20.2021 14.7853 20.5004 15.0608C20.8015 15.3364 21.1637 15.4742 21.587 15.4742Z" fill="black"/>
<path d="M39 214.456H826" stroke="#CCCCCC" stroke-width="2"/>
<path d="M39 164.456H826" stroke="#CCCCCC"/>
<path d="M39 114.456H826" stroke="#CCCCCC"/>
<path d="M39 64.4561H826" stroke="#CCCCCC"/>
<path d="M38.6094 14.0732L826 14.1369" stroke="#CCCCCC"/>
<path d="M95.707 14.073V214.593" stroke="#CCCCCC"/>
<path d="M209.906 14.073V214.593" stroke="#CCCCCC"/>
<path d="M324.105 14.073V214.593" stroke="#CCCCCC"/>
<path d="M438.305 14.073V214.593" stroke="#CCCCCC"/>
<path d="M552.504 14.073V214.593" stroke="#CCCCCC"/>
<path d="M666.703 14.073V214.593" stroke="#CCCCCC"/>
<path d="M780.902 14.073V214.593" stroke="#CCCCCC"/>
<path d="M38.6094 14.073V214.593" stroke="#CCCCCC"/>
<path d="M826 14.073V214.593" stroke="#CCCCCC"/>
<path d="M50.6406 82.0905H141.541V214.935H50.6406V82.0905Z" fill="#AFE0D1"/>
<path d="M164.266 135.98H255.166V214.935H164.266V135.98Z" fill="#AEA8D9"/>
<path d="M277.891 157.285H368.791V214.935H277.891V157.285Z" fill="#F3E2A4"/>
<path d="M392.855 186.11H483.756V214.934H392.855V186.11Z" fill="#5D50B2"/>
<path d="M506.48 194.883H597.381V214.935H506.48V194.883Z" fill="#FFD84E"/>
<path d="M621.445 199.895H712.346V213.681H621.445V199.895Z" fill="#5FC0A3"/>
<path d="M735.07 203.655H825.971V214.934H735.07V203.655Z" fill="#FF897A"/>
</svg>
