<svg width="715" height="842" viewBox="0 0 715 842" fill="none" xmlns="http://www.w3.org/2000/svg">
<path d="M149.151 245.69L356.651 148.398C357.189 148.146 357.811 148.146 358.349 148.398L565.849 245.69C566.551 246.02 567 246.726 567 247.501V500.71C567 501.293 566.746 501.847 566.303 502.227L355.442 683.345C341.657 695.186 322.002 697.311 306.005 688.69L303.938 687.576C293.241 681.811 286.572 670.641 286.572 658.49C286.572 636.82 277.288 616.189 261.069 601.818L148.674 502.225C148.245 501.846 148 501.301 148 500.728V247.501C148 246.726 148.449 246.02 149.151 245.69Z" fill="#6255B4"/>
<path d="M325.236 81.3973L325.236 81.3975L117.736 178.69C117.736 178.69 117.736 178.69 117.736 178.69C91.046 191.204 74 218.023 74 247.501V500.728C74 522.477 83.3178 543.185 99.5972 557.61C99.5975 557.611 99.5978 557.611 99.5981 557.611L211.993 657.203C212.361 657.53 212.572 657.998 212.572 658.49C212.572 697.855 234.179 734.044 268.832 752.719L270.899 753.833C313.859 776.983 366.64 771.277 403.659 739.48L614.52 558.362L614.521 558.361C631.329 543.923 641 522.868 641 500.71V247.501C641 218.023 623.954 191.204 597.264 178.69L565.849 245.69L597.264 178.69L389.765 81.3976C389.764 81.3976 389.764 81.3975 389.764 81.3975C369.322 71.8127 345.678 71.8129 325.236 81.3973Z" stroke="white" stroke-opacity="0.2" stroke-width="148"/>
<path d="M333.302 98.6002L333.302 98.6003L125.802 195.893C105.784 205.278 93 225.393 93 247.501V500.728C93 517.04 99.9884 532.571 112.198 543.39C112.198 543.39 112.198 543.39 112.199 543.39L224.594 642.983C229.031 646.915 231.572 652.56 231.572 658.49C231.572 690.868 249.343 720.633 277.846 735.993L279.913 737.107L306.005 688.69L279.913 737.107C315.95 756.527 360.226 751.74 391.279 725.067L602.14 543.949L602.141 543.948C614.747 533.12 622 517.329 622 500.71V247.501C622 225.393 609.215 205.278 589.198 195.893L381.698 98.6005C381.698 98.6004 381.698 98.6004 381.698 98.6003C366.367 91.4118 348.633 91.4119 333.302 98.6002Z" fill="#6255B4" stroke="#6A5DB8" stroke-width="110"/>
<path d="M342.005 117.161L342.005 117.161L134.505 214.454C121.687 220.464 113.5 233.344 113.5 247.501V500.728C113.5 511.173 117.975 521.119 125.793 528.047C125.794 528.047 125.794 528.047 125.794 528.047L238.189 627.64C247.018 635.463 252.072 646.694 252.072 658.49C252.072 683.329 265.705 706.163 287.571 717.947L289.638 719.06L306.005 688.69L289.638 719.06C318.206 734.455 353.305 730.661 377.922 709.516L588.783 528.398L588.783 528.397C596.856 521.463 601.5 511.352 601.5 500.71V247.501C601.5 233.344 593.313 220.464 580.495 214.454L372.995 117.161C372.995 117.161 372.995 117.161 372.995 117.161C363.178 112.558 351.822 112.558 342.005 117.161Z" fill="white" stroke="white" stroke-width="69"/>
<path d="M148 295.429C148 283.594 158.823 274 172.173 274H268.865C282.216 274 293.038 283.594 293.038 295.429C293.038 307.263 282.216 316.857 268.865 316.857H172.173C158.823 316.857 148 307.263 148 295.429Z" fill="#5D57B2"/>
<path d="M325.269 295.429C325.269 283.594 336.092 274 349.442 274H542.827C556.177 274 567 283.594 567 295.429C567 307.263 556.177 316.857 542.827 316.857H349.442C336.092 316.857 325.269 307.263 325.269 295.429Z" fill="#5D57B2"/>
<path d="M196.346 381.143C196.346 369.308 207.169 359.714 220.519 359.714H349.442C362.793 359.714 373.615 369.308 373.615 381.143C373.615 392.978 362.793 402.571 349.442 402.571H220.519C207.169 402.571 196.346 392.978 196.346 381.143Z" fill="#5D57B2"/>
<path d="M405.846 381.143C405.846 369.308 416.669 359.714 430.019 359.714H494.481C507.831 359.714 518.654 369.308 518.654 381.143C518.654 392.978 507.831 402.571 494.481 402.571H430.019C416.669 402.571 405.846 392.978 405.846 381.143Z" fill="#5D57B2"/>
<path d="M244.692 466.857C244.692 455.022 255.515 445.429 268.865 445.429H446.135C459.485 445.429 470.308 455.022 470.308 466.857C470.308 478.692 459.485 488.286 446.135 488.286H268.865C255.515 488.286 244.692 478.692 244.692 466.857Z" fill="#5D57B2"/>
<path d="M293.038 552.571C293.038 540.737 303.861 531.143 317.212 531.143H397.788C411.139 531.143 421.962 540.737 421.962 552.571C421.962 564.406 411.139 574 397.788 574H317.212C303.861 574 293.038 564.406 293.038 552.571Z" fill="url(#paint0_linear_54809_8169)"/>
<defs>
<linearGradient id="paint0_linear_54809_8169" x1="357.5" y1="274" x2="357.5" y2="574" gradientUnits="userSpaceOnUse">
<stop offset="0.760417" stop-color="#519DAA"/>
<stop offset="0.947917" stop-color="#62DBB7"/>
</linearGradient>
</defs>
</svg>
