<svg width="26" height="28" viewBox="0 0 26 28" fill="none" xmlns="http://www.w3.org/2000/svg">
<path fill-rule="evenodd" clip-rule="evenodd" d="M0.35541 11.3071C0.244276 8.78197 1.50471 6.38521 3.62409 5.06233L9.59966 1.33254C11.719 0.00965581 14.367 -0.0330503 16.4916 1.23525L22.0582 4.55816C23.9888 5.71062 25.2104 7.78325 25.3114 10.0777L25.6026 16.6934C25.7137 19.2185 24.4533 21.6153 22.3339 22.9382L16.3583 26.6679C14.2389 27.9908 11.591 28.0335 9.46636 26.7652L3.89978 23.4423C1.96918 22.2899 0.747564 20.2172 0.646578 17.9228L0.35541 11.3071ZM11.5365 7.65327C12.604 8.08627 13.6715 8.59336 14.6959 9.09966L6.95457 8.94361C6.45584 8.91192 5.87977 9.10559 5.50357 9.62502C5.42149 9.73835 5.31055 9.9044 5.21695 10.0993C5.13716 10.2655 4.99922 10.5942 5.0135 10.9962C5.13813 14.712 5.11112 19.6492 6.15282 22.2545L4.75401 21.3076L4.75394 21.2999C3.62711 20.5108 2.92434 19.2253 2.86206 17.8103L2.57089 11.1946C2.49695 9.51461 3.33676 7.90154 4.77018 7.00684C5.49933 6.55171 6.45815 6.40417 7.64787 6.54303C8.83623 6.68173 10.1625 7.09596 11.5365 7.65327ZM12.6851 19.7494L17.7838 11.219L8.07407 11.219L12.6851 19.7494ZM8.20179 18.4354C8.06856 17.3897 7.97553 16.3203 7.8989 15.2877L11.624 22.4404C12.1243 23.0516 12.801 23.0256 13.0122 23.0147C13.196 23.0053 13.6385 22.8348 13.9752 22.6246C16.9498 20.7679 21.6104 17.7686 23.3231 15.4483L23.3775 16.7517L23.3845 16.7473L23.3871 16.8059C23.461 18.4859 22.6212 20.0989 21.1878 20.9936L15.2122 24.7234C13.7788 25.6181 12.0007 25.6391 10.5871 24.7953C10.0237 24.459 9.51195 23.7312 9.08906 22.557C8.67414 21.4048 8.39751 19.9715 8.20179 18.4354ZM19.6122 8.65129C16.5247 6.9876 13.2074 4.22668 9.51084 4.01956C9.51084 4.01956 10.1235 3.66328 10.5097 3.42438C10.6021 3.36721 10.7457 3.27704 10.7457 3.27704C12.1792 2.38233 13.9573 2.36133 15.3709 3.20516L20.9375 6.52806C22.2194 7.29327 23.0289 8.66672 23.0959 10.1902C23.1299 10.9614 22.7786 11.8619 22.0049 12.8938C21.2404 13.9135 20.1493 14.9468 18.9168 15.9567C18.2944 16.4667 17.6466 16.9622 17.0004 17.4397C16.7511 17.6119 16.5023 17.7814 16.2553 17.9482L20.3072 11.3395C20.5895 10.91 20.722 10.2899 20.4613 9.68758C20.4104 9.57002 20.3336 9.40922 20.2285 9.248C20.1365 9.10703 19.9518 8.85292 19.6493 8.67238C19.6371 8.66507 19.6247 8.65804 19.6122 8.65129Z" fill="url(#paint0_linear_54957_8017)"/>
<defs>
<linearGradient id="paint0_linear_54957_8017" x1="5.5" y1="-4.5" x2="-2.74227" y2="43.6672" gradientUnits="userSpaceOnUse">
<stop offset="0.0426971" stop-color="#5D50B2"/>
<stop offset="0.374582" stop-color="#9083E9"/>
<stop offset="1" stop-color="#B6FFE6"/>
</linearGradient>
</defs>
</svg>
