<svg width="36" height="42" viewBox="0 0 36 42" fill="none" xmlns="http://www.w3.org/2000/svg">
<g opacity="0.7">
<path d="M8.47597 25.8702L6.16195 28.4961C4.74427 27.2468 3.94141 25.4481 3.94141 23.5692V13.4623C3.94141 11.281 5.1948 9.26932 7.19828 8.33509L15.2499 4.58056M8.47597 25.8702L15.2499 4.58056M8.47597 25.8702L6.16195 28.4961L10.8708 32.6457C10.9239 32.6925 10.9655 32.772 10.9655 32.8683C10.9655 35.1976 12.4308 36.7411 13.8128 37.4817C15.8925 38.5963 18.4326 38.3156 20.2208 36.7881L17.9475 34.1268M8.47597 25.8702L17.9475 34.1268M15.2499 4.58056C17.0328 3.74918 19.0889 3.74919 20.8718 4.58057L28.9235 8.33509C30.927 9.26932 32.1803 11.281 32.1803 13.4623V23.5694C32.1803 25.4649 31.3555 27.2765 29.9055 28.5151L20.2208 36.7881L17.9475 34.1268M15.2499 4.58056L17.9475 34.1268" stroke="url(#paint0_linear_54814_8238)" stroke-opacity="0.05" stroke-width="7"/>
<path d="M6.62475 27.9709L8.47597 25.8702L6.62476 27.9709L11.3336 32.1205C11.5388 32.3013 11.6655 32.5728 11.6655 32.8683C11.6655 34.8712 12.9215 36.2099 14.1434 36.8647C15.968 37.8426 18.1964 37.5967 19.7661 36.2558L29.4509 27.9828C30.7437 26.8784 31.4803 25.2619 31.4803 23.5694V13.4623C31.4803 11.5492 30.3811 9.78715 28.6276 8.9695L20.576 5.21498C18.9806 4.47105 17.1411 4.47105 15.5457 5.21498L7.49411 8.9695C5.74066 9.78714 4.64141 11.5492 4.64141 13.4623V23.5692C4.64141 25.2488 5.35917 26.8556 6.62475 27.9709Z" stroke="white" stroke-opacity="0.025" stroke-width="5.6"/>
<path d="M7.08756 27.4457L8.41873 25.9352L7.08756 27.4457L11.7964 31.5953C12.1537 31.9102 12.3655 32.3735 12.3655 32.8683C12.3655 34.5448 13.4122 35.6786 14.4741 36.2478C16.0436 37.0889 17.9603 36.8778 19.3115 35.7236L28.9962 27.4506C30.132 26.4803 30.7803 25.059 30.7803 23.5694V13.4623C30.7803 11.8174 29.8352 10.305 28.3318 9.60392L20.2802 5.8494C18.8723 5.19291 17.2494 5.19291 15.8416 5.8494L7.78994 9.60392C6.28652 10.305 5.34141 11.8174 5.34141 13.4623V23.5692C5.34141 25.0495 5.97406 26.4645 7.08756 27.4457Z" stroke="white" stroke-opacity="0.07" stroke-width="4.2"/>
<path d="M18.8568 35.1913L17.9475 34.1268L18.8568 35.1913L28.5415 26.9183C29.5203 26.0823 30.0803 24.8561 30.0803 23.5694V13.4623C30.0803 12.0856 29.2894 10.8228 28.036 10.2383L19.9843 6.48381L19.3927 7.75265L19.9843 6.48381C18.764 5.91477 17.3577 5.91477 16.1374 6.48381L8.08577 10.2383C6.83237 10.8228 6.04141 12.0855 6.04141 13.4623V23.5692C6.04141 24.8503 6.58896 26.0733 7.55036 26.9206L12.2592 31.0701C12.7686 31.519 13.0655 32.1743 13.0655 32.8683C13.0655 34.2184 13.9029 35.1474 14.8047 35.6308C16.1191 36.3352 17.7242 36.1588 18.8568 35.1913Z" stroke="white" stroke-opacity="0.1" stroke-width="2.8"/>
</g>
<path fill-rule="evenodd" clip-rule="evenodd" d="M16.7291 7.75265L8.67743 11.5072C7.92408 11.8585 7.44141 12.6219 7.44141 13.4623V23.5692C7.44141 24.4518 7.81876 25.291 8.47597 25.8702L13.1848 30.0198C13.9984 30.7367 14.4655 31.7757 14.4655 32.8683C14.4655 33.5656 14.8843 34.085 15.4661 34.3968C16.2702 34.8278 17.252 34.721 17.9475 34.1268L27.6322 25.8538C28.2968 25.2861 28.6803 24.4502 28.6803 23.5694V13.4623C28.6803 12.6219 28.1977 11.8585 27.4443 11.5072L19.3927 7.75265C18.5474 7.35849 17.5743 7.35849 16.7291 7.75265Z" fill="white"/>
<path fill-rule="evenodd" clip-rule="evenodd" d="M8.09999 10.2368L16.1516 6.48231C17.3632 5.91735 18.7579 5.91736 19.9695 6.48231L28.0211 10.2368C29.2641 10.8165 30.0605 12.0762 30.0605 13.4627V23.5699C30.0605 24.8631 29.4975 26.0904 28.5217 26.9239L18.837 35.1969C17.7112 36.1586 16.1219 36.3315 14.8203 35.6339C13.7881 35.0807 13.0847 34.0815 13.0847 32.8688C13.0847 32.1811 12.7907 31.5271 12.2785 31.0758L7.56972 26.9263C6.61101 26.0814 6.06055 24.8571 6.06055 23.5697V13.4627C6.06055 12.0762 6.85696 10.8165 8.09999 10.2368ZM16.7287 7.75312L8.6771 11.5076C7.92375 11.8589 7.44108 12.6224 7.44108 13.4627V23.5697C7.44108 24.4522 7.81843 25.2915 8.47564 25.8707L13.1845 30.0202C13.9981 30.7372 14.4652 31.7762 14.4652 32.8688C14.4652 33.5661 14.8839 34.0855 15.4657 34.3973C16.2699 34.8283 17.2517 34.7214 17.9472 34.1273L27.6319 25.8543C28.2965 25.2866 28.68 24.4507 28.68 23.5699V13.4627C28.68 12.6224 28.1973 11.8589 27.444 11.5076L19.3924 7.75312C18.5471 7.35897 17.574 7.35897 16.7287 7.75312Z" fill="#6A5DB8"/>
<rect x="16.0605" y="15.0586" width="10" height="2" rx="1" fill="#6A5DB8" stroke="white" stroke-width="0.3"/>
<rect x="10.0605" y="15.0586" width="5" height="2" rx="1" fill="#6A5DB8" stroke="white" stroke-width="0.3"/>
<rect x="20.002" y="18.0586" width="4" height="2" rx="1" fill="#6A5DB8" stroke="white" stroke-width="0.3"/>
<rect x="12.002" y="18.0586" width="7" height="2" rx="1" fill="#6A5DB8" stroke="white" stroke-width="0.3"/>
<rect x="14.002" y="21.0586" width="8" height="2" rx="1" fill="#6A5DB8" stroke="white" stroke-width="0.3"/>
<rect x="16.002" y="24.0586" width="4" height="2" rx="1" fill="#519DAA" stroke="white" stroke-width="0.3"/>
<defs>
<linearGradient id="paint0_linear_54814_8238" x1="18.0609" y1="0.5" x2="18.0609" y2="34.6592" gradientUnits="userSpaceOnUse">
<stop stop-color="white"/>
<stop offset="1" stop-color="white" stop-opacity="0"/>
</linearGradient>
</defs>
</svg>
