<svg width="26" height="32" viewBox="0 0 26 32" fill="none" xmlns="http://www.w3.org/2000/svg">
<path d="M4.16392 7.06421L11.7459 3.57516C12.5418 3.20888 13.4582 3.20888 14.2541 3.57516L21.8361 7.06421C22.5455 7.39066 23 8.10015 23 8.88107V18.2735C23 19.0921 22.6388 19.8689 22.013 20.3964L12.8932 28.0845C12.2383 28.6366 11.3138 28.7358 10.5566 28.3354L10.4295 28.2682C9.92808 28.003 9.6144 27.4822 9.6144 26.9149C9.6144 25.8996 9.1745 24.9341 8.40835 24.2678L3.97421 20.4116C3.35534 19.8734 3 19.0935 3 18.2733V8.88106C3 8.10015 3.45452 7.39066 4.16392 7.06421Z" fill="white"/>
<path d="M11.2024 2.3942L3.62048 5.88325C2.44996 6.42189 1.7 7.59255 1.7 8.88106V18.2733C1.7 19.4698 2.21835 20.6075 3.12113 21.3926L7.55527 25.2487C8.03751 25.6681 8.3144 26.2759 8.3144 26.9149C8.3144 27.9639 8.89446 28.9269 9.82172 29.4173L9.94877 29.4845C11.1745 30.1328 12.671 29.9721 13.7311 29.0784L22.8509 21.3904C23.7698 20.6158 24.3 19.4753 24.3 18.2735V8.88107C24.3 7.59256 23.55 6.42189 22.3795 5.88325L14.7976 2.3942C13.6567 1.8692 12.3433 1.8692 11.2024 2.3942Z" stroke="#6A5DB8" stroke-opacity="0.1" stroke-width="2.6"/>
<path d="M4.16392 7.06454L11.7459 3.57549C12.5418 3.20921 13.4582 3.20921 14.2541 3.57549L21.8361 7.06454C22.5455 7.39099 23 8.10048 23 8.8814V18.2739C23 19.0924 22.6388 19.8692 22.013 20.3968L12.8932 28.0848C12.2383 28.6369 11.3138 28.7362 10.5566 28.3357L10.4295 28.2685C9.92808 28.0033 9.6144 27.4825 9.6144 26.9153C9.6144 25.8999 9.1745 24.9344 8.40835 24.2681L3.97421 20.412C3.35534 19.8738 3 19.0938 3 18.2737V8.8814C3 8.10048 3.45452 7.39099 4.16392 7.06454Z" fill="white"/>
<path fill-rule="evenodd" clip-rule="evenodd" d="M3.61969 5.8828L11.2017 2.39375C12.3425 1.86875 13.6559 1.86875 14.7968 2.39375L22.3787 5.8828C23.5493 6.42144 24.2992 7.59211 24.2992 8.88061V18.2731C24.2992 19.4748 23.769 20.6154 22.8501 21.3899L13.7304 29.078C12.6702 29.9717 11.1737 30.1323 9.94799 29.4841C8.976 28.97 8.31362 28.0414 8.31362 26.9145C8.31362 26.2754 8.03673 25.6677 7.55449 25.2483L3.12035 21.3921C2.21757 20.607 1.69922 19.4693 1.69922 18.2729V8.88061C1.69922 7.5921 2.44918 6.42144 3.61969 5.8828ZM11.7451 3.57471L4.16314 7.06375C3.45374 7.39021 2.99922 8.0997 2.99922 8.88061V18.2729C2.99922 19.0931 3.35456 19.873 3.97343 20.4112L8.40757 24.2673C9.17372 24.9336 9.61362 25.8992 9.61362 26.9145C9.61362 27.5624 10.0079 28.0451 10.5558 28.3349C11.313 28.7354 12.2375 28.6361 12.8925 28.084L22.0122 20.396C22.6381 19.8684 22.9992 19.0916 22.9992 18.2731V8.88061C22.9992 8.0997 22.5447 7.39021 21.8353 7.06376L14.2533 3.57471C13.4574 3.20843 12.5411 3.20843 11.7451 3.57471Z" fill="#6A5DB8"/>
<rect x="10" y="9.99805" width="11" height="2" rx="1" fill="#6A5DB8" stroke="white" stroke-width="0.3"/>
<rect x="5" y="9.99805" width="4" height="2" rx="1" fill="#6A5DB8" stroke="white" stroke-width="0.3"/>
<rect x="15" y="12.998" width="4" height="2" rx="1" fill="#6A5DB8" stroke="white" stroke-width="0.3"/>
<rect x="7" y="12.998" width="7" height="2" rx="1" fill="#6A5DB8" stroke="white" stroke-width="0.3"/>
<rect x="9" y="15.998" width="8" height="2" rx="1" fill="#6A5DB8" stroke="white" stroke-width="0.3"/>
<rect x="11" y="18.998" width="4" height="2" rx="1" fill="#519DAA" stroke="white" stroke-width="0.3"/>
</svg>
