<svg width="40" height="40" viewBox="0 0 40 40" fill="none" xmlns="http://www.w3.org/2000/svg">
<path d="M25.2358 33.0223L25.2394 33.0192L31.5253 27.6928C33.095 26.3628 34 24.4096 34 22.3523V14.0389C34 11.4586 32.5805 9.08754 30.3061 7.86885L23.3061 4.118C21.2409 3.0114 18.7591 3.0114 16.6939 4.118L9.69387 7.86885C7.4195 9.08754 6 11.4586 6 14.0389V22.302C6 24.4098 6.94978 26.4054 8.58561 27.7346L10.3947 29.2046L12.8678 31.2618C13.323 33.3499 14.7988 35.0722 16.7984 35.8399L17.7973 33.2383L16.7984 35.8399C18.9617 36.6704 21.4055 36.2575 23.1758 34.7623L25.2358 33.0223Z" fill="white" stroke="#7A68E2" stroke-width="6"/>
</svg>
