<svg width="28" height="28" viewBox="0 0 28 28" fill="none" xmlns="http://www.w3.org/2000/svg">
<path d="M6.10817 5.48628L12.1082 2.26552C13.2897 1.63131 14.7103 1.63131 15.8918 2.26553L21.8918 5.48628C23.19 6.18313 24 7.53723 24 9.01062V16.2066C24 17.381 23.4839 18.496 22.5886 19.256L17 24L15.1278 25.5841C14.2782 26.3031 13.1042 26.5016 12.0654 26.1021C11.0907 25.7272 10.3759 24.8794 10.1711 23.8554L10.0657 23.3286C10.0232 23.116 9.90915 22.9243 9.74255 22.7855L7 20.5L5.47478 19.2584C4.54164 18.4988 4 17.3595 4 16.1563V9.01062C4 7.53723 4.80999 6.18313 6.10817 5.48628Z" fill="white"/>
<path d="M17.2907 24.3435L17.2912 24.3431L22.8798 19.5991C23.8758 18.7536 24.45 17.5131 24.45 16.2066V9.01062C24.45 7.37147 23.5489 5.86504 22.1047 5.08979L16.1047 1.86904C14.7903 1.16347 13.2097 1.16347 11.8953 1.86904L5.89533 5.08979C4.45111 5.86504 3.55 7.37147 3.55 9.01062V16.1563C3.55 17.4949 4.15257 18.7624 5.19069 19.6074L6.71396 20.8474L6.71591 20.849L9.45447 23.1312C9.5421 23.2042 9.60209 23.305 9.62446 23.4169L9.72982 23.9436C9.96486 25.1188 10.7853 26.0919 11.9038 26.5221C13.0961 26.9806 14.4434 26.7527 15.4185 25.9277L17.2907 24.3435Z" stroke="#6A5DB8" stroke-opacity="0.3" stroke-width="0.9"/>
<path d="M7.32009 20.1159L7.32011 20.1159L7.31565 20.1122L5.79043 18.8707C4.97393 18.206 4.5 17.2091 4.5 16.1563V9.01062C4.5 7.7214 5.20874 6.53657 6.34464 5.92682L12.3446 2.70607C13.3785 2.15113 14.6216 2.15113 15.6554 2.70607L21.6554 5.92682C22.7913 6.53657 23.5 7.7214 23.5 9.01062V16.2066C23.5 17.2342 23.0484 18.2098 22.265 18.8748L16.677 23.6183L16.6764 23.6188L14.8049 25.2024C14.0946 25.8034 13.1132 25.9694 12.2449 25.6354C11.4301 25.322 10.8326 24.6133 10.6614 23.7573L10.556 23.2306C10.4911 22.9059 10.317 22.6133 10.0626 22.4014L7.32009 20.1159Z" fill="white" stroke="#6A5DB8"/>
<path fill-rule="evenodd" clip-rule="evenodd" d="M11.459 10.203C11.459 9.81473 11.7984 9.5 12.2171 9.5H20.2443C20.663 9.5 21.0024 9.81473 21.0024 10.203C21.0024 10.5912 20.663 10.906 20.2443 10.906H12.2171C11.7984 10.906 11.459 10.5912 11.459 10.203Z" fill="#6A5DB8"/>
<path fill-rule="evenodd" clip-rule="evenodd" d="M7 10.203C7 9.81473 7.33942 9.5 7.75813 9.5H9.54195C9.96065 9.5 10.3001 9.81473 10.3001 10.203C10.3001 10.5912 9.96065 10.906 9.54195 10.906H7.75813C7.33942 10.906 7 10.5912 7 10.203Z" fill="#B8B2DD"/>
<path fill-rule="evenodd" clip-rule="evenodd" d="M15.9199 12.6844C15.9199 12.2962 16.2593 11.9814 16.678 11.9814H18.4619C18.8806 11.9814 19.22 12.2962 19.22 12.6844C19.22 13.0727 18.8806 13.3874 18.4619 13.3874H16.678C16.2593 13.3874 15.9199 13.0727 15.9199 12.6844Z" fill="#B8B2DD"/>
<path fill-rule="evenodd" clip-rule="evenodd" d="M8.78125 12.6844C8.78125 12.2962 9.12067 11.9814 9.53938 11.9814H13.9989C14.4176 11.9814 14.7571 12.2962 14.7571 12.6844C14.7571 13.0727 14.4176 13.3874 13.9989 13.3874H9.53938C9.12067 13.3874 8.78125 13.0727 8.78125 12.6844Z" fill="#6A5DB8"/>
<path fill-rule="evenodd" clip-rule="evenodd" d="M10.5664 15.1659C10.5664 14.7776 10.9058 14.4629 11.3245 14.4629H16.676C17.0947 14.4629 17.4341 14.7776 17.4341 15.1659C17.4341 15.5541 17.0947 15.8689 16.676 15.8689H11.3245C10.9058 15.8689 10.5664 15.5541 10.5664 15.1659Z" fill="#6A5DB8"/>
<path fill-rule="evenodd" clip-rule="evenodd" d="M12.3496 17.6463C12.3496 17.2581 12.689 16.9434 13.1077 16.9434H14.8916C15.3103 16.9434 15.6497 17.2581 15.6497 17.6463C15.6497 18.0346 15.3103 18.3493 14.8916 18.3493H13.1077C12.689 18.3493 12.3496 18.0346 12.3496 17.6463Z" fill="url(#paint0_linear_54861_8887)"/>
<defs>
<linearGradient id="paint0_linear_54861_8887" x1="13.9996" y1="16.5" x2="13.9996" y2="18.5" gradientUnits="userSpaceOnUse">
<stop offset="0.177767" stop-color="#68C5A9"/>
<stop offset="1" stop-color="#7BB4BE"/>
</linearGradient>
</defs>
</svg>
