<svg width="28" height="28" viewBox="0 0 28 28" fill="none" xmlns="http://www.w3.org/2000/svg">
<rect x="0.7" y="0.7" width="26.6" height="26.6" rx="6.3" fill="url(#paint0_radial_54884_9119)"/>
<path d="M6.10817 5.48628L12.1082 2.26552C13.2897 1.63131 14.7103 1.63131 15.8918 2.26553L21.8918 5.48628C23.19 6.18313 24 7.53723 24 9.01062V16.2066C24 17.381 23.4839 18.496 22.5886 19.256L17 24L15.1278 25.5841C14.2782 26.3031 13.1042 26.5016 12.0654 26.1021C11.0907 25.7272 10.3759 24.8794 10.1711 23.8554L10.0657 23.3286C10.0232 23.116 9.90915 22.9243 9.74255 22.7855L7 20.5L5.47478 19.2584C4.54164 18.4988 4 17.3595 4 16.1563V9.01062C4 7.53723 4.80999 6.18313 6.10817 5.48628Z" fill="white"/>
<path d="M17.2907 24.3435L17.2912 24.3431L22.8798 19.5991C23.8758 18.7536 24.45 17.5131 24.45 16.2066V9.01062C24.45 7.37147 23.5489 5.86504 22.1047 5.08979L16.1047 1.86904C14.7903 1.16347 13.2097 1.16347 11.8953 1.86904L5.89533 5.08979C4.45111 5.86504 3.55 7.37147 3.55 9.01062V16.1563C3.55 17.4949 4.15257 18.7624 5.19069 19.6074L6.71396 20.8474L6.71591 20.849L9.45447 23.1312C9.5421 23.2042 9.60209 23.305 9.62446 23.4169L9.72982 23.9436C9.96486 25.1188 10.7853 26.0919 11.9038 26.5221C13.0961 26.9806 14.4434 26.7527 15.4185 25.9277L17.2907 24.3435Z" stroke="#6A5DB8" stroke-opacity="0.3" stroke-width="0.9"/>
<path d="M7.32009 20.1159L7.32011 20.1159L7.31565 20.1122L5.79043 18.8707C4.97393 18.206 4.5 17.2091 4.5 16.1563V9.01062C4.5 7.7214 5.20874 6.53657 6.34464 5.92682L12.3446 2.70607C13.3785 2.15113 14.6216 2.15113 15.6554 2.70607L21.6554 5.92682C22.7913 6.53657 23.5 7.7214 23.5 9.01062V16.2066C23.5 17.2342 23.0484 18.2098 22.265 18.8748L16.677 23.6183L16.6764 23.6188L14.8049 25.2024C14.0946 25.8034 13.1132 25.9694 12.2449 25.6354C11.4301 25.322 10.8326 24.6133 10.6614 23.7573L10.556 23.2306C10.4911 22.9059 10.317 22.6133 10.0626 22.4014L7.32009 20.1159Z" stroke="#6A5DB8"/>
<path fill-rule="evenodd" clip-rule="evenodd" d="M16.543 9.20298C16.543 8.81473 16.2035 8.5 15.7848 8.5H7.75764C7.33894 8.5 6.99951 8.81473 6.99951 9.20298C6.99951 9.59122 7.33894 9.90596 7.75764 9.90596H15.7848C16.2035 9.90596 16.543 9.59122 16.543 9.20298Z" fill="#6A5DB8"/>
<path fill-rule="evenodd" clip-rule="evenodd" d="M21.002 9.20298C21.002 8.81473 20.6625 8.5 20.2438 8.5H18.46C18.0413 8.5 17.7019 8.81473 17.7019 9.20298C17.7019 9.59122 18.0413 9.90596 18.46 9.90596H20.2438C20.6625 9.90596 21.002 9.59122 21.002 9.20298Z" fill="#B8B2DD"/>
<path fill-rule="evenodd" clip-rule="evenodd" d="M12.082 12.6844C12.082 12.2962 11.7426 11.9814 11.3239 11.9814H9.54008C9.12138 11.9814 8.78196 12.2962 8.78196 12.6844C8.78196 13.0727 9.12138 13.3874 9.54008 13.3874H11.3239C11.7426 13.3874 12.082 13.0727 12.082 12.6844Z" fill="#B8B2DD"/>
<path fill-rule="evenodd" clip-rule="evenodd" d="M19.2207 12.6844C19.2207 12.2962 18.8813 11.9814 18.4626 11.9814H14.003C13.5843 11.9814 13.2449 12.2962 13.2449 12.6844C13.2449 13.0727 13.5843 13.3874 14.003 13.3874H18.4626C18.8813 13.3874 19.2207 13.0727 19.2207 12.6844Z" fill="#6A5DB8"/>
<path fill-rule="evenodd" clip-rule="evenodd" d="M17.4355 16.1659C17.4355 15.7776 17.0961 15.4629 16.6774 15.4629H11.326C10.9073 15.4629 10.5678 15.7776 10.5678 16.1659C10.5678 16.5541 10.9073 16.8689 11.326 16.8689H16.6774C17.0961 16.8689 17.4355 16.5541 17.4355 16.1659Z" fill="#6A5DB8"/>
<path fill-rule="evenodd" clip-rule="evenodd" d="M15.6523 19.6463C15.6523 19.2581 15.3129 18.9434 14.8942 18.9434H13.1104C12.6917 18.9434 12.3523 19.2581 12.3523 19.6463C12.3523 20.0346 12.6917 20.3493 13.1104 20.3493H14.8942C15.3129 20.3493 15.6523 20.0346 15.6523 19.6463Z" fill="url(#paint1_linear_54884_9119)"/>
<rect x="0.7" y="0.7" width="26.6" height="26.6" rx="6.3" stroke="url(#paint2_linear_54884_9119)" stroke-width="0.6"/>
<defs>
<radialGradient id="paint0_radial_54884_9119" cx="0" cy="0" r="1" gradientUnits="userSpaceOnUse" gradientTransform="translate(14 3.32143) rotate(90) scale(47.7668 86.4896)">
<stop offset="0.144824" stop-color="#6A5DB8"/>
<stop offset="0.995554" stop-color="#68C5A9"/>
</radialGradient>
<linearGradient id="paint1_linear_54884_9119" x1="14.0023" y1="18.5" x2="14.0023" y2="20.5" gradientUnits="userSpaceOnUse">
<stop offset="0.177767" stop-color="#68C5A9"/>
<stop offset="1" stop-color="#7BB4BE"/>
</linearGradient>
<linearGradient id="paint2_linear_54884_9119" x1="14" y1="-19.6471" x2="14" y2="49.1765" gradientUnits="userSpaceOnUse">
<stop stop-color="#69B0AC"/>
<stop offset="0.760784" stop-color="#6A87B2"/>
</linearGradient>
</defs>
</svg>
