<svg width="30" height="31" viewBox="0 0 30 31" fill="none" xmlns="http://www.w3.org/2000/svg">
<path d="M6.11078 5.76316L13.1108 2.01231C14.2909 1.37997 15.7091 1.37997 16.8892 2.01231L23.8892 5.76316C25.1889 6.45955 26 7.81444 26 9.2889V17.6023C26 18.7779 25.4828 19.894 24.5859 20.654L18.3 25.9804L16.24 27.7204C15.3055 28.5096 14.0156 28.7276 12.8737 28.2892C11.8005 27.8772 11.0131 26.9442 10.7873 25.8171L10.6723 25.2434C10.6255 25.0098 10.5001 24.7993 10.317 24.6469L7.3 22.1373L5.47749 20.6563C4.54273 19.8968 4 18.7564 4 17.552V9.2889C4 7.81445 4.81115 6.45955 6.11078 5.76316Z" fill="white" stroke="#7A68E2" stroke-width="3"/>
</svg>
