<svg width="503" height="503" viewBox="0 0 503 503" fill="none" xmlns="http://www.w3.org/2000/svg">
<rect width="503" height="503" rx="70" fill="#5E50B2"/>
<path d="M123.988 118.085L238.488 62.9687C246.711 59.0104 256.289 59.0104 264.512 62.9687L379.012 118.085C389.397 123.084 396 133.591 396 145.117V293.569C396 302.179 392.3 310.375 385.842 316.07L250.25 435.638C240.684 444.073 226.847 445.583 215.687 439.409L214.84 438.94C207.274 434.754 202.578 426.79 202.578 418.143C202.578 402.804 196.11 388.175 184.763 377.853L116.812 316.039C110.563 310.353 107 302.296 107 293.847V145.117C107 133.591 113.603 123.084 123.988 118.085Z" fill="white"/>
<path fill-rule="evenodd" clip-rule="evenodd" d="M96.6249 338.23C84.1254 326.859 77 310.745 77 293.847V145.117C77 122.065 90.2059 101.052 110.976 91.054L225.476 35.9375C241.922 28.0209 261.078 28.0208 277.524 35.9375L392.024 91.054C412.794 101.052 426 122.065 426 145.117V293.569C426 310.79 418.6 327.181 405.684 338.571L270.092 458.139C250.734 475.209 222.696 477.572 200.317 465.19C183.201 455.721 172.578 437.704 172.578 418.143C172.578 411.252 169.672 404.681 164.575 400.044L96.6249 338.23ZM214.84 438.94C207.274 434.754 202.578 426.79 202.578 418.143C202.578 402.804 196.11 388.175 184.763 377.853L116.812 316.039C110.563 310.353 107 302.296 107 293.847V145.117C107 133.591 113.603 123.084 123.988 118.085L238.488 62.9687C246.711 59.0104 256.289 59.0104 264.512 62.9687L379.012 118.085C389.397 123.084 396 133.591 396 145.117V293.569C396 302.179 392.3 310.375 385.842 316.07L250.25 435.638C240.304 444.409 226.236 445.245 214.84 438.94Z" fill="#5D57B2"/>
</svg>
