<svg width="42" height="42" viewBox="0 0 42 42" fill="none" xmlns="http://www.w3.org/2000/svg">
<rect width="42" height="42" rx="8" fill="#6A5DB8"/>
<g opacity="0.7">
<path d="M11.476 25.8702L9.16195 28.4961C7.74427 27.2468 6.94141 25.4481 6.94141 23.5692V13.4623C6.94141 11.281 8.1948 9.26932 10.1983 8.33509L18.2499 4.58056M11.476 25.8702L18.2499 4.58056M11.476 25.8702L9.16195 28.4961L13.8708 32.6457C13.9239 32.6925 13.9655 32.772 13.9655 32.8683C13.9655 35.1976 15.4308 36.7411 16.8128 37.4817C18.8925 38.5963 21.4326 38.3156 23.2208 36.7881L20.9475 34.1268M11.476 25.8702L20.9475 34.1268M18.2499 4.58056C20.0328 3.74918 22.0889 3.74919 23.8718 4.58057L31.9235 8.33509C33.927 9.26932 35.1803 11.281 35.1803 13.4623V23.5694C35.1803 25.4649 34.3555 27.2765 32.9055 28.5151L23.2208 36.7881L20.9475 34.1268M18.2499 4.58056L20.9475 34.1268" stroke="url(#paint0_linear_54814_8238)" stroke-opacity="0.05" stroke-width="7"/>
<path d="M9.62475 27.9709L11.476 25.8702L9.62476 27.9709L14.3336 32.1205C14.5388 32.3013 14.6655 32.5728 14.6655 32.8683C14.6655 34.8712 15.9215 36.2099 17.1434 36.8647C18.968 37.8426 21.1964 37.5967 22.7661 36.2558L32.4509 27.9828C33.7437 26.8784 34.4803 25.2619 34.4803 23.5694V13.4623C34.4803 11.5492 33.3811 9.78715 31.6276 8.9695L23.576 5.21498C21.9806 4.47105 20.1411 4.47105 18.5457 5.21498L10.4941 8.9695C8.74066 9.78714 7.64141 11.5492 7.64141 13.4623V23.5692C7.64141 25.2488 8.35917 26.8556 9.62475 27.9709Z" stroke="white" stroke-opacity="0.025" stroke-width="5.6"/>
<path d="M10.0876 27.4457L11.4187 25.9352L10.0876 27.4457L14.7964 31.5953C15.1537 31.9102 15.3655 32.3735 15.3655 32.8683C15.3655 34.5448 16.4122 35.6786 17.4741 36.2478C19.0436 37.0889 20.9603 36.8778 22.3115 35.7236L31.9962 27.4506C33.132 26.4803 33.7803 25.059 33.7803 23.5694V13.4623C33.7803 11.8174 32.8352 10.305 31.3318 9.60392L23.2802 5.8494C21.8723 5.19291 20.2494 5.19291 18.8416 5.8494L10.7899 9.60392C9.28652 10.305 8.34141 11.8174 8.34141 13.4623V23.5692C8.34141 25.0495 8.97406 26.4645 10.0876 27.4457Z" stroke="white" stroke-opacity="0.07" stroke-width="4.2"/>
<path d="M21.8568 35.1913L20.9475 34.1268L21.8568 35.1913L31.5415 26.9183C32.5203 26.0823 33.0803 24.8561 33.0803 23.5694V13.4623C33.0803 12.0856 32.2894 10.8228 31.036 10.2383L22.9843 6.48381L22.3927 7.75265L22.9843 6.48381C21.764 5.91477 20.3577 5.91477 19.1374 6.48381L11.0858 10.2383C9.83237 10.8228 9.04141 12.0855 9.04141 13.4623V23.5692C9.04141 24.8503 9.58896 26.0733 10.5504 26.9206L15.2592 31.0701C15.7686 31.519 16.0655 32.1743 16.0655 32.8683C16.0655 34.2184 16.9029 35.1474 17.8047 35.6308C19.1191 36.3352 20.7242 36.1588 21.8568 35.1913Z" stroke="white" stroke-opacity="0.1" stroke-width="2.8"/>
</g>
<path fill-rule="evenodd" clip-rule="evenodd" d="M19.7291 7.75265L11.6774 11.5072C10.9241 11.8585 10.4414 12.6219 10.4414 13.4623V23.5692C10.4414 24.4518 10.8188 25.291 11.476 25.8702L16.1848 30.0198C16.9984 30.7367 17.4655 31.7757 17.4655 32.8683C17.4655 33.5656 17.8843 34.085 18.4661 34.3968C19.2702 34.8278 20.252 34.721 20.9475 34.1268L30.6322 25.8538C31.2968 25.2861 31.6803 24.4502 31.6803 23.5694V13.4623C31.6803 12.6219 31.1977 11.8585 30.4443 11.5072L22.3927 7.75265C21.5474 7.35849 20.5743 7.35849 19.7291 7.75265Z" fill="white"/>
<path fill-rule="evenodd" clip-rule="evenodd" d="M11.1 10.2368L19.1516 6.48231C20.3632 5.91735 21.7579 5.91736 22.9695 6.48231L31.0211 10.2368C32.2641 10.8165 33.0605 12.0762 33.0605 13.4627V23.5699C33.0605 24.8631 32.4975 26.0904 31.5217 26.9239L21.837 35.1969C20.7112 36.1586 19.1219 36.3315 17.8203 35.6339C16.7881 35.0807 16.0847 34.0815 16.0847 32.8688C16.0847 32.1811 15.7907 31.5271 15.2785 31.0758L10.5697 26.9263C9.61101 26.0814 9.06055 24.8571 9.06055 23.5697V13.4627C9.06055 12.0762 9.85696 10.8165 11.1 10.2368ZM19.7287 7.75312L11.6771 11.5076C10.9238 11.8589 10.4411 12.6224 10.4411 13.4627V23.5697C10.4411 24.4522 10.8184 25.2915 11.4756 25.8707L16.1845 30.0202C16.9981 30.7372 17.4652 31.7762 17.4652 32.8688C17.4652 33.5661 17.8839 34.0855 18.4657 34.3973C19.2699 34.8283 20.2517 34.7214 20.9472 34.1273L30.6319 25.8543C31.2965 25.2866 31.68 24.4507 31.68 23.5699V13.4627C31.68 12.6224 31.1973 11.8589 30.444 11.5076L22.3924 7.75312C21.5471 7.35897 20.574 7.35897 19.7287 7.75312Z" fill="#6A5DB8"/>
<rect x="19.0605" y="15.0586" width="10" height="2" rx="1" fill="#6A5DB8" stroke="white" stroke-width="0.3"/>
<rect x="13.0605" y="15.0586" width="5" height="2" rx="1" fill="#6A5DB8" stroke="white" stroke-width="0.3"/>
<rect x="23.002" y="18.0586" width="4" height="2" rx="1" fill="#6A5DB8" stroke="white" stroke-width="0.3"/>
<rect x="15.002" y="18.0586" width="7" height="2" rx="1" fill="#6A5DB8" stroke="white" stroke-width="0.3"/>
<rect x="17.002" y="21.0586" width="8" height="2" rx="1" fill="#6A5DB8" stroke="white" stroke-width="0.3"/>
<rect x="19.002" y="24.0586" width="4" height="2" rx="1" fill="#519DAA" stroke="white" stroke-width="0.3"/>
<defs>
<linearGradient id="paint0_linear_54814_8238" x1="21.0609" y1="0.5" x2="21.0609" y2="34.6592" gradientUnits="userSpaceOnUse">
<stop stop-color="white"/>
<stop offset="1" stop-color="white" stop-opacity="0"/>
</linearGradient>
</defs>
</svg>
