<svg width="28" height="28" viewBox="0 0 28 28" fill="none" xmlns="http://www.w3.org/2000/svg">
<rect x="0.7" y="0.7" width="26.6" height="26.6" rx="6.3" fill="url(#paint0_radial_54876_9063)"/>
<path fill-rule="evenodd" clip-rule="evenodd" d="M15.7088 26.271C14.6082 27.2022 13.0875 27.4594 11.7419 26.9419C10.4794 26.4563 9.55345 25.3581 9.28817 24.0317L9.18281 23.5049C9.1806 23.4938 9.17466 23.4839 9.166 23.4766L6.42744 21.1945L4.90622 19.9562C3.76311 19.0257 3.09961 17.63 3.09961 16.1561V9.0104C3.09961 7.2055 4.09184 5.54673 5.68211 4.69309L11.6821 1.47233C13.1294 0.695418 14.8698 0.695421 16.3171 1.47234L22.3171 4.69309C23.9074 5.54673 24.8996 7.2055 24.8996 9.0104V16.2064C24.8996 17.645 24.2674 19.0109 23.1706 19.9419L15.7088 26.271ZM6.99961 20.4998L9.74216 22.7852C9.90876 22.9241 10.0228 23.1158 10.0653 23.3284L10.1707 23.8552C10.3755 24.8792 11.0903 25.727 12.065 26.1019C13.1038 26.5014 14.2778 26.3028 15.1275 25.5839L16.9996 23.9998L22.5882 19.2558C23.4835 18.4958 23.9996 17.3807 23.9996 16.2064V9.0104C23.9996 7.53701 23.1896 6.18292 21.8914 5.48607L15.8914 2.26531C14.71 1.63109 13.2893 1.63109 12.1078 2.26531L6.10777 5.48606C4.8096 6.18292 3.99961 7.53701 3.99961 9.0104V16.1561C3.99961 17.3593 4.54125 18.4986 5.47439 19.2582L6.99961 20.4998Z" fill="url(#paint1_linear_54876_9063)" fill-opacity="0.3"/>
<path d="M7.32009 20.1161L7.32011 20.116L7.31565 20.1124L5.79043 18.8708C4.97393 18.2062 4.5 17.2093 4.5 16.1565V9.01079C4.5 7.72158 5.20874 6.53674 6.34464 5.927L12.3446 2.70624C13.3785 2.1513 14.6216 2.1513 15.6554 2.70625L21.6554 5.927C22.7913 6.53674 23.5 7.72158 23.5 9.01079V16.2067C23.5 17.2343 23.0484 18.21 22.265 18.875L16.677 23.6185L16.6764 23.619L14.8049 25.2026C14.0946 25.8036 13.1132 25.9696 12.2449 25.6356C11.4301 25.3222 10.8326 24.6135 10.6614 23.7575L10.556 23.2307C10.4911 22.9061 10.317 22.6135 10.0626 22.4015L7.32009 20.1161Z" fill="white" stroke="#6A5DB8"/>
<path fill-rule="evenodd" clip-rule="evenodd" d="M7 20.5002L9.74255 22.7856C9.90915 22.9245 10.0232 23.1161 10.0657 23.3288L10.1711 23.8556C10.3759 24.8796 11.0907 25.7274 12.0654 26.1022C13.1042 26.5018 14.2782 26.3032 15.1278 25.5843L17 24.0002L22.5886 19.2562C23.4839 18.4962 24 17.3811 24 16.2067V9.01079C24 7.53741 23.19 6.18331 21.8918 5.48646L15.8918 2.2657C14.7103 1.63149 13.2897 1.63148 12.1082 2.2657L6.10817 5.48645C4.80999 6.18331 4 7.53741 4 9.01079V16.1565C4 17.3597 4.54164 18.499 5.47478 19.2586L7 20.5002ZM14.4819 24.8209C13.9111 25.3039 13.1223 25.4373 12.4244 25.1689C11.7695 24.917 11.2893 24.3474 11.1517 23.6595L11.0463 23.1327C10.959 22.696 10.7248 22.3025 10.3827 22.0174L7.64018 19.732L6.10609 18.4831C5.40623 17.9134 5 17.0589 5 16.1565V9.01079C5 7.90575 5.60749 6.89018 6.58112 6.36754L12.5811 3.14679C13.4672 2.67112 14.5328 2.67112 15.4189 3.14679L21.4189 6.36754C22.3925 6.89018 23 7.90575 23 9.01079V16.2067C23 17.0875 22.6129 17.9238 21.9414 18.4938L14.4819 24.8209Z" fill="#6A5DB8"/>
<path fill-rule="evenodd" clip-rule="evenodd" d="M16.543 10.203C16.543 9.81473 16.2035 9.5 15.7848 9.5H7.75764C7.33894 9.5 6.99951 9.81473 6.99951 10.203C6.99951 10.5912 7.33894 10.906 7.75764 10.906H15.7848C16.2035 10.906 16.543 10.5912 16.543 10.203Z" fill="#6A5DB8"/>
<path fill-rule="evenodd" clip-rule="evenodd" d="M21.002 10.203C21.002 9.81473 20.6625 9.5 20.2438 9.5H18.46C18.0413 9.5 17.7019 9.81473 17.7019 10.203C17.7019 10.5912 18.0413 10.906 18.46 10.906H20.2438C20.6625 10.906 21.002 10.5912 21.002 10.203Z" fill="#B8B2DD"/>
<path fill-rule="evenodd" clip-rule="evenodd" d="M12.082 12.6844C12.082 12.2962 11.7426 11.9814 11.3239 11.9814H9.54008C9.12138 11.9814 8.78196 12.2962 8.78196 12.6844C8.78196 13.0727 9.12138 13.3874 9.54008 13.3874H11.3239C11.7426 13.3874 12.082 13.0727 12.082 12.6844Z" fill="#B8B2DD"/>
<path fill-rule="evenodd" clip-rule="evenodd" d="M19.2207 12.6844C19.2207 12.2962 18.8813 11.9814 18.4626 11.9814H14.003C13.5843 11.9814 13.2449 12.2962 13.2449 12.6844C13.2449 13.0727 13.5843 13.3874 14.003 13.3874H18.4626C18.8813 13.3874 19.2207 13.0727 19.2207 12.6844Z" fill="#6A5DB8"/>
<path fill-rule="evenodd" clip-rule="evenodd" d="M17.4355 15.1659C17.4355 14.7776 17.0961 14.4629 16.6774 14.4629H11.326C10.9073 14.4629 10.5678 14.7776 10.5678 15.1659C10.5678 15.5541 10.9073 15.8689 11.326 15.8689H16.6774C17.0961 15.8689 17.4355 15.5541 17.4355 15.1659Z" fill="#6A5DB8"/>
<path fill-rule="evenodd" clip-rule="evenodd" d="M15.6523 17.6463C15.6523 17.2581 15.3129 16.9434 14.8942 16.9434H13.1104C12.6917 16.9434 12.3523 17.2581 12.3523 17.6463C12.3523 18.0346 12.6917 18.3493 13.1104 18.3493H14.8942C15.3129 18.3493 15.6523 18.0346 15.6523 17.6463Z" fill="url(#paint2_linear_54876_9063)"/>
<rect x="0.7" y="0.7" width="26.6" height="26.6" rx="6.3" stroke="url(#paint3_linear_54876_9063)" stroke-width="0.6"/>
<defs>
<radialGradient id="paint0_radial_54876_9063" cx="0" cy="0" r="1" gradientUnits="userSpaceOnUse" gradientTransform="translate(14 3.32143) rotate(90) scale(47.7668 86.4896)">
<stop offset="0.28021" stop-color="#6A5DB8"/>
<stop offset="0.995554" stop-color="#68C5A9"/>
</radialGradient>
<linearGradient id="paint1_linear_54876_9063" x1="14" y1="1.5" x2="13.9996" y2="27.205" gradientUnits="userSpaceOnUse">
<stop stop-color="white" stop-opacity="0"/>
<stop offset="0.420986" stop-color="#9388D6" stop-opacity="0.36"/>
<stop offset="0.844326" stop-color="white" stop-opacity="0"/>
</linearGradient>
<linearGradient id="paint2_linear_54876_9063" x1="14.0023" y1="16.5" x2="14.0023" y2="18.5" gradientUnits="userSpaceOnUse">
<stop offset="0.177767" stop-color="#68C5A9"/>
<stop offset="1" stop-color="#7BB4BE"/>
</linearGradient>
<linearGradient id="paint3_linear_54876_9063" x1="14" y1="-19.6471" x2="14" y2="49.1765" gradientUnits="userSpaceOnUse">
<stop stop-color="#69B0AC"/>
<stop offset="0.760784" stop-color="#6A87B2"/>
</linearGradient>
</defs>
</svg>
