<svg width="41" height="50" viewBox="0 0 41 50" fill="none" xmlns="http://www.w3.org/2000/svg">
<path fill-rule="evenodd" clip-rule="evenodd" d="M14.2625 49.1437L14.1171 49.0649C12.1002 47.9708 10.844 45.8603 10.844 43.5657C10.844 42.8973 10.5588 42.2608 10.0601 41.8159L2.51945 35.09C0.916579 33.6604 0 31.6146 0 29.4668V12.8239C0 10.3568 1.42333 8.11116 3.65438 7.05815L17.3165 0.609932C19.0396 -0.203312 21.0361 -0.20331 22.7591 0.609933L36.4213 7.05815C38.6524 8.11116 40.0757 10.3568 40.0757 12.8239V29.1504C40.0757 31.5167 39.0469 33.7662 37.2569 35.3139L22.2645 48.2766C20.0373 50.2022 16.8505 50.5476 14.2625 49.1437ZM18.8716 3.90464L5.20941 10.3529C4.25324 10.8042 3.64324 11.7666 3.64324 12.8239V29.4668C3.64324 30.5761 4.11665 31.6328 4.94453 32.3712L12.4851 39.097C13.7589 40.2331 14.4873 41.8589 14.4873 43.5657C14.4873 44.5241 15.0119 45.4055 15.8543 45.8625L15.9997 45.9413C17.2552 46.6224 18.8012 46.4548 19.8817 45.5206L34.8741 32.5579C35.8637 31.7023 36.4324 30.4586 36.4324 29.1504V12.8239C36.4324 11.7666 35.8224 10.8042 34.8663 10.3529L21.2041 3.90464C20.4657 3.55611 19.61 3.55611 18.8716 3.90464Z" fill="white"/>
<path d="M8.1973 17.2766C8.1973 16.6298 8.80898 16.1055 9.56352 16.1055H15.0284C15.7829 16.1055 16.3946 16.6298 16.3946 17.2766C16.3946 17.9233 15.7829 18.4476 15.0284 18.4476H9.56352C8.80898 18.4476 8.1973 17.9233 8.1973 17.2766Z" fill="white"/>
<path d="M18.2162 17.2766C18.2162 16.6298 18.8279 16.1055 19.5824 16.1055H30.5122C31.2667 16.1055 31.8784 16.6298 31.8784 17.2766C31.8784 17.9233 31.2667 18.4476 30.5122 18.4476H19.5824C18.8279 18.4476 18.2162 17.9233 18.2162 17.2766Z" fill="white"/>
<path d="M10.9297 21.9607C10.9297 21.314 11.5414 20.7897 12.2959 20.7897H19.5824C20.337 20.7897 20.9487 21.314 20.9487 21.9607C20.9487 22.6075 20.337 23.1318 19.5824 23.1318H12.2959C11.5414 23.1318 10.9297 22.6075 10.9297 21.9607Z" fill="white"/>
<path d="M22.7703 21.9607C22.7703 21.314 23.382 20.7897 24.1365 20.7897H27.7797C28.5343 20.7897 29.146 21.314 29.146 21.9607C29.146 22.6075 28.5343 23.1318 27.7797 23.1318H24.1365C23.382 23.1318 22.7703 22.6075 22.7703 21.9607Z" fill="white"/>
<path d="M13.6622 26.6449C13.6622 25.9982 14.2738 25.4739 15.0284 25.4739H25.0473C25.8018 25.4739 26.4135 25.9982 26.4135 26.6449C26.4135 27.2917 25.8018 27.816 25.0473 27.816H15.0284C14.2738 27.816 13.6622 27.2917 13.6622 26.6449Z" fill="white"/>
<path d="M16.3946 31.3291C16.3946 30.6823 17.0063 30.158 17.7608 30.158H22.3149C23.0694 30.158 23.6811 30.6823 23.6811 31.3291C23.6811 31.9758 23.0694 32.5001 22.3149 32.5001H17.7608C17.0063 32.5001 16.3946 31.9758 16.3946 31.3291Z" fill="white" fill-opacity="0.4"/>
</svg>
