<svg width="62" height="62" viewBox="0 0 62 62" fill="none" xmlns="http://www.w3.org/2000/svg">
<path fill-rule="evenodd" clip-rule="evenodd" d="M42.2243 32.7546C42.0325 35.2502 41.7946 37.8285 41.4188 40.3272C40.9349 43.5431 40.2378 46.5139 39.1805 48.9252C38.1221 51.3393 36.7863 53.005 35.1323 53.902C31.8809 55.6654 27.9498 55.5245 24.9055 53.5723L12.9175 45.8849C10.1569 44.1146 8.4972 41.093 8.49218 37.8282L8.49125 37.2264L27.9783 49.1374C28.7106 49.5981 29.4749 49.69 29.8724 49.7173C30.3387 49.7493 30.7705 49.7172 31.0722 49.6832C32.4552 49.5273 33.4531 48.6397 33.9462 47.6563L42.2243 32.7546ZM41.7008 24.5937L20.1614 25.0986L30.9513 43.0722L41.7008 24.5937ZM23.1865 39.0186C21.3499 37.7594 19.4629 36.4292 17.6646 35.0482C15.0228 33.0193 12.662 30.9474 10.9774 28.9154C9.26037 26.8444 8.47257 25.0858 8.47037 23.6509C8.46482 20.0507 10.472 16.6891 13.7235 14.9257L27.2778 7.57443C30.5293 5.81101 34.4603 5.95194 37.5046 7.90411L37.6107 7.97213C30.4969 11.833 23.3804 15.6812 16.2597 19.5431C15.4959 19.9573 14.6889 20.6156 14.4679 20.9552C14.214 21.3454 13.4166 22.6053 14.0001 24.2166M47.5231 47.1819L48.5002 23.8813C48.5015 23.8501 48.5021 23.8189 48.5021 23.7878C48.5009 23.0175 48.2325 22.3919 48.072 22.0649C47.8884 21.691 47.6742 21.3713 47.5118 21.1477C46.6797 20.0021 45.3791 19.5857 44.2673 19.6598L27.4851 20.2458C28.0689 19.9556 28.6598 19.6647 29.2561 19.376C30.8598 18.661 32.4989 17.9624 34.1369 17.3277C37.3802 16.0709 40.5106 15.1084 43.2542 14.7529C46.0307 14.393 48.0952 14.6955 49.4926 15.5916C52.2533 17.3619 53.913 20.3834 53.918 23.6482L53.9398 37.8256C53.9453 41.4258 51.9381 44.7874 48.6867 46.5508L47.5231 47.1819ZM37.4821 58.1799C32.6746 60.7872 26.8197 60.6018 22.244 57.6676L10.256 49.9802C6.0983 47.314 3.59373 42.7542 3.58616 37.8372C3.57888 33.1114 3.57161 28.3856 3.56434 23.6598C3.55601 18.2486 6.56627 13.2551 11.3737 10.6478L24.9281 3.29653C29.7355 0.689208 35.5905 0.87463 40.1661 3.80882C44.1621 6.37131 48.1581 8.93379 52.1541 11.4963C56.3119 14.1625 58.8164 18.7222 58.824 23.6393L58.8458 37.8166C58.8541 43.2279 55.8439 48.2214 51.0364 50.8287C46.5183 53.2791 42.0002 55.7295 37.4821 58.1799Z" fill="url(#paint0_linear_54934_8106)"/>
<defs>
<linearGradient id="paint0_linear_54934_8106" x1="12.7862" y1="16.6736" x2="31.3526" y2="61.217" gradientUnits="userSpaceOnUse">
<stop stop-color="#8370F7"/>
<stop offset="1" stop-color="#5E50B2"/>
</linearGradient>
</defs>
</svg>
