<svg width="34" height="34" viewBox="0 0 34 34" fill="none" xmlns="http://www.w3.org/2000/svg">
<path d="M8.11078 7.76316L15.1108 4.01231C16.2909 3.37997 17.7091 3.37997 18.8892 4.01231L25.8892 7.76316C27.1889 8.45955 28 9.81444 28 11.2889V19.6023C28 20.7779 27.4828 21.894 26.5859 22.654L20.3 27.9804L18.24 29.7204C17.3055 30.5096 16.0156 30.7276 14.8737 30.2892C13.8005 29.8772 13.0131 28.9442 12.7873 27.8171L12.6723 27.2434C12.6255 27.0098 12.5001 26.7993 12.317 26.6469L9.3 24.1373L7.47749 22.6563C6.54273 21.8968 6 20.7564 6 19.552V11.2889C6 9.81445 6.81115 8.45955 8.11078 7.76316Z" fill="white" stroke="url(#paint0_linear_54884_9095)" stroke-width="6"/>
<path d="M10.042 8.90589L15.042 6.09913C16.2581 5.41648 17.7419 5.41648 18.958 6.09913L23.958 8.90588C25.2192 9.61387 26 10.9476 26 12.3939V19.0214C26 20.1648 25.5106 21.2536 24.6555 22.0128L19.7 26.4118L18.0285 27.8909C17.2602 28.5707 16.1739 28.7582 15.2222 28.3754C14.367 28.0315 13.7453 27.2762 13.5722 26.3708L13.4584 25.7762C13.4206 25.5782 13.3174 25.3986 13.1655 25.2662L10.7 23.1176L9.40716 22.0171C8.51439 21.2571 8 20.1437 8 18.9712V12.3939C8 10.9476 8.78078 9.61387 10.042 8.90589Z" fill="white"/>
<defs>
<linearGradient id="paint0_linear_54884_9095" x1="22.5" y1="-0.500001" x2="11" y2="52.5" gradientUnits="userSpaceOnUse">
<stop offset="0.276042" stop-color="#7A68E2"/>
<stop offset="1" stop-color="#62DBB7"/>
</linearGradient>
</defs>
</svg>
