<svg width="60" height="21" viewBox="0 0 60 21" fill="none" xmlns="http://www.w3.org/2000/svg">
<path fill-rule="evenodd" clip-rule="evenodd" d="M4.3534 0.646447C4.15814 0.451184 3.84156 0.451184 3.6463 0.646447L0.464318 3.82843C0.269056 4.02369 0.269056 4.34027 0.464318 4.53553C0.65958 4.7308 0.976162 4.7308 1.17142 4.53553L3.49985 2.20711V10.5H29.4998V21H30.4998L30.5001 10.5H56.5001V2.20711L58.8285 4.53553C59.0238 4.7308 59.3404 4.7308 59.5356 4.53553C59.7309 4.34027 59.7309 4.02369 59.5356 3.82843L56.3537 0.646447C56.1584 0.451184 55.8418 0.451184 55.6466 0.646447L52.4646 3.82843C52.2693 4.02369 52.2693 4.34027 52.4646 4.53553C52.6598 4.7308 52.9764 4.7308 53.1717 4.53553L55.5001 2.20711V9.5H30.4998H29.5001H4.49985V2.20711L6.82827 4.53553C7.02354 4.7308 7.34012 4.7308 7.53538 4.53553C7.73064 4.34027 7.73064 4.02369 7.53538 3.82843L4.3534 0.646447Z" fill="#00432F"/>
</svg>
