<svg width="1143" height="1237" viewBox="0 0 1143 1237" fill="none" xmlns="http://www.w3.org/2000/svg">
<path fill-rule="evenodd" clip-rule="evenodd" d="M938.46 424.402L352.038 85.934L440.039 35.1398C521.209 -11.7115 621.187 -11.7134 702.359 35.1349L1008.19 211.648C1091.27 259.594 1142.45 348.251 1142.45 444.196C1142.45 540.144 1091.27 628.803 1008.19 676.748L685 863.263L938.46 424.402ZM302.449 594.924L555.956 1033.94L1142.45 695.473V796.664C1142.45 890.577 1092.35 977.355 1011.04 1024.29L705.586 1200.58C622.417 1248.58 519.979 1248.58 436.812 1200.57C353.518 1152.5 302.223 1063.58 302.269 967.38L302.449 594.924ZM726.01 397.991H219.268L218.941 1074.82L131.187 1024.17C50.0091 977.31 0 890.674 0 796.917V444.398C0 348.327 51.2436 259.553 134.425 211.54C217.52 163.578 319.87 163.577 402.966 211.538L726.01 397.991ZM571.196 893.768L333.04 481.333H809.393L571.196 893.768Z" fill="url(#paint0_radial_55169_8070)"/>
<defs>
<radialGradient id="paint0_radial_55169_8070" cx="0" cy="0" r="1" gradientUnits="userSpaceOnUse" gradientTransform="translate(2185.5 1237) rotate(-144.783) scale(3689.24 3470.83)">
<stop offset="0.386484" stop-color="#5E52B2"/>
<stop offset="0.787854" stop-color="#48FFC0"/>
<stop offset="1" stop-color="#60DB91"/>
</radialGradient>
</defs>
</svg>
