<svg width="1920" height="598" viewBox="0 0 1920 598" fill="none" xmlns="http://www.w3.org/2000/svg">
<g clip-path="url(#clip0_55090_8615)">
<rect width="1920" height="597.562" fill="white"/>
<g clip-path="url(#clip1_55090_8615)">
<rect x="1354.5" y="35.5" width="533" height="533" rx="266.5" fill="url(#paint0_radial_55090_8615)" stroke="#62DBB7"/>
<path d="M1446.82 564.418L950.321 302.496L1435.46 -17.1542L1446.82 564.418Z" fill="url(#paint1_radial_55090_8615)" stroke="#FFD84F"/>
<rect x="465.707" y="304" width="533" height="533" transform="rotate(-45 465.707 304)" fill="url(#paint2_radial_55090_8615)" stroke="#62BEDB"/>
<g filter="url(#filter0_b_55090_8615)">
<mask id="path-4-inside-1_55090_8615" fill="white">
<path d="M0 0H1920V74.6953H0V0Z"/>
</mask>
<path d="M0 0H1920V74.6953H0V0Z" fill="#7059FF" fill-opacity="0.015"/>
<path d="M0 0.5H1920V-0.5H0V0.5Z" fill="#1E00D9" fill-opacity="0.1" mask="url(#path-4-inside-1_55090_8615)"/>
</g>
<g filter="url(#filter1_b_55090_8615)">
<mask id="path-6-inside-2_55090_8615" fill="white">
<path d="M0 74.6953H1920V149.391H0V74.6953Z"/>
</mask>
<path d="M0 74.6953H1920V149.391H0V74.6953Z" fill="#7059FF" fill-opacity="0.025"/>
<path d="M0 75.1953H1920V74.1953H0V75.1953Z" fill="#1E00D9" fill-opacity="0.1" mask="url(#path-6-inside-2_55090_8615)"/>
</g>
<g filter="url(#filter2_b_55090_8615)">
<mask id="path-8-inside-3_55090_8615" fill="white">
<path d="M0 149.391H1920V224.086H0V149.391Z"/>
</mask>
<path d="M0 149.391H1920V224.086H0V149.391Z" fill="#7059FF" fill-opacity="0.05"/>
<path d="M0 149.891H1920V148.891H0V149.891Z" fill="#1E00D9" fill-opacity="0.1" mask="url(#path-8-inside-3_55090_8615)"/>
</g>
<g filter="url(#filter3_b_55090_8615)">
<mask id="path-10-inside-4_55090_8615" fill="white">
<path d="M0 224.086H1920V298.781H0V224.086Z"/>
</mask>
<path d="M0 224.086H1920V298.781H0V224.086Z" fill="#7059FF" fill-opacity="0.1"/>
<path d="M0 224.586H1920V223.586H0V224.586Z" fill="#1E00D9" fill-opacity="0.1" mask="url(#path-10-inside-4_55090_8615)"/>
</g>
<g filter="url(#filter4_b_55090_8615)">
<mask id="path-12-inside-5_55090_8615" fill="white">
<path d="M0 298.781H1920V373.476H0V298.781Z"/>
</mask>
<path d="M0 298.781H1920V373.476H0V298.781Z" fill="#7059FF" fill-opacity="0.2"/>
<path d="M0 299.281H1920V298.281H0V299.281Z" fill="#1E00D9" fill-opacity="0.1" mask="url(#path-12-inside-5_55090_8615)"/>
</g>
<g filter="url(#filter5_b_55090_8615)">
<mask id="path-14-inside-6_55090_8615" fill="white">
<path d="M0 373.476H1920V448.172H0V373.476Z"/>
</mask>
<path d="M0 373.476H1920V448.172H0V373.476Z" fill="#7059FF" fill-opacity="0.3"/>
<path d="M0 373.976H1920V372.976H0V373.976Z" fill="#1E00D9" fill-opacity="0.1" mask="url(#path-14-inside-6_55090_8615)"/>
</g>
<g filter="url(#filter6_b_55090_8615)">
<mask id="path-16-inside-7_55090_8615" fill="white">
<path d="M0 448.171H1920V522.867H0V448.171Z"/>
</mask>
<path d="M0 448.171H1920V522.867H0V448.171Z" fill="#7059FF" fill-opacity="0.4"/>
<path d="M0 448.671H1920V447.671H0V448.671Z" fill="#1E00D9" fill-opacity="0.1" mask="url(#path-16-inside-7_55090_8615)"/>
</g>
<g filter="url(#filter7_b_55090_8615)">
<mask id="path-18-inside-8_55090_8615" fill="white">
<path d="M0 522.867H1920V597.562H0V522.867Z"/>
</mask>
<path d="M0 522.867H1920V597.562H0V522.867Z" fill="#7059FF" fill-opacity="0.5"/>
<path d="M0 523.367H1920V522.367H0V523.367Z" fill="#1E00D9" fill-opacity="0.1" mask="url(#path-18-inside-8_55090_8615)"/>
</g>
<rect width="1920" height="597.562" fill="url(#paint3_linear_55090_8615)"/>
<g opacity="0.2">
<g style="mix-blend-mode:hard-light" opacity="0.025">
<path d="M0 75.1953H1920V74.1953H0V75.1953Z" fill="url(#paint4_linear_55090_8615)" mask="url(#path-20-inside-9_55090_8615)"/>
</g>
<g style="mix-blend-mode:hard-light" opacity="0.05">
<path d="M0 149.891H1920V148.891H0V149.891Z" fill="url(#paint5_linear_55090_8615)" mask="url(#path-22-inside-10_55090_8615)"/>
</g>
<g style="mix-blend-mode:hard-light" opacity="0.1">
<path d="M0 224.586H1920V223.586H0V224.586Z" fill="url(#paint6_linear_55090_8615)" mask="url(#path-24-inside-11_55090_8615)"/>
</g>
<g style="mix-blend-mode:hard-light" opacity="0.2">
<path d="M0 299.281H1920V298.281H0V299.281Z" fill="url(#paint7_linear_55090_8615)" mask="url(#path-26-inside-12_55090_8615)"/>
</g>
<g style="mix-blend-mode:hard-light" opacity="0.3">
<path d="M0 373.976H1920V372.976H0V373.976Z" fill="url(#paint8_linear_55090_8615)" mask="url(#path-28-inside-13_55090_8615)"/>
</g>
<g style="mix-blend-mode:hard-light" opacity="0.4">
<path d="M0 448.671H1920V447.671H0V448.671Z" fill="url(#paint9_linear_55090_8615)" mask="url(#path-30-inside-14_55090_8615)"/>
</g>
<g style="mix-blend-mode:hard-light" opacity="0.5">
<path d="M0 523.367H1920V522.367H0V523.367Z" fill="url(#paint10_linear_55090_8615)" mask="url(#path-32-inside-15_55090_8615)"/>
</g>
</g>
</g>
</g>
<defs>
<filter id="filter0_b_55090_8615" x="-20" y="-20" width="1960" height="114.695" filterUnits="userSpaceOnUse" color-interpolation-filters="sRGB">
<feFlood flood-opacity="0" result="BackgroundImageFix"/>
<feGaussianBlur in="BackgroundImageFix" stdDeviation="10"/>
<feComposite in2="SourceAlpha" operator="in" result="effect1_backgroundBlur_55090_8615"/>
<feBlend mode="normal" in="SourceGraphic" in2="effect1_backgroundBlur_55090_8615" result="shape"/>
</filter>
<filter id="filter1_b_55090_8615" x="-20" y="54.6953" width="1960" height="114.695" filterUnits="userSpaceOnUse" color-interpolation-filters="sRGB">
<feFlood flood-opacity="0" result="BackgroundImageFix"/>
<feGaussianBlur in="BackgroundImageFix" stdDeviation="10"/>
<feComposite in2="SourceAlpha" operator="in" result="effect1_backgroundBlur_55090_8615"/>
<feBlend mode="normal" in="SourceGraphic" in2="effect1_backgroundBlur_55090_8615" result="shape"/>
</filter>
<filter id="filter2_b_55090_8615" x="-20" y="129.391" width="1960" height="114.695" filterUnits="userSpaceOnUse" color-interpolation-filters="sRGB">
<feFlood flood-opacity="0" result="BackgroundImageFix"/>
<feGaussianBlur in="BackgroundImageFix" stdDeviation="10"/>
<feComposite in2="SourceAlpha" operator="in" result="effect1_backgroundBlur_55090_8615"/>
<feBlend mode="normal" in="SourceGraphic" in2="effect1_backgroundBlur_55090_8615" result="shape"/>
</filter>
<filter id="filter3_b_55090_8615" x="-20" y="204.086" width="1960" height="114.695" filterUnits="userSpaceOnUse" color-interpolation-filters="sRGB">
<feFlood flood-opacity="0" result="BackgroundImageFix"/>
<feGaussianBlur in="BackgroundImageFix" stdDeviation="10"/>
<feComposite in2="SourceAlpha" operator="in" result="effect1_backgroundBlur_55090_8615"/>
<feBlend mode="normal" in="SourceGraphic" in2="effect1_backgroundBlur_55090_8615" result="shape"/>
</filter>
<filter id="filter4_b_55090_8615" x="-20" y="278.781" width="1960" height="114.695" filterUnits="userSpaceOnUse" color-interpolation-filters="sRGB">
<feFlood flood-opacity="0" result="BackgroundImageFix"/>
<feGaussianBlur in="BackgroundImageFix" stdDeviation="10"/>
<feComposite in2="SourceAlpha" operator="in" result="effect1_backgroundBlur_55090_8615"/>
<feBlend mode="normal" in="SourceGraphic" in2="effect1_backgroundBlur_55090_8615" result="shape"/>
</filter>
<filter id="filter5_b_55090_8615" x="-20" y="353.476" width="1960" height="114.695" filterUnits="userSpaceOnUse" color-interpolation-filters="sRGB">
<feFlood flood-opacity="0" result="BackgroundImageFix"/>
<feGaussianBlur in="BackgroundImageFix" stdDeviation="10"/>
<feComposite in2="SourceAlpha" operator="in" result="effect1_backgroundBlur_55090_8615"/>
<feBlend mode="normal" in="SourceGraphic" in2="effect1_backgroundBlur_55090_8615" result="shape"/>
</filter>
<filter id="filter6_b_55090_8615" x="-20" y="428.171" width="1960" height="114.695" filterUnits="userSpaceOnUse" color-interpolation-filters="sRGB">
<feFlood flood-opacity="0" result="BackgroundImageFix"/>
<feGaussianBlur in="BackgroundImageFix" stdDeviation="10"/>
<feComposite in2="SourceAlpha" operator="in" result="effect1_backgroundBlur_55090_8615"/>
<feBlend mode="normal" in="SourceGraphic" in2="effect1_backgroundBlur_55090_8615" result="shape"/>
</filter>
<filter id="filter7_b_55090_8615" x="-70" y="452.867" width="2060" height="214.695" filterUnits="userSpaceOnUse" color-interpolation-filters="sRGB">
<feFlood flood-opacity="0" result="BackgroundImageFix"/>
<feGaussianBlur in="BackgroundImageFix" stdDeviation="35"/>
<feComposite in2="SourceAlpha" operator="in" result="effect1_backgroundBlur_55090_8615"/>
<feBlend mode="normal" in="SourceGraphic" in2="effect1_backgroundBlur_55090_8615" result="shape"/>
</filter>
<radialGradient id="paint0_radial_55090_8615" cx="0" cy="0" r="1" gradientUnits="userSpaceOnUse" gradientTransform="translate(1680.27 623.379) rotate(-105.376) scale(541.416)">
<stop stop-color="#62DBB7"/>
<stop offset="0.842167" stop-color="#62DBB7" stop-opacity="0"/>
</radialGradient>
<radialGradient id="paint1_radial_55090_8615" cx="0" cy="0" r="1" gradientUnits="userSpaceOnUse" gradientTransform="translate(993.447 327.414) rotate(14.2949) scale(691.751 688.737)">
<stop offset="0.223515" stop-color="#FFD84F"/>
<stop offset="0.705654" stop-color="#FFD84F" stop-opacity="0"/>
</radialGradient>
<radialGradient id="paint2_radial_55090_8615" cx="0" cy="0" r="1" gradientUnits="userSpaceOnUse" gradientTransform="translate(791.273 892.379) rotate(-105.376) scale(541.416)">
<stop stop-color="#62BEDB"/>
<stop offset="0.842167" stop-color="#62BEDB" stop-opacity="0"/>
</radialGradient>
<linearGradient id="paint3_linear_55090_8615" x1="-1850.5" y1="598" x2="3599" y2="598" gradientUnits="userSpaceOnUse">
<stop offset="0.33124" stop-color="white"/>
<stop offset="1" stop-color="white" stop-opacity="0"/>
</linearGradient>
<linearGradient id="paint4_linear_55090_8615" x1="-525" y1="74.8283" x2="1920" y2="74.8283" gradientUnits="userSpaceOnUse">
<stop stop-color="#1E00D9"/>
<stop offset="0.67192" stop-color="#1E00D9" stop-opacity="0"/>
</linearGradient>
<linearGradient id="paint5_linear_55090_8615" x1="-525" y1="149.524" x2="1920" y2="149.524" gradientUnits="userSpaceOnUse">
<stop stop-color="#1E00D9"/>
<stop offset="0.67192" stop-color="#1E00D9" stop-opacity="0"/>
</linearGradient>
<linearGradient id="paint6_linear_55090_8615" x1="-525" y1="224.219" x2="1920" y2="224.219" gradientUnits="userSpaceOnUse">
<stop stop-color="#1E00D9"/>
<stop offset="0.67192" stop-color="#1E00D9" stop-opacity="0"/>
</linearGradient>
<linearGradient id="paint7_linear_55090_8615" x1="-525" y1="298.914" x2="1920" y2="298.914" gradientUnits="userSpaceOnUse">
<stop stop-color="#1E00D9"/>
<stop offset="0.67192" stop-color="#1E00D9" stop-opacity="0"/>
</linearGradient>
<linearGradient id="paint8_linear_55090_8615" x1="-525" y1="373.609" x2="1920" y2="373.609" gradientUnits="userSpaceOnUse">
<stop stop-color="#1E00D9"/>
<stop offset="0.67192" stop-color="#1E00D9" stop-opacity="0"/>
</linearGradient>
<linearGradient id="paint9_linear_55090_8615" x1="-525" y1="448.304" x2="1920" y2="448.304" gradientUnits="userSpaceOnUse">
<stop stop-color="#1E00D9"/>
<stop offset="0.67192" stop-color="#1E00D9" stop-opacity="0"/>
</linearGradient>
<linearGradient id="paint10_linear_55090_8615" x1="-525" y1="523" x2="1920" y2="523" gradientUnits="userSpaceOnUse">
<stop stop-color="#1E00D9"/>
<stop offset="0.67192" stop-color="#1E00D9" stop-opacity="0"/>
</linearGradient>
<clipPath id="clip0_55090_8615">
<rect width="1920" height="597.562" fill="white"/>
</clipPath>
<clipPath id="clip1_55090_8615">
<rect width="1920" height="597.562" fill="white"/>
</clipPath>
</defs>
</svg>
