<svg width="28" height="28" viewBox="0 0 28 28" fill="none" xmlns="http://www.w3.org/2000/svg">
<path d="M17.2907 24.3435L17.2912 24.3431L22.8798 19.5991C23.8758 18.7536 24.45 17.5131 24.45 16.2066V9.01062C24.45 7.37147 23.5489 5.86504 22.1047 5.08979L16.1047 1.86904C14.7903 1.16347 13.2097 1.16347 11.8953 1.86904L5.89533 5.08979C4.45111 5.86504 3.55 7.37147 3.55 9.01062V16.1563C3.55 17.4949 4.15257 18.7624 5.19069 19.6074L6.71396 20.8474L6.71591 20.849L9.45447 23.1312C9.5421 23.2042 9.60209 23.305 9.62446 23.4169L9.72982 23.9436C9.96486 25.1188 10.7853 26.0919 11.9038 26.5221C13.0961 26.9806 14.4434 26.7527 15.4185 25.9277L17.2907 24.3435Z" stroke="white" stroke-opacity="0.2" stroke-width="0.9"/>
<path d="M7.32009 20.1159L7.32011 20.1159L7.31565 20.1122L5.79043 18.8707C4.97393 18.206 4.5 17.2091 4.5 16.1563V9.01062C4.5 7.7214 5.20874 6.53657 6.34464 5.92682L12.3446 2.70607C13.3785 2.15113 14.6216 2.15113 15.6554 2.70607L21.6554 5.92682C22.7913 6.53657 23.5 7.7214 23.5 9.01062V16.2066C23.5 17.2342 23.0484 18.2098 22.265 18.8748L16.677 23.6183L16.6764 23.6188L14.8049 25.2024C14.0946 25.8034 13.1132 25.9694 12.2449 25.6354C11.4301 25.322 10.8326 24.6133 10.6614 23.7573L10.556 23.2306C10.4911 22.9059 10.317 22.6133 10.0626 22.4014L7.32009 20.1159Z" stroke="white"/>
<path fill-rule="evenodd" clip-rule="evenodd" d="M16.543 10.203C16.543 9.81473 16.2035 9.5 15.7848 9.5H7.75764C7.33894 9.5 6.99951 9.81473 6.99951 10.203C6.99951 10.5912 7.33894 10.906 7.75764 10.906H15.7848C16.2035 10.906 16.543 10.5912 16.543 10.203Z" fill="white"/>
<path fill-rule="evenodd" clip-rule="evenodd" d="M21.002 10.203C21.002 9.81473 20.6625 9.5 20.2438 9.5H18.46C18.0413 9.5 17.7019 9.81473 17.7019 10.203C17.7019 10.5912 18.0413 10.906 18.46 10.906H20.2438C20.6625 10.906 21.002 10.5912 21.002 10.203Z" fill="white" fill-opacity="0.38"/>
<path fill-rule="evenodd" clip-rule="evenodd" d="M12.082 12.6844C12.082 12.2962 11.7426 11.9814 11.3239 11.9814H9.54008C9.12138 11.9814 8.78196 12.2962 8.78196 12.6844C8.78196 13.0727 9.12138 13.3874 9.54008 13.3874H11.3239C11.7426 13.3874 12.082 13.0727 12.082 12.6844Z" fill="white" fill-opacity="0.38"/>
<path fill-rule="evenodd" clip-rule="evenodd" d="M19.2207 12.6844C19.2207 12.2962 18.8813 11.9814 18.4626 11.9814H14.003C13.5843 11.9814 13.2449 12.2962 13.2449 12.6844C13.2449 13.0727 13.5843 13.3874 14.003 13.3874H18.4626C18.8813 13.3874 19.2207 13.0727 19.2207 12.6844Z" fill="white"/>
<path fill-rule="evenodd" clip-rule="evenodd" d="M17.4355 15.1659C17.4355 14.7776 17.0961 14.4629 16.6774 14.4629H11.326C10.9073 14.4629 10.5678 14.7776 10.5678 15.1659C10.5678 15.5541 10.9073 15.8689 11.326 15.8689H16.6774C17.0961 15.8689 17.4355 15.5541 17.4355 15.1659Z" fill="white"/>
<path fill-rule="evenodd" clip-rule="evenodd" d="M15.6523 17.6463C15.6523 17.2581 15.3129 16.9434 14.8942 16.9434H13.1104C12.6917 16.9434 12.3523 17.2581 12.3523 17.6463C12.3523 18.0346 12.6917 18.3493 13.1104 18.3493H14.8942C15.3129 18.3493 15.6523 18.0346 15.6523 17.6463Z" fill="white" fill-opacity="0.59"/>
</svg>
