<svg width="28" height="28" viewBox="0 0 28 28" fill="none" xmlns="http://www.w3.org/2000/svg">
<path fill-rule="evenodd" clip-rule="evenodd" d="M4.5611 3.8828L12.1431 0.393753C13.2839 -0.131252 14.5973 -0.13125 15.7382 0.393754L23.3202 3.8828C24.4907 4.42144 25.2406 5.59211 25.2406 6.88061V16.2731C25.2406 17.4748 24.7104 18.6154 23.7915 19.3899L14.6718 27.078C13.6116 27.9717 12.1151 28.1323 10.8894 27.4841C9.91741 26.97 9.25503 26.0414 9.25503 24.9145C9.25503 24.2754 8.97814 23.6677 8.4959 23.2483L4.06176 19.3921C3.15898 18.607 2.64062 17.4693 2.64062 16.2729V6.88061C2.64062 5.5921 3.39058 4.42144 4.5611 3.8828ZM12.6865 1.57471L5.10455 5.06375C4.39514 5.39021 3.94062 6.0997 3.94062 6.88061V16.2729C3.94062 17.0931 4.29597 17.873 4.91484 18.4112L9.34898 22.2673C10.1151 22.9336 10.555 23.8992 10.555 24.9145C10.555 25.5624 10.9493 26.0451 11.4972 26.3349C12.2544 26.7354 13.1789 26.6361 13.8339 26.084L22.9536 18.396C23.5795 17.8684 23.9406 17.0916 23.9406 16.2731V6.88061C23.9406 6.0997 23.4861 5.39021 22.7767 5.06376L15.1947 1.57471C14.3988 1.20843 13.4825 1.20843 12.6865 1.57471Z" fill="white"/>
<path fill-rule="evenodd" clip-rule="evenodd" d="M11.0918 8.99844C11.0918 8.529 11.4724 8.14844 11.9418 8.14844H20.9418C21.4112 8.14844 21.7918 8.529 21.7918 8.99844C21.7918 9.46788 21.4112 9.84844 20.9418 9.84844H11.9418C11.4724 9.84844 11.0918 9.46788 11.0918 8.99844Z" fill="white"/>
<path fill-rule="evenodd" clip-rule="evenodd" d="M6.0918 8.99844C6.0918 8.529 6.47235 8.14844 6.9418 8.14844H8.9418C9.41124 8.14844 9.7918 8.529 9.7918 8.99844C9.7918 9.46788 9.41124 9.84844 8.9418 9.84844H6.9418C6.47235 9.84844 6.0918 9.46788 6.0918 8.99844Z" fill="white"/>
<path fill-rule="evenodd" clip-rule="evenodd" d="M16.0918 11.9984C16.0918 11.529 16.4724 11.1484 16.9418 11.1484H18.9418C19.4112 11.1484 19.7918 11.529 19.7918 11.9984C19.7918 12.4679 19.4112 12.8484 18.9418 12.8484H16.9418C16.4724 12.8484 16.0918 12.4679 16.0918 11.9984Z" fill="white"/>
<path fill-rule="evenodd" clip-rule="evenodd" d="M8.0918 11.9984C8.0918 11.529 8.47235 11.1484 8.9418 11.1484H13.9418C14.4112 11.1484 14.7918 11.529 14.7918 11.9984C14.7918 12.4679 14.4112 12.8484 13.9418 12.8484H8.9418C8.47235 12.8484 8.0918 12.4679 8.0918 11.9984Z" fill="white"/>
<path fill-rule="evenodd" clip-rule="evenodd" d="M10.0918 14.9984C10.0918 14.529 10.4724 14.1484 10.9418 14.1484H16.9418C17.4112 14.1484 17.7918 14.529 17.7918 14.9984C17.7918 15.4679 17.4112 15.8484 16.9418 15.8484H10.9418C10.4724 15.8484 10.0918 15.4679 10.0918 14.9984Z" fill="white"/>
<path fill-rule="evenodd" clip-rule="evenodd" d="M12.0918 17.9984C12.0918 17.529 12.4724 17.1484 12.9418 17.1484H14.9418C15.4112 17.1484 15.7918 17.529 15.7918 17.9984C15.7918 18.4679 15.4112 18.8484 14.9418 18.8484H12.9418C12.4724 18.8484 12.0918 18.4679 12.0918 17.9984Z" fill="white" fill-opacity="0.55"/>
</svg>
