<svg width="1476" height="1596" viewBox="0 0 1476 1596" fill="none" xmlns="http://www.w3.org/2000/svg">
<path fill-rule="evenodd" clip-rule="evenodd" d="M1212.46 547.758L454.82 110.912L568.515 45.3535C673.383 -15.1156 802.552 -15.118 907.423 45.3472L1302.55 273.165C1409.88 335.047 1476 449.473 1476 573.306C1476 697.142 1409.88 811.571 1302.54 873.452L884.996 1114.18L1212.46 547.758ZM390.754 767.844L718.275 1334.47L1476 897.619V1028.22C1476 1149.43 1411.28 1261.43 1306.23 1322L911.591 1549.54C804.141 1611.49 671.794 1611.49 564.346 1549.53C456.732 1487.48 390.461 1372.72 390.521 1248.56L390.754 767.844ZM937.979 513.67H283.286L282.863 1387.22L169.488 1321.85C64.61 1261.37 0 1149.56 0 1028.55V573.567C0 449.571 66.2049 334.994 173.672 273.027C281.028 211.123 413.261 211.122 520.618 273.023L937.979 513.67ZM737.965 1153.55L430.275 621.237H1045.71L737.965 1153.55Z" fill="#FCFCFF"/>
</svg>
