<svg width="1561" height="1624" viewBox="0 0 1561 1624" fill="none" xmlns="http://www.w3.org/2000/svg">
<mask id="path-1-outside-1_55103_8073" maskUnits="userSpaceOnUse" x="-1" y="-0.806641" width="1562" height="1625" fill="black">
<rect fill="white" x="-1" y="-0.806641" width="1562" height="1625"/>
<path fill-rule="evenodd" clip-rule="evenodd" d="M546.984 89.9089C678.675 5.03535 846.637 -3.55155 984.538 70.7963L1298.44 240.031C1424.02 307.736 1505.58 434.291 1515.37 576.625C1523.52 695.216 1531.68 813.807 1539.83 932.398C1550.58 1088.7 1473.38 1238.11 1341.69 1322.99L1013.84 1534.28C882.15 1619.16 714.189 1627.74 576.287 1553.39C471.654 1496.98 367.021 1440.57 262.388 1384.16C136.807 1316.45 55.2435 1189.9 45.4563 1047.57L20.9928 691.793C10.2456 535.495 87.4439 386.079 219.135 301.205C328.418 230.773 437.701 160.341 546.984 89.9089ZM419.598 1329.96C377.716 1307.38 333.266 1287.25 293.885 1260.36C220.435 1210.2 173.679 1129.36 167.49 1039.35L143.027 683.581C135.426 573.037 190.108 465.617 285.481 404.15C364.926 352.948 465.838 349.493 547.395 395.181L926.823 596C703.676 596 386.823 596 386.823 596L419.598 1329.96ZM894.323 1039.35L1301.13 767.167C1362.94 727.361 1398.32 657.396 1393.34 584.837C1386.43 484.481 1329.1 395.513 1240.55 347.776L926.653 178.541C843.927 133.941 744.74 131.075 658.333 168.74C615.263 187.514 576.719 216.449 537.404 241.788L1158.82 596L894.323 1039.35ZM1417.29 987.889C1408.86 1081.04 1357.03 1167.4 1275.34 1220.04L947.495 1431.34C852.121 1492.8 731.706 1498.23 634.173 1445.65C582.568 1417.83 549.749 1364.96 547.694 1306.35L518.323 827L766.073 1259.27C982.193 1123.18 1196.52 984.273 1411.3 846.094C1414.52 892.908 1421.53 940.954 1417.29 987.889ZM763.146 1027.19L957.506 697.894L576.214 697.895L763.146 1027.19Z"/>
</mask>
<path fill-rule="evenodd" clip-rule="evenodd" d="M546.984 89.9089C678.675 5.03535 846.637 -3.55155 984.538 70.7963L1298.44 240.031C1424.02 307.736 1505.58 434.291 1515.37 576.625C1523.52 695.216 1531.68 813.807 1539.83 932.398C1550.58 1088.7 1473.38 1238.11 1341.69 1322.99L1013.84 1534.28C882.15 1619.16 714.189 1627.74 576.287 1553.39C471.654 1496.98 367.021 1440.57 262.388 1384.16C136.807 1316.45 55.2435 1189.9 45.4563 1047.57L20.9928 691.793C10.2456 535.495 87.4439 386.079 219.135 301.205C328.418 230.773 437.701 160.341 546.984 89.9089ZM419.598 1329.96C377.716 1307.38 333.266 1287.25 293.885 1260.36C220.435 1210.2 173.679 1129.36 167.49 1039.35L143.027 683.581C135.426 573.037 190.108 465.617 285.481 404.15C364.926 352.948 465.838 349.493 547.395 395.181L926.823 596C703.676 596 386.823 596 386.823 596L419.598 1329.96ZM894.323 1039.35L1301.13 767.167C1362.94 727.361 1398.32 657.396 1393.34 584.837C1386.43 484.481 1329.1 395.513 1240.55 347.776L926.653 178.541C843.927 133.941 744.74 131.075 658.333 168.74C615.263 187.514 576.719 216.449 537.404 241.788L1158.82 596L894.323 1039.35ZM1417.29 987.889C1408.86 1081.04 1357.03 1167.4 1275.34 1220.04L947.495 1431.34C852.121 1492.8 731.706 1498.23 634.173 1445.65C582.568 1417.83 549.749 1364.96 547.694 1306.35L518.323 827L766.073 1259.27C982.193 1123.18 1196.52 984.273 1411.3 846.094C1414.52 892.908 1421.53 940.954 1417.29 987.889ZM763.146 1027.19L957.506 697.894L576.214 697.895L763.146 1027.19Z" fill="url(#paint0_radial_55103_8073)"/>
<path d="M984.538 70.7963L975.047 88.4008L975.047 88.4008L984.538 70.7963ZM1298.44 240.031L1307.93 222.426L1307.93 222.426L1298.44 240.031ZM1515.37 576.625L1495.42 577.997L1495.42 577.997L1515.37 576.625ZM1539.83 932.398L1519.88 933.77L1519.88 933.77L1539.83 932.398ZM576.287 1553.39L585.779 1535.79L585.778 1535.79L576.287 1553.39ZM262.388 1384.16L252.897 1401.76L252.897 1401.76L262.388 1384.16ZM45.4563 1047.57L25.5034 1048.94L25.5034 1048.94L45.4563 1047.57ZM20.9928 691.793L1.03994 693.165L20.9928 691.793ZM419.598 1329.96L410.107 1347.57L441.151 1364.31L439.578 1329.07L419.598 1329.96ZM293.885 1260.36L282.606 1276.87L282.606 1276.87L293.885 1260.36ZM167.49 1039.35L147.537 1040.73L147.537 1040.73L167.49 1039.35ZM143.027 683.581L162.98 682.209L162.98 682.209L143.027 683.581ZM547.395 395.181L537.62 412.63L537.828 412.747L538.039 412.858L547.395 395.181ZM926.823 596L926.823 616L936.179 578.324L926.823 596ZM386.823 596L386.823 576L365.91 576L366.843 596.893L386.823 596ZM894.323 1039.35L877.148 1029.11L905.445 1055.98L894.323 1039.35ZM1301.13 767.167L1290.3 750.352L1290.16 750.447L1290.01 750.545L1301.13 767.167ZM1393.34 584.837L1373.38 586.209L1373.38 586.209L1393.34 584.837ZM1240.55 347.776L1231.06 365.38L1231.06 365.38L1240.55 347.776ZM926.653 178.541L917.162 196.146L917.162 196.146L926.653 178.541ZM658.333 168.74L666.325 187.074L666.325 187.074L658.333 168.74ZM537.404 241.788L526.57 224.977L498.858 242.837L527.5 259.163L537.404 241.788ZM1158.82 596L1176 606.247L1186.45 588.727L1168.73 578.625L1158.82 596ZM1417.29 987.889L1437.21 989.69L1437.21 989.69L1417.29 987.889ZM634.173 1445.65L643.664 1428.04L643.664 1428.04L634.173 1445.65ZM547.694 1306.35L567.681 1305.65L567.672 1305.39L567.656 1305.12L547.694 1306.35ZM518.323 827L535.675 817.055L498.361 828.224L518.323 827ZM766.073 1259.27L748.721 1269.22L759.088 1287.3L776.73 1276.19L766.073 1259.27ZM1411.3 846.094L1431.25 844.722L1428.93 810.97L1400.48 829.274L1411.3 846.094ZM763.146 1027.19L745.753 1037.07L762.809 1067.11L780.37 1037.36L763.146 1027.19ZM957.506 697.894L974.73 708.06L992.534 677.894L957.506 677.894L957.506 697.894ZM576.214 697.895L576.214 677.895L541.863 677.895L558.821 707.768L576.214 697.895ZM557.819 106.72C683.56 25.6808 843.741 17.6088 975.047 88.4008L994.03 53.1918C849.532 -24.7119 673.79 -15.6101 536.15 73.0979L557.819 106.72ZM975.047 88.4008L1288.95 257.635L1307.93 222.426L994.03 53.1918L975.047 88.4008ZM1288.95 257.635C1408.49 322.083 1486.1 442.511 1495.42 577.997L1535.32 575.253C1525.06 426.072 1439.55 293.389 1307.93 222.426L1288.95 257.635ZM1519.88 933.77C1530.11 1082.59 1456.6 1225.14 1330.86 1306.17L1352.53 1339.8C1490.17 1251.09 1571.05 1094.8 1559.79 931.026L1519.88 933.77ZM1330.86 1306.17L1003.01 1517.47L1024.68 1551.09L1352.53 1339.8L1330.86 1306.17ZM1003.01 1517.47C877.265 1598.51 717.085 1606.58 585.779 1535.79L566.796 1571C711.293 1648.9 887.035 1639.8 1024.68 1551.09L1003.01 1517.47ZM271.88 1366.56C152.34 1302.11 74.7255 1181.68 65.4092 1046.19L25.5034 1048.94C35.7614 1198.12 121.275 1330.8 252.897 1401.76L271.88 1366.56ZM65.4092 1046.19L40.9457 690.421L1.03994 693.165L25.5034 1048.94L65.4092 1046.19ZM40.9457 690.421C30.7125 541.598 104.228 399.055 229.969 318.016L208.3 284.394C70.6599 373.102 -10.2213 529.391 1.03994 693.165L40.9457 690.421ZM147.537 1040.73C154.147 1136.86 204.115 1223.27 282.606 1276.87L305.164 1243.84C236.755 1197.12 193.21 1121.85 187.443 1037.98L147.537 1040.73ZM123.074 684.953L147.537 1040.73L187.443 1037.98L162.98 682.209L123.074 684.953ZM274.647 387.339C173.318 452.644 114.959 566.941 123.074 684.953L162.98 682.209C155.892 579.133 206.899 478.589 296.316 420.961L274.647 387.339ZM557.17 377.733C469.065 328.376 360.227 332.183 274.647 387.339L296.316 420.961C369.625 373.714 462.611 370.61 537.62 412.63L557.17 377.733ZM1373.38 586.209C1377.87 651.398 1346.07 714.439 1290.3 750.352L1311.96 783.982C1379.82 740.283 1418.78 663.394 1413.29 583.465L1373.38 586.209ZM1231.06 365.38C1313.56 409.86 1366.95 492.7 1373.38 586.209L1413.29 583.465C1405.92 476.261 1344.63 381.166 1250.04 330.171L1231.06 365.38ZM917.162 196.146L1231.06 365.38L1250.04 330.171L936.144 160.937L917.162 196.146ZM666.325 187.074C747.299 151.777 840.03 154.561 917.162 196.146L936.144 160.937C847.824 113.32 742.18 110.373 650.342 150.406L666.325 187.074ZM1397.37 986.088C1389.51 1073.04 1341.07 1153.88 1264.51 1203.23L1286.18 1236.85C1372.98 1180.91 1428.22 1089.05 1437.21 989.69L1397.37 986.088ZM1264.51 1203.23L936.66 1414.53L958.329 1448.15L1286.18 1236.85L1264.51 1203.23ZM936.66 1414.53C847.242 1472.15 734.608 1477.08 643.664 1428.04L624.682 1463.25C728.804 1519.39 857 1513.45 958.329 1448.15L936.66 1414.53ZM643.664 1428.04C598.314 1403.59 569.488 1357.17 567.681 1305.65L527.706 1307.05C530.01 1372.76 566.821 1432.06 624.682 1463.25L643.664 1428.04ZM936.179 578.324L556.751 377.505L538.039 412.858L917.467 613.677L936.179 578.324ZM439.578 1329.07L406.803 595.108L366.843 596.893L399.618 1330.86L439.578 1329.07ZM1290.01 750.545L883.202 1022.73L905.445 1055.98L1312.25 783.79L1290.01 750.545ZM567.656 1305.12L538.286 825.777L498.361 828.224L527.731 1307.57L567.656 1305.12ZM585.778 1535.79C481.145 1479.38 376.513 1422.97 271.88 1366.56L252.897 1401.76C357.53 1458.18 462.163 1514.59 566.796 1571L585.778 1535.79ZM1495.42 577.997C1503.57 696.588 1511.73 815.179 1519.88 933.77L1559.79 931.026C1551.63 812.435 1543.48 693.844 1535.32 575.253L1495.42 577.997ZM229.969 318.016C230.183 317.879 230.396 317.741 230.61 317.604C230.823 317.466 231.036 317.328 231.25 317.191C231.463 317.053 231.677 316.916 231.89 316.778C232.104 316.641 232.317 316.503 232.53 316.366C233.368 315.825 234.254 315.255 235.092 314.715C235.305 314.577 235.519 314.44 235.732 314.302C235.946 314.165 236.159 314.027 236.372 313.889C236.586 313.752 236.799 313.614 237.013 313.477C237.226 313.339 237.44 313.202 237.653 313.064C237.867 312.926 238.08 312.789 238.293 312.651C238.507 312.514 238.72 312.376 238.934 312.239C239.147 312.101 239.361 311.964 239.574 311.826C239.788 311.688 240.001 311.551 240.214 311.413C241.505 310.582 244.047 308.943 245.337 308.112C245.551 307.974 245.764 307.837 245.977 307.699C246.191 307.561 246.404 307.424 246.618 307.286C247.458 306.745 247.059 307.002 247.898 306.461C248.446 306.108 248.632 305.988 249.179 305.636C250.309 304.908 249.33 305.538 250.46 304.81C252.157 303.716 253.885 302.603 255.582 301.509C255.796 301.371 256.009 301.234 256.223 301.096C256.436 300.958 256.65 300.821 256.863 300.683C257.077 300.546 257.29 300.408 257.503 300.271C257.717 300.133 257.93 299.996 258.144 299.858C258.724 299.484 258.844 299.407 259.424 299.033C259.638 298.895 259.851 298.757 260.065 298.62C260.278 298.482 260.492 298.345 260.705 298.207C263.335 296.512 263.198 296.601 265.828 294.906C266.041 294.768 266.255 294.631 266.468 294.493C266.682 294.355 266.895 294.218 267.108 294.08C267.29 293.964 268.208 293.372 268.389 293.255C268.603 293.117 268.816 292.98 269.029 292.842C269.243 292.705 269.456 292.567 269.67 292.43C271.025 291.556 269.595 292.478 270.95 291.604C271.164 291.467 271.377 291.329 271.591 291.192C271.804 291.054 272.018 290.916 272.231 290.779C272.445 290.641 272.658 290.504 272.871 290.366C273.085 290.229 273.298 290.091 273.512 289.953C273.725 289.816 273.939 289.678 274.152 289.541C274.366 289.403 274.579 289.266 274.792 289.128C275.006 288.991 275.219 288.853 275.433 288.715C275.646 288.578 275.86 288.44 276.073 288.303C276.287 288.165 276.5 288.028 276.713 287.89C276.927 287.752 277.14 287.615 277.354 287.477C277.777 287.204 278.211 286.925 278.634 286.652C278.848 286.514 279.061 286.377 279.275 286.239C279.488 286.102 279.702 285.964 279.915 285.827C280.591 285.391 280.519 285.437 281.196 285.001C284.518 282.86 288.119 280.539 291.441 278.398C292.091 277.979 295.914 275.516 296.564 275.097C298.196 274.045 297.493 274.498 299.125 273.446C300.771 272.385 298.76 273.681 300.406 272.621C300.619 272.483 300.833 272.345 301.046 272.208C301.259 272.07 301.473 271.933 301.686 271.795C304.29 270.117 309.328 266.87 311.932 265.192C312.627 264.744 313.798 263.99 314.493 263.541C314.887 263.287 315.379 262.97 315.774 262.716C315.987 262.578 316.201 262.441 316.414 262.303C316.627 262.166 316.841 262.028 317.054 261.891C317.268 261.753 317.481 261.616 317.695 261.478C317.908 261.34 318.122 261.203 318.335 261.065C318.548 260.928 318.762 260.79 318.975 260.653C319.189 260.515 319.402 260.377 319.616 260.24C320.363 259.758 320.149 259.896 320.896 259.415C321.387 259.098 321.687 258.905 322.177 258.589C322.217 258.563 324.698 256.964 324.738 256.938C324.952 256.801 325.165 256.663 325.379 256.526C325.592 256.388 325.805 256.251 326.019 256.113C326.232 255.975 326.446 255.838 326.659 255.7C326.873 255.563 327.086 255.425 327.3 255.288C327.468 255.179 328.412 254.571 328.58 254.462C328.794 254.325 329.007 254.187 329.221 254.05C329.434 253.912 329.647 253.774 329.861 253.637C330.074 253.499 330.288 253.362 330.501 253.224C330.715 253.087 330.928 252.949 331.142 252.812C331.355 252.674 331.568 252.536 331.782 252.399C331.995 252.261 332.209 252.124 332.422 251.986C332.636 251.849 332.849 251.711 333.063 251.573C333.276 251.436 333.489 251.298 333.703 251.161C333.916 251.023 334.13 250.886 334.343 250.748C334.557 250.611 334.77 250.473 334.984 250.335C335.197 250.198 335.41 250.06 335.624 249.923C335.837 249.785 336.051 249.648 336.264 249.51C336.478 249.372 336.691 249.235 336.905 249.097C337.118 248.96 337.331 248.822 337.545 248.685C337.758 248.547 337.972 248.41 338.185 248.272C338.399 248.134 338.612 247.997 338.826 247.859C339.039 247.722 339.252 247.584 339.466 247.447C339.679 247.309 339.893 247.171 340.106 247.034C340.22 246.961 341.273 246.282 341.387 246.209C341.6 246.071 341.814 245.933 342.027 245.796C342.241 245.658 342.454 245.521 342.668 245.383C345.24 243.725 345.218 243.739 347.79 242.082C348.004 241.944 348.217 241.807 348.431 241.669C348.644 241.531 348.857 241.394 349.071 241.256C349.284 241.119 349.498 240.981 349.711 240.844C349.925 240.706 350.138 240.568 350.352 240.431C351.65 239.594 351.615 239.617 352.913 238.78C354.709 237.622 356.239 236.636 358.036 235.479C358.249 235.341 358.462 235.204 358.676 235.066C358.889 234.928 359.103 234.791 359.316 234.653C359.53 234.516 359.743 234.378 359.957 234.241C360.17 234.103 360.383 233.965 360.597 233.828C360.81 233.69 361.024 233.553 361.237 233.415C361.451 233.278 361.664 233.14 361.878 233.003C363.124 232.199 361.912 232.98 363.158 232.177C363.372 232.04 363.585 231.902 363.799 231.764C364.012 231.627 364.225 231.489 364.439 231.352C364.86 231.08 365.298 230.798 365.72 230.526C365.933 230.389 366.146 230.251 366.36 230.114C366.573 229.976 366.787 229.839 367 229.701C367.214 229.563 367.427 229.426 367.641 229.288C367.854 229.151 368.067 229.013 368.281 228.876C368.745 228.577 369.098 228.349 369.561 228.05C369.694 227.965 370.71 227.31 370.842 227.225C371.056 227.087 371.269 226.95 371.482 226.812C371.696 226.675 371.909 226.537 372.123 226.4C372.336 226.262 372.55 226.124 372.763 225.987C372.977 225.849 373.19 225.712 373.403 225.574C373.557 225.475 375.812 224.022 375.965 223.923C376.178 223.786 376.392 223.648 376.605 223.511C376.819 223.373 377.032 223.236 377.245 223.098C378.843 222.069 376.929 223.302 378.526 222.273C379.373 221.727 378.96 221.993 379.807 221.447C380.02 221.31 380.234 221.172 380.447 221.035C380.661 220.897 380.874 220.759 381.087 220.622C381.949 220.067 381.507 220.352 382.368 219.797C382.582 219.659 382.795 219.521 383.008 219.384C383.222 219.246 383.435 219.109 383.649 218.971C383.862 218.834 384.076 218.696 384.289 218.558C384.503 218.421 384.716 218.283 384.929 218.146C385.143 218.008 385.356 217.871 385.57 217.733C385.783 217.596 385.997 217.458 386.21 217.32C386.424 217.183 386.637 217.045 386.85 216.908C387.064 216.77 387.277 216.633 387.491 216.495C387.704 216.357 387.918 216.22 388.131 216.082C388.345 215.945 388.558 215.807 388.771 215.67C390.064 214.837 390.041 214.852 391.333 214.019C391.674 213.799 393.552 212.588 393.894 212.368C394.736 211.826 398.175 209.609 399.017 209.067C399.23 208.929 399.444 208.791 399.657 208.654C399.871 208.516 400.084 208.379 400.297 208.241C400.725 207.966 401.151 207.691 401.578 207.416C401.792 207.278 402.005 207.141 402.218 207.003C402.432 206.866 402.645 206.728 402.859 206.59C403.072 206.453 403.286 206.315 403.499 206.178C403.713 206.04 403.926 205.903 404.139 205.765C404.521 205.519 406.319 204.36 406.701 204.114C406.914 203.977 407.128 203.839 407.341 203.702C407.555 203.564 407.768 203.427 407.981 203.289C408.195 203.151 408.408 203.014 408.622 202.876C408.835 202.739 409.049 202.601 409.262 202.464C410.301 201.794 413.346 199.832 414.385 199.162C415.431 198.488 414.619 199.011 415.665 198.337C415.879 198.199 416.092 198.062 416.306 197.924C416.519 197.786 416.733 197.649 416.946 197.511C417.176 197.363 417.997 196.834 418.227 196.686C418.902 196.251 418.832 196.296 419.507 195.861C420.571 195.175 423.567 193.245 424.63 192.559C424.843 192.422 425.057 192.284 425.27 192.146C425.484 192.009 425.697 191.871 425.911 191.734C427.464 190.733 425.638 191.909 427.191 190.908C427.405 190.771 427.618 190.633 427.832 190.496C428.045 190.358 428.259 190.221 428.472 190.083C428.685 189.945 428.899 189.808 429.112 189.67C429.326 189.533 429.539 189.395 429.753 189.258C429.966 189.12 430.18 188.982 430.393 188.845C430.606 188.707 430.82 188.57 431.033 188.432C431.247 188.295 431.46 188.157 431.674 188.02C431.887 187.882 432.101 187.744 432.314 187.607C432.778 187.308 434.411 186.255 434.875 185.956C435.683 185.436 439.191 183.175 439.998 182.655C441.974 181.381 443.144 180.627 445.121 179.353C445.777 178.93 445.745 178.951 446.401 178.528C448.046 177.467 446.037 178.763 447.682 177.702C447.895 177.565 448.109 177.427 448.322 177.29C448.536 177.152 448.749 177.015 448.963 176.877C449.176 176.739 449.39 176.602 449.603 176.464C449.816 176.327 450.03 176.189 450.243 176.052C451.452 175.273 450.316 176.005 451.524 175.226C451.737 175.089 451.951 174.951 452.164 174.814C452.378 174.676 452.591 174.538 452.805 174.401C453.018 174.263 453.232 174.126 453.445 173.988C453.658 173.851 453.872 173.713 454.085 173.575C454.299 173.438 454.512 173.3 454.726 173.163C454.939 173.025 455.153 172.888 455.366 172.75C456.026 172.325 459.829 169.874 460.489 169.449C461.733 168.646 460.525 169.425 461.769 168.623C461.983 168.486 462.196 168.348 462.41 168.21C462.623 168.073 462.836 167.935 463.05 167.798C463.263 167.66 463.477 167.523 463.69 167.385C463.904 167.248 464.117 167.11 464.331 166.972C464.992 166.546 464.95 166.573 465.611 166.147C469.006 163.959 472.462 161.732 475.857 159.544C476.23 159.303 476.764 158.959 477.137 158.719C477.351 158.581 477.564 158.444 477.778 158.306C477.991 158.168 478.204 158.031 478.418 157.893C479.712 157.059 479.685 157.077 480.979 156.243C482.13 155.501 482.39 155.333 483.541 154.592C483.809 154.419 484.553 153.939 484.821 153.766C486.063 152.966 484.86 153.741 486.102 152.941C487.382 152.116 489.945 150.464 491.225 149.64C491.438 149.502 491.651 149.364 491.865 149.227C492.078 149.089 492.292 148.952 492.505 148.814C493.232 148.346 493.059 148.457 493.786 147.989C493.999 147.851 494.213 147.714 494.426 147.576C494.64 147.439 494.853 147.301 495.067 147.163C495.28 147.026 495.493 146.888 495.707 146.751C495.92 146.613 496.134 146.476 496.347 146.338C496.561 146.2 496.774 146.063 496.988 145.925C497.201 145.788 497.414 145.65 497.628 145.513C497.98 145.285 498.556 144.915 498.909 144.687C499.122 144.55 499.335 144.412 499.549 144.275C499.762 144.137 499.976 143.999 500.189 143.862C500.403 143.724 500.616 143.587 500.83 143.449C501.043 143.312 501.256 143.174 501.47 143.037C502.53 142.353 501.691 142.894 502.751 142.211C502.964 142.074 503.177 141.936 503.391 141.798C503.604 141.661 503.818 141.523 504.031 141.386C504.245 141.248 504.458 141.111 504.672 140.973C504.885 140.836 505.098 140.698 505.312 140.56C505.448 140.473 506.456 139.823 506.592 139.735C506.806 139.597 507.019 139.46 507.233 139.322C507.446 139.185 507.66 139.047 507.873 138.91C508.087 138.772 508.3 138.635 508.513 138.497C508.727 138.359 508.94 138.222 509.154 138.084C509.367 137.947 509.581 137.809 509.794 137.672C510.008 137.534 510.221 137.396 510.434 137.259C511.048 136.863 511.102 136.829 511.715 136.434C512.8 135.734 513.191 135.482 514.276 134.783C515.35 134.091 515.764 133.824 516.838 133.132C517.732 132.556 517.224 132.883 518.118 132.307C518.332 132.169 518.545 132.032 518.759 131.894C518.972 131.756 519.186 131.619 519.399 131.481C519.969 131.114 521.391 130.198 521.96 129.831C522.549 129.451 522.653 129.384 523.241 129.005C523.455 128.868 523.668 128.73 523.881 128.592C524.095 128.455 524.308 128.317 524.522 128.18C524.735 128.042 524.949 127.905 525.162 127.767C525.376 127.63 525.589 127.492 525.802 127.354C526.016 127.217 526.229 127.079 526.443 126.942C526.656 126.804 526.87 126.667 527.083 126.529C528.619 125.539 528.109 125.868 529.644 124.878C530.853 124.1 529.717 124.832 530.925 124.053C532.118 123.284 531.013 123.996 532.206 123.228C533.281 122.535 533.692 122.269 534.767 121.577C534.981 121.439 535.194 121.302 535.407 121.164C535.621 121.026 535.834 120.889 536.048 120.751C536.739 120.306 536.637 120.371 537.328 119.926C537.545 119.786 538.392 119.24 538.609 119.101C538.823 118.963 539.036 118.825 539.249 118.688C539.463 118.55 539.676 118.413 539.89 118.275C540.103 118.138 540.317 118 540.53 117.863C540.744 117.725 540.957 117.587 541.17 117.45C541.384 117.312 541.597 117.175 541.811 117.037C542.024 116.9 542.238 116.762 542.451 116.624C542.974 116.287 547.051 113.66 547.574 113.323C548.533 112.704 547.895 113.116 548.854 112.498C549.068 112.36 549.281 112.222 549.495 112.085C549.708 111.947 549.922 111.81 550.135 111.672C551.035 111.092 550.516 111.427 551.416 110.847C551.629 110.709 551.843 110.572 552.056 110.434C552.269 110.297 552.483 110.159 552.696 110.021C552.715 110.01 553.959 109.208 553.977 109.196C554.947 108.571 554.288 108.996 555.258 108.371C556.2 107.763 555.596 108.153 556.538 107.545C556.752 107.408 556.965 107.27 557.179 107.133C557.392 106.995 557.606 106.858 557.819 106.72L536.15 73.0979C535.197 73.7123 535.823 73.3088 534.869 73.9232C534.128 74.4012 534.33 74.2706 533.589 74.7486C533.094 75.0673 531.522 76.0807 531.027 76.3994C529.543 77.3558 531.231 76.2683 529.747 77.2247C528.117 78.2752 530.096 76.9996 528.466 78.0501C528.252 78.1877 528.039 78.3252 527.826 78.4628C527.612 78.6004 527.399 78.7379 527.185 78.8755C526.7 79.1884 526.39 79.3879 525.905 79.7009C525.35 80.058 523.897 80.9944 523.343 81.3516C522.029 82.1985 523.377 81.3301 522.063 82.177C521.849 82.3146 521.636 82.4521 521.422 82.5897C521.209 82.7272 520.995 82.8648 520.782 83.0024C519.887 83.5789 516.554 85.7273 515.659 86.3039C515.446 86.4414 515.232 86.579 515.019 86.7166C514.805 86.8541 514.592 86.9917 514.379 87.1292C514.165 87.2668 513.952 87.4044 513.738 87.5419C513.525 87.6795 513.311 87.8171 513.098 87.9546C512.666 88.2328 512.249 88.5018 511.817 88.78C511.604 88.9176 511.39 89.0551 511.177 89.1927C510.963 89.3302 510.75 89.4678 510.537 89.6054C510.361 89.7186 509.432 90.3176 509.256 90.4307C508.587 90.8616 508.644 90.8253 507.975 91.2561C507.727 91.4161 505.662 92.7469 505.414 92.9069C502.088 95.0506 498.495 97.3662 495.169 99.5099C494.541 99.9141 494.515 99.931 493.888 100.335C493.76 100.418 492.735 101.078 492.607 101.161C492.338 101.334 490.315 102.638 490.046 102.811C489.564 103.122 487.967 104.151 487.485 104.462C487.271 104.6 487.058 104.737 486.844 104.875C486.631 105.012 486.417 105.15 486.204 105.288C486.053 105.385 485.074 106.016 484.923 106.113C484.71 106.25 484.496 106.388 484.283 106.526C484.07 106.663 483.856 106.801 483.643 106.938C483.429 107.076 483.216 107.213 483.002 107.351C482.789 107.489 482.575 107.626 482.362 107.764C481.483 108.33 480.68 108.848 479.801 109.414C479.587 109.552 479.374 109.69 479.16 109.827C478.947 109.965 478.733 110.102 478.52 110.24C478.307 110.377 478.093 110.515 477.88 110.652C477.666 110.79 477.453 110.928 477.239 111.065C475.183 112.391 476.735 111.39 474.678 112.716C474.465 112.853 474.251 112.991 474.038 113.129C473.824 113.266 473.611 113.404 473.397 113.541C473.184 113.679 472.97 113.816 472.757 113.954C472.544 114.092 472.33 114.229 472.117 114.367C470.673 115.297 470.999 115.087 469.555 116.017C468.276 116.842 465.712 118.494 464.433 119.319C464.219 119.456 464.006 119.594 463.792 119.732C463.579 119.869 463.366 120.007 463.152 120.144C462.939 120.282 462.725 120.419 462.512 120.557C462.298 120.695 462.085 120.832 461.871 120.97C461.318 121.327 459.864 122.264 459.31 122.62C459.097 122.758 458.883 122.896 458.67 123.033C458.456 123.171 458.243 123.308 458.029 123.446C457.816 123.583 457.603 123.721 457.389 123.858C457.176 123.996 456.962 124.134 456.749 124.271C456.535 124.409 456.322 124.546 456.108 124.684C455.895 124.821 455.682 124.959 455.468 125.097C454.928 125.444 454.727 125.574 454.187 125.922C447.548 130.201 440.336 134.849 433.697 139.128C433.483 139.266 433.27 139.403 433.056 139.541C432.843 139.678 432.63 139.816 432.416 139.953C432.203 140.091 431.989 140.228 431.776 140.366C431.562 140.504 431.349 140.641 431.135 140.779C430.922 140.916 430.709 141.054 430.495 141.191C430.282 141.329 430.068 141.467 429.855 141.604C429.774 141.656 428.655 142.377 428.574 142.429C428.361 142.567 428.147 142.705 427.934 142.842C427.72 142.98 427.507 143.117 427.293 143.255C427.08 143.392 426.867 143.53 426.653 143.668C426.44 143.805 426.226 143.943 426.013 144.08C425.612 144.338 425.133 144.647 424.732 144.906C424.519 145.043 424.305 145.181 424.092 145.318C423.878 145.456 423.665 145.593 423.451 145.731C422.978 146.036 421.364 147.076 420.89 147.382C420.08 147.904 419.139 148.51 418.329 149.032C418.115 149.17 417.902 149.308 417.689 149.445C417.475 149.583 417.262 149.72 417.048 149.858C416.835 149.995 416.621 150.133 416.408 150.271C416.194 150.408 415.981 150.546 415.768 150.683C414.469 151.52 414.504 151.497 413.206 152.334C411.41 153.492 409.88 154.478 408.084 155.635C407.87 155.773 407.657 155.911 407.443 156.048C407.23 156.186 407.016 156.323 406.803 156.461C406.589 156.598 406.376 156.736 406.163 156.874C405.949 157.011 405.736 157.149 405.522 157.286C405.309 157.424 405.095 157.561 404.882 157.699C404.668 157.836 404.455 157.974 404.242 158.112C402.995 158.915 404.207 158.134 402.961 158.937C402.747 159.075 402.534 159.212 402.321 159.35C402.107 159.487 401.894 159.625 401.68 159.762C401.467 159.9 401.253 160.037 401.04 160.175C400.826 160.313 400.613 160.45 400.4 160.588C400.186 160.725 399.973 160.863 399.759 161C399.546 161.138 399.332 161.276 399.119 161.413C398.172 162.024 398.785 161.628 397.838 162.238C394.939 164.107 395.615 163.671 392.716 165.54C392.562 165.639 390.307 167.092 390.154 167.191C389.941 167.328 389.727 167.466 389.514 167.603C389.3 167.741 389.087 167.879 388.874 168.016C388.66 168.154 388.447 168.291 388.233 168.429C388.02 168.566 387.806 168.704 387.593 168.841C386.746 169.387 387.159 169.121 386.312 169.667C386.099 169.804 385.885 169.942 385.672 170.08C385.458 170.217 385.245 170.355 385.032 170.492C384.17 171.047 384.612 170.762 383.751 171.318C383.537 171.455 383.324 171.593 383.111 171.73C382.897 171.868 382.684 172.005 382.47 172.143C382.257 172.281 382.043 172.418 381.83 172.556C381.616 172.693 381.403 172.831 381.19 172.968C380.976 173.106 380.763 173.243 380.549 173.381C380.336 173.519 380.122 173.656 379.909 173.794C379.695 173.931 379.482 174.069 379.269 174.206C379.055 174.344 378.842 174.482 378.628 174.619C378.415 174.757 378.201 174.894 377.988 175.032C377.774 175.169 377.561 175.307 377.348 175.444C376.055 176.277 376.078 176.262 374.786 177.095C374.445 177.315 372.567 178.526 372.225 178.746C371.383 179.289 367.944 181.505 367.102 182.047C366.889 182.185 366.675 182.323 366.462 182.46C366.249 182.598 366.035 182.735 365.822 182.873C365.395 183.148 364.968 183.423 364.541 183.698C364.328 183.836 364.114 183.973 363.901 184.111C363.687 184.248 363.474 184.386 363.26 184.524C363.047 184.661 362.833 184.799 362.62 184.936C362.407 185.074 362.193 185.211 361.98 185.349C361.598 185.595 359.8 186.754 359.418 187C359.205 187.137 358.991 187.275 358.778 187.412C358.565 187.55 358.351 187.688 358.138 187.825C357.924 187.963 357.711 188.1 357.497 188.238C357.284 188.375 357.07 188.513 356.857 188.651C355.818 189.32 352.773 191.283 351.734 191.952C350.688 192.626 351.5 192.103 350.454 192.777C350.24 192.915 350.027 193.053 349.813 193.19C349.6 193.328 349.386 193.465 349.173 193.603C348.943 193.751 348.122 194.28 347.892 194.428C346.84 195.106 347.664 194.575 346.612 195.254C345.548 195.939 342.553 197.87 341.489 198.555C341.276 198.693 341.062 198.83 340.849 198.968C340.635 199.105 340.422 199.243 340.208 199.38C338.655 200.381 340.481 199.205 338.928 200.206C338.714 200.343 338.501 200.481 338.287 200.618C338.074 200.756 337.86 200.894 337.647 201.031C337.434 201.169 337.22 201.306 337.007 201.444C336.793 201.581 336.58 201.719 336.366 201.857C336.153 201.994 335.939 202.132 335.726 202.269C335.513 202.407 335.299 202.544 335.086 202.682C334.872 202.819 334.659 202.957 334.445 203.095C334.232 203.232 334.018 203.37 333.805 203.507C333.341 203.806 331.708 204.859 331.244 205.158C330.437 205.678 326.928 207.939 326.121 208.46C324.145 209.733 322.975 210.487 320.998 211.761C320.342 212.184 320.374 212.163 319.718 212.586C319.551 212.694 318.603 213.305 318.437 213.412C318.224 213.549 318.01 213.687 317.797 213.824C317.583 213.962 317.37 214.1 317.156 214.237C316.943 214.375 316.73 214.512 316.516 214.65C316.303 214.787 316.089 214.925 315.876 215.063C314.668 215.841 315.803 215.109 314.595 215.888C314.382 216.025 314.168 216.163 313.955 216.301C313.741 216.438 313.528 216.576 313.314 216.713C312.214 217.423 311.854 217.655 310.753 218.364C310.54 218.502 310.326 218.639 310.113 218.777C309.899 218.914 309.686 219.052 309.472 219.189C309.259 219.327 309.046 219.465 308.832 219.602C308.619 219.74 308.405 219.877 308.192 220.015C307.978 220.152 307.765 220.29 307.551 220.427C307.338 220.565 307.125 220.703 306.911 220.84C306.492 221.11 306.049 221.396 305.63 221.666C304.386 222.468 305.594 221.689 304.35 222.491C304.136 222.628 303.923 222.766 303.709 222.904C303.496 223.041 303.283 223.179 303.069 223.316C302.856 223.454 302.642 223.591 302.429 223.729C302.215 223.867 302.002 224.004 301.788 224.142C301.127 224.568 301.169 224.541 300.508 224.967C299.985 225.304 295.908 227.932 295.385 228.269C294.067 229.118 295.422 228.245 294.104 229.094C293.37 229.567 293.558 229.446 292.824 229.919C292.61 230.057 292.397 230.194 292.183 230.332C291.97 230.47 291.757 230.607 291.543 230.745C290.92 231.146 290.886 231.168 290.262 231.57C290.049 231.708 289.836 231.845 289.622 231.983C289.409 232.12 289.195 232.258 288.982 232.395C288.768 232.533 288.555 232.671 288.341 232.808C288.128 232.946 287.915 233.083 287.701 233.221C287.488 233.358 287.274 233.496 287.061 233.634C286.847 233.771 286.634 233.909 286.42 234.046C286.207 234.184 285.994 234.321 285.78 234.459C285.567 234.596 285.353 234.734 285.14 234.872C284.253 235.443 284.746 235.126 283.859 235.697C283.646 235.835 283.432 235.972 283.219 236.11C283.005 236.247 282.792 236.385 282.578 236.522C282.365 236.66 282.152 236.797 281.938 236.935C281.725 237.073 281.511 237.21 281.298 237.348C279.72 238.365 281.595 237.156 280.017 238.173C279.303 238.634 275.609 241.014 274.895 241.475C273.84 242.154 270.827 244.096 269.772 244.776C269.729 244.804 267.253 246.399 267.211 246.427C266.997 246.564 266.784 246.702 266.57 246.84C266.357 246.977 266.143 247.115 265.93 247.252C265.528 247.511 265.051 247.819 264.649 248.078C263.879 248.574 264.138 248.407 263.369 248.903C263.155 249.041 262.942 249.178 262.728 249.316C262.515 249.453 262.301 249.591 262.088 249.728C261.874 249.866 261.661 250.003 261.448 250.141C261.234 250.279 261.021 250.416 260.807 250.554C260.594 250.691 260.38 250.829 260.167 250.966C259.953 251.104 259.74 251.242 259.527 251.379C259.008 251.713 257.484 252.695 256.965 253.03C256.752 253.167 256.538 253.305 256.325 253.443C256.111 253.58 255.898 253.718 255.685 253.855C255.471 253.993 255.258 254.13 255.044 254.268C254.831 254.405 254.617 254.543 254.404 254.681C254.19 254.818 253.977 254.956 253.764 255.093C253.55 255.231 253.337 255.368 253.123 255.506C252.91 255.644 252.696 255.781 252.483 255.919C252.269 256.056 252.056 256.194 251.843 256.331C251.629 256.469 251.416 256.606 251.202 256.744C250.989 256.882 250.775 257.019 250.562 257.157C249.822 257.634 250.022 257.505 249.281 257.982C245.131 260.657 243.186 261.91 239.036 264.585C238.413 264.986 238.378 265.009 237.755 265.41C237.542 265.548 237.328 265.686 237.115 265.823C236.901 265.961 236.688 266.098 236.475 266.236C236.261 266.373 236.048 266.511 235.834 266.649C235.621 266.786 235.407 266.924 235.194 267.061C234.981 267.199 234.767 267.336 234.554 267.474C234.34 267.611 234.127 267.749 233.913 267.887C233.7 268.024 233.486 268.162 233.273 268.299C233.06 268.437 232.846 268.574 232.633 268.712C231.922 269.17 232.062 269.08 231.352 269.537C231.139 269.675 230.925 269.812 230.712 269.95C230.498 270.088 230.285 270.225 230.071 270.363C228.84 271.157 230.022 270.394 228.791 271.188C228.577 271.326 228.364 271.463 228.15 271.601C227.937 271.738 227.723 271.876 227.51 272.013C226.929 272.388 226.81 272.465 226.229 272.839C226.215 272.848 224.963 273.655 224.949 273.664C224.619 273.877 223.997 274.277 223.668 274.49C221.787 275.702 220.426 276.579 218.545 277.791C217.431 278.509 218.379 277.898 217.265 278.616C217.051 278.754 216.838 278.892 216.624 279.029C216.411 279.167 216.197 279.304 215.984 279.442C215.771 279.579 215.557 279.717 215.344 279.855C215.13 279.992 214.917 280.13 214.703 280.267C214.546 280.369 213.58 280.991 213.423 281.093C213.302 281.17 210.982 282.666 210.861 282.743C210.648 282.881 210.434 283.019 210.221 283.156C210.008 283.294 209.794 283.431 209.581 283.569C209.477 283.636 208.404 284.327 208.3 284.394L229.969 318.016ZM548.239 258.599C589.21 232.193 625.23 204.987 666.325 187.074L650.342 150.406C605.295 170.041 564.228 200.706 526.57 224.977L548.239 258.599ZM282.606 1276.87C323.124 1304.54 369.902 1325.89 410.107 1347.57L429.089 1312.36C385.53 1288.88 343.409 1269.96 305.163 1243.84L282.606 1276.87ZM1391.35 847.466C1394.71 896.382 1401.42 941.266 1397.37 986.088L1437.21 989.69C1441.64 940.641 1434.33 889.435 1431.25 844.722L1391.35 847.466ZM1168.73 578.625L547.308 224.412L527.5 259.163L1148.92 613.376L1168.73 578.625ZM911.499 1049.6L1176 606.247L1141.65 585.754L877.148 1029.11L911.499 1049.6ZM500.971 836.946L748.721 1269.22L783.425 1249.33L535.675 817.055L500.971 836.946ZM776.73 1276.19C992.958 1140.04 1207.41 1001.04 1422.12 862.914L1400.48 829.274C1185.62 967.502 971.428 1106.33 755.416 1242.35L776.73 1276.19ZM386.823 596C386.823 616 386.824 616 386.827 616C386.829 616 386.833 616 386.838 616C386.847 616 386.862 616 386.881 616C386.92 616 386.977 616 387.054 616C387.207 616 387.436 616 387.739 616C388.345 616 389.249 616 390.436 616C392.811 616 396.324 616 400.874 616C409.974 616 423.222 616 439.818 616C473.01 616 519.59 616 573.143 616C680.25 616 815.25 616 926.823 616L926.823 576C815.25 576 680.25 576 573.143 576C519.59 576 473.01 576 439.818 576C423.222 576 409.974 576 400.874 576C396.324 576 392.811 576 390.436 576C389.249 576 388.345 576 387.739 576C387.436 576 387.207 576 387.054 576C386.977 576 386.92 576 386.881 576C386.862 576 386.847 576 386.838 576C386.833 576 386.829 576 386.827 576C386.824 576 386.823 576 386.823 596ZM780.37 1037.36L974.73 708.06L940.282 687.729L745.922 1017.03L780.37 1037.36ZM576.214 717.895L957.506 717.894L957.506 677.894L576.214 677.895L576.214 717.895ZM780.539 1017.32L593.607 688.021L558.821 707.768L745.753 1037.07L780.539 1017.32Z" fill="#5E50B2" mask="url(#path-1-outside-1_55103_8073)"/>
<defs>
<radialGradient id="paint0_radial_55103_8073" cx="0" cy="0" r="1" gradientUnits="userSpaceOnUse" gradientTransform="translate(780.413 812.095) rotate(-57.8115) scale(935.951 898.734)">
<stop stop-color="#7E71CD"/>
<stop offset="1" stop-color="#5E50B2"/>
</radialGradient>
</defs>
</svg>
