<svg width="1277" height="1339" viewBox="0 0 1277 1339" fill="none" xmlns="http://www.w3.org/2000/svg">
<path fill-rule="evenodd" clip-rule="evenodd" d="M277.272 1187.36C235.39 1164.78 190.94 1144.64 151.559 1117.75C78.1086 1067.59 31.3526 986.747 25.1639 896.746L0.700723 540.973C-6.90043 430.429 47.7823 323.008 143.155 261.542C222.6 210.34 323.512 206.885 405.069 252.573L784.497 453.392C561.35 453.392 244.497 453.392 244.497 453.392L277.272 1187.36ZM751.997 896.746L1158.81 624.559C1220.62 584.753 1256 514.788 1251.01 442.228C1244.11 341.873 1186.77 252.905 1098.23 205.167L784.327 35.9331C701.601 -8.66734 602.413 -11.533 516.007 26.1315C472.936 44.906 434.393 73.8412 395.078 99.1795L1016.5 453.392L751.997 896.746ZM1274.96 845.281C1266.54 938.435 1214.7 1024.79 1133.02 1077.43L805.168 1288.73C709.795 1350.2 589.38 1355.62 491.847 1303.04C440.242 1275.22 407.423 1222.35 405.367 1163.74L375.997 684.392L623.747 1116.66C839.867 980.573 1054.19 841.665 1268.97 703.486C1272.19 750.3 1279.2 798.346 1274.96 845.281Z" fill="white"/>
</svg>
