<svg width="1550" height="1612" viewBox="0 0 1550 1612" fill="none" xmlns="http://www.w3.org/2000/svg">
<g filter="url(#filter0_d_55085_8464)">
<path fill-rule="evenodd" clip-rule="evenodd" d="M541.161 79.9089C672.852 -4.96465 840.813 -13.5516 978.715 60.7963L1292.61 230.031C1418.2 297.736 1499.76 424.291 1509.55 566.625C1517.7 685.216 1525.86 803.807 1534.01 922.398C1544.76 1078.7 1467.56 1228.11 1335.87 1312.99L1008.02 1524.28C876.327 1609.16 708.366 1617.74 570.464 1543.39C465.831 1486.98 361.198 1430.57 256.565 1374.16C130.984 1306.45 49.4202 1179.9 39.633 1037.57L15.1696 681.793C4.42231 525.495 81.6207 376.079 213.311 291.205C322.595 220.773 431.878 150.341 541.161 79.9089ZM413.775 1319.96C371.893 1297.38 327.443 1277.25 288.062 1250.36C214.612 1200.2 167.856 1119.36 161.667 1029.35L137.204 673.581C129.603 563.037 184.285 455.617 279.658 394.15C359.103 342.948 460.015 339.493 541.572 385.181L921 586C697.853 586 381 586 381 586L413.775 1319.96ZM888.5 1029.35L1295.31 757.167C1357.12 717.361 1392.5 647.396 1387.51 574.837C1380.61 474.481 1323.27 385.513 1234.73 337.776L920.829 168.541C838.104 123.941 738.916 121.075 652.51 158.74C609.439 177.514 570.896 206.449 531.581 231.788L1153 586L888.5 1029.35ZM1411.46 977.889C1403.04 1071.04 1351.21 1157.4 1269.52 1210.04L941.671 1421.34C846.298 1482.8 725.883 1488.23 628.35 1435.65C576.745 1407.83 543.926 1354.96 541.87 1296.35L512.5 817L760.25 1249.27C976.37 1113.18 1190.69 974.273 1405.48 836.094C1408.7 882.908 1415.71 930.954 1411.46 977.889ZM757.323 1017.19L951.683 687.894L570.391 687.895L757.323 1017.19Z" fill="#5E50B2"/>
<path d="M978.715 60.7963L973.97 69.5985L973.97 69.5985L978.715 60.7963ZM1292.61 230.031L1297.36 221.228L1297.36 221.228L1292.61 230.031ZM1509.55 566.625L1499.57 567.311L1499.57 567.311L1509.55 566.625ZM1534.01 922.398L1524.03 923.084L1524.03 923.084L1534.01 922.398ZM570.464 1543.39L575.21 1534.59L575.21 1534.59L570.464 1543.39ZM256.565 1374.16L251.82 1382.96L251.82 1382.96L256.565 1374.16ZM39.633 1037.57L29.6566 1038.25L29.6566 1038.25L39.633 1037.57ZM15.1696 681.793L5.19314 682.479L15.1696 681.793ZM413.775 1319.96L409.029 1328.77L424.551 1337.13L423.765 1319.52L413.775 1319.96ZM288.062 1250.36L282.422 1258.61L282.422 1258.61L288.062 1250.36ZM161.667 1029.35L151.69 1030.04L151.69 1030.04L161.667 1029.35ZM137.204 673.581L147.18 672.895L147.18 672.895L137.204 673.581ZM541.572 385.181L536.684 393.906L536.788 393.964L536.894 394.02L541.572 385.181ZM921 586L921 596L925.678 577.162L921 586ZM381 586L381 576L370.543 576L371.01 586.446L381 586ZM888.5 1029.35L879.912 1024.23L894.061 1037.67L888.5 1029.35ZM1295.31 757.167L1289.9 748.76L1289.82 748.807L1289.75 748.856L1295.31 757.167ZM1387.51 574.837L1377.54 575.523L1377.54 575.523L1387.51 574.837ZM1234.73 337.776L1229.98 346.578L1229.98 346.578L1234.73 337.776ZM920.829 168.541L916.084 177.344L916.084 177.344L920.829 168.541ZM652.51 158.74L656.506 167.907L656.506 167.907L652.51 158.74ZM531.581 231.788L526.164 223.382L512.308 232.312L526.629 240.475L531.581 231.788ZM1153 586L1161.59 591.124L1166.81 582.364L1157.95 577.313L1153 586ZM1411.46 977.889L1421.42 978.789L1421.42 978.789L1411.46 977.889ZM628.35 1435.65L633.096 1426.85L633.096 1426.85L628.35 1435.65ZM541.87 1296.35L551.864 1296L551.86 1295.87L551.852 1295.74L541.87 1296.35ZM512.5 817L521.176 812.028L502.519 817.612L512.5 817ZM760.25 1249.27L751.574 1254.24L756.758 1263.29L765.579 1257.73L760.25 1249.27ZM1405.48 836.094L1415.45 835.408L1414.29 818.532L1400.07 827.684L1405.48 836.094ZM757.323 1017.19L748.626 1022.13L757.154 1037.15L765.935 1022.27L757.323 1017.19ZM951.683 687.894L960.294 692.977L969.197 677.894L951.683 677.894L951.683 687.894ZM570.391 687.895L570.39 677.895L553.215 677.895L561.694 692.831L570.391 687.895ZM546.579 88.3144C675.295 5.35807 839.365 -2.97138 973.97 69.5985L983.461 51.9941C842.261 -24.1317 670.41 -15.2874 535.744 71.5034L546.579 88.3144ZM973.97 69.5985L1287.87 238.833L1297.36 221.228L983.461 51.9941L973.97 69.5985ZM1287.87 238.833C1410.43 304.91 1490.02 428.401 1499.57 567.311L1519.52 565.939C1509.5 420.181 1425.96 290.562 1297.36 221.228L1287.87 238.833ZM1524.03 923.084C1534.52 1075.64 1459.17 1221.62 1330.45 1304.58L1341.29 1321.39C1475.95 1234.6 1554.99 1081.75 1543.99 921.712L1524.03 923.084ZM1330.45 1304.58L1002.6 1515.88L1013.44 1532.69L1341.29 1321.39L1330.45 1304.58ZM1002.6 1515.88C873.885 1598.83 709.814 1607.16 575.21 1534.59L565.718 1552.2C706.918 1628.32 878.77 1619.48 1013.44 1532.69L1002.6 1515.88ZM261.311 1365.36C138.75 1299.28 59.1613 1175.79 49.6095 1036.88L29.6566 1038.25C39.6792 1184.01 123.218 1313.63 251.82 1382.96L261.311 1365.36ZM49.6095 1036.88L25.146 681.107L5.19314 682.479L29.6566 1038.25L49.6095 1036.88ZM25.146 681.107C14.6558 528.546 90.0127 382.567 218.729 299.611L207.894 282.8C73.2287 369.59 -5.81114 522.443 5.19314 682.479L25.146 681.107ZM151.69 1030.04C158.09 1123.11 206.451 1206.73 282.422 1258.61L293.701 1242.1C222.772 1193.66 177.621 1115.6 171.643 1028.67L151.69 1030.04ZM127.227 674.267L151.69 1030.04L171.643 1028.67L147.18 672.895L127.227 674.267ZM274.241 385.744C175.89 449.13 119.369 559.989 127.227 674.267L147.18 672.895C139.836 566.085 192.68 462.103 285.075 402.555L274.241 385.744ZM546.459 376.457C461.628 328.934 356.753 332.566 274.241 385.744L285.075 402.555C361.452 353.331 458.401 350.051 536.684 393.906L546.459 376.457ZM1377.54 575.523C1382.27 644.397 1348.68 710.9 1289.9 748.76L1300.72 765.575C1365.56 723.822 1402.73 650.395 1397.49 574.151L1377.54 575.523ZM1229.98 346.578C1315.51 392.686 1370.87 478.591 1377.54 575.523L1397.49 574.151C1390.35 470.371 1331.04 378.339 1239.47 328.973L1229.98 346.578ZM916.084 177.344L1229.98 346.578L1239.47 328.973L925.575 159.739L916.084 177.344ZM656.506 167.907C740.196 131.426 836.155 134.251 916.084 177.344L925.575 159.739C840.052 113.631 737.636 110.724 648.514 149.573L656.506 167.907ZM1401.5 976.988C1393.36 1067.04 1343.23 1150.64 1264.1 1201.64L1274.94 1218.45C1359.18 1164.15 1412.72 1075.05 1421.42 978.789L1401.5 976.988ZM1264.1 1201.64L936.254 1412.93L947.089 1429.74L1274.94 1218.45L1264.1 1201.64ZM936.254 1412.93C843.859 1472.48 727.334 1477.65 633.096 1426.85L623.604 1444.45C724.432 1498.81 848.738 1493.13 947.089 1429.74L936.254 1412.93ZM633.096 1426.85C584.618 1400.71 553.796 1351.06 551.864 1296L531.877 1296.7C534.057 1358.86 568.871 1414.94 623.604 1444.45L633.096 1426.85ZM925.678 577.162L546.25 376.343L536.894 394.02L916.322 594.839L925.678 577.162ZM423.765 1319.52L390.99 585.554L371.01 586.446L403.784 1320.41L423.765 1319.52ZM1289.75 748.856L882.939 1021.04L894.061 1037.67L1300.87 765.479L1289.75 748.856ZM551.852 1295.74L522.481 816.389L502.519 817.612L531.889 1296.96L551.852 1295.74ZM575.21 1534.59C470.577 1478.18 365.944 1421.77 261.311 1365.36L251.82 1382.96C356.453 1439.37 461.085 1495.79 565.718 1552.2L575.21 1534.59ZM1499.57 567.311C1507.72 685.902 1515.88 804.493 1524.03 923.084L1543.99 921.712C1535.83 803.121 1527.68 684.53 1519.52 565.939L1499.57 567.311ZM218.729 299.611C218.942 299.473 219.156 299.336 219.369 299.198C219.582 299.06 219.796 298.923 220.009 298.785C220.223 298.648 220.436 298.51 220.65 298.373C220.863 298.235 221.077 298.098 221.29 297.96C222.711 297.044 222.43 297.225 223.851 296.309C224.281 296.032 224.702 295.761 225.132 295.484C225.244 295.412 226.3 294.731 226.413 294.658C226.626 294.521 226.84 294.383 227.053 294.246C227.266 294.108 227.48 293.971 227.693 293.833C228.116 293.561 228.552 293.28 228.974 293.008C229.187 292.87 229.401 292.733 229.614 292.595C229.828 292.457 230.041 292.32 230.255 292.182C230.468 292.045 230.681 291.907 230.895 291.77C231.108 291.632 231.322 291.495 231.535 291.357C231.855 291.151 232.496 290.738 232.816 290.532C233.029 290.394 233.243 290.256 233.456 290.119C233.67 289.981 233.883 289.844 234.097 289.706C234.31 289.569 234.523 289.431 234.737 289.294C234.95 289.156 235.164 289.018 235.377 288.881C235.591 288.743 235.804 288.606 236.018 288.468C236.231 288.331 236.444 288.193 236.658 288.055C237.531 287.493 237.066 287.792 237.939 287.23C238.517 286.857 238.641 286.778 239.219 286.405C239.433 286.267 239.646 286.13 239.86 285.992C240.073 285.854 240.286 285.717 240.5 285.579C241.171 285.147 241.11 285.186 241.781 284.754C242.204 284.481 242.638 284.201 243.061 283.929C243.275 283.791 243.488 283.653 243.702 283.516C243.915 283.378 244.128 283.241 244.342 283.103C244.555 282.966 244.769 282.828 244.982 282.691C245.196 282.553 245.409 282.415 245.623 282.278C245.836 282.14 246.049 282.003 246.263 281.865C246.476 281.728 246.69 281.59 246.903 281.452C247.594 281.007 247.493 281.072 248.184 280.627C248.397 280.49 248.611 280.352 248.824 280.214C249.038 280.077 249.251 279.939 249.465 279.802C249.885 279.531 251.605 278.422 252.026 278.151C252.239 278.013 252.453 277.876 252.666 277.738C252.88 277.601 253.093 277.463 253.307 277.326C253.52 277.188 253.733 277.05 253.947 276.913C254.16 276.775 254.374 276.638 254.587 276.5C256.015 275.58 258.282 274.119 259.71 273.199C260.962 272.392 263.581 270.704 264.833 269.897C265.046 269.76 265.259 269.622 265.473 269.485C265.686 269.347 265.9 269.209 266.113 269.072C266.153 269.046 267.354 268.272 267.394 268.246C267.771 268.004 269.578 266.838 269.955 266.596C270.169 266.458 270.382 266.321 270.596 266.183C270.809 266.045 271.022 265.908 271.236 265.77C271.449 265.633 271.663 265.495 271.876 265.358C272.09 265.22 272.303 265.082 272.517 264.945C273.749 264.151 273.846 264.088 275.078 263.294C275.291 263.157 275.505 263.019 275.718 262.881C275.932 262.744 276.145 262.606 276.358 262.469C276.572 262.331 276.785 262.194 276.999 262.056C277.212 261.919 277.426 261.781 277.639 261.643C278.991 260.772 278.849 260.864 280.2 259.993C280.414 259.855 280.627 259.718 280.841 259.58C281.054 259.442 281.268 259.305 281.481 259.167C281.695 259.03 281.908 258.892 282.121 258.755C282.335 258.617 282.548 258.479 282.762 258.342C282.975 258.204 283.189 258.067 283.402 257.929C283.616 257.792 283.829 257.654 284.042 257.517C284.256 257.379 284.469 257.241 284.683 257.104C284.896 256.966 285.11 256.829 285.323 256.691C286.034 256.233 287.174 255.498 287.884 255.04C288.098 254.903 288.311 254.765 288.525 254.628C288.738 254.49 288.952 254.353 289.165 254.215C289.379 254.077 289.592 253.94 289.805 253.802C290.019 253.665 290.232 253.527 290.446 253.39C290.659 253.252 290.873 253.115 291.086 252.977C291.3 252.839 291.513 252.702 291.726 252.564C292.752 251.903 291.981 252.4 293.007 251.739C294.093 251.039 294.482 250.788 295.568 250.088C295.782 249.951 295.995 249.813 296.209 249.675C296.422 249.538 296.636 249.4 296.849 249.263C297.063 249.125 297.276 248.988 297.489 248.85C297.703 248.713 297.916 248.575 298.13 248.437C298.343 248.3 298.557 248.162 298.77 248.025C298.984 247.887 299.197 247.75 299.41 247.612C299.624 247.474 299.837 247.337 300.051 247.199C300.264 247.062 300.478 246.924 300.691 246.787C302.619 245.544 303.886 244.728 305.814 243.485C306.027 243.348 306.241 243.21 306.454 243.072C306.668 242.935 306.881 242.797 307.094 242.66C307.308 242.522 307.521 242.385 307.735 242.247C307.948 242.11 308.162 241.972 308.375 241.834C308.499 241.754 309.531 241.089 309.656 241.009C309.869 240.871 310.083 240.734 310.296 240.596C310.51 240.459 310.723 240.321 310.936 240.184C311.797 239.629 311.357 239.913 312.217 239.358C312.386 239.249 313.328 238.642 313.498 238.533C313.711 238.395 313.925 238.258 314.138 238.12C314.352 237.983 314.565 237.845 314.778 237.708C314.992 237.57 315.205 237.432 315.419 237.295C315.632 237.157 315.846 237.02 316.059 236.882C316.344 236.698 317.055 236.24 317.34 236.057C317.553 235.919 317.767 235.782 317.98 235.644C318.194 235.507 318.407 235.369 318.62 235.231C319.284 234.804 319.237 234.834 319.901 234.406C320.115 234.268 320.328 234.131 320.541 233.993C320.755 233.856 320.968 233.718 321.182 233.581C321.275 233.521 322.369 232.815 322.462 232.755C322.676 232.618 322.889 232.48 323.103 232.343C323.316 232.205 323.53 232.067 323.743 231.93C325.223 230.976 324.825 231.233 326.304 230.279C326.518 230.142 326.731 230.004 326.945 229.866C327.158 229.729 327.372 229.591 327.585 229.454C327.798 229.316 328.012 229.179 328.225 229.041C328.439 228.904 328.652 228.766 328.866 228.628C329.798 228.027 330.495 227.579 331.427 226.978C331.64 226.84 331.854 226.703 332.067 226.565C332.281 226.427 332.494 226.29 332.708 226.152C332.921 226.015 333.135 225.877 333.348 225.74C333.561 225.602 333.775 225.464 333.988 225.327C334.202 225.189 334.415 225.052 334.629 224.914C334.842 224.777 335.056 224.639 335.269 224.502C335.482 224.364 335.696 224.226 335.909 224.089C336.123 223.951 336.336 223.814 336.55 223.676C336.96 223.412 337.42 223.115 337.83 222.851C338.661 222.315 338.28 222.561 339.111 222.025C339.324 221.888 339.538 221.75 339.751 221.613C339.965 221.475 340.178 221.338 340.392 221.2C340.962 220.833 341.102 220.742 341.672 220.375C341.886 220.237 342.099 220.099 342.313 219.962C342.526 219.824 342.74 219.687 342.953 219.549C343.172 219.408 344.015 218.865 344.234 218.724C344.447 218.586 344.661 218.449 344.874 218.311C345.087 218.174 345.301 218.036 345.514 217.898C345.728 217.761 345.941 217.623 346.155 217.486C346.368 217.348 346.582 217.211 346.795 217.073C347.008 216.936 347.222 216.798 347.435 216.66C347.649 216.523 347.862 216.385 348.076 216.248C348.289 216.11 348.503 215.973 348.716 215.835C348.929 215.697 349.143 215.56 349.356 215.422C349.648 215.234 350.345 214.785 350.637 214.597C350.724 214.541 351.83 213.828 351.918 213.772C352.131 213.634 352.345 213.496 352.558 213.359C352.771 213.221 352.985 213.084 353.198 212.946C353.412 212.809 353.625 212.671 353.839 212.534C354.052 212.396 354.266 212.258 354.479 212.121C355.368 211.548 356.151 211.043 357.04 210.47C358.07 209.807 357.292 210.308 358.321 209.645C358.322 209.644 359.601 208.82 359.602 208.819C359.815 208.682 360.029 208.544 360.242 208.407C360.455 208.269 360.669 208.132 360.882 207.994C361.096 207.856 361.309 207.719 361.523 207.581C361.736 207.444 361.95 207.306 362.163 207.169C363.028 206.611 362.578 206.901 363.444 206.343C363.657 206.206 363.871 206.068 364.084 205.931C364.297 205.793 364.511 205.655 364.724 205.518C365.646 204.924 366.364 204.461 367.286 203.867C367.499 203.73 367.712 203.592 367.926 203.454C368.139 203.317 368.353 203.179 368.566 203.042C369.163 202.657 369.251 202.601 369.847 202.216C370.06 202.079 370.274 201.941 370.487 201.804C370.701 201.666 370.914 201.529 371.128 201.391C371.341 201.253 371.554 201.116 371.768 200.978C371.981 200.841 372.195 200.703 372.408 200.566C373.311 199.984 374.066 199.497 374.97 198.915C375.183 198.777 375.396 198.64 375.61 198.502C375.823 198.365 376.037 198.227 376.25 198.089C376.464 197.952 376.677 197.814 376.891 197.677C377.104 197.539 377.317 197.402 377.531 197.264C378.573 196.592 379.05 196.285 380.092 195.613C380.306 195.476 380.519 195.338 380.733 195.201C380.946 195.063 381.159 194.926 381.373 194.788C381.586 194.65 381.8 194.513 382.013 194.375C382.227 194.238 382.44 194.1 382.654 193.963C382.867 193.825 383.08 193.687 383.294 193.55C383.507 193.412 383.721 193.275 383.934 193.137C384.148 193 384.361 192.862 384.575 192.725C384.788 192.587 385.001 192.449 385.215 192.312C385.489 192.135 386.221 191.663 386.496 191.486C386.709 191.349 386.922 191.211 387.136 191.074C387.349 190.936 387.563 190.799 387.776 190.661C388.763 190.025 388.07 190.472 389.057 189.836C390.084 189.174 389.311 189.672 390.338 189.01C390.551 188.873 390.764 188.735 390.978 188.598C391.191 188.46 391.405 188.323 391.618 188.185C391.832 188.047 392.045 187.91 392.259 187.772C392.472 187.635 392.685 187.497 392.899 187.36C393.112 187.222 393.326 187.084 393.539 186.947C393.753 186.809 393.966 186.672 394.18 186.534C394.393 186.397 394.606 186.259 394.82 186.122C395.033 185.984 395.247 185.846 395.46 185.709C395.674 185.571 395.887 185.434 396.101 185.296C396.314 185.159 396.527 185.021 396.741 184.883C396.954 184.746 397.168 184.608 397.381 184.471C397.595 184.333 397.808 184.196 398.022 184.058C398.235 183.921 398.448 183.783 398.662 183.645C398.875 183.508 399.089 183.37 399.302 183.233C399.516 183.095 399.729 182.958 399.943 182.82C400.156 182.682 400.369 182.545 400.583 182.407C401.45 181.849 402.277 181.315 403.144 180.757C403.994 180.209 403.575 180.479 404.425 179.931C404.638 179.794 404.852 179.656 405.065 179.519C405.279 179.381 405.492 179.243 405.706 179.106C406.067 178.873 406.625 178.513 406.986 178.28C407.096 178.209 408.157 177.526 408.267 177.455C408.748 177.145 409.066 176.94 409.548 176.63C409.761 176.492 409.974 176.355 410.188 176.217C410.401 176.079 410.615 175.942 410.828 175.804C411.042 175.667 411.255 175.529 411.469 175.392C411.682 175.254 411.895 175.117 412.109 174.979C412.724 174.582 412.774 174.55 413.389 174.154C414.085 173.705 413.974 173.777 414.67 173.328C415.593 172.734 415.028 173.097 415.951 172.503C416.164 172.365 416.378 172.228 416.591 172.09C416.805 171.953 417.018 171.815 417.231 171.677C417.261 171.659 418.483 170.871 418.512 170.852C418.726 170.714 418.939 170.577 419.152 170.439C419.366 170.302 419.579 170.164 419.793 170.027C420.326 169.683 420.541 169.545 421.073 169.201C421.628 168.844 421.799 168.733 422.354 168.376C422.568 168.238 422.781 168.101 422.994 167.963C423.208 167.826 423.421 167.688 423.635 167.551C423.963 167.339 424.588 166.937 424.915 166.725C425.957 166.054 425.154 166.571 426.196 165.9C426.241 165.871 427.432 165.103 427.477 165.074C427.69 164.937 427.904 164.799 428.117 164.662C428.331 164.524 428.544 164.387 428.757 164.249C428.971 164.111 429.184 163.974 429.398 163.836C429.611 163.699 429.825 163.561 430.038 163.424C430.252 163.286 430.465 163.149 430.678 163.011C430.892 162.873 431.105 162.736 431.319 162.598C431.532 162.461 431.746 162.323 431.959 162.186C432.173 162.048 432.386 161.91 432.599 161.773C433.352 161.288 433.128 161.432 433.88 160.948C434.094 160.81 434.307 160.672 434.52 160.535C434.734 160.397 434.947 160.26 435.161 160.122C435.374 159.985 435.588 159.847 435.801 159.709C436.015 159.572 436.228 159.434 436.441 159.297C436.655 159.159 436.868 159.022 437.082 158.884C437.295 158.747 437.509 158.609 437.722 158.471C437.936 158.334 438.149 158.196 438.362 158.059C438.576 157.921 438.789 157.784 439.003 157.646C439.216 157.508 439.43 157.371 439.643 157.233C439.857 157.096 440.07 156.958 440.283 156.821C440.497 156.683 440.71 156.546 440.924 156.408C441.137 156.27 441.351 156.133 441.564 155.995C441.778 155.858 441.991 155.72 442.204 155.583C442.418 155.445 442.631 155.307 442.845 155.17C443.058 155.032 443.272 154.895 443.485 154.757C443.699 154.62 443.912 154.482 444.125 154.345C444.339 154.207 444.552 154.069 444.766 153.932C444.979 153.794 445.193 153.657 445.406 153.519C445.62 153.382 445.833 153.244 446.046 153.106C446.26 152.969 446.473 152.831 446.687 152.694C446.9 152.556 447.114 152.419 447.327 152.281C447.541 152.144 447.754 152.006 447.967 151.868C448.27 151.674 448.946 151.238 449.248 151.043C449.462 150.905 449.675 150.768 449.888 150.63C450.102 150.493 450.315 150.355 450.529 150.218C451.392 149.662 450.947 149.948 451.809 149.392C452.023 149.255 452.236 149.117 452.45 148.98C452.663 148.842 452.877 148.704 453.09 148.567C453.304 148.429 453.517 148.292 453.73 148.154C453.944 148.017 454.157 147.879 454.371 147.742C456.449 146.402 457.415 145.78 459.493 144.44C459.707 144.302 459.92 144.165 460.134 144.027C460.347 143.89 460.561 143.752 460.774 143.615C461.654 143.047 461.174 143.357 462.055 142.789C462.268 142.652 462.482 142.514 462.695 142.377C462.908 142.239 463.122 142.101 463.335 141.964C463.549 141.826 463.762 141.689 463.976 141.551C464.189 141.414 464.403 141.276 464.616 141.139C465.666 140.462 466.127 140.165 467.177 139.488C467.391 139.35 467.604 139.213 467.818 139.075C468.031 138.938 468.245 138.8 468.458 138.662C468.671 138.525 468.885 138.387 469.098 138.25C469.312 138.112 469.525 137.975 469.739 137.837C469.952 137.699 470.166 137.562 470.379 137.424C470.592 137.287 470.806 137.149 471.019 137.012C471.233 136.874 471.446 136.737 471.66 136.599C471.873 136.461 472.087 136.324 472.3 136.186C472.371 136.141 473.51 135.407 473.581 135.361C473.794 135.223 474.008 135.086 474.221 134.948C474.434 134.811 474.648 134.673 474.861 134.536C475.711 133.988 476.573 133.432 477.423 132.885C477.672 132.724 478.454 132.22 478.703 132.059C479.022 131.854 479.665 131.44 479.984 131.234C480.667 130.794 481.862 130.024 482.545 129.583C482.759 129.446 482.972 129.308 483.186 129.171C483.399 129.033 483.613 128.895 483.826 128.758C484.039 128.62 484.253 128.483 484.466 128.345C484.68 128.208 484.893 128.07 485.107 127.933C485.32 127.795 485.534 127.657 485.747 127.52C485.96 127.382 486.174 127.245 486.387 127.107C486.601 126.97 486.814 126.832 487.028 126.694C487.241 126.557 487.455 126.419 487.668 126.282C487.881 126.144 488.095 126.007 488.308 125.869C488.522 125.731 488.735 125.594 488.949 125.456C489.162 125.319 489.376 125.181 489.589 125.044C489.802 124.906 490.016 124.769 490.229 124.631C490.443 124.493 490.656 124.356 490.87 124.218C491.083 124.081 491.297 123.943 491.51 123.806C491.723 123.668 491.937 123.53 492.15 123.393C492.364 123.255 492.577 123.118 492.791 122.98C493.004 122.843 493.218 122.705 493.431 122.568C493.644 122.43 493.858 122.292 494.071 122.155C494.448 121.912 494.975 121.572 495.352 121.329C495.39 121.305 496.594 120.529 496.633 120.504C496.846 120.367 497.06 120.229 497.273 120.091C497.486 119.954 497.7 119.816 497.913 119.679C498.127 119.541 498.34 119.404 498.554 119.266C498.767 119.128 498.981 118.991 499.194 118.853C499.407 118.716 499.621 118.578 499.834 118.441C500.048 118.303 500.261 118.166 500.475 118.028C500.771 117.837 501.459 117.394 501.755 117.203C501.969 117.065 502.182 116.927 502.396 116.79C502.609 116.652 502.823 116.515 503.036 116.377C503.398 116.144 503.954 115.785 504.317 115.552C504.335 115.54 505.579 114.738 505.597 114.726C506.138 114.378 506.337 114.25 506.878 113.901C507.091 113.764 507.305 113.626 507.518 113.488C507.732 113.351 507.945 113.213 508.159 113.076C508.372 112.938 508.585 112.801 508.799 112.663C509.012 112.525 509.226 112.388 509.439 112.25C509.653 112.113 509.866 111.975 510.08 111.838C510.293 111.7 510.506 111.563 510.72 111.425C510.933 111.287 511.147 111.15 511.36 111.012C511.574 110.875 511.787 110.737 512.001 110.6C512.214 110.462 512.427 110.324 512.641 110.187C512.854 110.049 513.068 109.912 513.281 109.774C513.495 109.637 513.708 109.499 513.922 109.362C514.135 109.224 514.348 109.086 514.562 108.949C514.916 108.721 515.489 108.351 515.843 108.123C516.578 107.65 517.669 106.947 518.404 106.473C518.617 106.335 518.831 106.198 519.044 106.06C519.258 105.922 519.471 105.785 519.685 105.647C519.997 105.446 520.653 105.023 520.965 104.822C521.51 104.471 521.701 104.348 522.246 103.997C522.459 103.859 522.673 103.721 522.886 103.584C523.1 103.446 523.313 103.309 523.527 103.171C523.74 103.034 523.953 102.896 524.167 102.759C524.38 102.621 524.594 102.483 524.807 102.346C525.021 102.208 525.234 102.071 525.448 101.933C525.661 101.796 525.874 101.658 526.088 101.52C526.96 100.958 526.496 101.257 527.369 100.695C528.036 100.265 527.982 100.3 528.649 99.8697C528.863 99.7322 529.076 99.5946 529.29 99.457C529.503 99.3195 529.716 99.1819 529.93 99.0443C530.143 98.9068 530.357 98.7692 530.57 98.6316C530.784 98.4941 530.997 98.3565 531.211 98.219C533.428 96.79 534.116 96.3464 536.333 94.9175C536.547 94.7799 536.76 94.6423 536.974 94.5048C537.187 94.3672 537.4 94.2296 537.614 94.0921C537.827 93.9545 538.041 93.817 538.254 93.6794C538.468 93.5418 538.681 93.4043 538.895 93.2667C539.108 93.1291 539.321 92.9916 539.535 92.854C539.748 92.7165 539.962 92.5789 540.175 92.4413C540.389 92.3038 540.602 92.1662 540.816 92.0286C541.029 91.8911 541.242 91.7535 541.456 91.616C541.669 91.4784 541.883 91.3408 542.096 91.2033C542.31 91.0657 542.523 90.9281 542.737 90.7906C543.446 90.3334 543.308 90.4224 544.017 89.9652C545.071 89.2863 544.245 89.8187 545.298 89.1398C545.945 88.7225 545.931 88.7318 546.579 88.3144L535.744 71.5034C535.53 71.6409 535.317 71.7785 535.104 71.9161C534.89 72.0536 534.677 72.1912 534.463 72.3288C533.671 72.8391 533.974 72.6438 533.183 73.1541C532.92 73.3236 532.165 73.81 531.902 73.9795C531.688 74.1171 531.475 74.2546 531.262 74.3922C531.048 74.5298 530.835 74.6673 530.621 74.8049C530.408 74.9425 530.194 75.08 529.981 75.2176C529.767 75.3551 529.554 75.4927 529.341 75.6303C529.127 75.7678 528.914 75.9054 528.7 76.043C528.487 76.1805 528.273 76.3181 528.06 76.4556C526.662 77.3569 526.897 77.2051 525.499 78.1064C525.285 78.244 525.072 78.3815 524.858 78.5191C524.645 78.6566 524.431 78.7942 524.218 78.9318C523.641 79.3039 523.515 79.3851 522.937 79.7571C522.004 80.3585 522.59 79.9812 521.657 80.5825C521.443 80.7201 521.23 80.8576 521.016 80.9952C520.803 81.1328 520.589 81.2703 520.376 81.4079C519.667 81.8648 518.524 82.6018 517.815 83.0586C517.601 83.1962 517.388 83.3338 517.174 83.4713C516.961 83.6089 516.747 83.7465 516.534 83.884C515.957 84.2558 515.83 84.3376 515.253 84.7094C515.04 84.847 514.826 84.9845 514.613 85.1221C514.4 85.2597 514.186 85.3972 513.973 85.5348C513.759 85.6723 513.546 85.8099 513.332 85.9475C513.119 86.085 512.905 86.2226 512.692 86.3602C512.479 86.4977 512.265 86.6353 512.052 86.7728C511.838 86.9104 511.625 87.048 511.411 87.1855C511.198 87.3231 510.984 87.4607 510.771 87.5982C510.558 87.7358 510.344 87.8733 510.131 88.0109C509.738 88.264 509.243 88.5831 508.85 88.8363C508.392 89.1315 508.027 89.3665 507.569 89.6617C506.521 90.3375 506.057 90.6366 505.008 91.3124C501.682 93.4561 498.089 95.7717 494.763 97.9154C494.549 98.053 494.336 98.1905 494.122 98.3281C493.909 98.4657 493.695 98.6032 493.482 98.7408C492.876 99.1312 492.807 99.1758 492.201 99.5662C490.88 100.418 490.961 100.366 489.64 101.217C489.427 101.354 489.213 101.492 489 101.63C488.786 101.767 488.573 101.905 488.359 102.042C487.553 102.562 487.886 102.348 487.079 102.868C486.865 103.005 486.652 103.143 486.438 103.28C486.225 103.418 486.011 103.555 485.798 103.693C485.585 103.831 485.371 103.968 485.158 104.106C484.944 104.243 484.731 104.381 484.517 104.518C484.304 104.656 484.09 104.794 483.877 104.931C483.664 105.069 483.45 105.206 483.237 105.344C483.023 105.481 482.81 105.619 482.596 105.756C482.383 105.894 482.17 106.032 481.956 106.169C481.743 106.307 481.529 106.444 481.316 106.582C481.102 106.719 480.889 106.857 480.675 106.995C479.708 107.618 480.362 107.196 479.395 107.82C479.181 107.957 478.968 108.095 478.754 108.233C478.541 108.37 478.328 108.508 478.114 108.645C477.901 108.783 477.687 108.92 477.474 109.058C477.26 109.196 477.047 109.333 476.833 109.471C475.854 110.102 475.251 110.49 474.272 111.121C472.901 112.005 470.52 113.54 469.149 114.423C468.936 114.561 468.723 114.698 468.509 114.836C468.296 114.973 468.082 115.111 467.869 115.248C467.655 115.386 467.442 115.523 467.228 115.661C467.015 115.799 466.802 115.936 466.588 116.074C466.375 116.211 466.161 116.349 465.948 116.486C465.734 116.624 465.521 116.762 465.307 116.899C465.126 117.016 464.208 117.607 464.027 117.724C463.963 117.765 462.81 118.509 462.746 118.55C462.533 118.687 462.319 118.825 462.106 118.963C461.892 119.1 461.679 119.238 461.465 119.375C461.252 119.513 461.039 119.65 460.825 119.788C460.612 119.925 460.398 120.063 460.185 120.201C459.971 120.338 459.758 120.476 459.544 120.613C459.331 120.751 459.118 120.888 458.904 121.026C458.691 121.164 458.477 121.301 458.264 121.439C458.05 121.576 457.837 121.714 457.623 121.851C457.41 121.989 457.197 122.126 456.983 122.264C456.77 122.402 456.556 122.539 456.343 122.677C456.129 122.814 455.916 122.952 455.702 123.089C455.489 123.227 455.276 123.365 455.062 123.502C454.113 124.114 454.731 123.716 453.781 124.327C452.089 125.418 450.352 126.538 448.659 127.629C448.445 127.767 448.232 127.904 448.018 128.042C447.805 128.179 447.592 128.317 447.378 128.454C447.165 128.592 446.951 128.729 446.738 128.867C446.524 129.005 446.311 129.142 446.097 129.28C445.562 129.625 445.353 129.76 444.817 130.105C444.603 130.243 444.39 130.38 444.176 130.518C443.963 130.655 443.75 130.793 443.536 130.93C443.323 131.068 443.109 131.206 442.896 131.343C442.682 131.481 442.469 131.618 442.255 131.756C441.727 132.097 441.503 132.241 440.975 132.581C440.761 132.719 440.548 132.856 440.334 132.994C440.121 133.131 439.908 133.269 439.694 133.407C439.312 133.653 438.796 133.985 438.413 134.232C437.941 134.536 437.605 134.753 437.133 135.057C436.919 135.195 436.706 135.332 436.493 135.47C436.279 135.608 436.066 135.745 435.852 135.883C435.639 136.02 435.425 136.158 435.212 136.295C434.998 136.433 434.785 136.571 434.572 136.708C434.358 136.846 434.145 136.983 433.931 137.121C433.718 137.258 433.504 137.396 433.291 137.533C433.198 137.593 432.103 138.299 432.01 138.359C431.797 138.496 431.583 138.634 431.37 138.772C431.156 138.909 430.943 139.047 430.73 139.184C429.25 140.138 429.648 139.881 428.168 140.835C427.955 140.973 427.741 141.11 427.528 141.248C427.314 141.385 427.101 141.523 426.888 141.66C426.674 141.798 426.461 141.935 426.247 142.073C426.034 142.211 425.82 142.348 425.607 142.486C424.674 143.087 423.978 143.536 423.046 144.136C422.832 144.274 422.619 144.412 422.405 144.549C422.192 144.687 421.978 144.824 421.765 144.962C421.551 145.099 421.338 145.237 421.125 145.375C420.911 145.512 420.698 145.65 420.484 145.787C420.271 145.925 420.057 146.062 419.844 146.2C419.63 146.337 419.417 146.475 419.204 146.613C418.99 146.75 418.777 146.888 418.563 147.025C418.35 147.163 418.136 147.3 417.923 147.438C417.513 147.702 417.053 147.999 416.642 148.263C415.811 148.799 416.193 148.553 415.362 149.089C415.148 149.226 414.935 149.364 414.721 149.501C414.508 149.639 414.294 149.777 414.081 149.914C413.511 150.281 413.37 150.372 412.8 150.739C412.587 150.877 412.373 151.015 412.16 151.152C411.946 151.29 411.733 151.427 411.52 151.565C411.3 151.706 410.458 152.249 410.239 152.39C410.025 152.528 409.812 152.665 409.599 152.803C409.385 152.94 409.172 153.078 408.958 153.216C408.745 153.353 408.531 153.491 408.318 153.628C408.104 153.766 407.891 153.903 407.678 154.041C407.464 154.179 407.251 154.316 407.037 154.454C406.824 154.591 406.61 154.729 406.397 154.866C406.183 155.004 405.97 155.141 405.757 155.279C405.543 155.417 405.33 155.554 405.116 155.692C404.824 155.88 404.128 156.329 403.836 156.517C403.748 156.574 402.642 157.286 402.555 157.342C402.341 157.48 402.128 157.618 401.915 157.755C401.701 157.893 401.488 158.03 401.274 158.168C401.061 158.305 400.847 158.443 400.634 158.581C400.42 158.718 400.207 158.856 399.994 158.993C399.105 159.566 398.321 160.071 397.432 160.644C396.403 161.307 397.181 160.806 396.152 161.469C395.347 161.988 395.675 161.776 394.871 162.295C394.657 162.432 394.444 162.57 394.231 162.707C394.017 162.845 393.804 162.983 393.59 163.12C393.377 163.258 393.163 163.395 392.95 163.533C392.736 163.67 392.523 163.808 392.31 163.946C389.987 165.443 389.51 165.75 387.187 167.247C386.974 167.385 386.76 167.522 386.547 167.66C386.333 167.797 386.12 167.935 385.906 168.072C385.31 168.457 385.222 168.513 384.626 168.898C384.412 169.035 384.199 169.173 383.985 169.31C383.772 169.448 383.558 169.586 383.345 169.723C383.132 169.861 382.918 169.998 382.705 170.136C382.491 170.273 382.278 170.411 382.064 170.549C381.161 171.131 380.406 171.617 379.503 172.199C379.29 172.337 379.076 172.474 378.863 172.612C378.649 172.75 378.436 172.887 378.222 173.025C378.009 173.162 377.795 173.3 377.582 173.437C377.369 173.575 377.155 173.712 376.942 173.85C375.899 174.522 375.423 174.829 374.38 175.501C374.167 175.638 373.953 175.776 373.74 175.913C373.527 176.051 373.313 176.189 373.1 176.326C372.886 176.464 372.673 176.601 372.459 176.739C372.246 176.876 372.032 177.014 371.819 177.152C371.606 177.289 371.392 177.427 371.179 177.564C370.965 177.702 370.752 177.839 370.538 177.977C370.325 178.114 370.111 178.252 369.898 178.39C369.685 178.527 369.471 178.665 369.258 178.802C368.984 178.979 368.251 179.451 367.977 179.628C367.764 179.765 367.55 179.903 367.337 180.04C367.123 180.178 366.91 180.315 366.696 180.453C365.71 181.089 366.402 180.643 365.416 181.278C364.389 181.94 365.162 181.442 364.135 182.104C363.922 182.241 363.708 182.379 363.495 182.516C363.281 182.654 363.068 182.792 362.854 182.929C362.641 183.067 362.427 183.204 362.214 183.342C362.001 183.479 361.787 183.617 361.574 183.755C361.36 183.892 361.147 184.03 360.933 184.167C360.72 184.305 360.506 184.442 360.293 184.58C360.08 184.717 359.866 184.855 359.653 184.993C359.439 185.13 359.226 185.268 359.012 185.405C358.799 185.543 358.585 185.68 358.372 185.818C358.159 185.956 357.945 186.093 357.732 186.231C357.518 186.368 357.305 186.506 357.091 186.643C356.878 186.781 356.664 186.918 356.451 187.056C356.238 187.194 356.024 187.331 355.811 187.469C355.597 187.606 355.384 187.744 355.17 187.881C354.957 188.019 354.743 188.157 354.53 188.294C354.317 188.432 354.103 188.569 353.89 188.707C353.023 189.265 352.195 189.799 351.328 190.358C350.478 190.906 350.898 190.635 350.048 191.183C349.834 191.32 349.621 191.458 349.407 191.596C349.194 191.733 348.98 191.871 348.767 192.008C348.406 192.241 347.847 192.601 347.486 192.834C346.999 193.148 346.693 193.345 346.206 193.659C345.992 193.797 345.779 193.934 345.565 194.072C345.352 194.209 345.139 194.347 344.925 194.484C344.712 194.622 344.498 194.76 344.285 194.897C344.071 195.035 343.858 195.172 343.644 195.31C343.431 195.447 343.218 195.585 343.004 195.722C342.791 195.86 342.577 195.998 342.364 196.135C341.748 196.532 341.698 196.564 341.083 196.961C340.387 197.409 340.498 197.337 339.802 197.786C338.88 198.38 339.444 198.017 338.522 198.611C338.308 198.749 338.095 198.886 337.881 199.024C337.668 199.162 337.455 199.299 337.241 199.437C337.212 199.456 335.99 200.243 335.96 200.262C335.747 200.4 335.534 200.537 335.32 200.675C335.107 200.812 334.893 200.95 334.68 201.087C334.147 201.431 333.932 201.569 333.399 201.913C332.844 202.27 332.673 202.381 332.118 202.738C331.905 202.876 331.692 203.013 331.478 203.151C331.265 203.288 331.051 203.426 330.838 203.564C330.624 203.701 330.411 203.839 330.197 203.976C329.984 204.114 329.771 204.251 329.557 204.389C329.344 204.526 329.13 204.664 328.917 204.802C328.703 204.939 328.49 205.077 328.276 205.214C328.231 205.243 327.041 206.011 326.996 206.04C326.782 206.177 326.569 206.315 326.355 206.452C326.142 206.59 325.929 206.728 325.715 206.865C325.502 207.003 325.288 207.14 325.075 207.278C324.861 207.415 324.648 207.553 324.434 207.69C324.221 207.828 324.008 207.966 323.794 208.103C323.581 208.241 323.367 208.378 323.154 208.516C322.94 208.653 322.727 208.791 322.513 208.929C322.3 209.066 322.087 209.204 321.873 209.341C321.121 209.826 321.345 209.682 320.592 210.167C320.379 210.304 320.166 210.442 319.952 210.579C319.739 210.717 319.525 210.854 319.312 210.992C319.098 211.13 318.885 211.267 318.671 211.405C318.458 211.542 318.245 211.68 318.031 211.817C317.818 211.955 317.604 212.092 317.391 212.23C317.177 212.368 316.964 212.505 316.75 212.643C316.537 212.78 316.324 212.918 316.11 213.055C315.897 213.193 315.683 213.331 315.47 213.468C315.256 213.606 315.043 213.743 314.829 213.881C314.616 214.018 314.403 214.156 314.189 214.293C313.976 214.431 313.762 214.569 313.549 214.706C313.335 214.844 313.122 214.981 312.908 215.119C312.695 215.256 312.482 215.394 312.268 215.532C312.055 215.669 311.841 215.807 311.628 215.944C311.241 216.193 310.734 216.521 310.347 216.77C310.134 216.907 309.92 217.045 309.707 217.182C309.493 217.32 309.28 217.457 309.066 217.595C308.853 217.733 308.64 217.87 308.426 218.008C308.213 218.145 307.999 218.283 307.786 218.42C307.572 218.558 307.359 218.695 307.145 218.833C306.932 218.971 306.719 219.108 306.505 219.246C306.203 219.44 305.527 219.876 305.224 220.071C305.011 220.209 304.798 220.346 304.584 220.484C304.371 220.621 304.157 220.759 303.944 220.896C303.081 221.453 303.526 221.166 302.663 221.722C302.45 221.859 302.236 221.997 302.023 222.135C301.809 222.272 301.596 222.41 301.382 222.547C301.169 222.685 300.956 222.822 300.742 222.96C300.529 223.097 300.315 223.235 300.102 223.373C298.023 224.712 297.058 225.335 294.979 226.674C294.716 226.844 293.962 227.33 293.699 227.499C292.898 228.016 293.219 227.809 292.418 228.325C292.155 228.494 291.4 228.981 291.137 229.15C290.71 229.425 290.283 229.7 289.857 229.976C289.174 230.415 289.258 230.361 288.576 230.801C288.213 231.035 287.658 231.393 287.295 231.626C287.082 231.764 286.868 231.901 286.655 232.039C286.441 232.177 286.228 232.314 286.015 232.452C285.801 232.589 285.588 232.727 285.374 232.864C285.161 233.002 284.947 233.14 284.734 233.277C284.384 233.503 283.803 233.877 283.453 234.102C283.24 234.24 283.026 234.378 282.813 234.515C282.599 234.653 282.386 234.79 282.173 234.928C281.959 235.065 281.746 235.203 281.532 235.341C281.319 235.478 281.105 235.616 280.892 235.753C280.678 235.891 280.465 236.028 280.252 236.166C280.038 236.303 279.825 236.441 279.611 236.579C276.794 238.394 272.183 241.366 269.366 243.182C268.337 243.845 267.834 244.169 266.805 244.832C265.872 245.434 265.176 245.882 264.243 246.483C263.829 246.75 263.377 247.042 262.963 247.308C262.749 247.446 262.536 247.584 262.322 247.721C262.109 247.859 261.895 247.996 261.682 248.134C261.468 248.271 261.255 248.409 261.042 248.547C260.828 248.684 260.615 248.822 260.401 248.959C260.188 249.097 259.974 249.234 259.761 249.372C259.547 249.509 259.334 249.647 259.121 249.785C257.984 250.517 257.696 250.703 256.559 251.435C256.346 251.573 256.132 251.71 255.919 251.848C255.705 251.986 255.492 252.123 255.279 252.261C255.065 252.398 254.852 252.536 254.638 252.673C254.425 252.811 254.211 252.949 253.998 253.086C251.831 254.483 251.043 254.991 248.875 256.388C247.354 257.368 245.274 258.709 243.753 259.689C243.337 259.957 242.888 260.247 242.472 260.515C242.259 260.652 242.045 260.79 241.832 260.927C241.618 261.065 241.405 261.202 241.191 261.34C240.236 261.955 239.585 262.375 238.63 262.991C237.922 263.447 238.057 263.36 237.349 263.816C237.136 263.954 236.922 264.091 236.709 264.229C236.496 264.366 236.282 264.504 236.069 264.641C235.855 264.779 235.642 264.917 235.428 265.054C235.215 265.192 235.001 265.329 234.788 265.467C234.575 265.604 234.361 265.742 234.148 265.879C233.934 266.017 233.721 266.155 233.507 266.292C231.996 267.266 229.896 268.62 228.385 269.594C228.11 269.771 227.379 270.242 227.104 270.419C226.891 270.557 226.677 270.694 226.464 270.832C226.25 270.969 226.037 271.107 225.823 271.244C224.828 271.886 225.538 271.428 224.543 272.07C224.329 272.207 224.116 272.345 223.902 272.482C223.689 272.62 223.475 272.758 223.262 272.895C222.643 273.294 221.32 274.147 220.701 274.546C220.391 274.745 218.449 275.997 218.139 276.197C217.717 276.469 217.281 276.75 216.859 277.022C216.645 277.16 216.432 277.297 216.218 277.435C216.005 277.572 215.791 277.71 215.578 277.847C215.365 277.985 215.151 278.123 214.938 278.26C214.724 278.398 214.511 278.535 214.297 278.673C214.084 278.81 213.87 278.948 213.657 279.085C213.444 279.223 213.23 279.361 213.017 279.498C212.803 279.636 212.59 279.773 212.376 279.911C212.163 280.048 211.949 280.186 211.736 280.324C211.523 280.461 211.309 280.599 211.096 280.736C210.882 280.874 210.669 281.011 210.455 281.149C209.264 281.917 209.086 282.032 207.894 282.8L218.729 299.611ZM536.998 240.193C577.142 214.321 614.423 186.251 656.506 167.907L648.514 149.573C604.456 168.778 564.651 198.578 526.164 223.382L536.998 240.193ZM282.422 1258.61C322.372 1285.89 367.986 1306.64 409.029 1328.77L418.52 1311.16C375.8 1288.13 332.514 1268.6 293.701 1242.1L282.422 1258.61ZM1395.5 836.78C1398.79 884.645 1405.65 931.11 1401.5 976.988L1421.42 978.789C1425.76 930.797 1418.6 881.172 1415.45 835.408L1395.5 836.78ZM1157.95 577.313L536.533 223.1L526.629 240.475L1148.05 594.688L1157.95 577.313ZM897.088 1034.48L1161.59 591.124L1144.41 580.877L879.912 1024.23L897.088 1034.48ZM503.824 821.973L751.574 1254.24L768.926 1244.3L521.176 812.028L503.824 821.973ZM765.579 1257.73C981.753 1121.61 1196.14 982.658 1410.89 844.504L1400.07 827.684C1185.24 965.888 970.987 1104.75 754.922 1240.81L765.579 1257.73ZM381 586C381 596 381.001 596 381.004 596C381.006 596 381.01 596 381.014 596C381.024 596 381.039 596 381.058 596C381.096 596 381.154 596 381.23 596C381.384 596 381.613 596 381.916 596C382.522 596 383.425 596 384.613 596C386.988 596 390.501 596 395.051 596C404.15 596 417.399 596 433.995 596C467.187 596 513.766 596 567.32 596C674.426 596 809.426 596 921 596L921 576C809.426 576 674.426 576 567.32 576C513.766 576 467.187 576 433.995 576C417.399 576 404.15 576 395.051 576C390.501 576 386.988 576 384.613 576C383.425 576 382.522 576 381.916 576C381.613 576 381.384 576 381.23 576C381.154 576 381.096 576 381.058 576C381.039 576 381.024 576 381.014 576C381.01 576 381.006 576 381.004 576C381.001 576 381 576 381 586ZM765.935 1022.27L960.294 692.977L943.071 682.811L748.711 1012.11L765.935 1022.27ZM570.391 697.895L951.683 697.894L951.683 677.894L570.39 677.895L570.391 697.895ZM766.019 1012.26L579.087 682.958L561.694 692.831L748.626 1022.13L766.019 1012.26Z" fill="#5E50B2"/>
</g>
<defs>
<filter id="filter0_d_55085_8464" x="0.176758" y="0.193359" width="1548.83" height="1611.8" filterUnits="userSpaceOnUse" color-interpolation-filters="sRGB">
<feFlood flood-opacity="0" result="BackgroundImageFix"/>
<feColorMatrix in="SourceAlpha" type="matrix" values="0 0 0 0 0 0 0 0 0 0 0 0 0 0 0 0 0 0 127 0" result="hardAlpha"/>
<feOffset dy="4"/>
<feGaussianBlur stdDeviation="2"/>
<feComposite in2="hardAlpha" operator="out"/>
<feColorMatrix type="matrix" values="0 0 0 0 0 0 0 0 0 0 0 0 0 0 0 0 0 0 0.25 0"/>
<feBlend mode="normal" in2="BackgroundImageFix" result="effect1_dropShadow_55085_8464"/>
<feBlend mode="normal" in="SourceGraphic" in2="effect1_dropShadow_55085_8464" result="shape"/>
</filter>
</defs>
</svg>
