<svg width="1521" height="1584" viewBox="0 0 1521 1584" fill="none" xmlns="http://www.w3.org/2000/svg">
<path fill-rule="evenodd" clip-rule="evenodd" d="M526.984 69.7156C658.675 -15.158 826.637 -23.7449 964.538 50.6029L1278.44 219.837C1404.02 287.543 1485.58 414.098 1495.37 556.432C1503.52 675.023 1511.68 793.614 1519.83 912.205C1530.58 1068.5 1453.38 1217.92 1321.69 1302.79L993.841 1514.09C862.15 1598.96 694.189 1607.55 556.287 1533.2C451.654 1476.79 347.021 1420.38 242.388 1363.97C116.807 1296.26 35.2434 1169.71 25.4562 1027.37L0.992783 671.599C-9.75449 515.301 67.4439 365.885 199.135 281.012C308.418 210.58 417.701 140.148 526.984 69.7156ZM399.598 1309.77C357.716 1287.19 313.266 1267.05 273.885 1240.16C200.435 1190 153.679 1109.16 147.49 1019.16L123.027 663.388C115.426 552.844 170.108 445.423 265.481 383.956C344.926 332.755 445.838 329.299 527.395 374.988L906.823 575.807C683.676 575.807 366.823 575.807 366.823 575.807L399.598 1309.77ZM874.323 1019.16L1281.13 746.974C1342.94 707.168 1378.32 637.203 1373.34 564.643C1366.43 464.288 1309.1 375.319 1220.55 327.582L906.653 158.348C823.927 113.748 724.739 110.882 638.333 148.546C595.263 167.321 556.719 196.256 517.404 221.594L1138.82 575.807L874.323 1019.16ZM1397.29 967.696C1388.86 1060.85 1337.03 1147.2 1255.34 1199.85L927.494 1411.14C832.121 1472.61 711.706 1478.04 614.173 1425.46C562.568 1397.63 529.749 1344.77 527.694 1286.15L498.323 806.807L746.073 1239.08C962.193 1102.99 1176.52 964.079 1391.3 825.901C1394.52 872.715 1401.53 920.76 1397.29 967.696ZM743.146 1007L937.506 677.701L556.214 677.701L743.146 1007Z" fill="url(#paint0_linear_55113_8085)"/>
<defs>
<linearGradient id="paint0_linear_55113_8085" x1="2079.5" y1="1042" x2="-1808" y2="-2346.19" gradientUnits="userSpaceOnUse">
<stop offset="0.126874" stop-color="#5E50B2"/>
<stop offset="0.82217" stop-color="#A8FFE5"/>
</linearGradient>
</defs>
</svg>
