<svg width="1389" height="1483" viewBox="0 0 1389 1483" fill="none" xmlns="http://www.w3.org/2000/svg">
<path fill-rule="evenodd" clip-rule="evenodd" d="M889.271 52.1818C768.715 -17.3966 620.229 -17.3937 499.677 52.1892L195.027 228.033C74.3469 297.69 0 426.486 0 565.872V917.129C0 1056.51 74.347 1185.31 195.027 1254.97L499.677 1430.81C620.229 1500.39 768.716 1500.4 889.271 1430.82L1193.96 1254.97C1314.65 1185.31 1389 1056.51 1389 917.121V565.879C1389 426.488 1314.65 297.688 1193.96 228.034L889.271 52.1818ZM1075.12 543.741L495.042 208.934L568.038 166.801C646.115 121.735 742.282 121.733 820.36 166.796L1126.2 343.309C1206.17 389.468 1255.45 474.822 1255.45 567.196C1255.45 659.573 1206.17 744.929 1126.19 791.087L835.323 958.949L1075.12 543.741ZM435.431 755.208L675.296 1170.6L1255.45 835.79V919.664C1255.45 1010.01 1207.26 1093.48 1129.04 1138.62L823.587 1314.92C743.512 1361.13 644.885 1361.13 564.811 1314.91C484.614 1268.62 435.224 1183.01 435.269 1090.38L435.431 755.208ZM811.679 510.991H332.272L331.949 1180.5L259.186 1138.5C181.104 1093.44 133 1010.1 133 919.917V567.398C133 474.898 182.339 389.426 262.424 343.201C342.426 297.024 440.965 297.023 520.967 343.199L811.679 510.991ZM694.197 996.771L473.362 614.333H915.07L694.197 996.771Z" fill="url(#paint0_radial_55121_8157)"/>
<defs>
<radialGradient id="paint0_radial_55121_8157" cx="0" cy="0" r="1" gradientUnits="userSpaceOnUse" gradientTransform="translate(2177.5 1371.5) rotate(-135) scale(6187.89 9132.07)">
<stop offset="0.188221" stop-color="#6B6EBB"/>
<stop offset="0.447569" stop-color="#48FFC0"/>
</radialGradient>
</defs>
</svg>
