<svg width="1103" height="1197" viewBox="0 0 1103 1197" fill="none" xmlns="http://www.w3.org/2000/svg">
<path fill-rule="evenodd" clip-rule="evenodd" d="M672.362 32.4569C597.377 -10.8206 505.02 -10.8189 430.037 32.4614L372.046 65.9336L945.784 397.081L719.646 788.635L978.191 639.426C1055.08 595.055 1102.45 513.001 1102.45 424.196C1102.45 335.394 1055.08 253.342 978.197 208.97L672.362 32.4569ZM1102.45 710.107L528.635 1041.26L302.413 649.493L302.269 947.39C302.226 1036.45 349.711 1118.75 426.81 1163.25C503.79 1207.68 598.607 1207.69 675.588 1163.26L981.041 986.964C1056.16 943.607 1102.45 863.434 1102.45 776.664V710.107ZM178.957 1020.19L179.277 357.991H631.349L372.969 208.86C296.059 164.47 201.331 164.471 124.423 208.862C47.4338 253.3 0 335.469 0 424.398V776.917C0 863.532 46.1993 943.562 121.185 986.844L178.957 1020.19ZM754.747 481.333H347.683L551.198 833.775L754.747 481.333Z" fill="url(#paint0_radial_55166_8066)"/>
<defs>
<radialGradient id="paint0_radial_55166_8066" cx="0" cy="0" r="1" gradientUnits="userSpaceOnUse" gradientTransform="translate(1728.28 1106.61) rotate(-134.529) scale(4952.21 7307.47)">
<stop offset="0.17604" stop-color="#8979EB"/>
<stop offset="0.375748" stop-color="#48FFC0"/>
</radialGradient>
</defs>
</svg>
