<svg width="1521" height="1584" viewBox="0 0 1521 1584" fill="none" xmlns="http://www.w3.org/2000/svg">
<path fill-rule="evenodd" clip-rule="evenodd" d="M526.984 69.9089C658.675 -14.9646 826.637 -23.5516 964.538 50.7963L1278.44 220.031C1404.02 287.736 1485.58 414.291 1495.37 556.625C1503.52 675.216 1511.68 793.807 1519.83 912.398C1530.58 1068.7 1453.38 1218.11 1321.69 1302.99L993.841 1514.28C862.15 1599.16 694.189 1607.74 556.287 1533.39C451.654 1476.98 347.021 1420.57 242.388 1364.16C116.807 1296.45 35.2435 1169.9 25.4563 1027.57L0.992824 671.793C-9.75445 515.495 67.4439 366.079 199.135 281.205C308.418 210.773 417.701 140.341 526.984 69.9089ZM399.598 1309.96C357.716 1287.38 313.266 1267.25 273.885 1240.36C200.435 1190.2 153.679 1109.36 147.49 1019.35L123.027 663.581C115.426 553.037 170.108 445.617 265.481 384.15C344.926 332.948 445.838 329.493 527.395 375.181L906.823 576C683.676 576 366.823 576 366.823 576L399.598 1309.96ZM874.323 1019.35L1281.13 747.167C1342.94 707.361 1378.32 637.396 1373.34 564.837C1366.43 464.481 1309.1 375.513 1220.55 327.776L906.653 158.541C823.927 113.941 724.74 111.075 638.333 148.74C595.263 167.514 556.719 196.449 517.404 221.788L1138.82 576L874.323 1019.35ZM1397.29 967.889C1388.86 1061.04 1337.03 1147.4 1255.34 1200.04L927.495 1411.34C832.121 1472.8 711.706 1478.23 614.173 1425.65C562.568 1397.83 529.749 1344.96 527.694 1286.35L498.323 807L746.073 1239.27C962.193 1103.18 1176.52 964.273 1391.3 826.094C1394.52 872.908 1401.53 920.954 1397.29 967.889ZM743.146 1007.19L937.506 677.894L556.214 677.895L743.146 1007.19Z" fill="url(#paint0_linear_55103_8073)"/>
<defs>
<linearGradient id="paint0_linear_55103_8073" x1="2236" y1="1698" x2="-318.5" y2="-856.5" gradientUnits="userSpaceOnUse">
<stop offset="0.113034" stop-color="#5E50B2"/>
<stop offset="1" stop-color="#A8FFE5"/>
</linearGradient>
</defs>
</svg>
