<svg width="1554" height="1616" viewBox="0 0 1554 1616" fill="none" xmlns="http://www.w3.org/2000/svg">
<path fill-rule="evenodd" clip-rule="evenodd" d="M543.161 85.9089C674.852 1.03535 842.813 -7.55155 980.715 66.7963L1294.61 236.031C1420.2 303.736 1501.76 430.291 1511.55 572.625C1519.7 691.216 1527.86 809.807 1536.01 928.398C1546.76 1084.7 1469.56 1234.11 1337.87 1318.99L1010.02 1530.28C878.327 1615.16 710.366 1623.74 572.464 1549.39C467.831 1492.98 363.198 1436.57 258.565 1380.16C132.984 1312.45 51.4202 1185.9 41.633 1043.57L17.1696 687.793C6.42231 531.495 83.6207 382.079 215.311 297.205C324.595 226.773 433.878 156.341 543.161 85.9089ZM415.775 1325.96C373.893 1303.38 329.443 1283.25 290.062 1256.36C216.612 1206.2 169.856 1125.36 163.667 1035.35L139.204 679.581C131.603 569.037 186.285 461.617 281.658 400.15C361.103 348.948 462.015 345.493 543.572 391.181L923 592C699.853 592 383 592 383 592L415.775 1325.96ZM890.5 1035.35L1297.31 763.167C1359.12 723.361 1394.5 653.396 1389.51 580.837C1382.61 480.481 1325.27 391.513 1236.73 343.776L922.829 174.541C840.104 129.941 740.916 127.075 654.51 164.74C611.439 183.514 572.896 212.449 533.581 237.788L1155 592L890.5 1035.35ZM1413.46 983.889C1405.04 1077.04 1353.21 1163.4 1271.52 1216.04L943.671 1427.34C848.298 1488.8 727.883 1494.23 630.35 1441.65C578.745 1413.83 545.926 1360.96 543.87 1302.35L514.5 823L762.25 1255.27C978.37 1119.18 1192.69 980.273 1407.48 842.094C1410.7 888.908 1417.71 936.954 1413.46 983.889ZM759.323 1023.19L953.683 693.894L572.391 693.895L759.323 1023.19Z" fill="#5E50B2"/>
<path d="M980.715 66.7963L973.122 80.8799L973.122 80.8799L980.715 66.7963ZM1294.61 236.031L1302.21 221.947L1302.21 221.947L1294.61 236.031ZM1511.55 572.625L1495.58 573.723L1495.58 573.723L1511.55 572.625ZM1536.01 928.398L1520.05 929.495L1520.05 929.495L1536.01 928.398ZM572.464 1549.39L580.057 1535.31L580.057 1535.31L572.464 1549.39ZM258.565 1380.16L250.972 1394.24L250.972 1394.24L258.565 1380.16ZM41.633 1043.57L25.6707 1044.66L25.6707 1044.66L41.633 1043.57ZM17.1696 687.793L1.20727 688.89L17.1696 687.793ZM415.775 1325.96L408.182 1340.05L433.017 1353.44L431.759 1325.25L415.775 1325.96ZM290.062 1256.36L281.039 1269.57L281.039 1269.57L290.062 1256.36ZM163.667 1035.35L147.705 1036.45L147.705 1036.45L163.667 1035.35ZM139.204 679.581L155.166 678.483L155.166 678.483L139.204 679.581ZM543.572 391.181L535.752 405.14L535.918 405.234L536.087 405.323L543.572 391.181ZM923 592L923 608L930.485 577.859L923 592ZM383 592L383 576L366.27 576L367.016 592.714L383 592ZM890.5 1035.35L876.759 1027.16L899.397 1048.65L890.5 1035.35ZM1297.31 763.167L1288.65 749.715L1288.53 749.791L1288.41 749.869L1297.31 763.167ZM1389.51 580.837L1373.55 581.934L1373.55 581.934L1389.51 580.837ZM1236.73 343.776L1229.14 357.859L1229.14 357.859L1236.73 343.776ZM922.829 174.541L915.237 188.625L915.237 188.625L922.829 174.541ZM654.51 164.74L660.904 179.407L660.904 179.407L654.51 164.74ZM533.581 237.788L524.913 224.339L502.744 238.627L525.658 251.688L533.581 237.788ZM1155 592L1168.74 600.198L1177.1 586.182L1162.92 578.1L1155 592ZM1413.46 983.889L1429.4 985.33L1429.4 985.33L1413.46 983.889ZM630.35 1441.65L637.943 1427.57L637.943 1427.57L630.35 1441.65ZM543.87 1302.35L559.861 1301.79L559.853 1301.58L559.84 1301.37L543.87 1302.35ZM514.5 823L528.382 815.044L498.53 823.979L514.5 823ZM762.25 1255.27L748.368 1263.23L756.662 1277.7L770.776 1268.81L762.25 1255.27ZM1407.48 842.094L1423.44 840.997L1421.58 813.995L1398.82 828.638L1407.48 842.094ZM759.323 1023.19L745.408 1031.09L759.053 1055.13L773.102 1031.32L759.323 1023.19ZM953.683 693.894L967.462 702.027L981.705 677.894L953.683 677.894L953.683 693.894ZM572.391 693.895L572.39 677.895L544.91 677.895L558.476 701.793L572.391 693.895ZM551.829 99.3578C678.76 17.5517 840.497 9.37672 973.122 80.8799L988.308 52.7127C845.13 -24.4798 670.944 -15.481 534.494 72.4601L551.829 99.3578ZM973.122 80.8799L1287.02 250.114L1302.21 221.947L988.308 52.7127L973.122 80.8799ZM1287.02 250.114C1407.77 315.214 1486.17 436.867 1495.58 573.723L1527.51 571.527C1517.34 423.716 1432.62 292.258 1302.21 221.947L1287.02 250.114ZM1520.05 929.495C1530.38 1079.81 1456.13 1223.73 1329.2 1305.54L1346.54 1332.43C1482.99 1244.49 1563.13 1089.58 1551.97 927.3L1520.05 929.495ZM1329.2 1305.54L1001.35 1516.83L1018.69 1543.73L1346.54 1332.43L1329.2 1305.54ZM1001.35 1516.83C874.419 1598.64 712.682 1606.81 580.057 1535.31L564.871 1563.48C708.049 1640.67 882.235 1631.67 1018.69 1543.73L1001.35 1516.83ZM266.158 1366.08C145.41 1300.98 67.0059 1179.32 57.5953 1042.47L25.6707 1044.66C35.8346 1192.48 120.558 1323.93 250.972 1394.24L266.158 1366.08ZM57.5953 1042.47L33.1319 686.695L1.20727 688.89L25.6707 1044.66L57.5953 1042.47ZM33.1319 686.695C22.7958 536.377 97.0479 392.46 223.979 310.654L206.644 283.756C70.1935 371.697 -9.95121 526.612 1.20727 688.89L33.1319 686.695ZM147.705 1036.45C154.23 1131.36 203.555 1216.66 281.039 1269.57L299.085 1243.14C229.668 1195.74 185.481 1119.35 179.629 1034.26L147.705 1036.45ZM123.241 680.679L147.705 1036.45L179.629 1034.26L155.166 678.483L123.241 680.679ZM272.99 386.701C172.853 451.238 115.229 564.16 123.241 680.679L155.166 678.483C147.976 573.914 199.717 471.995 290.326 413.599L272.99 386.701ZM551.392 377.222C464.596 328.599 357.344 332.336 272.99 386.701L290.326 413.599C364.862 365.561 459.433 362.386 535.752 405.14L551.392 377.222ZM1373.55 581.934C1378.13 648.597 1345.62 713.024 1288.65 749.715L1305.97 776.619C1372.62 733.699 1410.87 658.195 1405.47 579.739L1373.55 581.934ZM1229.14 357.859C1312.85 402.991 1367.03 487.057 1373.55 581.934L1405.47 579.739C1398.2 473.905 1337.7 380.035 1244.32 329.692L1229.14 357.859ZM915.237 188.625L1229.14 357.859L1244.32 329.692L930.422 160.458L915.237 188.625ZM660.904 179.407C742.964 143.637 836.986 146.437 915.237 188.625L930.422 160.458C843.221 113.444 738.869 110.514 648.117 150.073L660.904 179.407ZM1397.53 982.448C1389.55 1070.64 1340.44 1152.59 1262.85 1202.59L1280.19 1229.49C1365.97 1174.21 1420.53 1083.45 1429.4 985.33L1397.53 982.448ZM1262.85 1202.59L935.004 1413.89L952.339 1440.79L1280.19 1229.49L1262.85 1202.59ZM935.004 1413.89C844.395 1472.28 730.205 1477.31 637.943 1427.57L622.757 1455.73C725.561 1511.16 852.201 1505.32 952.339 1440.79L935.004 1413.89ZM637.943 1427.57C591.342 1402.44 561.717 1354.73 559.861 1301.79L527.88 1302.91C530.135 1367.2 566.147 1425.21 622.757 1455.73L637.943 1427.57ZM930.485 577.859L551.056 377.04L536.087 405.323L915.515 606.142L930.485 577.859ZM431.759 1325.25L398.984 591.287L367.016 592.714L399.79 1326.68L431.759 1325.25ZM1288.41 749.869L881.603 1022.06L899.397 1048.65L1306.21 776.465L1288.41 749.869ZM559.84 1301.37L530.47 822.022L498.53 823.979L527.9 1303.33L559.84 1301.37ZM580.057 1535.31C475.424 1478.9 370.791 1422.49 266.158 1366.08L250.972 1394.24C355.605 1450.65 460.238 1507.07 564.871 1563.48L580.057 1535.31ZM1495.58 573.723C1503.74 692.314 1511.89 810.904 1520.05 929.495L1551.97 927.3C1543.82 808.709 1535.66 690.118 1527.51 571.527L1495.58 573.723ZM223.979 310.654C224.604 310.251 224.635 310.232 225.26 309.829C225.473 309.691 225.687 309.554 225.9 309.416C226.113 309.278 226.327 309.141 226.54 309.003C227.403 308.447 228.239 307.909 229.102 307.353C229.513 307.088 229.971 306.792 230.382 306.527C230.596 306.39 230.809 306.252 231.023 306.114C231.236 305.977 231.45 305.839 231.663 305.702C231.876 305.564 232.09 305.427 232.303 305.289C232.517 305.152 232.73 305.014 232.944 304.876C233.029 304.822 234.139 304.106 234.224 304.051C234.438 303.913 234.651 303.776 234.865 303.638C235.078 303.501 235.292 303.363 235.505 303.226C235.718 303.088 235.932 302.951 236.145 302.813C236.359 302.675 236.572 302.538 236.786 302.4C237.697 301.813 238.436 301.337 239.347 300.75C239.56 300.612 239.774 300.474 239.987 300.337C240.201 300.199 240.414 300.062 240.628 299.924C240.841 299.787 241.055 299.649 241.268 299.511C241.481 299.374 241.695 299.236 241.908 299.099C242.489 298.724 243.889 297.822 244.47 297.448C247.155 295.717 252.029 292.576 254.715 290.845C255.288 290.476 256.704 289.563 257.276 289.194C257.49 289.057 257.703 288.919 257.917 288.782C258.13 288.644 258.343 288.506 258.557 288.369C258.77 288.231 258.984 288.094 259.197 287.956C259.411 287.819 259.624 287.681 259.838 287.544C261.719 286.331 260.517 287.105 262.399 285.893C262.715 285.689 264.644 284.446 264.96 284.242C265.849 283.67 266.633 283.164 267.522 282.591C268.259 282.116 268.065 282.241 268.802 281.766C269.016 281.628 269.229 281.491 269.443 281.353C269.656 281.216 269.869 281.078 270.083 280.941C270.296 280.803 270.51 280.665 270.723 280.528C270.937 280.39 271.15 280.253 271.364 280.115C271.403 280.09 272.605 279.315 272.644 279.29C274.398 278.159 273.452 278.769 275.206 277.639C275.524 277.434 276.168 277.019 276.486 276.814C277.158 276.38 277.095 276.421 277.767 275.988C277.98 275.851 278.194 275.713 278.407 275.576C278.621 275.438 278.834 275.3 279.048 275.163C279.261 275.025 279.474 274.888 279.688 274.75C279.901 274.613 280.115 274.475 280.328 274.337C281.661 273.479 280.276 274.371 281.609 273.512C281.822 273.375 282.036 273.237 282.249 273.099C282.463 272.962 282.676 272.824 282.89 272.687C283.103 272.549 283.316 272.412 283.53 272.274C283.743 272.136 283.957 271.999 284.17 271.861C284.384 271.724 284.597 271.586 284.811 271.449C285.024 271.311 285.237 271.174 285.451 271.036C287.181 269.921 286.282 270.5 288.012 269.385C288.226 269.248 288.439 269.11 288.653 268.973C288.866 268.835 289.079 268.697 289.293 268.56C290.154 268.005 289.712 268.29 290.574 267.734C292.031 266.795 294.238 265.373 295.696 264.433C295.91 264.295 296.123 264.158 296.337 264.02C296.55 263.883 296.763 263.745 296.977 263.608C297.706 263.138 297.528 263.252 298.257 262.782C298.471 262.645 298.684 262.507 298.898 262.37C299.111 262.232 299.325 262.094 299.538 261.957C299.752 261.819 299.965 261.682 300.178 261.544C300.392 261.407 300.605 261.269 300.819 261.131C301.032 260.994 301.246 260.856 301.459 260.719C301.673 260.581 301.886 260.444 302.099 260.306C302.313 260.169 302.526 260.031 302.74 259.893C302.953 259.756 303.167 259.618 303.38 259.481C303.531 259.383 304.51 258.753 304.661 258.655C305.077 258.387 305.525 258.098 305.941 257.83C307.87 256.587 309.136 255.771 311.064 254.528C313.562 252.918 313.689 252.837 316.187 251.227C317.001 250.702 316.654 250.926 317.467 250.402C318.459 249.762 317.756 250.215 318.748 249.576C318.962 249.439 319.175 249.301 319.388 249.164C319.602 249.026 319.815 248.888 320.029 248.751C320.242 248.613 320.456 248.476 320.669 248.338C320.883 248.201 321.096 248.063 321.309 247.925C321.523 247.788 321.736 247.65 321.95 247.513C322.163 247.375 322.377 247.238 322.59 247.1C322.804 246.963 323.017 246.825 323.23 246.687C323.444 246.55 323.657 246.412 323.871 246.275C324.084 246.137 324.298 246 324.511 245.862C324.725 245.724 324.938 245.587 325.151 245.449C325.365 245.312 325.578 245.174 325.792 245.037C326.005 244.899 326.219 244.762 326.432 244.624C327.074 244.21 327.071 244.212 327.713 243.799C327.926 243.661 328.14 243.523 328.353 243.386C328.567 243.248 328.78 243.111 328.993 242.973C329.207 242.836 329.42 242.698 329.634 242.561C329.847 242.423 330.061 242.285 330.274 242.148C330.488 242.01 330.701 241.873 330.914 241.735C331.128 241.598 331.341 241.46 331.555 241.322C331.768 241.185 331.982 241.047 332.195 240.91C332.409 240.772 332.622 240.635 332.835 240.497C333.049 240.36 333.262 240.222 333.476 240.084C333.689 239.947 333.903 239.809 334.116 239.672C335.301 238.908 334.212 239.61 335.397 238.846C335.61 238.709 335.824 238.571 336.037 238.434C336.251 238.296 336.464 238.159 336.677 238.021C336.891 237.883 337.104 237.746 337.318 237.608C337.531 237.471 337.745 237.333 337.958 237.196C338.207 237.035 338.99 236.531 339.239 236.37C339.452 236.233 339.666 236.095 339.879 235.958C340.093 235.82 340.306 235.682 340.519 235.545C341.113 235.162 341.207 235.102 341.8 234.719C342.014 234.582 342.227 234.444 342.44 234.307C342.654 234.169 342.867 234.032 343.081 233.894C343.611 233.552 343.831 233.41 344.361 233.069C345.66 232.232 345.625 232.255 346.923 231.418C348.192 230.6 346.934 231.411 348.203 230.593C348.417 230.455 348.63 230.317 348.844 230.18C349.057 230.042 349.271 229.905 349.484 229.767C349.697 229.63 349.911 229.492 350.124 229.355C350.338 229.217 350.551 229.079 350.765 228.942C350.978 228.804 351.192 228.667 351.405 228.529C351.618 228.392 351.832 228.254 352.045 228.116C352.259 227.979 352.472 227.841 352.686 227.704C352.899 227.566 353.113 227.429 353.326 227.291C353.539 227.153 353.753 227.016 353.966 226.878C354.18 226.741 354.393 226.603 354.607 226.466C355.305 226.016 355.189 226.09 355.887 225.64C356.375 225.326 356.68 225.129 357.168 224.815C357.381 224.677 357.595 224.54 357.808 224.402C358.022 224.265 358.235 224.127 358.449 223.99C358.526 223.94 359.652 223.214 359.729 223.164C360.102 222.924 361.918 221.754 362.291 221.513C362.943 221.093 362.919 221.108 363.571 220.688C363.785 220.55 363.998 220.413 364.212 220.275C364.425 220.138 364.639 220 364.852 219.863C365.065 219.725 365.279 219.588 365.492 219.45C365.706 219.312 365.919 219.175 366.133 219.037C366.346 218.9 366.56 218.762 366.773 218.625C366.986 218.487 367.2 218.349 367.413 218.212C369.026 217.172 368.362 217.601 369.975 216.561C370.722 216.08 370.508 216.217 371.255 215.736C371.469 215.598 371.682 215.461 371.896 215.323C372.109 215.186 372.323 215.048 372.536 214.91C372.749 214.773 372.963 214.635 373.176 214.498C373.39 214.36 373.603 214.223 373.817 214.085C373.856 214.06 375.058 213.285 375.097 213.26C376.162 212.574 375.313 213.12 376.378 212.434C376.591 212.297 376.805 212.159 377.018 212.022C377.232 211.884 377.445 211.746 377.659 211.609C379.199 210.616 378.679 210.951 380.22 209.958C380.433 209.821 380.647 209.683 380.86 209.545C381.074 209.408 381.287 209.27 381.501 209.133C381.714 208.995 381.928 208.858 382.141 208.72C382.354 208.583 382.568 208.445 382.781 208.307C382.995 208.17 383.208 208.032 383.422 207.895C383.635 207.757 383.849 207.62 384.062 207.482C384.598 207.137 384.807 207.002 385.343 206.657C385.556 206.519 385.77 206.382 385.983 206.244C386.196 206.106 386.41 205.969 386.623 205.831C386.837 205.694 387.05 205.556 387.264 205.419C387.477 205.281 387.691 205.143 387.904 205.006C388.117 204.868 388.331 204.731 388.544 204.593C388.758 204.456 388.971 204.318 389.185 204.181C389.398 204.043 389.611 203.905 389.825 203.768C390.038 203.63 390.252 203.493 390.465 203.355C390.547 203.303 391.664 202.582 391.746 202.53C392.583 201.99 392.189 202.244 393.027 201.704C394.779 200.575 396.397 199.532 398.149 198.403C399.235 197.703 402.186 195.801 403.272 195.101C403.485 194.964 403.699 194.826 403.912 194.689C404.126 194.551 404.339 194.414 404.553 194.276C404.766 194.138 404.979 194.001 405.193 193.863C405.406 193.726 405.62 193.588 405.833 193.451C406.911 192.756 406.036 193.32 407.114 192.625C408.574 191.684 406.934 192.741 408.395 191.8C409.343 191.189 408.727 191.586 409.675 190.975C409.889 190.837 410.102 190.699 410.316 190.562C410.529 190.424 410.742 190.287 410.956 190.149C411.809 189.599 411.384 189.873 412.237 189.324C412.724 189.01 413.03 188.812 413.517 188.498C413.573 188.462 416.023 186.884 416.079 186.848C416.817 186.372 416.621 186.498 417.359 186.022C417.648 185.836 418.351 185.383 418.64 185.197C418.935 185.007 419.625 184.562 419.921 184.372C420.437 184.039 420.685 183.879 421.201 183.546C421.415 183.409 421.628 183.271 421.842 183.133C422.055 182.996 422.268 182.858 422.482 182.721C422.695 182.583 422.909 182.446 423.122 182.308C423.336 182.171 423.549 182.033 423.763 181.895C425.532 180.755 424.554 181.385 426.324 180.245C428.125 179.084 427.084 179.755 428.885 178.594C429.032 178.5 430.019 177.863 430.166 177.768C430.379 177.631 430.593 177.493 430.806 177.356C431.02 177.218 431.233 177.081 431.447 176.943C431.792 176.72 432.381 176.341 432.727 176.118C432.941 175.98 433.154 175.843 433.368 175.705C433.581 175.567 433.794 175.43 434.008 175.292C434.779 174.795 434.517 174.964 435.288 174.467C435.456 174.359 436.402 173.749 436.569 173.642C437.527 173.024 438.172 172.608 439.13 171.991C439.344 171.853 439.557 171.716 439.771 171.578C439.984 171.441 440.198 171.303 440.411 171.165C440.985 170.795 441.118 170.71 441.692 170.34C441.905 170.203 442.119 170.065 442.332 169.927C442.546 169.79 442.759 169.652 442.972 169.515C443.186 169.377 443.399 169.24 443.613 169.102C443.826 168.964 444.04 168.827 444.253 168.689C445.461 167.911 444.326 168.643 445.534 167.864C445.747 167.726 445.961 167.589 446.174 167.451C446.388 167.314 446.601 167.176 446.814 167.039C447.028 166.901 447.241 166.763 447.455 166.626C447.668 166.488 447.882 166.351 448.095 166.213C448.309 166.076 448.522 165.938 448.735 165.801C448.949 165.663 449.162 165.525 449.376 165.388C449.589 165.25 449.803 165.113 450.016 164.975C450.23 164.838 450.443 164.7 450.656 164.562C451.796 163.828 450.797 164.472 451.937 163.737C452.151 163.6 452.364 163.462 452.577 163.324C452.791 163.187 453.004 163.049 453.218 162.912C454.061 162.369 453.656 162.63 454.498 162.086C456.857 160.567 457.263 160.305 459.621 158.785C460.032 158.52 460.491 158.224 460.902 157.959C461.104 157.829 461.981 157.264 462.182 157.134C462.396 156.997 462.609 156.859 462.823 156.721C463.036 156.584 463.25 156.446 463.463 156.309C464.295 155.773 463.912 156.02 464.744 155.483C464.957 155.346 465.171 155.208 465.384 155.071C465.598 154.933 465.811 154.796 466.024 154.658C467.392 153.777 465.937 154.714 467.305 153.833C467.519 153.695 467.732 153.557 467.945 153.42C468.159 153.282 468.372 153.145 468.586 153.007C468.799 152.87 469.013 152.732 469.226 152.595C469.44 152.457 469.653 152.319 469.866 152.182C470.08 152.044 470.293 151.907 470.507 151.769C470.72 151.632 470.934 151.494 471.147 151.356C471.361 151.219 471.574 151.081 471.787 150.944C472.001 150.806 472.214 150.669 472.428 150.531C472.641 150.394 472.855 150.256 473.068 150.118C473.282 149.981 473.495 149.843 473.708 149.706C473.922 149.568 474.135 149.431 474.349 149.293C474.562 149.155 474.776 149.018 474.989 148.88C475.512 148.544 475.747 148.392 476.27 148.055C476.483 147.917 476.697 147.78 476.91 147.642C477.124 147.505 477.337 147.367 477.55 147.23C478.36 146.708 478.022 146.926 478.831 146.404C479.045 146.267 479.258 146.129 479.471 145.992C479.685 145.854 479.898 145.716 480.112 145.579C480.325 145.441 480.539 145.304 480.752 145.166C480.965 145.029 481.179 144.891 481.392 144.753C481.606 144.616 481.819 144.478 482.033 144.341C482.246 144.203 482.46 144.066 482.673 143.928C482.938 143.758 484.97 142.448 485.234 142.277C487.556 140.781 488.035 140.472 490.357 138.976C490.57 138.838 490.784 138.701 490.997 138.563C491.211 138.426 491.424 138.288 491.638 138.15C491.927 137.964 492.629 137.511 492.918 137.325C493.132 137.188 493.345 137.05 493.559 136.912C493.772 136.775 493.986 136.637 494.199 136.5C494.568 136.262 495.11 135.912 495.48 135.674C495.693 135.537 495.907 135.399 496.12 135.262C496.333 135.124 496.547 134.987 496.76 134.849C497.218 134.554 497.583 134.319 498.041 134.024C498.254 133.886 498.468 133.748 498.681 133.611C498.895 133.473 499.108 133.336 499.322 133.198C499.67 132.974 500.254 132.597 500.602 132.373C501.27 131.943 505.058 129.501 505.725 129.071C507.218 128.109 506.793 128.383 508.286 127.421C509.36 126.729 509.774 126.462 510.848 125.77C511.792 125.161 511.184 125.553 512.128 124.944C512.342 124.807 512.555 124.669 512.769 124.532C512.982 124.394 513.196 124.257 513.409 124.119C514.317 123.534 515.062 123.053 515.97 122.468C517.455 121.511 517.047 121.775 518.532 120.818C518.745 120.68 518.959 120.542 519.172 120.405C519.385 120.267 519.599 120.13 519.812 119.992C520.026 119.855 520.239 119.717 520.453 119.579C520.666 119.442 520.88 119.304 521.093 119.167C522.043 118.555 522.704 118.128 523.654 117.516C524.67 116.861 523.919 117.346 524.935 116.691C526.019 115.992 525.131 116.564 526.216 115.865C526.231 115.855 527.481 115.05 527.496 115.04C527.71 114.902 527.923 114.765 528.137 114.627C528.35 114.49 528.563 114.352 528.777 114.215C528.99 114.077 529.204 113.939 529.417 113.802C529.631 113.664 529.844 113.527 530.058 113.389C531.006 112.778 530.389 113.175 531.338 112.564C531.555 112.424 532.402 111.878 532.619 111.738C532.832 111.601 533.046 111.463 533.259 111.326C533.473 111.188 533.686 111.051 533.9 110.913C534.419 110.578 535.942 109.597 536.461 109.262C536.979 108.928 538.504 107.946 539.022 107.612C539.483 107.315 539.843 107.083 540.303 106.786C541.176 106.223 540.71 106.523 541.584 105.961C541.941 105.73 543.787 104.541 544.145 104.31C544.65 103.985 544.921 103.81 545.426 103.485C545.639 103.347 545.852 103.21 546.066 103.072C546.279 102.934 546.493 102.797 546.706 102.659C546.936 102.511 547.758 101.982 547.987 101.834C548.795 101.313 548.46 101.529 549.268 101.009C549.355 100.952 550.461 100.239 550.548 100.183C550.629 100.131 551.748 99.4099 551.829 99.3578L534.494 72.4601C531.391 74.4598 527.351 77.0633 524.248 79.0631C521.135 81.0696 517.116 83.6596 514.003 85.6661C513.219 86.1714 509.664 88.4622 508.88 88.9676C508.667 89.1051 508.453 89.2427 508.24 89.3803C508.027 89.5178 507.813 89.6554 507.6 89.793C506.739 90.3476 507.18 90.0637 506.319 90.6183C505.485 91.1559 504.592 91.7316 503.758 92.2691C503.544 92.4067 503.331 92.5442 503.117 92.6818C502.904 92.8193 502.69 92.9569 502.477 93.0945C502.264 93.232 502.05 93.3696 501.837 93.5072C501.623 93.6447 501.41 93.7823 501.196 93.9198C500.983 94.0574 500.769 94.195 500.556 94.3325C500.343 94.4701 500.129 94.6077 499.916 94.7452C499.702 94.8828 499.489 95.0203 499.275 95.1579C499.062 95.2955 498.848 95.433 498.635 95.5706C496.981 96.6367 495.167 97.806 493.512 98.8721C492.368 99.6099 489.534 101.436 488.39 102.174C488.176 102.311 487.963 102.449 487.749 102.586C487.536 102.724 487.322 102.861 487.109 102.999C486.896 103.137 486.682 103.274 486.469 103.412C486.255 103.549 486.042 103.687 485.828 103.824C485.615 103.962 485.401 104.099 485.188 104.237C484.975 104.375 484.761 104.512 484.548 104.65C484.37 104.764 483.445 105.36 483.267 105.475C483.054 105.613 482.84 105.75 482.627 105.888C482.413 106.025 482.2 106.163 481.986 106.3C481.773 106.438 481.559 106.576 481.346 106.713C481.133 106.851 480.919 106.988 480.706 107.126C479.827 107.692 479.023 108.21 478.144 108.777C477.931 108.914 477.717 109.052 477.504 109.189C477.291 109.327 477.077 109.464 476.864 109.602C476.65 109.74 476.437 109.877 476.223 110.015C476.01 110.152 475.796 110.29 475.583 110.427C475.37 110.565 475.156 110.702 474.943 110.84C474.729 110.978 474.516 111.115 474.302 111.253C473.241 111.937 474.083 111.394 473.022 112.078C472.808 112.216 472.595 112.353 472.381 112.491C472.168 112.628 471.954 112.766 471.741 112.903C471.528 113.041 471.314 113.179 471.101 113.316C470.887 113.454 470.674 113.591 470.46 113.729C470.247 113.866 470.033 114.004 469.82 114.142C469.607 114.279 469.393 114.417 469.18 114.554C468.966 114.692 468.753 114.829 468.539 114.967C468.326 115.104 468.112 115.242 467.899 115.38C466.232 116.454 464.443 117.607 462.776 118.681C462.563 118.819 462.35 118.956 462.136 119.094C461.923 119.231 461.709 119.369 461.496 119.507C461.282 119.644 461.069 119.782 460.855 119.919C460.642 120.057 460.429 120.194 460.215 120.332C458.954 121.144 458.914 121.17 457.654 121.983C456.111 122.977 454.073 124.29 452.531 125.284C452.318 125.422 452.104 125.559 451.891 125.697C451.677 125.834 451.464 125.972 451.25 126.11C451.037 126.247 450.824 126.385 450.61 126.522C450.397 126.66 450.183 126.797 449.97 126.935C449.333 127.345 449.326 127.35 448.689 127.76C448.476 127.898 448.262 128.035 448.049 128.173C447.835 128.311 447.622 128.448 447.408 128.586C447.195 128.723 446.982 128.861 446.768 128.998C446.555 129.136 446.341 129.273 446.128 129.411C445.914 129.549 445.701 129.686 445.487 129.824C445.274 129.961 445.061 130.099 444.847 130.236C444.563 130.42 443.851 130.878 443.566 131.062C443.353 131.199 443.14 131.337 442.926 131.474C442.713 131.612 442.499 131.75 442.286 131.887C441.299 132.523 441.992 132.076 441.005 132.713C440.013 133.352 440.716 132.899 439.724 133.538C439.511 133.675 439.298 133.813 439.084 133.951C438.871 134.088 438.657 134.226 438.444 134.363C438.358 134.419 437.249 135.133 437.163 135.189C437.045 135.265 436.001 135.938 435.882 136.014C435.669 136.152 435.456 136.289 435.242 136.427C435.029 136.564 434.815 136.702 434.602 136.839C434.388 136.977 434.175 137.115 433.961 137.252C433.748 137.39 433.535 137.527 433.321 137.665C433.108 137.802 432.894 137.94 432.681 138.077C432.467 138.215 432.254 138.353 432.04 138.49C431.05 139.128 430.469 139.503 429.479 140.141C429.266 140.278 429.052 140.416 428.839 140.554C428.625 140.691 428.412 140.829 428.198 140.966C428.117 141.019 426.999 141.739 426.918 141.792C426.704 141.929 426.491 142.067 426.277 142.204C426.064 142.342 425.851 142.479 425.637 142.617C425.424 142.755 425.21 142.892 424.997 143.03C424.783 143.167 424.57 143.305 424.356 143.442C423.745 143.836 423.687 143.874 423.076 144.268C422.862 144.405 422.649 144.543 422.435 144.68C422.222 144.818 422.009 144.956 421.795 145.093C421.582 145.231 421.368 145.368 421.155 145.506C420.941 145.643 420.728 145.781 420.514 145.919C419.583 146.519 420.166 146.143 419.234 146.744C419.02 146.881 418.807 147.019 418.594 147.157C418.38 147.294 418.167 147.432 417.953 147.569C417.74 147.707 417.526 147.844 417.313 147.982C417.099 148.12 416.886 148.257 416.673 148.395C416.459 148.532 416.246 148.67 416.032 148.807C415.819 148.945 415.605 149.082 415.392 149.22C414.862 149.562 414.642 149.704 414.111 150.045C412.813 150.882 412.848 150.86 411.55 151.696C410.28 152.514 411.539 151.703 410.269 152.522C410.056 152.659 409.842 152.797 409.629 152.934C409.415 153.072 409.202 153.209 408.989 153.347C408.775 153.484 408.562 153.622 408.348 153.76C408.135 153.897 407.921 154.035 407.708 154.172C407.494 154.31 407.281 154.447 407.068 154.585C406.854 154.723 406.641 154.86 406.427 154.998C406.214 155.135 406 155.273 405.787 155.41C405.573 155.548 405.36 155.685 405.147 155.823C404.933 155.961 404.72 156.098 404.506 156.236C404.293 156.373 404.079 156.511 403.866 156.648C403.167 157.099 403.284 157.024 402.585 157.474C402.097 157.788 401.792 157.985 401.305 158.299C401.091 158.437 400.878 158.574 400.664 158.712C400.451 158.849 400.237 158.987 400.024 159.125C399.81 159.262 399.597 159.4 399.384 159.537C399.17 159.675 398.957 159.812 398.743 159.95C398.37 160.19 396.555 161.36 396.182 161.601C395.53 162.021 395.554 162.006 394.901 162.426C394.589 162.627 393.933 163.05 393.621 163.251C393.407 163.389 393.194 163.527 392.98 163.664C392.767 163.802 392.553 163.939 392.34 164.077C392.126 164.214 391.913 164.352 391.7 164.489C391.486 164.627 391.273 164.765 391.059 164.902C388.736 166.399 388.26 166.707 385.937 168.204C385.723 168.341 385.51 168.479 385.296 168.616C385.083 168.754 384.869 168.892 384.656 169.029C384.617 169.054 383.414 169.829 383.375 169.854C382.311 170.54 383.159 169.994 382.095 170.68C381.881 170.817 381.668 170.955 381.454 171.093C381.241 171.23 381.027 171.368 380.814 171.505C379.273 172.498 379.793 172.163 378.253 173.156C378.039 173.294 377.826 173.431 377.612 173.569C377.399 173.706 377.185 173.844 376.972 173.981C376.758 174.119 376.545 174.256 376.332 174.394C376.118 174.532 375.905 174.669 375.691 174.807C375.478 174.944 375.264 175.082 375.051 175.219C374.837 175.357 374.624 175.495 374.411 175.632C373.875 175.977 373.666 176.112 373.13 176.457C372.917 176.595 372.703 176.733 372.49 176.87C372.276 177.008 372.063 177.145 371.849 177.283C371.636 177.42 371.422 177.558 371.209 177.696C370.996 177.833 370.782 177.971 370.569 178.108C370.355 178.246 370.142 178.383 369.928 178.521C369.715 178.658 369.501 178.796 369.288 178.934C369.075 179.071 368.861 179.209 368.648 179.346C368.434 179.484 368.221 179.621 368.007 179.759C367.926 179.812 366.808 180.532 366.727 180.584C365.889 181.124 366.284 180.87 365.446 181.41C363.694 182.539 362.076 183.582 360.323 184.711C359.238 185.411 356.286 187.313 355.201 188.013C354.987 188.15 354.774 188.288 354.56 188.425C354.347 188.563 354.133 188.701 353.92 188.838C353.707 188.976 353.493 189.113 353.28 189.251C353.066 189.388 352.853 189.526 352.639 189.663C351.562 190.358 352.436 189.794 351.359 190.489C350.79 190.855 350.647 190.948 350.078 191.314C349.13 191.925 349.746 191.528 348.797 192.14C348.584 192.277 348.37 192.415 348.157 192.552C347.944 192.69 347.73 192.827 347.517 192.965C346.664 193.515 347.089 193.241 346.236 193.79C345.372 194.347 345.819 194.059 344.955 194.616C344.9 194.652 342.45 196.231 342.394 196.266C342.181 196.404 341.967 196.542 341.754 196.679C341.54 196.817 341.327 196.954 341.113 197.092C340.825 197.278 340.121 197.731 339.833 197.917C339.537 198.108 338.847 198.552 338.552 198.743C338.036 199.075 337.788 199.235 337.271 199.568C337.058 199.706 336.844 199.843 336.631 199.981C336.418 200.118 336.204 200.256 335.991 200.393C335.777 200.531 335.564 200.668 335.35 200.806C335.137 200.944 334.923 201.081 334.71 201.219C332.94 202.359 333.918 201.729 332.149 202.869C330.348 204.03 331.388 203.36 329.587 204.52C329.374 204.658 329.16 204.795 328.947 204.933C328.734 205.07 328.52 205.208 328.307 205.346C328.093 205.483 327.88 205.621 327.666 205.758C327.453 205.896 327.24 206.033 327.026 206.171C326.68 206.394 326.091 206.774 325.745 206.996C325.532 207.134 325.319 207.271 325.105 207.409C324.892 207.547 324.678 207.684 324.465 207.822C323.694 208.319 323.955 208.15 323.184 208.647C323.017 208.755 322.071 209.365 321.903 209.472C320.945 210.09 320.3 210.506 319.342 211.123C319.129 211.261 318.915 211.398 318.702 211.536C318.488 211.673 318.275 211.811 318.061 211.949C317.848 212.086 317.635 212.224 317.421 212.361C317.208 212.499 316.994 212.636 316.781 212.774C316.567 212.912 316.354 213.049 316.14 213.187C315.927 213.324 315.714 213.462 315.5 213.599C315.287 213.737 315.073 213.875 314.86 214.012C314.646 214.15 314.433 214.287 314.219 214.425C313.011 215.203 314.147 214.471 312.939 215.25C312.725 215.388 312.512 215.525 312.298 215.663C312.085 215.8 311.872 215.938 311.658 216.076C311.445 216.213 311.231 216.351 311.018 216.488C310.804 216.626 310.591 216.763 310.377 216.901C310.164 217.038 309.951 217.176 309.737 217.314C309.524 217.451 309.31 217.589 309.097 217.726C308.883 217.864 308.67 218.001 308.456 218.139C308.243 218.277 308.03 218.414 307.816 218.552C307.603 218.689 307.389 218.827 307.176 218.964C306.962 219.102 306.749 219.239 306.535 219.377C306.322 219.515 306.109 219.652 305.895 219.79C305.682 219.927 305.468 220.065 305.255 220.202C304.412 220.746 304.817 220.485 303.974 221.028C301.616 222.548 301.21 222.809 298.851 224.329C298.638 224.467 298.425 224.604 298.211 224.742C297.998 224.88 297.784 225.017 297.571 225.155C297.231 225.373 296.63 225.761 296.29 225.98C295.955 226.196 294.064 227.415 293.729 227.631C292.023 228.73 292.873 228.182 291.167 229.282C290.954 229.419 290.741 229.557 290.527 229.694C290.314 229.832 290.1 229.969 289.887 230.107C289.46 230.382 289.033 230.657 288.606 230.932C288.393 231.07 288.179 231.207 287.966 231.345C287.752 231.483 287.539 231.62 287.325 231.758C287.112 231.895 286.899 232.033 286.685 232.17C286.472 232.308 286.258 232.445 286.045 232.583C285.831 232.721 285.618 232.858 285.404 232.996C285.191 233.133 284.978 233.271 284.764 233.408C284.551 233.546 284.337 233.684 284.124 233.821C283.91 233.959 283.697 234.096 283.483 234.234C282.133 235.104 283.553 234.189 282.203 235.059C281.989 235.197 281.776 235.334 281.563 235.472C281.349 235.609 281.136 235.747 280.922 235.885C279.439 236.84 281.124 235.754 279.642 236.71C279.428 236.847 279.215 236.985 279.001 237.123C278.788 237.26 278.574 237.398 278.361 237.535C277.171 238.302 276.99 238.419 275.8 239.186C274.887 239.774 274.151 240.249 273.238 240.837C271.628 241.874 272.287 241.45 270.677 242.488C270.463 242.625 270.25 242.763 270.037 242.9C269.823 243.038 269.61 243.175 269.396 243.313C268.572 243.844 268.94 243.607 268.116 244.138C267.826 244.325 265.843 245.603 265.554 245.789C264.59 246.411 265.238 245.993 264.274 246.614C263.551 247.08 263.716 246.974 262.993 247.44C262.779 247.577 262.566 247.715 262.353 247.852C262.139 247.99 261.926 248.128 261.712 248.265C261.499 248.403 261.285 248.54 261.072 248.678C260.858 248.815 260.645 248.953 260.432 249.091C258.989 250.02 260.593 248.986 259.151 249.916C258.937 250.053 258.724 250.191 258.511 250.329C258.297 250.466 258.084 250.604 257.87 250.741C257.043 251.275 256.137 251.859 255.309 252.392C255.095 252.53 254.882 252.667 254.669 252.805C254.455 252.942 254.242 253.08 254.028 253.217C253.815 253.355 253.601 253.493 253.388 253.63C253.174 253.768 252.961 253.905 252.748 254.043C251.207 255.036 249.165 256.352 247.625 257.344C240.318 262.054 234.441 265.841 227.134 270.55C226.695 270.834 226.293 271.092 225.854 271.376C225.821 271.397 224.606 272.18 224.573 272.201C223.684 272.774 224.181 272.454 223.292 273.026C223.079 273.164 222.865 273.302 222.652 273.439C222.439 273.577 222.225 273.714 222.012 273.852C220.131 275.064 218.77 275.941 216.889 277.153C216.129 277.643 216.368 277.489 215.608 277.979C214.427 278.74 215.509 278.043 214.328 278.804C214.114 278.942 213.901 279.079 213.687 279.217C213.474 279.354 213.26 279.492 213.047 279.629C212.834 279.767 212.62 279.905 212.407 280.042C212.193 280.18 211.98 280.317 211.766 280.455C211.671 280.516 209.3 282.044 209.205 282.106C208.069 282.837 207.779 283.024 206.644 283.756L223.979 310.654ZM542.249 251.237C582.889 225.044 619.413 197.492 660.904 179.407L648.117 150.073C603.466 169.536 562.903 199.855 524.913 224.339L542.249 251.237ZM281.039 1269.57C321.329 1297.08 367.641 1318.19 408.182 1340.05L423.367 1311.88C380.144 1288.58 337.557 1269.41 299.085 1243.14L281.039 1269.57ZM1391.51 843.192C1394.85 891.687 1401.62 937.204 1397.53 982.448L1429.4 985.33C1433.79 936.704 1426.54 886.13 1423.44 840.997L1391.51 843.192ZM1162.92 578.1L541.504 223.887L525.658 251.688L1147.08 605.901L1162.92 578.1ZM904.241 1043.55L1168.74 600.198L1141.26 583.803L876.759 1027.16L904.241 1043.55ZM500.618 830.957L748.368 1263.23L776.132 1247.31L528.382 815.044L500.618 830.957ZM770.776 1268.81C986.982 1132.67 1201.41 993.689 1416.13 855.55L1398.82 828.638C1183.97 966.857 969.758 1105.7 753.725 1241.73L770.776 1268.81ZM383 592C383 608 383.001 608 383.004 608C383.006 608 383.01 608 383.014 608C383.024 608 383.039 608 383.058 608C383.096 608 383.154 608 383.23 608C383.384 608 383.613 608 383.916 608C384.522 608 385.425 608 386.613 608C388.988 608 392.501 608 397.051 608C406.15 608 419.399 608 435.995 608C469.186 608 515.766 608 569.32 608C676.426 608 811.426 608 923 608L923 576C811.426 576 676.426 576 569.32 576C515.766 576 469.187 576 435.995 576C419.399 576 406.15 576 397.051 576C392.501 576 388.988 576 386.613 576C385.425 576 384.522 576 383.916 576C383.613 576 383.384 576 383.231 576C383.154 576 383.096 576 383.058 576C383.039 576 383.024 576 383.014 576C383.01 576 383.006 576 383.004 576C383.001 576 383 576 383 592ZM773.102 1031.32L967.462 702.027L939.904 685.762L745.544 1015.06L773.102 1031.32ZM572.391 709.895L953.683 709.894L953.683 677.894L572.39 677.895L572.391 709.895ZM773.237 1015.29L586.305 685.996L558.476 701.793L745.408 1031.09L773.237 1015.29Z" fill="#5E50B2"/>
</svg>
