<svg width="1585" height="1648" viewBox="0 0 1585 1648" fill="none" xmlns="http://www.w3.org/2000/svg">
<mask id="path-1-outside-1_55103_8073" maskUnits="userSpaceOnUse" x="-1" y="-0.806641" width="1586" height="1649" fill="black">
<rect fill="white" x="-1" y="-0.806641" width="1586" height="1649"/>
<path fill-rule="evenodd" clip-rule="evenodd" d="M558.984 101.909C690.675 17.0354 858.637 8.44845 996.538 82.7963L1310.44 252.031C1436.02 319.736 1517.58 446.291 1527.37 588.625C1535.52 707.216 1543.68 825.807 1551.83 944.398C1562.58 1100.7 1485.38 1250.11 1353.69 1334.99L1025.84 1546.28C894.15 1631.16 726.189 1639.74 588.287 1565.39C483.654 1508.98 379.021 1452.57 274.388 1396.16C148.807 1328.45 67.2435 1201.9 57.4563 1059.57L32.9928 703.793C22.2456 547.495 99.4439 398.079 231.135 313.205C340.418 242.773 449.701 172.341 558.984 101.909ZM431.598 1341.96C389.716 1319.38 345.266 1299.25 305.885 1272.36C232.435 1222.2 185.679 1141.36 179.49 1051.35L155.027 695.581C147.426 585.037 202.108 477.617 297.481 416.15C376.926 364.948 477.838 361.493 559.395 407.181L938.823 608C715.676 608 398.823 608 398.823 608L431.598 1341.96ZM906.323 1051.35L1313.13 779.167C1374.94 739.361 1410.32 669.396 1405.34 596.837C1398.43 496.481 1341.1 407.513 1252.55 359.776L938.653 190.541C855.927 145.941 756.74 143.075 670.333 180.74C627.263 199.514 588.719 228.449 549.404 253.788L1170.82 608L906.323 1051.35ZM1429.29 999.889C1420.86 1093.04 1369.03 1179.4 1287.34 1232.04L959.495 1443.34C864.121 1504.8 743.706 1510.23 646.173 1457.65C594.568 1429.83 561.749 1376.96 559.694 1318.35L530.323 839L778.073 1271.27C994.193 1135.18 1208.52 996.273 1423.3 858.094C1426.52 904.908 1433.53 952.954 1429.29 999.889ZM775.146 1039.19L969.506 709.894L588.214 709.895L775.146 1039.19Z"/>
</mask>
<path fill-rule="evenodd" clip-rule="evenodd" d="M558.984 101.909C690.675 17.0354 858.637 8.44845 996.538 82.7963L1310.44 252.031C1436.02 319.736 1517.58 446.291 1527.37 588.625C1535.52 707.216 1543.68 825.807 1551.83 944.398C1562.58 1100.7 1485.38 1250.11 1353.69 1334.99L1025.84 1546.28C894.15 1631.16 726.189 1639.74 588.287 1565.39C483.654 1508.98 379.021 1452.57 274.388 1396.16C148.807 1328.45 67.2435 1201.9 57.4563 1059.57L32.9928 703.793C22.2456 547.495 99.4439 398.079 231.135 313.205C340.418 242.773 449.701 172.341 558.984 101.909ZM431.598 1341.96C389.716 1319.38 345.266 1299.25 305.885 1272.36C232.435 1222.2 185.679 1141.36 179.49 1051.35L155.027 695.581C147.426 585.037 202.108 477.617 297.481 416.15C376.926 364.948 477.838 361.493 559.395 407.181L938.823 608C715.676 608 398.823 608 398.823 608L431.598 1341.96ZM906.323 1051.35L1313.13 779.167C1374.94 739.361 1410.32 669.396 1405.34 596.837C1398.43 496.481 1341.1 407.513 1252.55 359.776L938.653 190.541C855.927 145.941 756.74 143.075 670.333 180.74C627.263 199.514 588.719 228.449 549.404 253.788L1170.82 608L906.323 1051.35ZM1429.29 999.889C1420.86 1093.04 1369.03 1179.4 1287.34 1232.04L959.495 1443.34C864.121 1504.8 743.706 1510.23 646.173 1457.65C594.568 1429.83 561.749 1376.96 559.694 1318.35L530.323 839L778.073 1271.27C994.193 1135.18 1208.52 996.273 1423.3 858.094C1426.52 904.908 1433.53 952.954 1429.29 999.889ZM775.146 1039.19L969.506 709.894L588.214 709.895L775.146 1039.19Z" fill="url(#paint0_radial_55103_8073)"/>
<path d="M996.538 82.7963L981.353 110.963L981.353 110.963L996.538 82.7963ZM1310.44 252.031L1325.62 223.863L1325.62 223.863L1310.44 252.031ZM1527.37 588.625L1495.44 590.82L1495.44 590.82L1527.37 588.625ZM1551.83 944.398L1519.91 946.593L1519.91 946.593L1551.83 944.398ZM588.287 1565.39L603.473 1537.23L603.473 1537.23L588.287 1565.39ZM274.388 1396.16L259.203 1424.33L259.203 1424.33L274.388 1396.16ZM57.4563 1059.57L25.5317 1061.76L25.5317 1061.76L57.4563 1059.57ZM32.9928 703.793L1.06821 705.988L32.9928 703.793ZM431.598 1341.96L416.412 1370.13L466.083 1396.91L463.566 1340.54L431.598 1341.96ZM305.885 1272.36L287.839 1298.78L287.839 1298.78L305.885 1272.36ZM179.49 1051.35L147.566 1053.55L147.566 1053.55L179.49 1051.35ZM155.027 695.581L186.952 693.386L186.952 693.386L155.027 695.581ZM559.395 407.181L543.755 435.099L544.088 435.286L544.426 435.464L559.395 407.181ZM938.823 608L938.823 640L953.792 579.718L938.823 608ZM398.823 608L398.823 576L365.362 576L366.855 609.428L398.823 608ZM906.323 1051.35L878.842 1034.96L924.118 1077.95L906.323 1051.35ZM1313.13 779.167L1295.81 752.264L1295.57 752.415L1295.34 752.571L1313.13 779.167ZM1405.34 596.837L1373.41 599.032L1373.41 599.032L1405.34 596.837ZM1252.55 359.776L1237.37 387.943L1237.37 387.943L1252.55 359.776ZM938.653 190.541L923.467 218.708L923.467 218.708L938.653 190.541ZM670.333 180.74L683.12 210.074L683.12 210.074L670.333 180.74ZM549.404 253.788L532.069 226.89L487.73 255.466L533.558 281.589L549.404 253.788ZM1170.82 608L1198.3 624.395L1215.03 596.364L1186.67 580.2L1170.82 608ZM1429.29 999.889L1461.16 1002.77L1461.16 1002.77L1429.29 999.889ZM646.173 1457.65L661.359 1429.48L661.359 1429.48L646.173 1457.65ZM559.694 1318.35L591.674 1317.23L591.659 1316.81L591.634 1316.39L559.694 1318.35ZM530.323 839L558.087 823.088L498.383 840.957L530.323 839ZM778.073 1271.27L750.31 1287.18L766.897 1316.12L795.125 1298.35L778.073 1271.27ZM1423.3 858.094L1455.22 855.899L1451.51 801.895L1405.99 831.182L1423.3 858.094ZM775.146 1039.19L747.317 1054.99L774.607 1103.06L802.704 1055.46L775.146 1039.19ZM969.506 709.894L997.064 726.16L1025.55 677.894L969.506 677.894L969.506 709.894ZM588.214 709.895L588.214 677.895L533.252 677.895L560.385 725.692L588.214 709.895ZM576.32 128.807C698.491 50.0681 854.003 42.305 981.353 110.963L1011.72 54.6292C863.27 -25.4081 682.859 -15.9974 541.649 75.0112L576.32 128.807ZM981.353 110.963L1295.25 280.198L1325.62 223.863L1011.72 54.6292L981.353 110.963ZM1295.25 280.198C1411.17 342.692 1486.41 459.442 1495.44 590.82L1559.29 586.43C1548.75 433.14 1460.87 296.78 1325.62 223.863L1295.25 280.198ZM1519.91 946.593C1529.83 1090.93 1458.53 1229.35 1336.36 1308.09L1371.03 1361.88C1512.24 1270.87 1595.33 1110.46 1583.76 942.203L1519.91 946.593ZM1336.36 1308.09L1008.51 1519.38L1043.18 1573.18L1371.03 1361.88L1336.36 1308.09ZM1008.51 1519.38C886.334 1598.12 730.822 1605.89 603.473 1537.23L573.101 1593.56C721.556 1673.6 901.967 1664.19 1043.18 1573.18L1008.51 1519.38ZM289.574 1367.99C173.66 1305.5 98.4147 1188.75 89.3809 1057.37L25.5317 1061.76C36.0722 1215.05 123.955 1351.41 259.203 1424.33L289.574 1367.99ZM89.3809 1057.37L64.9174 701.598L1.06821 705.988L25.5317 1061.76L89.3809 1057.37ZM64.9174 701.598C54.9926 557.26 126.298 418.841 248.47 340.103L213.799 286.307C72.5895 377.316 -10.5015 537.729 1.06821 705.988L64.9174 701.598ZM147.566 1053.55C154.429 1153.36 206.323 1243.12 287.839 1298.78L323.931 1245.93C258.547 1201.28 216.929 1129.35 211.415 1049.16L147.566 1053.55ZM123.102 697.776L147.566 1053.55L211.415 1049.16L186.952 693.386L123.102 697.776ZM280.146 389.252C175.244 456.86 114.68 575.283 123.102 697.776L186.952 693.386C180.172 594.791 228.973 498.373 314.817 443.047L280.146 389.252ZM575.035 379.264C483.001 327.706 369.408 331.724 280.146 389.252L314.817 443.047C384.444 398.173 472.675 395.28 543.755 435.099L575.035 379.264ZM1373.41 599.032C1377.59 659.799 1347.95 718.686 1295.81 752.264L1330.46 806.071C1401.94 760.036 1443.06 678.993 1437.26 594.641L1373.41 599.032ZM1237.37 387.943C1316.24 430.468 1367.26 509.632 1373.41 599.032L1437.26 594.641C1429.61 483.33 1365.95 384.557 1267.74 331.608L1237.37 387.943ZM923.467 218.708L1237.37 387.943L1267.74 331.608L953.839 162.374L923.467 218.708ZM683.12 210.074C760.835 176.198 849.692 178.934 923.467 218.708L953.839 162.374C862.162 112.948 752.644 109.952 657.547 151.405L683.12 210.074ZM1397.42 997.008C1389.89 1080.23 1343.5 1157.78 1270.01 1205.14L1304.68 1258.94C1394.56 1201.01 1451.84 1105.85 1461.16 1002.77L1397.42 997.008ZM1270.01 1205.14L942.159 1416.44L976.83 1470.23L1304.68 1258.94L1270.01 1205.14ZM942.159 1416.44C856.315 1471.77 748.349 1476.38 661.359 1429.48L630.987 1485.82C739.063 1544.08 871.928 1537.84 976.83 1470.23L942.159 1416.44ZM661.359 1429.48C619.762 1407.06 593.332 1364.49 591.674 1317.23L527.713 1319.47C530.167 1389.44 569.373 1452.6 630.987 1485.82L661.359 1429.48ZM953.792 579.718L574.364 378.898L544.426 435.464L923.854 636.283L953.792 579.718ZM463.566 1340.54L430.791 606.573L366.855 609.428L399.63 1343.39L463.566 1340.54ZM1295.34 752.571L888.528 1024.76L924.118 1077.95L1330.93 805.763L1295.34 752.571ZM591.634 1316.39L562.263 837.043L498.383 840.957L527.754 1320.3L591.634 1316.39ZM603.473 1537.23C498.84 1480.82 394.208 1424.4 289.574 1367.99L259.203 1424.33C363.835 1480.74 468.468 1537.15 573.101 1593.56L603.473 1537.23ZM1495.44 590.82C1503.6 709.411 1511.75 828.002 1519.91 946.593L1583.76 942.203C1575.6 823.612 1567.45 705.021 1559.29 586.43L1495.44 590.82ZM248.47 340.103C251.113 338.4 248.388 340.156 251.031 338.452C252.787 337.321 251.837 337.933 253.593 336.801C253.806 336.664 254.019 336.526 254.233 336.389C254.446 336.251 254.66 336.114 254.873 335.976C255.087 335.838 255.3 335.701 255.514 335.563C255.727 335.426 255.94 335.288 256.154 335.151C256.367 335.013 256.581 334.876 256.794 334.738C257.008 334.6 257.221 334.463 257.435 334.325C257.52 334.27 258.63 333.555 258.715 333.5C260.814 332.147 257.897 334.027 259.996 332.675C260.209 332.537 260.423 332.399 260.636 332.262C260.85 332.124 261.063 331.987 261.277 331.849C261.727 331.559 262.107 331.314 262.557 331.024C262.938 330.778 263.457 330.444 263.838 330.198C264.051 330.061 264.265 329.923 264.478 329.786C264.692 329.648 264.905 329.511 265.119 329.373C265.332 329.235 265.545 329.098 265.759 328.96C265.972 328.823 266.186 328.685 266.399 328.548C268.635 327.107 266.725 328.338 268.961 326.897C269.174 326.759 269.387 326.622 269.601 326.484C269.814 326.347 270.028 326.209 270.241 326.072C270.455 325.934 270.668 325.796 270.882 325.659C271.095 325.521 271.308 325.384 271.522 325.246C274.168 323.541 271.437 325.301 274.083 323.595C274.297 323.458 274.51 323.32 274.724 323.183C274.937 323.045 275.15 322.908 275.364 322.77C275.577 322.632 275.791 322.495 276.004 322.357C276.218 322.22 276.431 322.082 276.645 321.945C279.55 320.072 276.3 322.167 279.206 320.294C282.611 318.099 286.046 315.886 289.451 313.691C294.909 310.173 294.239 310.605 299.696 307.088C299.91 306.95 300.123 306.813 300.337 306.675C300.55 306.538 300.764 306.4 300.977 306.262C302.659 305.178 300.576 306.521 302.258 305.437C302.471 305.3 302.685 305.162 302.898 305.024C303.112 304.887 303.325 304.749 303.538 304.612C303.752 304.474 303.965 304.337 304.179 304.199C304.392 304.061 304.606 303.924 304.819 303.786C305.033 303.649 305.246 303.511 305.459 303.374C305.673 303.236 305.886 303.099 306.1 302.961C306.313 302.823 306.527 302.686 306.74 302.548C306.954 302.411 307.167 302.273 307.38 302.136C307.899 301.802 309.424 300.819 309.942 300.485C310.274 300.271 310.89 299.874 311.222 299.659C311.436 299.522 311.649 299.384 311.863 299.247C312.076 299.109 312.29 298.972 312.503 298.834C312.717 298.697 312.93 298.559 313.143 298.421C313.357 298.284 313.57 298.146 313.784 298.009C313.997 297.871 314.211 297.734 314.424 297.596C314.638 297.458 314.851 297.321 315.064 297.183C315.278 297.046 315.491 296.908 315.705 296.771C315.918 296.633 316.132 296.496 316.345 296.358C316.929 295.981 317.042 295.909 317.626 295.533C319.964 294.026 316.569 296.214 318.906 294.707C319.12 294.57 319.333 294.432 319.547 294.295C319.76 294.157 319.974 294.019 320.187 293.882C321.004 293.355 320.651 293.583 321.468 293.056C321.672 292.925 322.545 292.362 322.748 292.231C324.744 290.945 323.314 291.866 325.31 290.58C325.523 290.443 325.737 290.305 325.95 290.168C326.164 290.03 326.377 289.893 326.59 289.755C326.804 289.617 327.017 289.48 327.231 289.342C327.444 289.205 327.658 289.067 327.871 288.93C328.491 288.53 328.532 288.504 329.152 288.104C329.365 287.967 329.579 287.829 329.792 287.692C330.005 287.554 330.219 287.416 330.432 287.279C330.542 287.208 332.885 285.698 332.994 285.628C333.701 285.172 333.567 285.258 334.274 284.803C334.488 284.665 334.701 284.528 334.915 284.39C335.128 284.252 335.342 284.115 335.555 283.977C336.917 283.099 339.315 281.554 340.678 280.676C341.942 279.861 344.536 278.189 345.8 277.374C346.709 276.789 346.173 277.134 347.081 276.549C347.294 276.411 347.508 276.274 347.721 276.136C347.935 275.999 348.148 275.861 348.362 275.724C348.414 275.69 349.59 274.932 349.642 274.898C349.856 274.761 350.069 274.623 350.283 274.485C350.496 274.348 350.71 274.21 350.923 274.073C351.07 273.978 352.056 273.342 352.204 273.247C352.417 273.11 352.631 272.972 352.844 272.835C353.057 272.697 353.271 272.56 353.484 272.422C355.434 271.166 354.096 272.028 356.046 270.771C356.259 270.634 356.473 270.496 356.686 270.359C356.899 270.221 357.113 270.083 357.326 269.946C359.762 268.376 356.171 270.69 358.607 269.121C358.82 268.983 359.034 268.845 359.247 268.708C359.461 268.57 359.674 268.433 359.888 268.295C360.25 268.062 360.806 267.703 361.168 267.47C364.685 265.203 362.774 266.435 366.291 264.168C366.45 264.066 367.413 263.445 367.572 263.343C368.441 262.783 367.983 263.078 368.852 262.518C369.066 262.38 369.279 262.242 369.493 262.105C369.706 261.967 369.92 261.83 370.133 261.692C370.945 261.169 370.602 261.39 371.414 260.867C373.21 259.709 374.74 258.723 376.536 257.565C376.75 257.428 376.963 257.29 377.177 257.153C377.39 257.015 377.603 256.877 377.817 256.74C378.03 256.602 378.244 256.465 378.457 256.327C378.671 256.19 378.884 256.052 379.098 255.915C379.311 255.777 379.524 255.639 379.738 255.502C379.951 255.364 380.165 255.227 380.378 255.089C380.475 255.027 381.562 254.326 381.659 254.264C381.872 254.126 382.086 253.989 382.299 253.851C382.513 253.714 382.726 253.576 382.94 253.438C383.153 253.301 383.366 253.163 383.58 253.026C383.793 252.888 384.007 252.751 384.22 252.613C385.175 251.998 385.827 251.578 386.782 250.962C387.175 250.709 387.669 250.39 388.062 250.137C388.728 249.708 388.677 249.741 389.343 249.312C389.556 249.174 389.77 249.036 389.983 248.899C390.197 248.761 390.41 248.624 390.624 248.486C390.837 248.349 391.05 248.211 391.264 248.073C391.477 247.936 391.691 247.798 391.904 247.661C394.344 246.088 390.745 248.408 393.185 246.835C393.876 246.39 393.774 246.455 394.466 246.01C397.215 244.238 394.277 246.131 397.027 244.359C397.24 244.222 397.454 244.084 397.667 243.947C397.881 243.809 398.094 243.671 398.308 243.534C398.346 243.509 399.549 242.734 399.588 242.709C400.247 242.284 400.21 242.308 400.869 241.883C401.082 241.746 401.296 241.608 401.509 241.47C401.723 241.333 401.936 241.195 402.15 241.058C403.053 240.476 403.808 239.989 404.711 239.407C404.924 239.269 405.138 239.132 405.351 238.994C405.565 238.857 405.778 238.719 405.992 238.582C407.172 237.821 406.092 238.517 407.272 237.756C409.565 236.278 410.102 235.933 412.395 234.455C412.608 234.317 412.822 234.18 413.035 234.042C413.249 233.905 413.462 233.767 413.676 233.629C413.889 233.492 414.102 233.354 414.316 233.217C414.529 233.079 414.743 232.942 414.956 232.804C416.334 231.916 416.139 232.041 417.518 231.153C419.873 229.635 420.285 229.37 422.64 227.852C423.43 227.343 426.973 225.059 427.763 224.55C427.976 224.413 428.19 224.275 428.403 224.138C428.617 224 428.83 223.862 429.043 223.725C429.257 223.587 429.47 223.45 429.684 223.312C429.897 223.175 430.111 223.037 430.324 222.899C430.892 222.534 431.037 222.44 431.605 222.074C431.818 221.937 432.032 221.799 432.245 221.661C432.459 221.524 432.672 221.386 432.885 221.249C434.492 220.214 432.56 221.459 434.166 220.423C434.38 220.286 434.593 220.148 434.806 220.011C435.02 219.873 435.233 219.736 435.447 219.598C435.66 219.46 435.874 219.323 436.087 219.185C436.301 219.048 436.514 218.91 436.727 218.773C437.473 218.292 437.262 218.428 438.008 217.947C438.54 217.605 438.757 217.464 439.289 217.122C440.282 216.482 439.577 216.936 440.569 216.296C441.638 215.608 440.781 216.16 441.85 215.471C442.296 215.184 442.685 214.933 443.131 214.646C443.817 214.203 443.725 214.263 444.411 213.82C446.188 212.675 443.915 214.14 445.692 212.995C445.906 212.857 446.119 212.72 446.332 212.582C446.546 212.445 446.759 212.307 446.973 212.17C447.264 211.982 447.962 211.532 448.253 211.344C448.467 211.207 448.68 211.069 448.894 210.932C449.107 210.794 449.321 210.656 449.534 210.519C449.748 210.381 449.961 210.244 450.174 210.106C450.388 209.969 450.601 209.831 450.815 209.693C450.918 209.627 453.273 208.109 453.376 208.043C453.462 207.987 454.571 207.273 454.657 207.217C455.628 206.592 454.966 207.018 455.937 206.392C455.944 206.388 457.211 205.571 457.218 205.567C457.432 205.429 457.645 205.291 457.858 205.154C458.072 205.016 458.285 204.879 458.499 204.741C459.53 204.077 462.59 202.104 463.621 201.44C463.835 201.302 464.048 201.165 464.262 201.027C464.475 200.889 464.689 200.752 464.902 200.614C467.057 199.225 464.027 201.178 466.183 199.789C466.396 199.651 466.61 199.514 466.823 199.376C467.036 199.239 467.25 199.101 467.463 198.964C469.751 197.49 466.457 199.612 468.744 198.138C471.582 196.309 471.029 196.666 473.867 194.837C474.08 194.699 474.294 194.562 474.507 194.424C474.72 194.286 474.934 194.149 475.147 194.011C475.361 193.874 475.574 193.736 475.788 193.599C476.001 193.461 476.215 193.324 476.428 193.186C476.641 193.048 476.855 192.911 477.068 192.773C477.282 192.636 477.495 192.498 477.709 192.361C477.922 192.223 478.136 192.085 478.349 191.948C478.562 191.81 478.776 191.673 478.989 191.535C479.203 191.398 479.416 191.26 479.63 191.123C479.843 190.985 480.057 190.847 480.27 190.71C481.243 190.083 480.578 190.511 481.551 189.884C483.78 188.447 480.602 190.496 482.831 189.059C483.799 188.435 483.144 188.857 484.112 188.234C484.325 188.096 484.539 187.959 484.752 187.821C484.966 187.683 485.179 187.546 485.393 187.408C485.606 187.271 485.82 187.133 486.033 186.996C486.246 186.858 486.46 186.721 486.673 186.583C486.887 186.445 487.1 186.308 487.314 186.17C487.527 186.033 487.741 185.895 487.954 185.758C489.431 184.806 487.758 185.884 489.235 184.932C491.644 183.38 491.948 183.183 494.357 181.631C498.455 178.99 500.505 177.669 504.603 175.028C506.835 173.589 507.493 173.165 509.725 171.726C509.939 171.589 510.152 171.451 510.366 171.313C510.579 171.176 510.793 171.038 511.006 170.901C511.219 170.763 511.433 170.626 511.646 170.488C511.86 170.351 512.073 170.213 512.287 170.075C512.5 169.938 512.713 169.8 512.927 169.663C513.14 169.525 513.354 169.388 513.567 169.25C513.748 169.134 514.668 168.541 514.848 168.425C516.404 167.422 515.854 167.777 517.409 166.774C517.623 166.636 517.836 166.499 518.05 166.361C518.263 166.224 518.476 166.086 518.69 165.949C518.903 165.811 519.117 165.673 519.33 165.536C519.544 165.398 519.757 165.261 519.971 165.123C519.997 165.106 522.506 163.489 522.532 163.472C523.885 162.6 522.459 163.519 523.813 162.647C524.026 162.509 524.239 162.372 524.453 162.234C524.666 162.097 524.88 161.959 525.093 161.822C527.636 160.183 527.673 160.159 530.216 158.52C532.117 157.295 530.876 158.095 532.777 156.869C535.04 155.411 533.076 156.677 535.339 155.219C535.552 155.081 535.765 154.944 535.979 154.806C536.192 154.668 536.406 154.531 536.619 154.393C536.833 154.256 537.046 154.118 537.26 153.981C537.473 153.843 537.686 153.705 537.9 153.568C538.113 153.43 538.327 153.293 538.54 153.155C538.754 153.018 538.967 152.88 539.181 152.743C539.394 152.605 539.607 152.467 539.821 152.33C540.034 152.192 540.248 152.055 540.461 151.917C543.106 150.213 540.378 151.971 543.023 150.266C543.236 150.129 543.449 149.991 543.663 149.854C543.876 149.716 544.09 149.579 544.303 149.441C544.517 149.303 544.73 149.166 544.944 149.028C545.157 148.891 545.37 148.753 545.584 148.616C547.872 147.141 544.577 149.265 546.865 147.79C548.244 146.901 546.766 147.854 548.145 146.965C548.644 146.643 548.927 146.461 549.426 146.14C549.639 146.002 549.853 145.864 550.066 145.727C550.28 145.589 550.493 145.452 550.707 145.314C551.491 144.809 555.045 142.518 555.829 142.013C556.669 141.471 556.27 141.728 557.11 141.187C558.489 140.298 557.011 141.251 558.39 140.362C558.604 140.224 558.817 140.087 559.031 139.949C559.244 139.812 559.458 139.674 559.671 139.537C560.205 139.193 560.418 139.055 560.952 138.711C562.254 137.872 560.931 138.725 562.232 137.886C562.841 137.494 562.905 137.452 563.513 137.06C564.109 136.677 565.479 135.793 566.074 135.41C566.52 135.122 568.19 134.046 568.636 133.759C569.785 133.018 568.767 133.674 569.916 132.934C570.13 132.796 570.343 132.658 570.557 132.521C570.77 132.383 570.984 132.246 571.197 132.108C572.562 131.228 574.955 129.686 576.32 128.807L541.649 75.0112C534.01 79.9343 528.797 83.2942 521.159 88.2172C518.78 89.75 522.256 87.5099 519.878 89.0426C519.664 89.1802 519.451 89.3177 519.238 89.4553C519.024 89.5929 518.811 89.7304 518.597 89.868C517.858 90.3441 516.775 91.0426 516.036 91.5187C515.822 91.6563 515.609 91.7939 515.396 91.9314C515.182 92.069 514.969 92.2065 514.755 92.3441C514.152 92.7332 514.078 92.7804 513.475 93.1695C512.113 94.0472 512.275 93.9425 510.913 94.8202C510.746 94.9278 509.799 95.538 509.633 95.6456C508.602 96.3095 509.382 95.8071 508.352 96.471C506.462 97.6888 507.68 96.9039 505.791 98.1217C504.94 98.6702 505.361 98.3986 504.51 98.9471C504.296 99.0847 504.083 99.2222 503.87 99.3598C503.656 99.4974 503.443 99.6349 503.229 99.7725C502.792 100.054 502.386 100.316 501.949 100.598C501.314 101.007 501.302 101.014 500.668 101.423C499.736 102.024 500.319 101.648 499.387 102.249C498.849 102.596 498.645 102.727 498.107 103.074C496.77 103.936 498.163 103.038 496.826 103.899C495.406 104.815 496.965 103.809 495.545 104.725C495.332 104.862 495.118 105 494.905 105.137C494.691 105.275 494.478 105.413 494.265 105.55C493.184 106.247 494.065 105.679 492.984 106.376C492.77 106.513 492.557 106.651 492.344 106.788C492.13 106.926 491.917 107.063 491.703 107.201C491.49 107.338 491.276 107.476 491.063 107.614C490.849 107.751 490.636 107.889 490.423 108.026C490.209 108.164 489.996 108.301 489.782 108.439C489.569 108.577 489.355 108.714 489.142 108.852C488.928 108.989 488.715 109.127 488.502 109.264C488.288 109.402 488.075 109.539 487.861 109.677C487.686 109.79 486.756 110.389 486.581 110.502C485.759 111.032 486.122 110.798 485.3 111.328C485.086 111.465 484.873 111.603 484.66 111.74C484.446 111.878 484.233 112.016 484.019 112.153C483.806 112.291 483.592 112.428 483.379 112.566C483.165 112.703 482.952 112.841 482.739 112.979C482.245 113.296 481.951 113.486 481.458 113.804C479.604 114.999 482.032 113.434 480.177 114.629C475.849 117.419 474.261 118.443 469.932 121.232C469.719 121.37 469.505 121.507 469.292 121.645C469.078 121.783 468.865 121.92 468.651 122.058C468.164 122.372 467.858 122.569 467.371 122.883C466.984 123.132 466.476 123.459 466.09 123.708C466.059 123.728 464.84 124.514 464.809 124.534C464.596 124.671 464.382 124.809 464.169 124.946C463.956 125.084 463.742 125.222 463.529 125.359C462.568 125.978 463.208 125.565 462.248 126.185C462.035 126.322 461.821 126.46 461.608 126.597C461.394 126.735 461.181 126.872 460.967 127.01C460.754 127.147 460.54 127.285 460.327 127.423C460.114 127.56 459.9 127.698 459.687 127.835C456.721 129.746 460.091 127.575 457.125 129.486C456.47 129.909 456.5 129.889 455.845 130.311C455.631 130.449 455.418 130.587 455.204 130.724C454.991 130.862 454.777 130.999 454.564 131.137C453.149 132.049 454.699 131.05 453.283 131.962C453.07 132.1 452.856 132.237 452.643 132.375C452.43 132.512 452.216 132.65 452.003 132.788C450.123 133.999 451.321 133.227 449.441 134.438C448.398 135.111 449.204 134.591 448.161 135.264C447.66 135.586 447.381 135.766 446.88 136.089C446.667 136.227 446.453 136.364 446.24 136.502C446.026 136.639 445.813 136.777 445.599 136.914C445.386 137.052 445.172 137.19 444.959 137.327C444.746 137.465 444.532 137.602 444.319 137.74C443.223 138.446 444.133 137.859 443.038 138.565C442.825 138.703 442.611 138.84 442.398 138.978C442.184 139.115 441.971 139.253 441.757 139.391C441.544 139.528 441.33 139.666 441.117 139.803C440.904 139.941 440.69 140.078 440.477 140.216C440.263 140.353 440.05 140.491 439.836 140.629C439.623 140.766 439.409 140.904 439.196 141.041C438.983 141.179 438.769 141.316 438.556 141.454C438.342 141.592 438.129 141.729 437.915 141.867C437.702 142.004 437.488 142.142 437.275 142.279C437.062 142.417 436.848 142.554 436.635 142.692C434.685 143.949 436.023 143.086 434.073 144.343C433.86 144.48 433.647 144.618 433.433 144.755C433.22 144.893 433.006 145.031 432.793 145.168C432.579 145.306 432.366 145.443 432.152 145.581C431.939 145.718 431.726 145.856 431.512 145.994C431.299 146.131 431.085 146.269 430.872 146.406C430.658 146.544 430.445 146.681 430.231 146.819C430.018 146.956 429.805 147.094 429.591 147.232C429.378 147.369 429.164 147.507 428.951 147.644C428.198 148.129 427.142 148.81 426.389 149.295C426.176 149.433 425.963 149.57 425.749 149.708C425.536 149.845 425.322 149.983 425.109 150.12C424.895 150.258 424.682 150.396 424.468 150.533C424.255 150.671 424.042 150.808 423.828 150.946C421.991 152.13 423.104 151.412 421.267 152.597C418.348 154.478 421.624 152.366 418.705 154.247C416.909 155.405 415.379 156.391 413.583 157.549C413.369 157.686 413.156 157.824 412.942 157.962C412.729 158.099 412.516 158.237 412.302 158.374C412.089 158.512 411.875 158.649 411.662 158.787C411.448 158.924 411.235 159.062 411.021 159.2C410.808 159.337 410.595 159.475 410.381 159.612C410.168 159.75 409.954 159.887 409.741 160.025C409.644 160.087 408.557 160.788 408.46 160.85C408.247 160.988 408.033 161.125 407.82 161.263C407.606 161.401 407.393 161.538 407.179 161.676C405.051 163.048 408.028 161.129 405.899 162.501C404.944 163.116 404.292 163.537 403.337 164.152C402.944 164.405 402.45 164.724 402.057 164.977C400.588 165.924 402.245 164.856 400.776 165.803C400.563 165.94 400.349 166.078 400.136 166.215C399.922 166.353 399.709 166.49 399.495 166.628C399.282 166.766 399.069 166.903 398.855 167.041C398.642 167.178 398.428 167.316 398.215 167.453C395.775 169.026 399.374 166.706 396.934 168.279C396.721 168.416 396.507 168.554 396.294 168.691C396.08 168.829 395.867 168.967 395.653 169.104C392.904 170.876 395.842 168.983 393.092 170.755C392.879 170.892 392.665 171.03 392.452 171.168C392.238 171.305 392.025 171.443 391.811 171.58C391.773 171.605 390.57 172.381 390.531 172.406C389.872 172.83 389.909 172.807 389.25 173.231C389.037 173.369 388.823 173.506 388.61 173.644C388.396 173.781 388.183 173.919 387.97 174.056C387.066 174.638 386.311 175.125 385.408 175.707C385.195 175.845 384.981 175.982 384.768 176.12C384.554 176.257 384.341 176.395 384.128 176.532C382.947 177.293 384.027 176.597 382.847 177.358C380.554 178.836 380.017 179.182 377.724 180.659C377.511 180.797 377.297 180.934 377.084 181.072C376.87 181.21 376.657 181.347 376.444 181.485C376.23 181.622 376.017 181.76 375.803 181.897C375.59 182.035 375.376 182.173 375.163 182.31C373.785 183.198 373.98 183.073 372.602 183.961C370.247 185.479 369.834 185.745 367.479 187.262C366.689 187.771 363.146 190.055 362.356 190.564C362.143 190.701 361.929 190.839 361.716 190.977C361.502 191.114 361.289 191.252 361.076 191.389C360.862 191.527 360.649 191.664 360.435 191.802C360.222 191.939 360.008 192.077 359.795 192.215C359.227 192.58 359.082 192.674 358.514 193.04C358.301 193.178 358.087 193.315 357.874 193.453C357.66 193.59 357.447 193.728 357.234 193.865C355.627 194.901 357.559 193.656 355.953 194.691C355.739 194.828 355.526 194.966 355.313 195.103C355.099 195.241 354.886 195.379 354.672 195.516C354.459 195.654 354.245 195.791 354.032 195.929C353.818 196.066 353.605 196.204 353.392 196.341C352.269 197.065 353.234 196.443 352.111 197.167C351.897 197.304 351.684 197.442 351.471 197.58C351.257 197.717 351.044 197.855 350.83 197.992C349.838 198.632 350.542 198.178 349.55 198.818C349.336 198.955 349.123 199.093 348.909 199.23C348.696 199.368 348.482 199.505 348.269 199.643C347.823 199.93 347.434 200.181 346.988 200.468C346.302 200.911 346.394 200.851 345.708 201.294C343.931 202.439 346.204 200.974 344.427 202.119C344.214 202.257 344 202.394 343.787 202.532C343.573 202.669 343.36 202.807 343.146 202.945C342.855 203.132 342.157 203.582 341.866 203.77C341.652 203.907 341.439 204.045 341.225 204.183C341.012 204.32 340.798 204.458 340.585 204.595C340.372 204.733 340.158 204.87 339.945 205.008C339.731 205.146 339.518 205.283 339.304 205.421C339.201 205.487 336.846 207.005 336.743 207.071C335.159 208.092 337.046 206.876 335.462 207.897C333.584 209.107 336.06 207.512 334.182 208.722C331.56 210.412 334.242 208.683 331.62 210.373C330.589 211.037 327.529 213.01 326.498 213.674C326.284 213.812 326.071 213.95 325.857 214.087C325.644 214.225 325.43 214.362 325.217 214.5C324.54 214.936 324.613 214.889 323.936 215.325C322.28 216.392 324.312 215.083 322.656 216.151C320.369 217.625 323.662 215.502 321.375 216.976C320.52 217.527 320.949 217.25 320.094 217.801C319.881 217.939 319.667 218.076 319.454 218.214C319.241 218.352 319.027 218.489 318.814 218.627C318.6 218.764 318.387 218.902 318.173 219.039C317.96 219.177 317.746 219.314 317.533 219.452C316.505 220.114 317.28 219.615 316.252 220.277C315.593 220.702 311.789 223.154 311.13 223.579C310.916 223.716 310.703 223.854 310.489 223.992C310.276 224.129 310.062 224.267 309.849 224.404C308.876 225.031 309.541 224.603 308.568 225.23C306.339 226.667 309.517 224.618 307.288 226.055C306.32 226.679 306.975 226.257 306.007 226.88C305.794 227.018 305.58 227.156 305.367 227.293C305.153 227.431 304.94 227.568 304.726 227.706C303.818 228.291 304.354 227.946 303.446 228.531C303.232 228.669 303.019 228.806 302.805 228.944C302.592 229.081 302.378 229.219 302.165 229.357C301.952 229.494 301.738 229.632 301.525 229.769C301.311 229.907 301.098 230.044 300.884 230.182C298.564 231.677 298.082 231.988 295.762 233.483C295.548 233.621 295.335 233.759 295.121 233.896C294.908 234.034 294.695 234.171 294.481 234.309C294.268 234.446 294.054 234.584 293.841 234.721C293.627 234.859 293.414 234.997 293.2 235.134C292.987 235.272 292.774 235.409 292.56 235.547C292.347 235.684 292.133 235.822 291.92 235.96C291.706 236.097 291.493 236.235 291.279 236.372C291.066 236.51 290.853 236.647 290.639 236.785C288.161 238.382 291.837 236.013 289.358 237.61C289.145 237.748 288.932 237.885 288.718 238.023C288.505 238.161 288.291 238.298 288.078 238.436C286.435 239.495 288.44 238.202 286.797 239.261C284.315 240.861 287.998 238.487 285.516 240.086C283.165 241.602 282.745 241.872 280.394 243.388C277.176 245.462 278.489 244.615 275.271 246.689C273.958 247.536 274.023 247.494 272.71 248.34C270.427 249.811 273.712 247.694 271.429 249.166C271.216 249.303 271.002 249.441 270.789 249.578C270.575 249.716 270.362 249.853 270.148 249.991C267.469 251.718 270.266 249.915 267.587 251.642C267.374 251.779 267.16 251.917 266.947 252.054C266.733 252.192 266.52 252.33 266.306 252.467C265.687 252.866 265.645 252.893 265.026 253.292C260.898 255.953 258.908 257.235 254.78 259.895C249.303 263.426 250.012 262.968 244.535 266.498C242.395 267.878 236.43 271.722 234.29 273.101C232.254 274.413 233.764 273.44 231.729 274.752C231.515 274.89 231.302 275.027 231.088 275.165C230.875 275.302 230.661 275.44 230.448 275.578C230.234 275.715 230.021 275.853 229.808 275.99C229.594 276.128 229.381 276.265 229.167 276.403C227.286 277.615 225.926 278.492 224.045 279.704C223.547 280.025 223.262 280.209 222.764 280.53C221.808 281.146 222.439 280.739 221.483 281.355C221.27 281.493 221.056 281.63 220.843 281.768C220.629 281.905 220.416 282.043 220.203 282.181C219.989 282.318 219.776 282.456 219.562 282.593C219.349 282.731 219.135 282.868 218.922 283.006C218.357 283.37 218.206 283.467 217.641 283.831C217.428 283.969 217.214 284.106 217.001 284.244C216.787 284.382 216.574 284.519 216.361 284.657C215.909 284.948 214.251 286.016 213.799 286.307L248.47 340.103ZM566.739 280.685C608.705 253.639 643.21 227.471 683.12 210.074L657.547 151.405C611.315 171.558 568.734 203.26 532.069 226.89L566.739 280.685ZM287.839 1298.78C329.038 1326.92 377.213 1349 416.412 1370.13L446.784 1313.8C402.219 1289.77 361.495 1271.58 323.931 1245.93L287.839 1298.78ZM1391.38 860.29C1394.83 910.466 1401.35 953.454 1397.42 997.008L1461.16 1002.77C1465.71 952.454 1458.21 899.351 1455.22 855.899L1391.38 860.29ZM1186.67 580.2L565.251 225.987L533.558 281.589L1154.98 635.801L1186.67 580.2ZM933.804 1067.75L1198.3 624.395L1143.34 591.606L878.842 1034.96L933.804 1067.75ZM502.56 854.913L750.31 1287.18L805.837 1255.36L558.087 823.088L502.56 854.913ZM795.125 1298.35C1011.42 1162.15 1225.95 1023.11 1440.61 885.006L1405.99 831.182C1191.08 969.44 976.969 1108.21 761.022 1244.19L795.125 1298.35ZM398.823 608C398.823 640 398.824 640 398.827 640C398.829 640 398.833 640 398.838 640C398.847 640 398.862 640 398.881 640C398.92 640 398.977 640 399.054 640C399.207 640 399.436 640 399.739 640C400.345 640 401.249 640 402.436 640C404.811 640 408.324 640 412.874 640C421.974 640 435.222 640 451.818 640C485.01 640 531.59 640 585.143 640C692.25 640 827.25 640 938.823 640L938.823 576C827.25 576 692.25 576 585.143 576C531.59 576 485.01 576 451.818 576C435.222 576 421.974 576 412.874 576C408.324 576 404.811 576 402.436 576C401.249 576 400.345 576 399.739 576C399.436 576 399.207 576 399.054 576C398.977 576 398.92 576 398.881 576C398.862 576 398.847 576 398.838 576C398.833 576 398.829 576 398.827 576C398.824 576 398.823 576 398.823 608ZM802.704 1055.46L997.064 726.16L941.948 693.629L747.588 1022.93L802.704 1055.46ZM588.214 741.895L969.506 741.894L969.506 677.894L588.214 677.895L588.214 741.895ZM802.975 1023.39L616.042 694.097L560.385 725.692L747.317 1054.99L802.975 1023.39Z" fill="#5E50B2" mask="url(#path-1-outside-1_55103_8073)"/>
<defs>
<radialGradient id="paint0_radial_55103_8073" cx="0" cy="0" r="1" gradientUnits="userSpaceOnUse" gradientTransform="translate(792.413 824.095) rotate(-57.8115) scale(935.951 898.734)">
<stop stop-color="#7E71CD"/>
<stop offset="1" stop-color="#5E50B2"/>
</radialGradient>
</defs>
</svg>
