<svg width="1666" height="1802" viewBox="0 0 1666 1802" fill="none" xmlns="http://www.w3.org/2000/svg">
<path d="M641.697 51.2074C760.065 -17.0666 905.861 -17.0693 1024.23 51.2003L1470.22 308.424C1591.37 378.293 1666 507.488 1666 647.304V1160.94C1666 1297.79 1592.95 1424.25 1474.37 1492.64L1028.94 1749.54C907.655 1819.49 758.272 1819.49 636.992 1749.53C488.43 1663.84 339.868 1578.15 191.306 1492.46C72.927 1424.18 0 1297.93 0 1161.31V647.598C0 507.598 74.7272 378.233 196.028 308.267L641.697 51.2074Z" fill="url(#paint0_linear_55181_8074)"/>
<path fill-rule="evenodd" clip-rule="evenodd" d="M1307.46 650.758L549.82 213.912L663.515 148.353C768.383 87.8844 897.552 87.882 1002.42 148.347L1397.55 376.165C1504.88 438.047 1571 552.473 1571 676.306C1571 800.142 1504.88 914.571 1397.54 976.452L979.996 1217.18L1307.46 650.758ZM485.754 870.844L813.275 1437.47L1571 1000.62V1131.22C1571 1252.43 1506.28 1364.43 1401.23 1425L1006.59 1652.54C899.141 1714.49 766.794 1714.49 659.346 1652.53C551.732 1590.48 485.461 1475.72 485.521 1351.56L485.754 870.844ZM1032.98 616.67H378.286L377.863 1490.22L264.488 1424.85C159.61 1364.37 95 1252.56 95 1131.55V676.567C95 552.571 161.205 437.994 268.672 376.027C376.028 314.123 508.261 314.122 615.618 376.023L1032.98 616.67ZM832.965 1256.55L525.275 724.237H1140.71L832.965 1256.55Z" fill="#FCFCFF"/>
<defs>
<linearGradient id="paint0_linear_55181_8074" x1="1666" y1="900.384" x2="-2375.81" y2="-188.941" gradientUnits="userSpaceOnUse">
<stop stop-color="#5B4EA7"/>
<stop offset="1" stop-color="#48FFC0"/>
</linearGradient>
</defs>
</svg>
