<svg width="1550" height="1612" viewBox="0 0 1550 1612" fill="none" xmlns="http://www.w3.org/2000/svg">
<g filter="url(#filter0_d_55105_8077)">
<path fill-rule="evenodd" clip-rule="evenodd" d="M541.161 79.7156C672.852 -5.158 840.813 -13.7449 978.715 60.6029L1292.61 229.837C1418.2 297.543 1499.76 424.098 1509.55 566.432C1517.7 685.023 1525.86 803.614 1534.01 922.205C1544.76 1078.5 1467.56 1227.92 1335.87 1312.79L1008.02 1524.09C876.327 1608.96 708.366 1617.55 570.464 1543.2C465.831 1486.79 361.198 1430.38 256.565 1373.97C130.984 1306.26 49.4202 1179.71 39.633 1037.37L15.1695 681.599C4.42227 525.301 81.6207 375.885 213.311 291.012C322.595 220.58 431.878 150.148 541.161 79.7156ZM413.774 1319.77C371.893 1297.19 327.443 1277.05 288.062 1250.16C214.612 1200 167.855 1119.16 161.667 1029.16L137.204 673.388C129.602 562.844 184.285 455.423 279.658 393.956C359.103 342.755 460.015 339.299 541.572 384.988L921 585.807C697.853 585.807 381 585.807 381 585.807L413.774 1319.77ZM888.5 1029.16L1295.31 756.974C1357.12 717.168 1392.5 647.203 1387.51 574.643C1380.61 474.288 1323.27 385.319 1234.73 337.582L920.829 168.348C838.104 123.748 738.916 120.882 652.51 158.546C609.439 177.321 570.896 206.256 531.581 231.594L1153 585.807L888.5 1029.16ZM1411.46 977.696C1403.04 1070.85 1351.21 1157.2 1269.52 1209.85L941.671 1421.14C846.298 1482.61 725.883 1488.04 628.35 1435.46C576.745 1407.63 543.926 1354.77 541.87 1296.15L512.5 816.807L760.25 1249.08C976.37 1112.99 1190.69 974.079 1405.48 835.901C1408.7 882.715 1415.71 930.76 1411.46 977.696ZM757.323 1017L951.683 687.701L570.39 687.701L757.323 1017Z" fill="white"/>
<path d="M978.715 60.6029L973.97 69.4052L973.97 69.4052L978.715 60.6029ZM1292.61 229.837L1297.36 221.035L1297.36 221.035L1292.61 229.837ZM1509.55 566.432L1499.57 567.118L1499.57 567.118L1509.55 566.432ZM1534.01 922.205L1524.03 922.891L1524.03 922.891L1534.01 922.205ZM570.464 1543.2L575.21 1534.4L575.21 1534.4L570.464 1543.2ZM256.565 1373.97L251.82 1382.77L251.82 1382.77L256.565 1373.97ZM39.633 1037.37L29.6565 1038.06L29.6565 1038.06L39.633 1037.37ZM15.1695 681.599L5.1931 682.285L15.1695 681.599ZM413.774 1319.77L409.029 1328.57L424.551 1336.94L423.765 1319.32L413.774 1319.77ZM288.062 1250.16L282.422 1258.42L282.422 1258.42L288.062 1250.16ZM161.667 1029.16L151.69 1029.85L151.69 1029.85L161.667 1029.16ZM137.204 673.388L147.18 672.702L147.18 672.702L137.204 673.388ZM541.572 384.988L536.684 393.712L536.788 393.771L536.894 393.826L541.572 384.988ZM921 585.807L921 595.807L925.678 576.969L921 585.807ZM381 585.807L381 575.807L370.543 575.807L371.01 586.253L381 585.807ZM888.5 1029.16L879.912 1024.04L894.061 1037.47L888.5 1029.16ZM1295.31 756.974L1289.9 748.566L1289.82 748.614L1289.75 748.663L1295.31 756.974ZM1387.51 574.643L1377.54 575.329L1377.54 575.329L1387.51 574.643ZM1234.73 337.582L1229.98 346.384L1229.98 346.384L1234.73 337.582ZM920.829 168.348L916.084 177.15L916.084 177.15L920.829 168.348ZM652.51 158.546L656.506 167.713L656.506 167.713L652.51 158.546ZM531.581 231.594L526.164 223.189L512.308 232.119L526.629 240.282L531.581 231.594ZM1153 585.807L1161.59 590.93L1166.81 582.171L1157.95 577.119L1153 585.807ZM1411.46 977.696L1421.42 978.596L1421.42 978.596L1411.46 977.696ZM628.35 1435.46L633.096 1426.65L633.096 1426.65L628.35 1435.46ZM541.87 1296.15L551.864 1295.8L551.86 1295.67L551.852 1295.54L541.87 1296.15ZM512.5 816.807L521.176 811.834L502.519 817.419L512.5 816.807ZM760.25 1249.08L751.574 1254.05L756.758 1263.09L765.579 1257.54L760.25 1249.08ZM1405.48 835.901L1415.45 835.215L1414.29 818.339L1400.07 827.491L1405.48 835.901ZM757.323 1017L748.626 1021.94L757.154 1036.96L765.935 1022.08L757.323 1017ZM951.683 687.701L960.294 692.784L969.197 677.701L951.683 677.701L951.683 687.701ZM570.39 687.701L570.39 677.701L553.215 677.701L561.694 692.638L570.39 687.701ZM546.578 88.1211C675.295 5.16472 839.365 -3.16474 973.97 69.4052L983.461 51.8007C842.261 -24.3251 670.409 -15.4807 535.744 71.31L546.578 88.1211ZM973.97 69.4052L1287.87 238.639L1297.36 221.035L983.461 51.8007L973.97 69.4052ZM1287.87 238.639C1410.43 304.716 1490.02 428.208 1499.57 567.118L1519.52 565.746C1509.5 419.988 1425.96 290.369 1297.36 221.035L1287.87 238.639ZM1524.03 922.891C1534.52 1075.45 1459.17 1221.43 1330.45 1304.39L1341.29 1321.2C1475.95 1234.41 1554.99 1081.55 1543.99 921.519L1524.03 922.891ZM1330.45 1304.39L1002.6 1515.68L1013.44 1532.49L1341.29 1321.2L1330.45 1304.39ZM1002.6 1515.68C873.885 1598.64 709.814 1606.97 575.21 1534.4L565.718 1552C706.918 1628.13 878.77 1619.28 1013.44 1532.49L1002.6 1515.68ZM261.311 1365.16C138.75 1299.09 59.1612 1175.6 49.6094 1036.69L29.6565 1038.06C39.6792 1183.82 123.218 1313.43 251.82 1382.77L261.311 1365.16ZM49.6094 1036.69L25.146 680.913L5.1931 682.285L29.6565 1038.06L49.6094 1036.69ZM25.146 680.913C14.6557 528.353 90.0127 382.374 218.729 299.417L207.894 282.606C73.2286 369.397 -5.81118 522.25 5.1931 682.285L25.146 680.913ZM151.69 1029.85C158.09 1122.91 206.451 1206.54 282.422 1258.42L293.701 1241.9C222.772 1193.47 177.621 1115.41 171.643 1028.47L151.69 1029.85ZM127.227 674.074L151.69 1029.85L171.643 1028.47L147.18 672.702L127.227 674.074ZM274.241 385.551C175.89 448.937 119.369 559.796 127.227 674.074L147.18 672.702C139.836 565.892 192.68 461.91 285.075 402.362L274.241 385.551ZM546.459 376.264C461.628 328.741 356.753 332.372 274.241 385.551L285.075 402.362C361.452 353.138 458.401 349.858 536.684 393.712L546.459 376.264ZM1377.54 575.329C1382.27 644.204 1348.68 710.707 1289.9 748.566L1300.72 765.381C1365.56 723.629 1402.73 650.202 1397.49 573.957L1377.54 575.329ZM1229.98 346.384C1315.51 392.493 1370.87 478.397 1377.54 575.329L1397.49 573.957C1390.35 470.178 1331.04 378.146 1239.47 328.78L1229.98 346.384ZM916.084 177.15L1229.98 346.384L1239.47 328.78L925.575 159.546L916.084 177.15ZM656.506 167.713C740.196 131.233 836.155 134.058 916.084 177.15L925.575 159.546C840.052 113.437 737.636 110.531 648.514 149.379L656.506 167.713ZM1401.5 976.795C1393.36 1066.85 1343.23 1150.45 1264.1 1201.44L1274.94 1218.25C1359.18 1163.96 1412.72 1074.85 1421.42 978.596L1401.5 976.795ZM1264.1 1201.44L936.254 1412.74L947.089 1429.55L1274.94 1218.25L1264.1 1201.44ZM936.254 1412.74C843.859 1472.29 727.334 1477.46 633.096 1426.65L623.604 1444.26C724.432 1498.62 848.738 1492.94 947.089 1429.55L936.254 1412.74ZM633.096 1426.65C584.618 1400.52 553.796 1350.87 551.864 1295.8L531.877 1296.5C534.057 1358.67 568.871 1414.75 623.604 1444.26L633.096 1426.65ZM925.678 576.969L546.25 376.15L536.894 393.826L916.322 594.645L925.678 576.969ZM423.765 1319.32L390.99 585.361L371.01 586.253L403.784 1320.22L423.765 1319.32ZM1289.75 748.663L882.939 1020.85L894.061 1037.47L1300.87 765.285L1289.75 748.663ZM551.852 1295.54L522.481 816.195L502.519 817.419L531.889 1296.77L551.852 1295.54ZM575.21 1534.4C470.577 1477.99 365.944 1421.58 261.311 1365.16L251.82 1382.77C356.453 1439.18 461.085 1495.59 565.718 1552L575.21 1534.4ZM1499.57 567.118C1507.72 685.709 1515.88 804.3 1524.03 922.891L1543.99 921.519C1535.83 802.928 1527.68 684.337 1519.52 565.746L1499.57 567.118ZM218.729 299.417C218.942 299.28 219.155 299.142 219.369 299.005C219.582 298.867 219.796 298.73 220.009 298.592C220.223 298.454 220.436 298.317 220.65 298.179C220.863 298.042 221.076 297.904 221.29 297.767C222.711 296.851 222.43 297.032 223.851 296.116C224.281 295.839 224.702 295.568 225.132 295.29C225.244 295.218 226.3 294.537 226.413 294.465C226.626 294.328 226.839 294.19 227.053 294.052C227.266 293.915 227.48 293.777 227.693 293.64C228.116 293.368 228.552 293.087 228.974 292.814C229.187 292.677 229.401 292.539 229.614 292.402C229.828 292.264 230.041 292.127 230.255 291.989C230.468 291.851 230.681 291.714 230.895 291.576C231.108 291.439 231.322 291.301 231.535 291.164C231.855 290.957 232.496 290.544 232.816 290.338C233.029 290.201 233.243 290.063 233.456 289.926C233.67 289.788 233.883 289.65 234.097 289.513C234.31 289.375 234.523 289.238 234.737 289.1C234.95 288.963 235.164 288.825 235.377 288.687C235.591 288.55 235.804 288.412 236.018 288.275C236.231 288.137 236.444 288 236.658 287.862C237.53 287.3 237.066 287.599 237.939 287.037C238.517 286.664 238.641 286.584 239.219 286.211C239.433 286.074 239.646 285.936 239.86 285.799C240.073 285.661 240.286 285.524 240.5 285.386C241.17 284.954 241.11 284.993 241.781 284.561C242.204 284.288 242.638 284.008 243.061 283.735C243.275 283.598 243.488 283.46 243.702 283.323C243.915 283.185 244.128 283.047 244.342 282.91C244.555 282.772 244.769 282.635 244.982 282.497C245.196 282.36 245.409 282.222 245.623 282.084C245.836 281.947 246.049 281.809 246.263 281.672C246.476 281.534 246.69 281.397 246.903 281.259C247.594 280.814 247.493 280.879 248.184 280.434C248.397 280.296 248.611 280.159 248.824 280.021C249.038 279.883 249.251 279.746 249.465 279.608C249.885 279.337 251.605 278.229 252.026 277.958C252.239 277.82 252.453 277.682 252.666 277.545C252.88 277.407 253.093 277.27 253.307 277.132C253.52 276.995 253.733 276.857 253.947 276.72C254.16 276.582 254.374 276.444 254.587 276.307C256.015 275.386 258.282 273.926 259.71 273.005C260.961 272.199 263.581 270.51 264.832 269.704C265.046 269.566 265.259 269.429 265.473 269.291C265.686 269.154 265.9 269.016 266.113 268.878C266.153 268.853 267.354 268.079 267.394 268.053C267.771 267.81 269.578 266.645 269.955 266.402C270.169 266.265 270.382 266.127 270.595 265.99C270.809 265.852 271.022 265.715 271.236 265.577C271.449 265.439 271.663 265.302 271.876 265.164C272.09 265.027 272.303 264.889 272.516 264.752C273.749 263.957 273.846 263.895 275.078 263.101C275.291 262.963 275.505 262.826 275.718 262.688C275.932 262.551 276.145 262.413 276.358 262.275C276.572 262.138 276.785 262 276.999 261.863C277.212 261.725 277.426 261.588 277.639 261.45C278.991 260.579 278.849 260.671 280.2 259.799C280.414 259.662 280.627 259.524 280.841 259.387C281.054 259.249 281.268 259.112 281.481 258.974C281.695 258.836 281.908 258.699 282.121 258.561C282.335 258.424 282.548 258.286 282.762 258.149C282.975 258.011 283.189 257.873 283.402 257.736C283.616 257.598 283.829 257.461 284.042 257.323C284.256 257.186 284.469 257.048 284.683 256.911C284.896 256.773 285.11 256.635 285.323 256.498C286.034 256.04 287.174 255.305 287.884 254.847C288.098 254.709 288.311 254.572 288.525 254.434C288.738 254.297 288.952 254.159 289.165 254.022C289.379 253.884 289.592 253.747 289.805 253.609C290.019 253.471 290.232 253.334 290.446 253.196C290.659 253.059 290.873 252.921 291.086 252.784C291.3 252.646 291.513 252.508 291.726 252.371C292.752 251.71 291.981 252.207 293.007 251.546C294.093 250.845 294.482 250.595 295.568 249.895C295.782 249.757 295.995 249.62 296.209 249.482C296.422 249.345 296.636 249.207 296.849 249.069C297.063 248.932 297.276 248.794 297.489 248.657C297.703 248.519 297.916 248.382 298.13 248.244C298.343 248.106 298.557 247.969 298.77 247.831C298.984 247.694 299.197 247.556 299.41 247.419C299.624 247.281 299.837 247.144 300.051 247.006C300.264 246.868 300.478 246.731 300.691 246.593C302.619 245.351 303.886 244.534 305.814 243.292C306.027 243.154 306.241 243.017 306.454 242.879C306.667 242.742 306.881 242.604 307.094 242.466C307.308 242.329 307.521 242.191 307.735 242.054C307.948 241.916 308.162 241.779 308.375 241.641C308.499 241.561 309.531 240.896 309.656 240.816C309.869 240.678 310.083 240.541 310.296 240.403C310.509 240.265 310.723 240.128 310.936 239.99C311.797 239.436 311.356 239.72 312.217 239.165C312.386 239.056 313.328 238.449 313.498 238.34C313.711 238.202 313.925 238.064 314.138 237.927C314.351 237.789 314.565 237.652 314.778 237.514C314.992 237.377 315.205 237.239 315.419 237.101C315.632 236.964 315.846 236.826 316.059 236.689C316.344 236.505 317.055 236.047 317.34 235.863C317.553 235.726 317.767 235.588 317.98 235.451C318.193 235.313 318.407 235.176 318.62 235.038C319.284 234.61 319.237 234.64 319.901 234.213C320.114 234.075 320.328 233.938 320.541 233.8C320.755 233.662 320.968 233.525 321.182 233.387C321.275 233.327 322.369 232.622 322.462 232.562C322.676 232.424 322.889 232.287 323.103 232.149C323.316 232.012 323.53 231.874 323.743 231.737C325.223 230.783 324.825 231.039 326.304 230.086C326.518 229.948 326.731 229.811 326.945 229.673C327.158 229.536 327.372 229.398 327.585 229.26C327.798 229.123 328.012 228.985 328.225 228.848C328.439 228.71 328.652 228.573 328.866 228.435C329.798 227.834 330.495 227.385 331.427 226.784C331.64 226.647 331.854 226.509 332.067 226.372C332.281 226.234 332.494 226.096 332.708 225.959C332.921 225.821 333.135 225.684 333.348 225.546C333.561 225.409 333.775 225.271 333.988 225.134C334.202 224.996 334.415 224.858 334.629 224.721C334.842 224.583 335.056 224.446 335.269 224.308C335.482 224.171 335.696 224.033 335.909 223.895C336.123 223.758 336.336 223.62 336.55 223.483C336.96 223.218 337.42 222.922 337.83 222.657C338.661 222.122 338.28 222.368 339.111 221.832C339.324 221.694 339.538 221.557 339.751 221.419C339.965 221.282 340.178 221.144 340.392 221.007C340.962 220.639 341.102 220.549 341.672 220.181C341.886 220.044 342.099 219.906 342.313 219.769C342.526 219.631 342.74 219.493 342.953 219.356C343.172 219.215 344.015 218.672 344.234 218.531C344.447 218.393 344.661 218.255 344.874 218.118C345.087 217.98 345.301 217.843 345.514 217.705C345.728 217.568 345.941 217.43 346.155 217.292C346.368 217.155 346.582 217.017 346.795 216.88C347.008 216.742 347.222 216.605 347.435 216.467C347.649 216.33 347.862 216.192 348.076 216.054C348.289 215.917 348.503 215.779 348.716 215.642C348.929 215.504 349.143 215.367 349.356 215.229C349.648 215.041 350.345 214.592 350.637 214.404C350.724 214.347 351.83 213.635 351.918 213.578C352.131 213.441 352.344 213.303 352.558 213.166C352.771 213.028 352.985 212.89 353.198 212.753C353.412 212.615 353.625 212.478 353.839 212.34C354.052 212.203 354.265 212.065 354.479 211.928C355.368 211.355 356.151 210.85 357.04 210.277C358.07 209.613 357.292 210.115 358.321 209.451C358.322 209.451 359.601 208.627 359.602 208.626C359.815 208.488 360.028 208.351 360.242 208.213C360.455 208.076 360.669 207.938 360.882 207.801C361.096 207.663 361.309 207.525 361.523 207.388C361.736 207.25 361.949 207.113 362.163 206.975C363.028 206.418 362.578 206.708 363.444 206.15C363.657 206.012 363.87 205.875 364.084 205.737C364.297 205.6 364.511 205.462 364.724 205.324C365.646 204.73 366.364 204.268 367.286 203.674C367.499 203.536 367.712 203.399 367.926 203.261C368.139 203.123 368.353 202.986 368.566 202.848C369.163 202.464 369.251 202.407 369.847 202.023C370.06 201.885 370.274 201.748 370.487 201.61C370.701 201.473 370.914 201.335 371.128 201.198C371.341 201.06 371.554 200.922 371.768 200.785C371.981 200.647 372.195 200.51 372.408 200.372C373.311 199.79 374.066 199.304 374.97 198.721C375.183 198.584 375.396 198.446 375.61 198.309C375.823 198.171 376.037 198.034 376.25 197.896C376.464 197.759 376.677 197.621 376.891 197.483C377.104 197.346 377.317 197.208 377.531 197.071C378.573 196.399 379.05 196.092 380.092 195.42C380.306 195.282 380.519 195.145 380.733 195.007C380.946 194.87 381.159 194.732 381.373 194.595C381.586 194.457 381.8 194.319 382.013 194.182C382.227 194.044 382.44 193.907 382.654 193.769C382.867 193.632 383.08 193.494 383.294 193.357C383.507 193.219 383.721 193.081 383.934 192.944C384.148 192.806 384.361 192.669 384.575 192.531C384.788 192.394 385.001 192.256 385.215 192.118C385.489 191.942 386.221 191.47 386.496 191.293C386.709 191.156 386.922 191.018 387.136 190.88C387.349 190.743 387.563 190.605 387.776 190.468C388.763 189.832 388.07 190.278 389.057 189.642C390.083 188.981 389.311 189.479 390.338 188.817C390.551 188.679 390.764 188.542 390.978 188.404C391.191 188.267 391.405 188.129 391.618 187.992C391.832 187.854 392.045 187.716 392.259 187.579C392.472 187.441 392.685 187.304 392.899 187.166C393.112 187.029 393.326 186.891 393.539 186.754C393.753 186.616 393.966 186.478 394.18 186.341C394.393 186.203 394.606 186.066 394.82 185.928C395.033 185.791 395.247 185.653 395.46 185.515C395.674 185.378 395.887 185.24 396.1 185.103C396.314 184.965 396.527 184.828 396.741 184.69C396.954 184.553 397.168 184.415 397.381 184.277C397.595 184.14 397.808 184.002 398.021 183.865C398.235 183.727 398.448 183.59 398.662 183.452C398.875 183.314 399.089 183.177 399.302 183.039C399.516 182.902 399.729 182.764 399.942 182.627C400.156 182.489 400.369 182.352 400.583 182.214C401.45 181.655 402.277 181.122 403.144 180.563C403.994 180.015 403.575 180.286 404.425 179.738C404.638 179.6 404.852 179.463 405.065 179.325C405.279 179.188 405.492 179.05 405.705 178.912C406.067 178.68 406.625 178.32 406.986 178.087C407.096 178.016 408.157 177.333 408.267 177.262C408.748 176.951 409.066 176.747 409.547 176.436C409.761 176.299 409.974 176.161 410.188 176.024C410.401 175.886 410.615 175.749 410.828 175.611C411.042 175.473 411.255 175.336 411.468 175.198C411.682 175.061 411.895 174.923 412.109 174.786C412.724 174.389 412.774 174.357 413.389 173.96C414.085 173.512 413.974 173.583 414.67 173.135C415.593 172.54 415.028 172.904 415.951 172.309C416.164 172.172 416.378 172.034 416.591 171.897C416.805 171.759 417.018 171.622 417.231 171.484C417.261 171.465 418.483 170.678 418.512 170.659C418.726 170.521 418.939 170.384 419.152 170.246C419.366 170.108 419.579 169.971 419.793 169.833C420.325 169.49 420.541 169.351 421.073 169.008C421.628 168.65 421.799 168.54 422.354 168.183C422.568 168.045 422.781 167.907 422.994 167.77C423.208 167.632 423.421 167.495 423.635 167.357C423.963 167.146 424.588 166.743 424.915 166.532C425.957 165.86 425.154 166.378 426.196 165.706C426.241 165.677 427.432 164.91 427.477 164.881C427.69 164.744 427.904 164.606 428.117 164.468C428.331 164.331 428.544 164.193 428.757 164.056C428.971 163.918 429.184 163.781 429.398 163.643C429.611 163.505 429.825 163.368 430.038 163.23C430.252 163.093 430.465 162.955 430.678 162.818C430.892 162.68 431.105 162.543 431.319 162.405C431.532 162.267 431.746 162.13 431.959 161.992C432.173 161.855 432.386 161.717 432.599 161.58C433.352 161.095 433.128 161.239 433.88 160.754C434.094 160.617 434.307 160.479 434.52 160.341C434.734 160.204 434.947 160.066 435.161 159.929C435.374 159.791 435.588 159.654 435.801 159.516C436.015 159.379 436.228 159.241 436.441 159.103C436.655 158.966 436.868 158.828 437.082 158.691C437.295 158.553 437.509 158.416 437.722 158.278C437.936 158.14 438.149 158.003 438.362 157.865C438.576 157.728 438.789 157.59 439.003 157.453C439.216 157.315 439.43 157.178 439.643 157.04C439.857 156.902 440.07 156.765 440.283 156.627C440.497 156.49 440.71 156.352 440.924 156.215C441.137 156.077 441.351 155.939 441.564 155.802C441.778 155.664 441.991 155.527 442.204 155.389C442.418 155.252 442.631 155.114 442.845 154.977C443.058 154.839 443.272 154.701 443.485 154.564C443.698 154.426 443.912 154.289 444.125 154.151C444.339 154.014 444.552 153.876 444.766 153.738C444.979 153.601 445.193 153.463 445.406 153.326C445.619 153.188 445.833 153.051 446.046 152.913C446.26 152.776 446.473 152.638 446.687 152.5C446.9 152.363 447.114 152.225 447.327 152.088C447.54 151.95 447.754 151.813 447.967 151.675C448.27 151.48 448.946 151.044 449.248 150.85C449.461 150.712 449.675 150.575 449.888 150.437C450.102 150.299 450.315 150.162 450.529 150.024C451.392 149.468 450.946 149.755 451.809 149.199C452.023 149.061 452.236 148.924 452.45 148.786C452.663 148.649 452.877 148.511 453.09 148.374C453.303 148.236 453.517 148.098 453.73 147.961C453.944 147.823 454.157 147.686 454.371 147.548C456.449 146.209 457.415 145.586 459.493 144.247C459.707 144.109 459.92 143.972 460.134 143.834C460.347 143.696 460.561 143.559 460.774 143.421C461.654 142.854 461.174 143.163 462.055 142.596C462.268 142.458 462.482 142.321 462.695 142.183C462.908 142.046 463.122 141.908 463.335 141.771C463.549 141.633 463.762 141.495 463.976 141.358C464.189 141.22 464.403 141.083 464.616 140.945C465.666 140.268 466.127 139.971 467.177 139.294C467.391 139.157 467.604 139.019 467.818 138.882C468.031 138.744 468.245 138.607 468.458 138.469C468.671 138.331 468.885 138.194 469.098 138.056C469.312 137.919 469.525 137.781 469.739 137.644C469.952 137.506 470.166 137.369 470.379 137.231C470.592 137.093 470.806 136.956 471.019 136.818C471.233 136.681 471.446 136.543 471.66 136.406C471.873 136.268 472.087 136.13 472.3 135.993C472.371 135.947 473.51 135.213 473.581 135.168C473.794 135.03 474.008 134.892 474.221 134.755C474.434 134.617 474.648 134.48 474.861 134.342C475.711 133.794 476.573 133.239 477.423 132.691C477.672 132.53 478.453 132.027 478.703 131.866C479.022 131.66 479.665 131.246 479.984 131.041C480.667 130.6 481.862 129.83 482.545 129.39C482.759 129.252 482.972 129.115 483.186 128.977C483.399 128.84 483.613 128.702 483.826 128.565C484.039 128.427 484.253 128.289 484.466 128.152C484.68 128.014 484.893 127.877 485.107 127.739C485.32 127.602 485.534 127.464 485.747 127.326C485.96 127.189 486.174 127.051 486.387 126.914C486.601 126.776 486.814 126.639 487.028 126.501C487.241 126.364 487.455 126.226 487.668 126.088C487.881 125.951 488.095 125.813 488.308 125.676C488.522 125.538 488.735 125.401 488.949 125.263C489.162 125.125 489.375 124.988 489.589 124.85C489.802 124.713 490.016 124.575 490.229 124.438C490.443 124.3 490.656 124.163 490.87 124.025C491.083 123.887 491.296 123.75 491.51 123.612C491.723 123.475 491.937 123.337 492.15 123.2C492.364 123.062 492.577 122.924 492.791 122.787C493.004 122.649 493.217 122.512 493.431 122.374C493.644 122.237 493.858 122.099 494.071 121.962C494.448 121.719 494.975 121.379 495.352 121.136C495.39 121.111 496.594 120.336 496.633 120.311C496.846 120.173 497.059 120.036 497.273 119.898C497.486 119.761 497.7 119.623 497.913 119.485C498.127 119.348 498.34 119.21 498.554 119.073C498.767 118.935 498.98 118.798 499.194 118.66C499.407 118.522 499.621 118.385 499.834 118.247C500.048 118.11 500.261 117.972 500.475 117.835C500.771 117.644 501.459 117.2 501.755 117.009C501.969 116.872 502.182 116.734 502.396 116.597C502.609 116.459 502.822 116.321 503.036 116.184C503.398 115.95 503.954 115.592 504.317 115.359C504.335 115.347 505.579 114.545 505.597 114.533C506.138 114.184 506.337 114.057 506.878 113.708C507.091 113.57 507.305 113.433 507.518 113.295C507.732 113.157 507.945 113.02 508.159 112.882C508.372 112.745 508.585 112.607 508.799 112.47C509.012 112.332 509.226 112.195 509.439 112.057C509.653 111.919 509.866 111.782 510.08 111.644C510.293 111.507 510.506 111.369 510.72 111.232C510.933 111.094 511.147 110.956 511.36 110.819C511.574 110.681 511.787 110.544 512.001 110.406C512.214 110.269 512.427 110.131 512.641 109.994C512.854 109.856 513.068 109.718 513.281 109.581C513.495 109.443 513.708 109.306 513.922 109.168C514.135 109.031 514.348 108.893 514.562 108.755C514.915 108.528 515.489 108.158 515.843 107.93C516.578 107.456 517.669 106.753 518.404 106.279C518.617 106.142 518.831 106.004 519.044 105.867C519.258 105.729 519.471 105.592 519.685 105.454C519.997 105.253 520.653 104.83 520.965 104.629C521.51 104.277 521.701 104.154 522.246 103.803C522.459 103.666 522.673 103.528 522.886 103.391C523.1 103.253 523.313 103.115 523.527 102.978C523.74 102.84 523.953 102.703 524.167 102.565C524.38 102.428 524.594 102.29 524.807 102.152C525.021 102.015 525.234 101.877 525.448 101.74C525.661 101.602 525.874 101.465 526.088 101.327C526.96 100.765 526.496 101.064 527.369 100.502C528.036 100.072 527.982 100.107 528.649 99.6764C528.863 99.5388 529.076 99.4012 529.29 99.2637C529.503 99.1261 529.716 98.9885 529.93 98.851C530.143 98.7134 530.357 98.5759 530.57 98.4383C530.784 98.3007 530.997 98.1632 531.211 98.0256C533.428 96.5966 534.116 96.1531 536.333 94.7241C536.547 94.5865 536.76 94.449 536.973 94.3114C537.187 94.1738 537.4 94.0363 537.614 93.8987C537.827 93.7612 538.041 93.6236 538.254 93.486C538.468 93.3485 538.681 93.2109 538.894 93.0733C539.108 92.9358 539.321 92.7982 539.535 92.6607C539.748 92.5231 539.962 92.3855 540.175 92.248C540.389 92.1104 540.602 91.9728 540.815 91.8353C541.029 91.6977 541.242 91.5602 541.456 91.4226C541.669 91.285 541.883 91.1475 542.096 91.0099C542.31 90.8723 542.523 90.7348 542.736 90.5972C543.446 90.14 543.308 90.229 544.017 89.7718C545.07 89.093 544.244 89.6253 545.298 88.9465C545.945 88.5291 545.931 88.5385 546.578 88.1211L535.744 71.31C535.53 71.4476 535.317 71.5852 535.104 71.7227C534.89 71.8603 534.677 71.9978 534.463 72.1354C533.671 72.6457 533.974 72.4505 533.183 72.9608C532.92 73.1303 532.165 73.6167 531.902 73.7862C531.688 73.9237 531.475 74.0613 531.262 74.1988C531.048 74.3364 530.835 74.474 530.621 74.6115C530.408 74.7491 530.194 74.8867 529.981 75.0242C529.767 75.1618 529.554 75.2993 529.341 75.4369C529.127 75.5745 528.914 75.712 528.7 75.8496C528.487 75.9872 528.273 76.1247 528.06 76.2623C526.661 77.1636 526.897 77.0118 525.499 77.913C525.285 78.0506 525.072 78.1882 524.858 78.3257C524.645 78.4633 524.431 78.6008 524.218 78.7384C523.641 79.1105 523.515 79.1917 522.937 79.5638C522.004 80.1651 522.59 79.7879 521.657 80.3892C521.443 80.5267 521.23 80.6643 521.016 80.8019C520.803 80.9394 520.589 81.077 520.376 81.2145C519.667 81.6714 518.523 82.4084 517.815 82.8653C517.601 83.0029 517.388 83.1404 517.174 83.278C516.961 83.4155 516.747 83.5531 516.534 83.6907C515.957 84.0624 515.83 84.1443 515.253 84.516C515.04 84.6536 514.826 84.7912 514.613 84.9287C514.399 85.0663 514.186 85.2039 513.973 85.3414C513.759 85.479 513.546 85.6165 513.332 85.7541C513.119 85.8917 512.905 86.0292 512.692 86.1668C512.479 86.3044 512.265 86.4419 512.052 86.5795C511.838 86.717 511.625 86.8546 511.411 86.9922C511.198 87.1297 510.984 87.2673 510.771 87.4049C510.558 87.5424 510.344 87.68 510.131 87.8175C509.738 88.0707 509.243 88.3898 508.85 88.6429C508.392 88.9381 508.027 89.1731 507.569 89.4683C506.521 90.1441 506.057 90.4432 505.008 91.1191C501.682 93.2627 498.089 95.5784 494.763 97.7221C494.549 97.8596 494.336 97.9972 494.122 98.1347C493.909 98.2723 493.695 98.4099 493.482 98.5474C492.876 98.9378 492.807 98.9824 492.201 99.3728C490.88 100.224 490.961 100.172 489.64 101.024C489.427 101.161 489.213 101.299 489 101.436C488.786 101.574 488.573 101.711 488.359 101.849C487.553 102.369 487.885 102.154 487.079 102.674C486.865 102.812 486.652 102.949 486.438 103.087C486.225 103.225 486.011 103.362 485.798 103.5C485.585 103.637 485.371 103.775 485.158 103.912C484.944 104.05 484.731 104.188 484.517 104.325C484.304 104.463 484.09 104.6 483.877 104.738C483.664 104.875 483.45 105.013 483.237 105.15C483.023 105.288 482.81 105.426 482.596 105.563C482.383 105.701 482.169 105.838 481.956 105.976C481.743 106.113 481.529 106.251 481.316 106.389C481.102 106.526 480.889 106.664 480.675 106.801C479.708 107.425 480.362 107.003 479.395 107.627C479.181 107.764 478.968 107.902 478.754 108.039C478.541 108.177 478.327 108.314 478.114 108.452C477.901 108.59 477.687 108.727 477.474 108.865C477.26 109.002 477.047 109.14 476.833 109.277C475.854 109.909 475.251 110.297 474.272 110.928C472.901 111.811 470.52 113.346 469.149 114.23C468.936 114.367 468.722 114.505 468.509 114.642C468.296 114.78 468.082 114.917 467.869 115.055C467.655 115.193 467.442 115.33 467.228 115.468C467.015 115.605 466.802 115.743 466.588 115.88C466.375 116.018 466.161 116.155 465.948 116.293C465.734 116.431 465.521 116.568 465.307 116.706C465.126 116.823 464.208 117.414 464.027 117.531C463.963 117.572 462.81 118.315 462.746 118.356C462.533 118.494 462.319 118.632 462.106 118.769C461.892 118.907 461.679 119.044 461.465 119.182C461.252 119.319 461.039 119.457 460.825 119.595C460.612 119.732 460.398 119.87 460.185 120.007C459.971 120.145 459.758 120.282 459.544 120.42C459.331 120.557 459.118 120.695 458.904 120.833C458.691 120.97 458.477 121.108 458.264 121.245C458.05 121.383 457.837 121.52 457.623 121.658C457.41 121.796 457.197 121.933 456.983 122.071C456.77 122.208 456.556 122.346 456.343 122.483C456.129 122.621 455.916 122.758 455.702 122.896C455.489 123.034 455.276 123.171 455.062 123.309C454.113 123.92 454.73 123.522 453.781 124.134C452.089 125.225 450.351 126.345 448.659 127.436C448.445 127.573 448.232 127.711 448.018 127.848C447.805 127.986 447.592 128.123 447.378 128.261C447.165 128.399 446.951 128.536 446.738 128.674C446.524 128.811 446.311 128.949 446.097 129.086C445.562 129.432 445.353 129.566 444.817 129.912C444.603 130.049 444.39 130.187 444.176 130.324C443.963 130.462 443.75 130.6 443.536 130.737C443.323 130.875 443.109 131.012 442.896 131.15C442.682 131.287 442.469 131.425 442.255 131.562C441.727 131.903 441.503 132.047 440.975 132.388C440.761 132.525 440.548 132.663 440.334 132.801C440.121 132.938 439.908 133.076 439.694 133.213C439.312 133.46 438.796 133.792 438.413 134.039C437.941 134.343 437.605 134.56 437.133 134.864C436.919 135.002 436.706 135.139 436.492 135.277C436.279 135.414 436.066 135.552 435.852 135.689C435.639 135.827 435.425 135.964 435.212 136.102C434.998 136.24 434.785 136.377 434.571 136.515C434.358 136.652 434.145 136.79 433.931 136.927C433.718 137.065 433.504 137.203 433.291 137.34C433.198 137.4 432.103 138.106 432.01 138.165C431.797 138.303 431.583 138.441 431.37 138.578C431.156 138.716 430.943 138.853 430.729 138.991C429.25 139.944 429.648 139.688 428.168 140.642C427.955 140.779 427.741 140.917 427.528 141.054C427.314 141.192 427.101 141.329 426.887 141.467C426.674 141.605 426.461 141.742 426.247 141.88C426.034 142.017 425.82 142.155 425.607 142.292C424.674 142.893 423.978 143.342 423.045 143.943C422.832 144.081 422.619 144.218 422.405 144.356C422.192 144.493 421.978 144.631 421.765 144.768C421.551 144.906 421.338 145.044 421.125 145.181C420.911 145.319 420.698 145.456 420.484 145.594C420.271 145.731 420.057 145.869 419.844 146.007C419.63 146.144 419.417 146.282 419.204 146.419C418.99 146.557 418.777 146.694 418.563 146.832C418.35 146.97 418.136 147.107 417.923 147.245C417.512 147.509 417.053 147.806 416.642 148.07C415.811 148.606 416.193 148.36 415.362 148.895C415.148 149.033 414.935 149.171 414.721 149.308C414.508 149.446 414.294 149.583 414.081 149.721C413.511 150.088 413.37 150.179 412.8 150.546C412.587 150.684 412.373 150.821 412.16 150.959C411.946 151.096 411.733 151.234 411.52 151.372C411.3 151.513 410.458 152.056 410.239 152.197C410.025 152.334 409.812 152.472 409.599 152.61C409.385 152.747 409.172 152.885 408.958 153.022C408.745 153.16 408.531 153.297 408.318 153.435C408.104 153.573 407.891 153.71 407.678 153.848C407.464 153.985 407.251 154.123 407.037 154.26C406.824 154.398 406.61 154.535 406.397 154.673C406.183 154.811 405.97 154.948 405.757 155.086C405.543 155.223 405.33 155.361 405.116 155.498C404.824 155.687 404.128 156.136 403.836 156.324C403.748 156.38 402.642 157.093 402.555 157.149C402.341 157.287 402.128 157.424 401.915 157.562C401.701 157.699 401.488 157.837 401.274 157.975C401.061 158.112 400.847 158.25 400.634 158.387C400.42 158.525 400.207 158.662 399.994 158.8C399.105 159.373 398.321 159.878 397.432 160.451C396.403 161.114 397.181 160.613 396.152 161.276C395.347 161.794 395.675 161.583 394.871 162.101C394.657 162.239 394.444 162.377 394.231 162.514C394.017 162.652 393.804 162.789 393.59 162.927C393.377 163.064 393.163 163.202 392.95 163.339C392.736 163.477 392.523 163.615 392.31 163.752C389.987 165.249 389.51 165.557 387.187 167.054C386.973 167.191 386.76 167.329 386.547 167.466C386.333 167.604 386.12 167.741 385.906 167.879C385.31 168.263 385.222 168.32 384.626 168.704C384.412 168.842 384.199 168.98 383.985 169.117C383.772 169.255 383.558 169.392 383.345 169.53C383.131 169.667 382.918 169.805 382.705 169.942C382.491 170.08 382.278 170.218 382.064 170.355C381.161 170.937 380.406 171.424 379.503 172.006C379.289 172.143 379.076 172.281 378.863 172.419C378.649 172.556 378.436 172.694 378.222 172.831C378.009 172.969 377.795 173.106 377.582 173.244C377.368 173.382 377.155 173.519 376.942 173.657C375.899 174.328 375.422 174.636 374.38 175.307C374.167 175.445 373.953 175.583 373.74 175.72C373.527 175.858 373.313 175.995 373.1 176.133C372.886 176.27 372.673 176.408 372.459 176.545C372.246 176.683 372.032 176.821 371.819 176.958C371.606 177.096 371.392 177.233 371.179 177.371C370.965 177.508 370.752 177.646 370.538 177.784C370.325 177.921 370.111 178.059 369.898 178.196C369.685 178.334 369.471 178.471 369.258 178.609C368.984 178.786 368.251 179.258 367.977 179.434C367.764 179.572 367.55 179.709 367.337 179.847C367.123 179.985 366.91 180.122 366.696 180.26C365.71 180.895 366.402 180.449 365.416 181.085C364.389 181.747 365.162 181.249 364.135 181.91C363.922 182.048 363.708 182.186 363.495 182.323C363.281 182.461 363.068 182.598 362.854 182.736C362.641 182.873 362.427 183.011 362.214 183.148C362.001 183.286 361.787 183.424 361.574 183.561C361.36 183.699 361.147 183.836 360.933 183.974C360.72 184.111 360.506 184.249 360.293 184.387C360.08 184.524 359.866 184.662 359.653 184.799C359.439 184.937 359.226 185.074 359.012 185.212C358.799 185.349 358.585 185.487 358.372 185.625C358.159 185.762 357.945 185.9 357.732 186.037C357.518 186.175 357.305 186.312 357.091 186.45C356.878 186.588 356.664 186.725 356.451 186.863C356.238 187 356.024 187.138 355.811 187.275C355.597 187.413 355.384 187.55 355.17 187.688C354.957 187.826 354.743 187.963 354.53 188.101C354.317 188.238 354.103 188.376 353.89 188.513C353.023 189.072 352.195 189.606 351.328 190.164C350.478 190.712 350.898 190.442 350.048 190.99C349.834 191.127 349.621 191.265 349.407 191.402C349.194 191.54 348.98 191.677 348.767 191.815C348.406 192.048 347.847 192.408 347.486 192.64C346.999 192.954 346.693 193.152 346.206 193.466C345.992 193.603 345.779 193.741 345.565 193.878C345.352 194.016 345.138 194.154 344.925 194.291C344.712 194.429 344.498 194.566 344.285 194.704C344.071 194.841 343.858 194.979 343.644 195.116C343.431 195.254 343.217 195.392 343.004 195.529C342.791 195.667 342.577 195.804 342.364 195.942C341.748 196.338 341.698 196.371 341.083 196.767C340.387 197.216 340.498 197.144 339.802 197.593C338.88 198.187 339.444 197.823 338.522 198.418C338.308 198.556 338.095 198.693 337.881 198.831C337.668 198.968 337.454 199.106 337.241 199.243C337.212 199.262 335.99 200.05 335.96 200.069C335.747 200.206 335.533 200.344 335.32 200.481C335.107 200.619 334.893 200.757 334.68 200.894C334.147 201.237 333.932 201.376 333.399 201.719C332.844 202.077 332.673 202.187 332.118 202.545C331.905 202.682 331.691 202.82 331.478 202.958C331.265 203.095 331.051 203.233 330.838 203.37C330.624 203.508 330.411 203.645 330.197 203.783C329.984 203.92 329.77 204.058 329.557 204.196C329.344 204.333 329.13 204.471 328.917 204.608C328.703 204.746 328.49 204.883 328.276 205.021C328.231 205.05 327.041 205.817 326.996 205.846C326.782 205.984 326.569 206.121 326.355 206.259C326.142 206.397 325.929 206.534 325.715 206.672C325.502 206.809 325.288 206.947 325.075 207.084C324.861 207.222 324.648 207.36 324.434 207.497C324.221 207.635 324.008 207.772 323.794 207.91C323.581 208.047 323.367 208.185 323.154 208.322C322.94 208.46 322.727 208.598 322.513 208.735C322.3 208.873 322.087 209.01 321.873 209.148C321.121 209.633 321.345 209.488 320.592 209.973C320.379 210.111 320.166 210.248 319.952 210.386C319.739 210.523 319.525 210.661 319.312 210.799C319.098 210.936 318.885 211.074 318.671 211.211C318.458 211.349 318.245 211.486 318.031 211.624C317.818 211.762 317.604 211.899 317.391 212.037C317.177 212.174 316.964 212.312 316.75 212.449C316.537 212.587 316.324 212.724 316.11 212.862C315.897 213 315.683 213.137 315.47 213.275C315.256 213.412 315.043 213.55 314.829 213.687C314.616 213.825 314.403 213.963 314.189 214.1C313.976 214.238 313.762 214.375 313.549 214.513C313.335 214.65 313.122 214.788 312.908 214.925C312.695 215.063 312.482 215.201 312.268 215.338C312.055 215.476 311.841 215.613 311.628 215.751C311.241 216 310.734 216.327 310.347 216.576C310.134 216.714 309.92 216.851 309.707 216.989C309.493 217.126 309.28 217.264 309.066 217.402C308.853 217.539 308.64 217.677 308.426 217.814C308.213 217.952 307.999 218.089 307.786 218.227C307.572 218.365 307.359 218.502 307.145 218.64C306.932 218.777 306.719 218.915 306.505 219.052C306.203 219.247 305.527 219.683 305.224 219.878C305.011 220.015 304.798 220.153 304.584 220.29C304.371 220.428 304.157 220.566 303.944 220.703C303.081 221.259 303.526 220.972 302.663 221.528C302.45 221.666 302.236 221.804 302.023 221.941C301.809 222.079 301.596 222.216 301.382 222.354C301.169 222.491 300.956 222.629 300.742 222.767C300.529 222.904 300.315 223.042 300.102 223.179C298.023 224.519 297.058 225.141 294.979 226.481C294.716 226.651 293.962 227.136 293.698 227.306C292.898 227.822 293.219 227.615 292.418 228.131C292.155 228.301 291.4 228.787 291.137 228.957C290.71 229.232 290.283 229.507 289.856 229.782C289.174 230.222 289.258 230.168 288.576 230.608C288.213 230.841 287.658 231.199 287.295 231.433C287.082 231.571 286.868 231.708 286.655 231.846C286.441 231.983 286.228 232.121 286.014 232.258C285.801 232.396 285.588 232.533 285.374 232.671C285.161 232.809 284.947 232.946 284.734 233.084C284.384 233.309 283.803 233.684 283.453 233.909C283.24 234.047 283.026 234.184 282.813 234.322C282.599 234.459 282.386 234.597 282.173 234.734C281.959 234.872 281.746 235.01 281.532 235.147C281.319 235.285 281.105 235.422 280.892 235.56C280.678 235.697 280.465 235.835 280.252 235.973C280.038 236.11 279.825 236.248 279.611 236.385C276.794 238.201 272.183 241.173 269.366 242.988C268.337 243.651 267.834 243.976 266.805 244.639C265.872 245.24 265.176 245.689 264.243 246.29C263.829 246.557 263.377 246.848 262.963 247.115C262.749 247.253 262.536 247.39 262.322 247.528C262.109 247.665 261.895 247.803 261.682 247.941C261.468 248.078 261.255 248.216 261.042 248.353C260.828 248.491 260.615 248.628 260.401 248.766C260.188 248.903 259.974 249.041 259.761 249.179C259.547 249.316 259.334 249.454 259.121 249.591C257.984 250.324 257.696 250.51 256.559 251.242C256.346 251.38 256.132 251.517 255.919 251.655C255.705 251.792 255.492 251.93 255.279 252.067C255.065 252.205 254.852 252.343 254.638 252.48C254.425 252.618 254.211 252.755 253.998 252.893C251.831 254.29 251.043 254.797 248.875 256.194C247.354 257.174 245.274 258.516 243.753 259.496C243.337 259.764 242.888 260.053 242.472 260.321C242.258 260.459 242.045 260.596 241.832 260.734C241.618 260.871 241.405 261.009 241.191 261.147C240.236 261.762 239.585 262.182 238.63 262.797C237.922 263.254 238.057 263.166 237.349 263.623C237.136 263.76 236.922 263.898 236.709 264.035C236.496 264.173 236.282 264.31 236.069 264.448C235.855 264.586 235.642 264.723 235.428 264.861C235.215 264.998 235.001 265.136 234.788 265.273C234.575 265.411 234.361 265.549 234.148 265.686C233.934 265.824 233.721 265.961 233.507 266.099C231.996 267.073 229.896 268.426 228.385 269.4C228.11 269.577 227.379 270.049 227.104 270.226C226.891 270.363 226.677 270.501 226.464 270.638C226.25 270.776 226.037 270.913 225.823 271.051C224.828 271.693 225.538 271.235 224.543 271.876C224.329 272.014 224.116 272.152 223.902 272.289C223.689 272.427 223.475 272.564 223.262 272.702C222.643 273.101 221.32 273.953 220.701 274.353C220.391 274.552 218.449 275.804 218.139 276.003C217.717 276.275 217.281 276.556 216.859 276.829C216.645 276.966 216.432 277.104 216.218 277.241C216.005 277.379 215.791 277.516 215.578 277.654C215.365 277.792 215.151 277.929 214.938 278.067C214.724 278.204 214.511 278.342 214.297 278.479C214.084 278.617 213.87 278.755 213.657 278.892C213.444 279.03 213.23 279.167 213.017 279.305C212.803 279.442 212.59 279.58 212.376 279.717C212.163 279.855 211.949 279.993 211.736 280.13C211.523 280.268 211.309 280.405 211.096 280.543C210.882 280.68 210.669 280.818 210.455 280.956C209.264 281.724 209.086 281.838 207.894 282.606L218.729 299.417ZM536.998 240C577.142 214.128 614.423 186.057 656.506 167.713L648.514 149.379C604.456 168.584 564.651 198.384 526.164 223.189L536.998 240ZM282.422 1258.42C322.372 1285.7 367.986 1306.45 409.029 1328.57L418.52 1310.97C375.8 1287.94 332.514 1268.41 293.701 1241.9L282.422 1258.42ZM1395.5 836.587C1398.79 884.452 1405.65 930.917 1401.5 976.795L1421.42 978.596C1425.76 930.604 1418.6 880.978 1415.45 835.215L1395.5 836.587ZM1157.95 577.119L536.533 222.907L526.629 240.282L1148.05 594.495L1157.95 577.119ZM897.088 1034.28L1161.59 590.93L1144.41 580.684L879.912 1024.04L897.088 1034.28ZM503.824 821.78L751.574 1254.05L768.926 1244.1L521.176 811.834L503.824 821.78ZM765.579 1257.54C981.753 1121.42 1196.14 982.465 1410.89 844.311L1400.07 827.491C1185.24 965.694 970.987 1104.56 754.922 1240.61L765.579 1257.54ZM381 585.807C381 595.807 381.001 595.807 381.004 595.807C381.006 595.807 381.01 595.807 381.014 595.807C381.024 595.807 381.039 595.807 381.058 595.807C381.096 595.807 381.154 595.807 381.23 595.807C381.384 595.807 381.612 595.807 381.916 595.807C382.522 595.807 383.425 595.807 384.613 595.807C386.988 595.807 390.501 595.807 395.051 595.807C404.15 595.807 417.399 595.807 433.995 595.807C467.186 595.807 513.766 595.807 567.32 595.807C674.426 595.807 809.426 595.807 921 595.807L921 575.807C809.426 575.807 674.426 575.807 567.32 575.807C513.766 575.807 467.186 575.807 433.995 575.807C417.399 575.807 404.15 575.807 395.051 575.807C390.501 575.807 386.988 575.807 384.613 575.807C383.425 575.807 382.522 575.807 381.916 575.807C381.612 575.807 381.384 575.807 381.23 575.807C381.154 575.807 381.096 575.807 381.058 575.807C381.039 575.807 381.024 575.807 381.014 575.807C381.01 575.807 381.006 575.807 381.004 575.807C381.001 575.807 381 575.807 381 585.807ZM765.935 1022.08L960.294 692.784L943.071 682.618L748.711 1011.92L765.935 1022.08ZM570.39 697.701L951.683 697.701L951.683 677.701L570.39 677.701L570.39 697.701ZM766.019 1012.06L579.087 682.765L561.694 692.638L748.626 1021.94L766.019 1012.06Z" fill="white"/>
</g>
<defs>
<filter id="filter0_d_55105_8077" x="0.176758" y="0" width="1548.83" height="1611.8" filterUnits="userSpaceOnUse" color-interpolation-filters="sRGB">
<feFlood flood-opacity="0" result="BackgroundImageFix"/>
<feColorMatrix in="SourceAlpha" type="matrix" values="0 0 0 0 0 0 0 0 0 0 0 0 0 0 0 0 0 0 127 0" result="hardAlpha"/>
<feOffset dy="4"/>
<feGaussianBlur stdDeviation="2"/>
<feComposite in2="hardAlpha" operator="out"/>
<feColorMatrix type="matrix" values="0 0 0 0 0 0 0 0 0 0 0 0 0 0 0 0 0 0 0.25 0"/>
<feBlend mode="normal" in2="BackgroundImageFix" result="effect1_dropShadow_55105_8077"/>
<feBlend mode="normal" in="SourceGraphic" in2="effect1_dropShadow_55105_8077" result="shape"/>
</filter>
</defs>
</svg>
