<svg width="1553" height="1616" viewBox="0 0 1553 1616" fill="none" xmlns="http://www.w3.org/2000/svg">
<path fill-rule="evenodd" clip-rule="evenodd" d="M542.984 85.9089C674.675 1.03536 842.637 -7.55155 980.538 66.7963L1294.44 236.031C1420.02 303.736 1501.58 430.291 1511.37 572.625C1519.52 691.216 1527.68 809.807 1535.83 928.398C1546.58 1084.7 1469.38 1234.11 1337.69 1318.99L1009.84 1530.28C878.15 1615.16 710.189 1623.74 572.287 1549.39C467.654 1492.98 363.021 1436.57 258.388 1380.16C132.807 1312.45 51.2434 1185.9 41.4562 1043.57L16.9928 687.793C6.24551 531.495 83.4439 382.079 215.135 297.205C324.418 226.773 433.701 156.341 542.984 85.9089ZM415.598 1325.96C373.716 1303.38 329.266 1283.25 289.885 1256.36C216.435 1206.2 169.679 1125.36 163.49 1035.35L139.027 679.581C131.426 569.037 186.108 461.617 281.481 400.15C360.926 348.948 461.838 345.493 543.395 391.181L922.823 592C699.676 592 382.823 592 382.823 592L415.598 1325.96ZM890.323 1035.35L1297.13 763.167C1358.94 723.361 1394.32 653.396 1389.34 580.837C1382.43 480.481 1325.1 391.513 1236.55 343.776L922.653 174.541C839.927 129.941 740.739 127.075 654.333 164.74C611.263 183.514 572.719 212.449 533.404 237.788L1154.82 592L890.323 1035.35ZM1413.29 983.889C1404.86 1077.04 1353.03 1163.4 1271.34 1216.04L943.494 1427.34C848.121 1488.8 727.706 1494.23 630.173 1441.65C578.568 1413.83 545.749 1360.96 543.694 1302.35L514.323 823L762.073 1255.27C978.193 1119.18 1192.52 980.273 1407.3 842.094C1410.52 888.908 1417.53 936.954 1413.29 983.889ZM759.146 1023.19L953.506 693.894L572.214 693.895L759.146 1023.19Z" fill="url(#paint0_radial_55103_8073)"/>
<path d="M980.538 66.7963L972.945 80.8799L972.945 80.8799L980.538 66.7963ZM1294.44 236.031L1302.03 221.947L1302.03 221.947L1294.44 236.031ZM1511.37 572.625L1495.41 573.723L1495.41 573.723L1511.37 572.625ZM1535.83 928.398L1519.87 929.495L1519.87 929.495L1535.83 928.398ZM572.287 1549.39L579.88 1535.31L579.88 1535.31L572.287 1549.39ZM258.388 1380.16L250.795 1394.24L250.795 1394.24L258.388 1380.16ZM41.4562 1043.57L25.4939 1044.66L25.4939 1044.66L41.4562 1043.57ZM16.9928 687.793L1.03047 688.89L16.9928 687.793ZM415.598 1325.96L408.005 1340.05L432.84 1353.44L431.582 1325.25L415.598 1325.96ZM289.885 1256.36L280.862 1269.57L280.862 1269.57L289.885 1256.36ZM163.49 1035.35L147.528 1036.45L147.528 1036.45L163.49 1035.35ZM139.027 679.581L154.989 678.483L154.989 678.483L139.027 679.581ZM543.395 391.181L535.575 405.14L535.742 405.234L535.91 405.323L543.395 391.181ZM922.823 592L922.823 608L930.308 577.859L922.823 592ZM382.823 592L382.823 576L366.093 576L366.839 592.714L382.823 592ZM890.323 1035.35L876.583 1027.16L899.221 1048.65L890.323 1035.35ZM1297.13 763.167L1288.47 749.715L1288.35 749.791L1288.24 749.869L1297.13 763.167ZM1389.34 580.837L1373.37 581.934L1373.37 581.934L1389.34 580.837ZM1236.55 343.776L1228.96 357.859L1228.96 357.859L1236.55 343.776ZM922.653 174.541L915.06 188.625L915.06 188.625L922.653 174.541ZM654.333 164.74L660.727 179.407L660.727 179.407L654.333 164.74ZM533.404 237.788L524.736 224.339L502.567 238.627L525.481 251.688L533.404 237.788ZM1154.82 592L1168.56 600.198L1176.93 586.182L1162.75 578.1L1154.82 592ZM1413.29 983.889L1429.22 985.33L1429.22 985.33L1413.29 983.889ZM630.173 1441.65L637.766 1427.57L637.766 1427.57L630.173 1441.65ZM543.694 1302.35L559.684 1301.79L559.676 1301.58L559.664 1301.37L543.694 1302.35ZM514.323 823L528.205 815.044L498.353 823.979L514.323 823ZM762.073 1255.27L748.192 1263.23L756.485 1277.7L770.599 1268.81L762.073 1255.27ZM1407.3 842.094L1423.26 840.997L1421.41 813.995L1398.64 828.638L1407.3 842.094ZM759.146 1023.19L745.232 1031.09L758.876 1055.13L772.925 1031.32L759.146 1023.19ZM953.506 693.894L967.285 702.027L981.528 677.894L953.506 677.894L953.506 693.894ZM572.214 693.895L572.214 677.895L544.733 677.895L558.299 701.793L572.214 693.895ZM551.652 99.3578C678.583 17.5517 840.32 9.37672 972.945 80.8799L988.131 52.7127C844.953 -24.4798 670.767 -15.481 534.317 72.4601L551.652 99.3578ZM972.945 80.8799L1286.84 250.114L1302.03 221.947L988.131 52.7127L972.945 80.8799ZM1286.84 250.114C1407.59 315.214 1486 436.867 1495.41 573.723L1527.33 571.527C1517.17 423.716 1432.45 292.258 1302.03 221.947L1286.84 250.114ZM1519.87 929.495C1530.21 1079.81 1455.95 1223.73 1329.02 1305.54L1346.36 1332.43C1482.81 1244.49 1562.95 1089.58 1551.8 927.3L1519.87 929.495ZM1329.02 1305.54L1001.17 1516.83L1018.51 1543.73L1346.36 1332.43L1329.02 1305.54ZM1001.17 1516.83C874.242 1598.64 712.506 1606.81 579.88 1535.31L564.694 1563.48C707.872 1640.67 882.058 1631.67 1018.51 1543.73L1001.17 1516.83ZM265.981 1366.08C145.233 1300.98 66.8291 1179.32 57.4185 1042.47L25.4939 1044.66C35.6578 1192.48 120.381 1323.93 250.795 1394.24L265.981 1366.08ZM57.4185 1042.47L32.9551 686.695L1.03047 688.89L25.4939 1044.66L57.4185 1042.47ZM32.9551 686.695C22.619 536.377 96.8711 392.46 223.802 310.654L206.467 283.756C70.0167 371.697 -10.128 526.612 1.03047 688.89L32.9551 686.695ZM147.528 1036.45C154.054 1131.36 203.379 1216.66 280.862 1269.57L298.908 1243.14C229.491 1195.74 185.304 1119.35 179.452 1034.26L147.528 1036.45ZM123.065 680.679L147.528 1036.45L179.452 1034.26L154.989 678.483L123.065 680.679ZM272.814 386.701C172.676 451.238 115.053 564.16 123.065 680.679L154.989 678.483C147.799 573.914 199.541 471.995 290.149 413.599L272.814 386.701ZM551.215 377.222C464.419 328.599 357.167 332.336 272.814 386.701L290.149 413.599C364.685 365.561 459.256 362.386 535.575 405.14L551.215 377.222ZM1373.37 581.934C1377.96 648.597 1345.45 713.024 1288.47 749.715L1305.8 776.619C1372.44 733.699 1410.69 658.195 1405.3 579.739L1373.37 581.934ZM1228.96 357.859C1312.67 402.991 1366.85 487.057 1373.37 581.934L1405.3 579.739C1398.02 473.905 1337.52 380.035 1244.14 329.692L1228.96 357.859ZM915.06 188.625L1228.96 357.859L1244.14 329.692L930.246 160.458L915.06 188.625ZM660.727 179.407C742.787 143.637 836.809 146.437 915.06 188.625L930.246 160.458C843.045 113.444 738.692 110.514 647.94 150.073L660.727 179.407ZM1397.35 982.448C1389.38 1070.64 1340.26 1152.59 1262.68 1202.59L1280.01 1229.49C1365.79 1174.21 1420.35 1083.45 1429.22 985.33L1397.35 982.448ZM1262.68 1202.59L934.827 1413.89L952.162 1440.79L1280.01 1229.49L1262.68 1202.59ZM934.827 1413.89C844.218 1472.28 730.028 1477.31 637.766 1427.57L622.58 1455.73C725.385 1511.16 852.025 1505.32 952.162 1440.79L934.827 1413.89ZM637.766 1427.57C591.165 1402.44 561.54 1354.73 559.684 1301.79L527.703 1302.91C529.958 1367.2 565.971 1425.21 622.58 1455.73L637.766 1427.57ZM930.308 577.859L550.88 377.04L535.91 405.323L915.339 606.142L930.308 577.859ZM431.582 1325.25L398.807 591.287L366.839 592.714L399.614 1326.68L431.582 1325.25ZM1288.24 749.869L881.426 1022.06L899.221 1048.65L1306.03 776.465L1288.24 749.869ZM559.664 1301.37L530.293 822.022L498.353 823.979L527.724 1303.33L559.664 1301.37ZM579.88 1535.31C475.247 1478.9 370.614 1422.49 265.981 1366.08L250.795 1394.24C355.428 1450.65 460.061 1507.07 564.694 1563.48L579.88 1535.31ZM1495.41 573.723C1503.56 692.314 1511.72 810.904 1519.87 929.495L1551.8 927.3C1543.64 808.709 1535.49 690.118 1527.33 571.527L1495.41 573.723ZM223.802 310.654C224.427 310.251 224.458 310.232 225.083 309.829C225.296 309.691 225.51 309.554 225.723 309.416C225.937 309.278 226.15 309.141 226.364 309.003C227.226 308.447 228.062 307.909 228.925 307.353C229.336 307.088 229.795 306.792 230.206 306.527C230.419 306.39 230.632 306.252 230.846 306.114C231.059 305.977 231.273 305.839 231.486 305.702C231.7 305.564 231.913 305.427 232.127 305.289C232.34 305.152 232.553 305.014 232.767 304.876C232.852 304.822 233.962 304.106 234.048 304.051C234.261 303.913 234.474 303.776 234.688 303.638C234.901 303.501 235.115 303.363 235.328 303.226C235.542 303.088 235.755 302.951 235.969 302.813C236.182 302.675 236.395 302.538 236.609 302.4C237.52 301.813 238.259 301.337 239.17 300.75C239.384 300.612 239.597 300.474 239.811 300.337C240.024 300.199 240.237 300.062 240.451 299.924C240.664 299.787 240.878 299.649 241.091 299.511C241.305 299.374 241.518 299.236 241.732 299.099C242.312 298.724 243.712 297.822 244.293 297.448C246.979 295.717 251.852 292.576 254.538 290.845C255.111 290.476 256.527 289.563 257.099 289.194C257.313 289.057 257.526 288.919 257.74 288.782C257.953 288.644 258.167 288.506 258.38 288.369C258.594 288.231 258.807 288.094 259.02 287.956C259.234 287.819 259.447 287.681 259.661 287.544C261.542 286.331 260.341 287.105 262.222 285.893C262.538 285.689 264.467 284.446 264.783 284.242C265.672 283.67 266.456 283.164 267.345 282.591C268.082 282.116 267.888 282.241 268.625 281.766C268.839 281.628 269.052 281.491 269.266 281.353C269.479 281.216 269.693 281.078 269.906 280.941C270.12 280.803 270.333 280.665 270.546 280.528C270.76 280.39 270.973 280.253 271.187 280.115C271.226 280.09 272.428 279.315 272.467 279.29C274.221 278.159 273.275 278.769 275.029 277.639C275.347 277.434 275.991 277.019 276.309 276.814C276.982 276.38 276.918 276.421 277.59 275.988C277.804 275.851 278.017 275.713 278.23 275.576C278.444 275.438 278.657 275.3 278.871 275.163C279.084 275.025 279.298 274.888 279.511 274.75C279.725 274.613 279.938 274.475 280.151 274.338C281.484 273.479 280.1 274.371 281.432 273.512C281.646 273.375 281.859 273.237 282.072 273.099C282.286 272.962 282.499 272.824 282.713 272.687C282.926 272.549 283.14 272.412 283.353 272.274C283.567 272.136 283.78 271.999 283.993 271.861C284.207 271.724 284.42 271.586 284.634 271.449C284.847 271.311 285.061 271.174 285.274 271.036C287.004 269.921 286.105 270.5 287.835 269.385C288.049 269.248 288.262 269.11 288.476 268.973C288.689 268.835 288.903 268.697 289.116 268.56C289.977 268.005 289.535 268.29 290.397 267.734C291.855 266.795 294.061 265.373 295.519 264.433C295.733 264.295 295.946 264.158 296.16 264.02C296.373 263.883 296.587 263.745 296.8 263.608C297.529 263.138 297.352 263.252 298.081 262.782C298.294 262.645 298.508 262.507 298.721 262.37C298.934 262.232 299.148 262.094 299.361 261.957C299.575 261.819 299.788 261.682 300.002 261.544C300.215 261.407 300.429 261.269 300.642 261.131C300.855 260.994 301.069 260.856 301.282 260.719C301.496 260.581 301.709 260.444 301.923 260.306C302.136 260.169 302.35 260.031 302.563 259.893C302.776 259.756 302.99 259.618 303.203 259.481C303.355 259.383 304.333 258.753 304.484 258.655C304.9 258.387 305.348 258.098 305.765 257.83C307.693 256.587 308.959 255.771 310.887 254.528C313.385 252.918 313.512 252.837 316.01 251.227C316.824 250.702 316.477 250.926 317.291 250.402C318.282 249.762 317.58 250.215 318.571 249.576C318.785 249.439 318.998 249.301 319.212 249.164C319.425 249.026 319.639 248.888 319.852 248.751C320.065 248.613 320.279 248.476 320.492 248.338C320.706 248.201 320.919 248.063 321.133 247.925C321.346 247.788 321.56 247.65 321.773 247.513C321.986 247.375 322.2 247.238 322.413 247.1C322.627 246.963 322.84 246.825 323.054 246.687C323.267 246.55 323.481 246.412 323.694 246.275C323.907 246.137 324.121 246 324.334 245.862C324.548 245.724 324.761 245.587 324.975 245.449C325.188 245.312 325.402 245.174 325.615 245.037C325.828 244.899 326.042 244.762 326.255 244.624C326.897 244.21 326.894 244.212 327.536 243.799C327.749 243.661 327.963 243.523 328.176 243.386C328.39 243.248 328.603 243.111 328.817 242.973C329.03 242.836 329.244 242.698 329.457 242.561C329.67 242.423 329.884 242.285 330.097 242.148C330.311 242.01 330.524 241.873 330.738 241.735C330.951 241.598 331.165 241.46 331.378 241.322C331.591 241.185 331.805 241.047 332.018 240.91C332.232 240.772 332.445 240.635 332.659 240.497C332.872 240.36 333.086 240.222 333.299 240.084C333.512 239.947 333.726 239.809 333.939 239.672C335.124 238.908 334.035 239.61 335.22 238.846C335.433 238.709 335.647 238.571 335.86 238.434C336.074 238.296 336.287 238.159 336.501 238.021C336.714 237.883 336.927 237.746 337.141 237.608C337.354 237.471 337.568 237.333 337.781 237.196C338.03 237.035 338.813 236.531 339.062 236.37C339.275 236.233 339.489 236.095 339.702 235.958C339.916 235.82 340.129 235.682 340.343 235.545C340.936 235.162 341.03 235.102 341.623 234.719C341.837 234.582 342.05 234.444 342.264 234.307C342.477 234.169 342.69 234.032 342.904 233.894C343.434 233.552 343.654 233.41 344.185 233.069C345.483 232.232 345.448 232.255 346.746 231.418C348.016 230.6 346.757 231.411 348.027 230.593C348.24 230.455 348.453 230.317 348.667 230.18C348.88 230.042 349.094 229.905 349.307 229.767C349.521 229.63 349.734 229.492 349.948 229.355C350.161 229.217 350.374 229.079 350.588 228.942C350.801 228.804 351.015 228.667 351.228 228.529C351.442 228.392 351.655 228.254 351.869 228.116C352.082 227.979 352.295 227.841 352.509 227.704C352.722 227.566 352.936 227.429 353.149 227.291C353.363 227.154 353.576 227.016 353.79 226.878C354.003 226.741 354.216 226.603 354.43 226.466C355.128 226.016 355.012 226.09 355.711 225.64C356.199 225.326 356.503 225.129 356.991 224.815C357.205 224.677 357.418 224.54 357.632 224.402C357.845 224.265 358.058 224.127 358.272 223.99C358.349 223.94 359.475 223.214 359.553 223.164C359.925 222.924 361.741 221.754 362.114 221.513C362.766 221.093 362.742 221.108 363.395 220.688C363.608 220.55 363.821 220.413 364.035 220.275C364.248 220.138 364.462 220 364.675 219.863C364.889 219.725 365.102 219.588 365.316 219.45C365.529 219.312 365.742 219.175 365.956 219.037C366.169 218.9 366.383 218.762 366.596 218.625C366.81 218.487 367.023 218.349 367.237 218.212C368.849 217.172 368.185 217.601 369.798 216.561C370.545 216.08 370.331 216.217 371.079 215.736C371.292 215.598 371.505 215.461 371.719 215.323C371.932 215.186 372.146 215.048 372.359 214.91C372.573 214.773 372.786 214.635 373 214.498C373.213 214.36 373.426 214.223 373.64 214.085C373.679 214.06 374.882 213.285 374.921 213.26C375.985 212.574 375.137 213.12 376.201 212.434C376.415 212.297 376.628 212.159 376.842 212.022C377.055 211.884 377.268 211.746 377.482 211.609C379.023 210.616 378.502 210.951 380.043 209.958C380.257 209.821 380.47 209.683 380.683 209.545C380.897 209.408 381.11 209.27 381.324 209.133C381.537 208.995 381.751 208.858 381.964 208.72C382.178 208.583 382.391 208.445 382.604 208.307C382.818 208.17 383.031 208.032 383.245 207.895C383.458 207.757 383.672 207.62 383.885 207.482C384.421 207.137 384.63 207.002 385.166 206.657C385.379 206.519 385.593 206.382 385.806 206.244C386.02 206.106 386.233 205.969 386.446 205.831C386.66 205.694 386.873 205.556 387.087 205.419C387.3 205.281 387.514 205.143 387.727 205.006C387.941 204.868 388.154 204.731 388.367 204.593C388.581 204.456 388.794 204.318 389.008 204.181C389.221 204.043 389.435 203.905 389.648 203.768C389.862 203.63 390.075 203.493 390.288 203.355C390.37 203.303 391.487 202.582 391.569 202.53C392.407 201.99 392.012 202.244 392.85 201.704C394.602 200.575 396.22 199.532 397.972 198.403C399.058 197.703 402.01 195.801 403.095 195.101C403.309 194.964 403.522 194.826 403.735 194.689C403.949 194.551 404.162 194.414 404.376 194.276C404.589 194.138 404.803 194.001 405.016 193.863C405.23 193.726 405.443 193.588 405.656 193.451C406.734 192.756 405.859 193.32 406.937 192.625C408.397 191.684 406.758 192.741 408.218 191.8C409.166 191.189 408.55 191.586 409.498 190.975C409.712 190.837 409.925 190.699 410.139 190.562C410.352 190.424 410.566 190.287 410.779 190.149C411.632 189.599 411.207 189.873 412.06 189.324C412.547 189.01 412.853 188.812 413.34 188.498C413.396 188.462 415.846 186.884 415.902 186.848C416.64 186.372 416.444 186.498 417.182 186.022C417.471 185.836 418.174 185.383 418.463 185.197C418.758 185.007 419.448 184.562 419.744 184.372C420.26 184.039 420.508 183.879 421.024 183.546C421.238 183.409 421.451 183.271 421.665 183.133C421.878 182.996 422.092 182.858 422.305 182.721C422.519 182.583 422.732 182.446 422.945 182.308C423.159 182.171 423.372 182.033 423.586 181.895C425.355 180.755 424.377 181.385 426.147 180.245C427.948 179.084 426.907 179.755 428.708 178.594C428.855 178.5 429.843 177.863 429.989 177.768C430.202 177.631 430.416 177.493 430.629 177.356C430.843 177.218 431.056 177.081 431.27 176.943C431.615 176.72 432.205 176.341 432.55 176.118C432.764 175.98 432.977 175.843 433.191 175.705C433.404 175.567 433.618 175.43 433.831 175.292C434.602 174.795 434.34 174.964 435.112 174.467C435.279 174.359 436.225 173.749 436.392 173.642C437.351 173.024 437.995 172.608 438.954 171.991C439.167 171.853 439.381 171.716 439.594 171.578C439.807 171.441 440.021 171.303 440.234 171.165C440.809 170.795 440.941 170.71 441.515 170.34C441.728 170.203 441.942 170.065 442.155 169.927C442.369 169.79 442.582 169.652 442.796 169.515C443.009 169.377 443.223 169.24 443.436 169.102C443.649 168.964 443.863 168.827 444.076 168.689C445.285 167.911 444.149 168.643 445.357 167.864C445.57 167.726 445.784 167.589 445.997 167.451C446.211 167.314 446.424 167.176 446.638 167.039C446.851 166.901 447.065 166.763 447.278 166.626C447.491 166.488 447.705 166.351 447.918 166.213C448.132 166.076 448.345 165.938 448.559 165.801C448.772 165.663 448.986 165.525 449.199 165.388C449.412 165.25 449.626 165.113 449.839 164.975C450.053 164.838 450.266 164.7 450.48 164.562C451.619 163.828 450.621 164.472 451.76 163.737C451.974 163.6 452.187 163.462 452.401 163.324C452.614 163.187 452.828 163.049 453.041 162.912C453.884 162.369 453.479 162.63 454.322 162.086C456.68 160.567 457.086 160.305 459.444 158.785C459.855 158.52 460.314 158.224 460.725 157.959C460.927 157.829 461.804 157.264 462.006 157.134C462.219 156.997 462.433 156.859 462.646 156.721C462.859 156.584 463.073 156.446 463.286 156.309C464.118 155.773 463.735 156.02 464.567 155.483C464.78 155.346 464.994 155.208 465.207 155.071C465.421 154.933 465.634 154.796 465.848 154.658C467.215 153.777 465.761 154.714 467.128 153.833C467.342 153.695 467.555 153.557 467.769 153.42C467.982 153.282 468.196 153.145 468.409 153.007C468.622 152.87 468.836 152.732 469.049 152.595C469.263 152.457 469.476 152.319 469.69 152.182C469.903 152.044 470.117 151.907 470.33 151.769C470.543 151.632 470.757 151.494 470.97 151.356C471.184 151.219 471.397 151.081 471.611 150.944C471.824 150.806 472.037 150.669 472.251 150.531C472.464 150.394 472.678 150.256 472.891 150.118C473.105 149.981 473.318 149.843 473.532 149.706C473.745 149.568 473.958 149.431 474.172 149.293C474.385 149.155 474.599 149.018 474.812 148.88C475.335 148.544 475.57 148.392 476.093 148.055C476.306 147.917 476.52 147.78 476.733 147.642C476.947 147.505 477.16 147.367 477.374 147.23C478.183 146.708 477.845 146.926 478.654 146.404C478.868 146.267 479.081 146.129 479.295 145.992C479.508 145.854 479.721 145.716 479.935 145.579C480.148 145.441 480.362 145.304 480.575 145.166C480.789 145.029 481.002 144.891 481.216 144.753C481.429 144.616 481.642 144.478 481.856 144.341C482.069 144.203 482.283 144.066 482.496 143.928C482.761 143.758 484.793 142.448 485.058 142.277C487.379 140.781 487.858 140.472 490.18 138.976C490.394 138.838 490.607 138.701 490.821 138.563C491.034 138.426 491.247 138.288 491.461 138.15C491.75 137.964 492.452 137.511 492.742 137.325C492.955 137.188 493.168 137.05 493.382 136.912C493.595 136.775 493.809 136.637 494.022 136.5C494.392 136.262 494.934 135.912 495.303 135.674C495.516 135.537 495.73 135.399 495.943 135.262C496.157 135.124 496.37 134.987 496.584 134.849C497.041 134.554 497.407 134.319 497.864 134.024C498.078 133.886 498.291 133.748 498.505 133.611C498.718 133.473 498.931 133.336 499.145 133.198C499.493 132.974 500.077 132.597 500.426 132.373C501.093 131.943 504.881 129.501 505.548 129.071C507.041 128.109 506.616 128.383 508.11 127.421C509.183 126.729 509.597 126.462 510.671 125.77C511.615 125.161 511.008 125.553 511.952 124.944C512.165 124.807 512.378 124.669 512.592 124.532C512.805 124.394 513.019 124.257 513.232 124.119C514.14 123.534 514.886 123.053 515.794 122.468C517.278 121.511 516.87 121.775 518.355 120.818C518.568 120.68 518.782 120.542 518.995 120.405C519.209 120.267 519.422 120.13 519.635 119.992C519.849 119.855 520.062 119.717 520.276 119.579C520.489 119.442 520.703 119.304 520.916 119.167C521.866 118.555 522.528 118.128 523.477 117.516C524.494 116.861 523.742 117.346 524.758 116.691C525.843 115.992 524.954 116.564 526.039 115.865C526.055 115.855 527.304 115.05 527.319 115.04C527.533 114.902 527.746 114.765 527.96 114.627C528.173 114.49 528.387 114.352 528.6 114.215C528.814 114.077 529.027 113.939 529.24 113.802C529.454 113.664 529.667 113.527 529.881 113.389C530.83 112.778 530.213 113.175 531.161 112.564C531.378 112.424 532.225 111.878 532.442 111.738C532.656 111.601 532.869 111.463 533.082 111.326C533.296 111.188 533.509 111.051 533.723 110.913C534.242 110.578 535.765 109.597 536.284 109.262C536.803 108.928 538.327 107.946 538.845 107.612C539.306 107.315 539.666 107.083 540.126 106.786C540.999 106.223 540.534 106.523 541.407 105.961C541.765 105.73 543.61 104.541 543.968 104.31C544.473 103.985 544.744 103.81 545.249 103.485C545.462 103.347 545.676 103.21 545.889 103.072C546.103 102.934 546.316 102.797 546.529 102.659C546.759 102.511 547.581 101.982 547.81 101.834C548.618 101.313 548.283 101.529 549.091 101.009C549.178 100.952 550.284 100.239 550.371 100.183C550.452 100.131 551.571 99.4099 551.652 99.3578L534.317 72.4601C531.214 74.4598 527.174 77.0633 524.071 79.0631C520.958 81.0696 516.939 83.6596 513.826 85.6661C513.042 86.1714 509.488 88.4622 508.703 88.9676C508.49 89.1052 508.277 89.2427 508.063 89.3803C507.85 89.5178 507.636 89.6554 507.423 89.793C506.562 90.3476 507.003 90.0637 506.142 90.6183C505.308 91.1559 504.415 91.7316 503.581 92.2691C503.367 92.4067 503.154 92.5442 502.94 92.6818C502.727 92.8193 502.514 92.9569 502.3 93.0945C502.087 93.232 501.873 93.3696 501.66 93.5072C501.446 93.6447 501.233 93.7823 501.02 93.9198C500.806 94.0574 500.593 94.195 500.379 94.3325C500.166 94.4701 499.952 94.6077 499.739 94.7452C499.525 94.8828 499.312 95.0203 499.099 95.1579C498.885 95.2955 498.672 95.433 498.458 95.5706C496.804 96.6367 494.99 97.806 493.336 98.8721C492.191 99.6099 489.358 101.436 488.213 102.174C487.999 102.311 487.786 102.449 487.573 102.586C487.359 102.724 487.146 102.861 486.932 102.999C486.719 103.137 486.505 103.274 486.292 103.412C486.078 103.549 485.865 103.687 485.652 103.824C485.438 103.962 485.225 104.099 485.011 104.237C484.798 104.375 484.584 104.512 484.371 104.65C484.193 104.764 483.268 105.36 483.09 105.475C482.877 105.613 482.663 105.75 482.45 105.888C482.236 106.025 482.023 106.163 481.81 106.3C481.596 106.438 481.383 106.576 481.169 106.713C480.956 106.851 480.742 106.988 480.529 107.126C479.65 107.692 478.846 108.21 477.968 108.777C477.754 108.914 477.541 109.052 477.327 109.189C477.114 109.327 476.9 109.464 476.687 109.602C476.473 109.74 476.26 109.877 476.047 110.015C475.833 110.152 475.62 110.29 475.406 110.427C475.193 110.565 474.979 110.702 474.766 110.84C474.552 110.978 474.339 111.115 474.126 111.253C473.064 111.937 473.906 111.394 472.845 112.078C472.631 112.216 472.418 112.353 472.205 112.491C471.991 112.628 471.778 112.766 471.564 112.903C471.351 113.041 471.137 113.179 470.924 113.316C470.71 113.454 470.497 113.591 470.284 113.729C470.07 113.866 469.857 114.004 469.643 114.142C469.43 114.279 469.216 114.417 469.003 114.554C468.789 114.692 468.576 114.829 468.363 114.967C468.149 115.104 467.936 115.242 467.722 115.38C466.056 116.454 464.266 117.607 462.6 118.681C462.386 118.819 462.173 118.956 461.959 119.094C461.746 119.231 461.532 119.369 461.319 119.507C461.105 119.644 460.892 119.782 460.679 119.919C460.465 120.057 460.252 120.194 460.038 120.332C458.778 121.144 458.738 121.17 457.477 121.983C455.935 122.977 453.897 124.29 452.354 125.284C452.141 125.422 451.927 125.559 451.714 125.697C451.501 125.834 451.287 125.972 451.074 126.11C450.86 126.247 450.647 126.385 450.433 126.522C450.22 126.66 450.006 126.797 449.793 126.935C449.156 127.345 449.149 127.35 448.512 127.76C448.299 127.898 448.085 128.035 447.872 128.173C447.659 128.311 447.445 128.448 447.232 128.586C447.018 128.723 446.805 128.861 446.591 128.998C446.378 129.136 446.164 129.273 445.951 129.411C445.738 129.549 445.524 129.686 445.311 129.824C445.097 129.961 444.884 130.099 444.67 130.236C444.386 130.42 443.674 130.878 443.39 131.062C443.176 131.199 442.963 131.337 442.749 131.474C442.536 131.612 442.322 131.75 442.109 131.887C441.122 132.523 441.815 132.076 440.828 132.713C439.837 133.352 440.539 132.899 439.548 133.538C439.334 133.675 439.121 133.813 438.907 133.951C438.694 134.088 438.48 134.226 438.267 134.363C438.181 134.419 437.072 135.133 436.986 135.189C436.868 135.265 435.824 135.938 435.706 136.014C435.492 136.152 435.279 136.289 435.065 136.427C434.852 136.564 434.638 136.702 434.425 136.839C434.212 136.977 433.998 137.115 433.785 137.252C433.571 137.39 433.358 137.527 433.144 137.665C432.931 137.802 432.717 137.94 432.504 138.077C432.291 138.215 432.077 138.353 431.864 138.49C430.874 139.128 430.292 139.503 429.302 140.141C429.089 140.278 428.875 140.416 428.662 140.554C428.449 140.691 428.235 140.829 428.022 140.966C427.94 141.019 426.822 141.739 426.741 141.792C426.528 141.929 426.314 142.067 426.101 142.204C425.887 142.342 425.674 142.479 425.46 142.617C425.247 142.755 425.033 142.892 424.82 143.03C424.607 143.167 424.393 143.305 424.18 143.442C423.569 143.836 423.51 143.874 422.899 144.268C422.686 144.405 422.472 144.543 422.259 144.68C422.045 144.818 421.832 144.956 421.618 145.093C421.405 145.231 421.191 145.368 420.978 145.506C420.765 145.643 420.551 145.781 420.338 145.919C419.406 146.519 419.989 146.143 419.057 146.744C418.844 146.881 418.63 147.019 418.417 147.157C418.203 147.294 417.99 147.432 417.776 147.569C417.563 147.707 417.349 147.844 417.136 147.982C416.923 148.12 416.709 148.257 416.496 148.395C416.282 148.532 416.069 148.67 415.855 148.807C415.642 148.945 415.428 149.082 415.215 149.22C414.685 149.562 414.465 149.704 413.934 150.045C412.636 150.882 412.671 150.86 411.373 151.696C410.103 152.514 411.362 151.703 410.092 152.522C409.879 152.659 409.666 152.797 409.452 152.934C409.239 153.072 409.025 153.209 408.812 153.347C408.598 153.484 408.385 153.622 408.171 153.76C407.958 153.897 407.745 154.035 407.531 154.172C407.318 154.31 407.104 154.447 406.891 154.585C406.677 154.723 406.464 154.86 406.25 154.998C406.037 155.135 405.824 155.273 405.61 155.41C405.397 155.548 405.183 155.685 404.97 155.823C404.756 155.961 404.543 156.098 404.329 156.236C404.116 156.373 403.903 156.511 403.689 156.648C402.991 157.099 403.107 157.024 402.408 157.474C401.92 157.788 401.616 157.985 401.128 158.299C400.914 158.437 400.701 158.574 400.487 158.712C400.274 158.849 400.061 158.987 399.847 159.125C399.634 159.262 399.42 159.4 399.207 159.537C398.993 159.675 398.78 159.812 398.566 159.95C398.194 160.19 396.378 161.36 396.005 161.601C395.353 162.021 395.377 162.006 394.724 162.426C394.412 162.627 393.756 163.05 393.444 163.251C393.23 163.389 393.017 163.527 392.803 163.664C392.59 163.802 392.377 163.939 392.163 164.077C391.95 164.214 391.736 164.352 391.523 164.489C391.309 164.627 391.096 164.765 390.882 164.902C388.559 166.399 388.083 166.707 385.76 168.204C385.546 168.341 385.333 168.479 385.119 168.616C384.906 168.754 384.693 168.892 384.479 169.029C384.44 169.054 383.237 169.829 383.198 169.854C382.134 170.54 382.982 169.994 381.918 170.68C381.704 170.817 381.491 170.955 381.277 171.093C381.064 171.23 380.851 171.368 380.637 171.505C379.096 172.498 379.617 172.163 378.076 173.156C377.862 173.294 377.649 173.431 377.435 173.569C377.222 173.706 377.009 173.844 376.795 173.981C376.582 174.119 376.368 174.256 376.155 174.394C375.941 174.532 375.728 174.669 375.514 174.807C375.301 174.944 375.088 175.082 374.874 175.219C374.661 175.357 374.447 175.495 374.234 175.632C373.698 175.977 373.489 176.112 372.953 176.457C372.74 176.595 372.526 176.733 372.313 176.87C372.099 177.008 371.886 177.145 371.672 177.283C371.459 177.42 371.246 177.558 371.032 177.696C370.819 177.833 370.605 177.971 370.392 178.108C370.178 178.246 369.965 178.383 369.751 178.521C369.538 178.658 369.325 178.796 369.111 178.934C368.898 179.071 368.684 179.209 368.471 179.346C368.257 179.484 368.044 179.621 367.83 179.759C367.749 179.812 366.631 180.532 366.55 180.584C365.712 181.124 366.107 180.87 365.269 181.41C363.517 182.539 361.899 183.582 360.147 184.711C359.061 185.411 356.109 187.313 355.024 188.013C354.81 188.15 354.597 188.288 354.384 188.425C354.17 188.563 353.957 188.701 353.743 188.838C353.53 188.976 353.316 189.113 353.103 189.251C352.889 189.388 352.676 189.526 352.463 189.663C351.385 190.358 352.26 189.794 351.182 190.489C350.613 190.855 350.47 190.948 349.901 191.314C348.953 191.925 349.569 191.528 348.621 192.14C348.407 192.277 348.194 192.415 347.98 192.552C347.767 192.69 347.553 192.827 347.34 192.965C346.487 193.515 346.912 193.241 346.059 193.79C345.195 194.347 345.642 194.059 344.779 194.616C344.723 194.652 342.273 196.231 342.217 196.266C342.004 196.404 341.79 196.542 341.577 196.679C341.363 196.817 341.15 196.954 340.937 197.092C340.648 197.278 339.945 197.731 339.656 197.917C339.361 198.108 338.671 198.552 338.375 198.743C337.859 199.075 337.611 199.235 337.095 199.568C336.881 199.706 336.668 199.843 336.454 199.981C336.241 200.118 336.027 200.256 335.814 200.393C335.6 200.531 335.387 200.668 335.174 200.806C334.96 200.944 334.747 201.081 334.533 201.219C332.764 202.359 333.742 201.729 331.972 202.869C330.171 204.03 331.212 203.36 329.411 204.52C329.197 204.658 328.984 204.795 328.77 204.933C328.557 205.07 328.343 205.208 328.13 205.346C327.916 205.483 327.703 205.621 327.49 205.758C327.276 205.896 327.063 206.033 326.849 206.171C326.504 206.394 325.914 206.774 325.569 206.996C325.355 207.134 325.142 207.271 324.928 207.409C324.715 207.547 324.501 207.684 324.288 207.822C323.517 208.319 323.778 208.15 323.007 208.647C322.84 208.755 321.894 209.365 321.727 209.472C320.768 210.09 320.123 210.506 319.165 211.123C318.952 211.261 318.738 211.398 318.525 211.536C318.312 211.674 318.098 211.811 317.885 211.949C317.671 212.086 317.458 212.224 317.244 212.361C317.031 212.499 316.817 212.636 316.604 212.774C316.391 212.912 316.177 213.049 315.964 213.187C315.75 213.324 315.537 213.462 315.323 213.599C315.11 213.737 314.896 213.875 314.683 214.012C314.47 214.15 314.256 214.287 314.043 214.425C312.834 215.203 313.97 214.471 312.762 215.25C312.549 215.388 312.335 215.525 312.122 215.663C311.908 215.8 311.695 215.938 311.481 216.076C311.268 216.213 311.054 216.351 310.841 216.488C310.628 216.626 310.414 216.763 310.201 216.901C309.987 217.038 309.774 217.176 309.56 217.314C309.347 217.451 309.133 217.589 308.92 217.726C308.707 217.864 308.493 218.001 308.28 218.139C308.066 218.277 307.853 218.414 307.639 218.552C307.426 218.689 307.212 218.827 306.999 218.964C306.786 219.102 306.572 219.239 306.359 219.377C306.145 219.515 305.932 219.652 305.718 219.79C305.505 219.927 305.291 220.065 305.078 220.202C304.235 220.746 304.64 220.485 303.797 221.028C301.439 222.548 301.033 222.809 298.675 224.329C298.461 224.467 298.248 224.604 298.034 224.742C297.821 224.88 297.607 225.017 297.394 225.155C297.054 225.373 296.453 225.761 296.113 225.98C295.778 226.196 293.887 227.415 293.552 227.631C291.846 228.73 292.696 228.182 290.991 229.282C290.777 229.419 290.564 229.557 290.35 229.694C290.137 229.832 289.923 229.969 289.71 230.107C289.283 230.382 288.856 230.657 288.429 230.932C288.216 231.07 288.002 231.207 287.789 231.345C287.576 231.483 287.362 231.62 287.149 231.758C286.935 231.895 286.722 232.033 286.508 232.17C286.295 232.308 286.081 232.445 285.868 232.583C285.655 232.721 285.441 232.858 285.228 232.996C285.014 233.133 284.801 233.271 284.587 233.408C284.374 233.546 284.16 233.684 283.947 233.821C283.734 233.959 283.52 234.096 283.307 234.234C281.956 235.104 283.376 234.189 282.026 235.059C281.813 235.197 281.599 235.334 281.386 235.472C281.172 235.609 280.959 235.747 280.745 235.885C279.262 236.84 280.948 235.754 279.465 236.71C279.251 236.847 279.038 236.985 278.824 237.123C278.611 237.26 278.397 237.398 278.184 237.535C276.994 238.302 276.813 238.419 275.623 239.186C274.71 239.774 273.974 240.249 273.061 240.837C271.451 241.874 272.11 241.45 270.5 242.488C270.287 242.625 270.073 242.763 269.86 242.9C269.646 243.038 269.433 243.175 269.219 243.313C268.395 243.844 268.763 243.607 267.939 244.138C267.65 244.325 265.667 245.603 265.377 245.789C264.413 246.411 265.061 245.993 264.097 246.614C263.374 247.08 263.539 246.974 262.816 247.44C262.603 247.577 262.389 247.715 262.176 247.852C261.962 247.99 261.749 248.128 261.535 248.265C261.322 248.403 261.109 248.54 260.895 248.678C260.682 248.815 260.468 248.953 260.255 249.091C258.812 250.02 260.416 248.986 258.974 249.916C258.761 250.053 258.547 250.191 258.334 250.329C258.12 250.466 257.907 250.604 257.693 250.741C256.866 251.275 255.96 251.859 255.132 252.392C254.919 252.53 254.705 252.667 254.492 252.805C254.278 252.942 254.065 253.08 253.851 253.217C253.638 253.355 253.425 253.493 253.211 253.63C252.998 253.768 252.784 253.905 252.571 254.043C251.03 255.036 248.988 256.352 247.448 257.344C240.141 262.054 234.264 265.841 226.958 270.55C226.518 270.834 226.116 271.092 225.677 271.376C225.644 271.397 224.429 272.18 224.396 272.201C223.507 272.774 224.004 272.454 223.116 273.026C222.902 273.164 222.689 273.302 222.475 273.439C222.262 273.577 222.048 273.714 221.835 273.852C219.954 275.064 218.593 275.941 216.712 277.153C215.953 277.643 216.191 277.489 215.432 277.979C214.25 278.74 215.332 278.043 214.151 278.804C213.937 278.942 213.724 279.079 213.511 279.217C213.297 279.354 213.084 279.492 212.87 279.629C212.657 279.767 212.443 279.905 212.23 280.042C212.016 280.18 211.803 280.317 211.59 280.455C211.494 280.516 209.124 282.044 209.028 282.106C207.893 282.837 207.602 283.024 206.467 283.756L223.802 310.654ZM542.072 251.237C582.712 225.044 619.236 197.492 660.727 179.407L647.94 150.073C603.289 169.536 562.726 199.855 524.736 224.339L542.072 251.237ZM280.862 1269.57C321.152 1297.08 367.464 1318.19 408.005 1340.05L423.191 1311.88C379.967 1288.58 337.38 1269.41 298.908 1243.14L280.862 1269.57ZM1391.34 843.192C1394.67 891.687 1401.44 937.204 1397.35 982.448L1429.22 985.33C1433.62 936.704 1426.37 886.13 1423.26 840.997L1391.34 843.192ZM1162.75 578.1L541.327 223.887L525.481 251.688L1146.9 605.901L1162.75 578.1ZM904.064 1043.55L1168.56 600.198L1141.08 583.803L876.583 1027.16L904.064 1043.55ZM500.442 830.957L748.192 1263.23L775.955 1247.31L528.205 815.044L500.442 830.957ZM770.599 1268.81C986.805 1132.67 1201.23 993.689 1415.96 855.55L1398.64 828.638C1183.8 966.857 969.581 1105.7 753.548 1241.73L770.599 1268.81ZM382.823 592C382.823 608 382.824 608 382.827 608C382.829 608 382.833 608 382.838 608C382.847 608 382.862 608 382.881 608C382.919 608 382.977 608 383.054 608C383.207 608 383.436 608 383.739 608C384.345 608 385.249 608 386.436 608C388.811 608 392.324 608 396.874 608C405.974 608 419.222 608 435.818 608C469.01 608 515.59 608 569.143 608C676.25 608 811.25 608 922.823 608L922.823 576C811.25 576 676.25 576 569.143 576C515.59 576 469.01 576 435.818 576C419.222 576 405.974 576 396.874 576C392.324 576 388.811 576 386.436 576C385.248 576 384.345 576 383.739 576C383.436 576 383.207 576 383.054 576C382.977 576 382.92 576 382.881 576C382.862 576 382.847 576 382.838 576C382.833 576 382.829 576 382.827 576C382.824 576 382.823 576 382.823 592ZM772.925 1031.32L967.285 702.027L939.727 685.762L745.367 1015.06L772.925 1031.32ZM572.214 709.895L953.506 709.894L953.506 677.894L572.214 677.895L572.214 709.895ZM773.06 1015.29L586.128 685.996L558.299 701.793L745.232 1031.09L773.06 1015.29Z" fill="#5E50B2"/>
<defs>
<radialGradient id="paint0_radial_55103_8073" cx="0" cy="0" r="1" gradientUnits="userSpaceOnUse" gradientTransform="translate(776.413 808.095) rotate(90) scale(791.902 760.413)">
<stop offset="0.503264" stop-color="#5E50B2"/>
<stop offset="1" stop-color="#5E50B2" stop-opacity="0"/>
</radialGradient>
</defs>
</svg>
