<svg width="1369" height="1463" viewBox="0 0 1369 1463" fill="none" xmlns="http://www.w3.org/2000/svg">
<path fill-rule="evenodd" clip-rule="evenodd" d="M874.272 50.8428C756.81 -16.9502 612.135 -16.9474 494.676 50.8501L190.026 226.694C72.4421 294.564 0 420.057 0 555.872V907.129C0 1042.94 72.4421 1168.44 190.026 1236.31L494.676 1412.15C612.135 1479.95 756.81 1479.95 874.272 1412.16L1178.96 1236.31C1296.55 1168.44 1369 1042.94 1369 907.121V555.879C1369 420.059 1296.55 294.562 1178.96 226.695L874.272 50.8428ZM1051.46 537.402L465.038 198.934L553.039 148.14C634.209 101.288 734.187 101.287 815.359 148.135L1121.19 324.648C1204.27 372.594 1255.45 461.251 1255.45 557.196C1255.45 653.144 1204.27 741.803 1121.19 789.748L798 976.263L1051.46 537.402ZM415.449 707.924L668.956 1146.94L1255.45 808.473V909.664C1255.45 1003.58 1205.35 1090.36 1124.04 1137.29L818.586 1313.58C735.417 1361.58 632.979 1361.58 549.812 1313.57C466.518 1265.5 415.223 1176.58 415.269 1080.38L415.449 707.924ZM839.01 510.991H332.268L331.941 1187.82L244.187 1137.17C163.009 1090.31 113 1003.67 113 909.917V557.398C113 461.327 164.244 372.553 247.425 324.54C330.52 276.578 432.87 276.577 515.966 324.538L839.01 510.991ZM684.196 1006.77L446.04 594.333H922.393L684.196 1006.77Z" fill="url(#paint0_linear_55117_8137)"/>
<defs>
<linearGradient id="paint0_linear_55117_8137" x1="1369" y1="731" x2="-1946.79" y2="-173.497" gradientUnits="userSpaceOnUse">
<stop stop-color="#5B4EA7"/>
<stop offset="1" stop-color="#48FFC0"/>
</linearGradient>
</defs>
</svg>
