<svg width="1530" height="1592" viewBox="0 0 1530 1592" fill="none" xmlns="http://www.w3.org/2000/svg">
<g filter="url(#filter0_d_55105_8077)">
<path fill-rule="evenodd" clip-rule="evenodd" d="M531.161 69.7156C662.852 -15.158 830.813 -23.7449 968.715 50.6029L1282.61 219.837C1408.2 287.543 1489.76 414.098 1499.55 556.432C1507.7 675.023 1515.86 793.614 1524.01 912.205C1534.76 1068.5 1457.56 1217.92 1325.87 1302.79L998.018 1514.09C866.327 1598.96 698.366 1607.55 560.464 1533.2C455.831 1476.79 351.198 1420.38 246.565 1363.97C120.984 1296.26 39.4202 1169.71 29.633 1027.37L5.16958 671.599C-5.57769 515.301 71.6207 365.885 203.311 281.012C312.595 210.58 421.878 140.148 531.161 69.7156ZM403.775 1309.77C361.893 1287.19 317.443 1267.05 278.062 1240.16C204.612 1190 157.856 1109.16 151.667 1019.16L127.204 663.388C119.603 552.844 174.285 445.423 269.658 383.956C349.103 332.755 450.015 329.299 531.572 374.988L911 575.807C687.853 575.807 371 575.807 371 575.807L403.775 1309.77ZM878.5 1019.16L1285.31 746.974C1347.12 707.168 1382.5 637.203 1377.51 564.643C1370.61 464.288 1313.27 375.319 1224.73 327.582L910.829 158.348C828.104 113.748 728.916 110.882 642.51 148.546C599.439 167.321 560.896 196.256 521.581 221.594L1143 575.807L878.5 1019.16ZM1401.46 967.696C1393.04 1060.85 1341.21 1147.2 1259.52 1199.85L931.671 1411.14C836.298 1472.61 715.883 1478.04 618.35 1425.46C566.745 1397.63 533.926 1344.77 531.87 1286.15L502.5 806.807L750.25 1239.08C966.37 1102.99 1180.69 964.079 1395.48 825.901C1398.7 872.715 1405.71 920.76 1401.46 967.696ZM747.323 1007L941.683 677.701L560.391 677.701L747.323 1007Z" fill="white"/>
</g>
<defs>
<filter id="filter0_d_55105_8077" x="0.176758" y="0" width="1528.83" height="1591.8" filterUnits="userSpaceOnUse" color-interpolation-filters="sRGB">
<feFlood flood-opacity="0" result="BackgroundImageFix"/>
<feColorMatrix in="SourceAlpha" type="matrix" values="0 0 0 0 0 0 0 0 0 0 0 0 0 0 0 0 0 0 127 0" result="hardAlpha"/>
<feOffset dy="4"/>
<feGaussianBlur stdDeviation="2"/>
<feComposite in2="hardAlpha" operator="out"/>
<feColorMatrix type="matrix" values="0 0 0 0 0 0 0 0 0 0 0 0 0 0 0 0 0 0 0.25 0"/>
<feBlend mode="normal" in2="BackgroundImageFix" result="effect1_dropShadow_55105_8077"/>
<feBlend mode="normal" in="SourceGraphic" in2="effect1_dropShadow_55105_8077" result="shape"/>
</filter>
</defs>
</svg>
