<svg width="1794" height="1794" viewBox="0 0 1794 1794" fill="none" xmlns="http://www.w3.org/2000/svg">
<rect width="1794" height="1794" rx="897" fill="url(#paint0_linear_55181_8066)"/>
<path fill-rule="evenodd" clip-rule="evenodd" d="M1312.31 677.803L649.122 295.152L748.643 237.727C840.439 184.76 953.505 184.758 1045.3 237.721L1391.17 437.276C1485.12 491.481 1543 591.711 1543 700.181C1543 808.655 1485.12 908.887 1391.17 963.091L1025.67 1173.95L1312.31 677.803ZM593.042 870.585L879.734 1366.91L1543 984.26V1098.66C1543 1204.83 1486.35 1302.94 1394.39 1356L1048.95 1555.3C954.896 1609.57 839.048 1609.57 744.994 1555.3C650.795 1500.94 592.786 1400.42 592.838 1291.66L593.042 870.585ZM1072.05 647.944H498.971L498.601 1413.12L399.36 1355.86C307.556 1302.89 251 1204.94 251 1098.95V700.41C251 591.797 308.952 491.435 403.022 437.155C496.995 382.931 612.743 382.93 706.717 437.152L1072.05 647.944ZM896.969 1208.44L627.637 742.166H1166.35L896.969 1208.44Z" fill="#FCFCFF"/>
<defs>
<linearGradient id="paint0_linear_55181_8066" x1="1794" y1="896.386" x2="-2508.83" y2="-357.954" gradientUnits="userSpaceOnUse">
<stop stop-color="#5B4EA7"/>
<stop offset="1" stop-color="#48FFC0"/>
</linearGradient>
</defs>
</svg>
