<svg width="1522" height="1584" viewBox="0 0 1522 1584" fill="none" xmlns="http://www.w3.org/2000/svg">
<path fill-rule="evenodd" clip-rule="evenodd" d="M527.161 69.9089C658.852 -14.9646 826.813 -23.5515 964.715 50.7963L1278.61 220.031C1404.2 287.736 1485.76 414.291 1495.55 556.625C1503.7 675.216 1511.86 793.807 1520.01 912.398C1530.76 1068.7 1453.56 1218.11 1321.87 1302.99L994.018 1514.28C862.327 1599.16 694.366 1607.74 556.464 1533.39C451.831 1476.98 347.198 1420.57 242.565 1364.16C116.984 1296.45 35.4202 1169.9 25.633 1027.57L1.16954 671.793C-9.57773 515.495 67.6207 366.079 199.311 281.205C308.595 210.773 417.878 140.341 527.161 69.9089ZM399.774 1309.96C357.893 1287.38 313.443 1267.25 274.062 1240.36C200.612 1190.2 153.855 1109.36 147.667 1019.35L123.204 663.581C115.602 553.037 170.285 445.617 265.658 384.15C345.103 332.948 446.015 329.493 527.572 375.181L907 576C683.853 576 367 576 367 576L399.774 1309.96ZM874.5 1019.35L1281.31 747.167C1343.12 707.361 1378.5 637.396 1373.51 564.837C1366.61 464.481 1309.27 375.513 1220.73 327.776L906.829 158.541C824.104 113.941 724.916 111.075 638.51 148.74C595.439 167.514 556.896 196.449 517.581 221.788L1139 576L874.5 1019.35ZM1397.46 967.889C1389.04 1061.04 1337.21 1147.4 1255.52 1200.04L927.671 1411.34C832.298 1472.8 711.883 1478.23 614.35 1425.65C562.745 1397.83 529.926 1344.96 527.87 1286.35L498.5 807L746.25 1239.27C962.37 1103.18 1176.69 964.273 1391.48 826.094C1394.7 872.908 1401.71 920.954 1397.46 967.889ZM743.323 1007.19L937.683 677.894L556.39 677.895L743.323 1007.19Z" fill="#5E50B2"/>
</svg>
