<svg width="1700" height="1700" viewBox="0 0 1700 1700" fill="none" xmlns="http://www.w3.org/2000/svg">
<path fill-rule="evenodd" clip-rule="evenodd" d="M597.336 97.456C739.736 5.68059 921.702 -3.83315 1071.48 76.9153L1385.38 246.15C1521.83 319.718 1610.5 457.303 1621.14 611.962L1645.6 967.735C1657.27 1137.49 1573.45 1299.28 1431.05 1391.05L1103.2 1602.35C960.797 1694.12 778.83 1703.64 629.057 1622.89L315.158 1453.66C178.702 1380.09 90.0293 1242.5 79.3946 1087.84L54.9311 732.069C43.2587 562.316 127.086 400.528 269.486 308.752L597.336 97.456ZM626.915 158.894C752.921 77.6846 913.631 69.4684 1045.58 140.607L1345.93 302.535C1466.09 367.317 1544.13 488.409 1553.49 624.598L1576.9 965.011C1587.18 1114.56 1513.32 1257.53 1387.31 1338.74L1073.62 1540.91C947.612 1622.12 786.902 1630.34 654.953 1559.2L354.606 1397.27C234.446 1332.49 156.404 1211.4 147.039 1075.21L123.632 734.794C113.348 585.243 187.214 442.278 313.219 361.068L626.915 158.894Z" fill="#6662B7"/>
<path fill-rule="evenodd" clip-rule="evenodd" d="M616.838 127.716C748.529 42.842 916.49 34.2551 1054.39 108.603L1368.29 277.837C1493.87 345.543 1575.44 472.098 1585.22 614.432C1593.38 733.023 1601.53 851.614 1609.69 970.205C1620.43 1126.5 1543.24 1275.92 1411.54 1360.79L1083.69 1572.09C952.004 1656.96 784.043 1665.55 646.141 1591.2C541.508 1534.79 436.875 1478.38 332.242 1421.97C206.661 1354.26 125.097 1227.71 115.31 1085.37L90.8463 729.599C80.099 573.301 157.297 423.885 288.988 339.012C398.271 268.58 507.555 198.148 616.838 127.716ZM489.451 1367.77C447.569 1345.19 403.12 1325.05 363.738 1298.16C290.288 1248 243.532 1167.16 237.344 1077.16L212.88 721.388C205.279 610.844 259.962 503.423 355.335 441.956C434.78 390.755 535.691 387.299 617.248 432.988L996.677 633.807C773.529 633.807 456.677 633.807 456.677 633.807L489.451 1367.77ZM964.177 1077.16L1370.99 804.974C1432.8 765.168 1468.18 695.203 1463.19 622.643C1456.29 522.288 1398.95 433.319 1310.41 385.582L996.506 216.348C913.78 171.748 814.593 168.882 728.187 206.546C685.116 225.321 646.573 254.256 607.258 279.594L1228.68 633.807L964.177 1077.16ZM1487.14 1025.7C1478.72 1118.85 1426.88 1205.2 1345.2 1257.85L1017.35 1469.14C921.975 1530.61 801.56 1536.04 704.027 1483.46C652.421 1455.63 619.603 1402.77 617.547 1344.15L588.177 864.807L835.927 1297.08C1052.05 1160.99 1266.37 1022.08 1481.15 883.901C1484.37 930.715 1491.38 978.76 1487.14 1025.7ZM832.999 1065L1027.36 735.702L646.067 735.702L832.999 1065Z" fill="url(#paint0_linear_55113_8089)"/>
<defs>
<linearGradient id="paint0_linear_55113_8089" x1="2169.35" y1="1100" x2="-1718.15" y2="-2288.19" gradientUnits="userSpaceOnUse">
<stop offset="0.126874" stop-color="#5E50B2"/>
<stop offset="0.82217" stop-color="#A8FFE5"/>
</linearGradient>
</defs>
</svg>
