<svg width="497" height="155" viewBox="0 0 497 155" fill="none" xmlns="http://www.w3.org/2000/svg">
<rect width="497" height="35" rx="17.5" fill="#362C6B"/>
<rect y="60" width="252" height="35" rx="17.5" fill="#6C5FAD" fill-opacity="0.5"/>
<rect y="120" width="131" height="35" rx="17.5" fill="#7E6ED2" fill-opacity="0.2"/>
<path fill-rule="evenodd" clip-rule="evenodd" d="M486.5 134C480.701 134 476 138.701 476 144.5C476 146.978 476.859 149.256 478.295 151.052C479.366 149.724 481.007 148.875 482.846 148.875H490.154C491.993 148.875 493.634 149.724 494.705 151.052C496.141 149.256 497 146.978 497 144.5C497 138.701 492.299 134 486.5 134ZM486.5 137C483.876 137 481.75 139.126 481.75 141.75C481.75 144.374 483.876 146.5 486.5 146.5C489.124 146.5 491.25 144.374 491.25 141.75C491.25 139.126 489.124 137 486.5 137Z" fill="#E5E2F6"/>
<path fill-rule="evenodd" clip-rule="evenodd" d="M439 144.5C439 138.701 443.701 134 449.5 134C455.299 134 460 138.701 460 144.5C460 146.978 459.141 149.256 457.705 151.052C456.634 149.724 454.993 148.875 453.154 148.875H445.846C444.007 148.875 442.366 149.724 441.295 151.052C439.859 149.256 439 146.978 439 144.5ZM449.5 137C446.876 137 444.75 139.126 444.75 141.75C444.75 144.374 446.876 146.5 449.5 146.5C452.124 146.5 454.25 144.374 454.25 141.75C454.25 139.126 452.124 137 449.5 137Z" fill="#9B95BD"/>
<path fill-rule="evenodd" clip-rule="evenodd" d="M402 144.5C402 138.701 406.701 134 412.5 134C418.299 134 423 138.701 423 144.5C423 146.978 422.141 149.256 420.705 151.052C419.634 149.724 417.993 148.875 416.154 148.875H408.846C407.007 148.875 405.366 149.724 404.295 151.052C402.859 149.256 402 146.978 402 144.5ZM412.5 137C409.876 137 407.75 139.126 407.75 141.75C407.75 144.374 409.876 146.5 412.5 146.5C415.124 146.5 417.25 144.374 417.25 141.75C417.25 139.126 415.124 137 412.5 137Z" fill="#362C6B"/>
<path d="M15.052 139.38C13.9453 139.38 13.072 139.013 12.432 138.28C11.792 137.533 11.472 136.44 11.472 135C11.472 133.587 11.792 132.513 12.432 131.78C13.072 131.047 13.9453 130.68 15.052 130.68C16.1586 130.68 17.032 131.053 17.672 131.8C18.312 132.533 18.632 133.607 18.632 135.02C18.632 136.447 18.312 137.533 17.672 138.28C17.032 139.013 16.1586 139.38 15.052 139.38ZM15.052 137.16C15.2653 137.16 15.4253 137.007 15.532 136.7C15.6386 136.38 15.692 135.82 15.692 135.02C15.692 134.233 15.632 133.687 15.512 133.38C15.4053 133.06 15.252 132.9 15.052 132.9C14.8386 132.9 14.672 133.06 14.552 133.38C14.4453 133.687 14.392 134.233 14.392 135.02C14.392 135.82 14.4453 136.38 14.552 136.7C14.672 137.007 14.8386 137.16 15.052 137.16ZM14.612 145L22.892 130.76H26.392L18.112 145H14.612ZM25.952 145.08C24.8453 145.08 23.972 144.713 23.332 143.98C22.692 143.233 22.372 142.14 22.372 140.7C22.372 139.287 22.692 138.213 23.332 137.48C23.972 136.747 24.8453 136.38 25.952 136.38C27.0586 136.38 27.932 136.753 28.572 137.5C29.212 138.233 29.532 139.307 29.532 140.72C29.532 142.147 29.212 143.233 28.572 143.98C27.932 144.713 27.0586 145.08 25.952 145.08ZM25.952 142.86C26.1653 142.86 26.3253 142.707 26.432 142.4C26.5386 142.08 26.592 141.52 26.592 140.72C26.592 139.933 26.532 139.387 26.412 139.08C26.3053 138.76 26.152 138.6 25.952 138.6C25.7386 138.6 25.572 138.76 25.452 139.08C25.3453 139.387 25.292 139.933 25.292 140.72C25.292 141.52 25.3453 142.08 25.452 142.4C25.572 142.707 25.7386 142.86 25.952 142.86Z" fill="white"/>
<path d="M15.052 79.38C13.9453 79.38 13.072 79.0133 12.432 78.28C11.792 77.5333 11.472 76.44 11.472 75C11.472 73.5867 11.792 72.5133 12.432 71.78C13.072 71.0467 13.9453 70.68 15.052 70.68C16.1586 70.68 17.032 71.0533 17.672 71.8C18.312 72.5333 18.632 73.6067 18.632 75.02C18.632 76.4467 18.312 77.5333 17.672 78.28C17.032 79.0133 16.1586 79.38 15.052 79.38ZM15.052 77.16C15.2653 77.16 15.4253 77.0067 15.532 76.7C15.6386 76.38 15.692 75.82 15.692 75.02C15.692 74.2333 15.632 73.6867 15.512 73.38C15.4053 73.06 15.252 72.9 15.052 72.9C14.8386 72.9 14.672 73.06 14.552 73.38C14.4453 73.6867 14.392 74.2333 14.392 75.02C14.392 75.82 14.4453 76.38 14.552 76.7C14.672 77.0067 14.8386 77.16 15.052 77.16ZM14.612 85L22.892 70.76H26.392L18.112 85H14.612ZM25.952 85.08C24.8453 85.08 23.972 84.7133 23.332 83.98C22.692 83.2333 22.372 82.14 22.372 80.7C22.372 79.2867 22.692 78.2133 23.332 77.48C23.972 76.7467 24.8453 76.38 25.952 76.38C27.0586 76.38 27.932 76.7533 28.572 77.5C29.212 78.2333 29.532 79.3067 29.532 80.72C29.532 82.1467 29.212 83.2333 28.572 83.98C27.932 84.7133 27.0586 85.08 25.952 85.08ZM25.952 82.86C26.1653 82.86 26.3253 82.7067 26.432 82.4C26.5386 82.08 26.592 81.52 26.592 80.72C26.592 79.9333 26.532 79.3867 26.412 79.08C26.3053 78.76 26.152 78.6 25.952 78.6C25.7386 78.6 25.572 78.76 25.452 79.08C25.3453 79.3867 25.292 79.9333 25.292 80.72C25.292 81.52 25.3453 82.08 25.452 82.4C25.572 82.7067 25.7386 82.86 25.952 82.86Z" fill="white"/>
<path d="M15.052 19.38C13.9453 19.38 13.072 19.0133 12.432 18.28C11.792 17.5333 11.472 16.44 11.472 15C11.472 13.5867 11.792 12.5133 12.432 11.78C13.072 11.0467 13.9453 10.68 15.052 10.68C16.1586 10.68 17.032 11.0533 17.672 11.8C18.312 12.5333 18.632 13.6067 18.632 15.02C18.632 16.4467 18.312 17.5333 17.672 18.28C17.032 19.0133 16.1586 19.38 15.052 19.38ZM15.052 17.16C15.2653 17.16 15.4253 17.0067 15.532 16.7C15.6386 16.38 15.692 15.82 15.692 15.02C15.692 14.2333 15.632 13.6867 15.512 13.38C15.4053 13.06 15.252 12.9 15.052 12.9C14.8386 12.9 14.672 13.06 14.552 13.38C14.4453 13.6867 14.392 14.2333 14.392 15.02C14.392 15.82 14.4453 16.38 14.552 16.7C14.672 17.0067 14.8386 17.16 15.052 17.16ZM14.612 25L22.892 10.76H26.392L18.112 25H14.612ZM25.952 25.08C24.8453 25.08 23.972 24.7133 23.332 23.98C22.692 23.2333 22.372 22.14 22.372 20.7C22.372 19.2867 22.692 18.2133 23.332 17.48C23.972 16.7467 24.8453 16.38 25.952 16.38C27.0586 16.38 27.932 16.7533 28.572 17.5C29.212 18.2333 29.532 19.3067 29.532 20.72C29.532 22.1467 29.212 23.2333 28.572 23.98C27.932 24.7133 27.0586 25.08 25.952 25.08ZM25.952 22.86C26.1653 22.86 26.3253 22.7067 26.432 22.4C26.5386 22.08 26.592 21.52 26.592 20.72C26.592 19.9333 26.532 19.3867 26.412 19.08C26.3053 18.76 26.152 18.6 25.952 18.6C25.7386 18.6 25.572 18.76 25.452 19.08C25.3453 19.3867 25.292 19.9333 25.292 20.72C25.292 21.52 25.3453 22.08 25.452 22.4C25.572 22.7067 25.7386 22.86 25.952 22.86Z" fill="white"/>
</svg>
