<?xml version="1.0" encoding="UTF-8"?>
<svg id="Layer_2" data-name="Layer 2" xmlns="http://www.w3.org/2000/svg" viewBox="0 0 1389 1483">
  <defs>
    <style>
      .cls-1 {
        fill: #fff;
        fill-rule: evenodd;
        stroke-width: 0px;
      }
    </style>
  </defs>
  <g id="Layer_1-2" data-name="Layer 1">
    <path class="cls-1" d="m889.27,52.18c-120.56-69.58-269.04-69.58-389.59,0L195.03,228.03C74.35,297.69,0,426.49,0,565.87v351.26c0,139.38,74.35,268.18,195.03,337.84l304.65,175.84c120.55,69.58,269.04,69.59,389.59,0l304.69-175.85c120.69-69.66,195.04-198.46,195.04-337.85v-351.24c0-139.39-74.35-268.19-195.04-337.85L889.27,52.18Zm185.85,491.56L495.04,208.93l73-42.13c78.08-45.07,174.24-45.07,252.32,0l305.84,176.51c79.97,46.16,129.25,131.51,129.25,223.89s-49.28,177.73-129.26,223.89l-290.87,167.86,239.8-415.21Zm-639.69,211.47l239.87,415.39,580.15-334.81v83.87c0,90.35-48.19,173.82-126.41,218.96l-305.45,176.3c-80.07,46.21-178.7,46.21-258.78-.01-80.2-46.29-129.59-131.9-129.54-224.53l.16-335.17Zm376.25-244.22h-479.41l-.32,669.51-72.76-42c-78.08-45.06-126.19-128.4-126.19-218.58v-352.52c0-92.5,49.34-177.97,129.42-224.2,80-46.18,178.54-46.18,258.54,0l290.71,167.79Zm-117.48,485.78l-220.84-382.44h441.71l-220.87,382.44Z"/>
  </g>
</svg>