<svg width="32" height="32" viewBox="0 0 32 32" fill="none" xmlns="http://www.w3.org/2000/svg">
<path d="M19.9689 27.1451L19.9707 27.1435L25.5593 22.3996C26.7904 21.3546 27.5 19.8214 27.5 18.2066V11.0106C27.5 8.98471 26.3863 7.12282 24.6013 6.16465L18.6013 2.9439C16.9767 2.07185 15.0233 2.07185 13.3987 2.9439L7.39873 6.16465C5.61373 7.12282 4.5 8.98471 4.5 11.0106V18.1563C4.5 19.8107 5.24475 21.3773 6.52782 22.4217L8.04632 23.6578L10.633 25.8134L10.7002 26.1496C11.0058 27.6776 12.0725 28.9427 13.5269 29.5021C15.077 30.0983 16.8289 29.802 18.0968 28.7292L19.9689 27.1451Z" stroke="#B8B2DD" stroke-opacity="0.17" stroke-width="3"/>
<path d="M19.9689 27.1451L19.9707 27.1435L25.5593 22.3996C26.7904 21.3546 27.5 19.8214 27.5 18.2066V11.0106C27.5 8.98471 26.3863 7.12282 24.6013 6.16465L18.6013 2.9439C16.9767 2.07185 15.0233 2.07185 13.3987 2.9439L7.39873 6.16465C5.61373 7.12282 4.5 8.98471 4.5 11.0106V18.1563C4.5 19.8107 5.24475 21.3773 6.52782 22.4217L8.04632 23.6578L10.633 25.8134L10.7002 26.1496C11.0058 27.6776 12.0725 28.9427 13.5269 29.5021C15.077 30.0983 16.8289 29.802 18.0968 28.7292L19.9689 27.1451Z" stroke="#B8B2DD" stroke-opacity="0.17" stroke-width="3"/>
<path d="M19.5168 26.6107L19.5177 26.6099L25.1063 21.8659C26.1807 20.9539 26.8 19.6158 26.8 18.2066V11.0106C26.8 9.24255 25.828 7.61763 24.2702 6.78141L18.2702 3.56066C16.8524 2.7996 15.1476 2.7996 13.7298 3.56066L7.7298 6.78141C6.17198 7.61763 5.2 9.24255 5.2 11.0106V18.1563C5.2 19.6002 5.84996 20.9673 6.96974 21.8789L8.49145 23.1176L11.2304 25.4C11.2566 25.4219 11.2746 25.452 11.2813 25.4855L11.3866 26.0123C11.6452 27.3051 12.5477 28.3755 13.7782 28.8487C15.0897 29.3532 16.5719 29.1025 17.6446 28.1948L19.5168 26.6107Z" fill="white" stroke="#6A5DB8" stroke-width="1.6"/>
<path d="M19.5168 26.6107L19.5177 26.6099L25.1063 21.8659C26.1807 20.9539 26.8 19.6158 26.8 18.2066V11.0106C26.8 9.24255 25.828 7.61763 24.2702 6.78141L18.2702 3.56066C16.8524 2.7996 15.1476 2.7996 13.7298 3.56066L7.7298 6.78141C6.17198 7.61763 5.2 9.24255 5.2 11.0106V18.1563C5.2 19.6002 5.84996 20.9673 6.96974 21.8789L8.49145 23.1176L11.2304 25.4C11.2566 25.4219 11.2746 25.452 11.2813 25.4855L11.3866 26.0123C11.6452 27.3051 12.5477 28.3755 13.7782 28.8487C15.0897 29.3532 16.5719 29.1025 17.6446 28.1948L19.5168 26.6107Z" fill="white" stroke="#6A5DB8" stroke-width="1.6"/>
<path fill-rule="evenodd" clip-rule="evenodd" d="M18.9062 11.6723C18.9062 11.2287 18.5184 10.8691 18.04 10.8691H8.8685C8.39011 10.8691 8.0023 11.2287 8.0023 11.6723C8.0023 12.1159 8.39011 12.4755 8.8685 12.4755H18.04C18.5184 12.4755 18.9062 12.1159 18.9062 11.6723Z" fill="#6A5DB8"/>
<path fill-rule="evenodd" clip-rule="evenodd" d="M24 11.6723C24 11.2287 23.6122 10.8691 23.1338 10.8691H21.0957C20.6173 10.8691 20.2295 11.2287 20.2295 11.6723C20.2295 12.1159 20.6173 12.4755 21.0957 12.4755H23.1338C23.6122 12.4755 24 12.1159 24 11.6723Z" fill="#B8B2DD"/>
<path fill-rule="evenodd" clip-rule="evenodd" d="M13.8086 14.5073C13.8086 14.0637 13.4208 13.7041 12.9424 13.7041H10.9043C10.4259 13.7041 10.0381 14.0637 10.0381 14.5073C10.0381 14.9509 10.4259 15.3105 10.9043 15.3105H12.9424C13.4208 15.3105 13.8086 14.9509 13.8086 14.5073Z" fill="#B8B2DD"/>
<path fill-rule="evenodd" clip-rule="evenodd" d="M21.9648 14.5073C21.9648 14.0637 21.577 13.7041 21.0986 13.7041H16.0033C15.5249 13.7041 15.1371 14.0637 15.1371 14.5073C15.1371 14.9509 15.5249 15.3105 16.0033 15.3105H21.0986C21.577 15.3105 21.9648 14.9509 21.9648 14.5073Z" fill="#6A5DB8"/>
<path fill-rule="evenodd" clip-rule="evenodd" d="M19.9258 17.3432C19.9258 16.8996 19.538 16.54 19.0596 16.54H12.9452C12.4668 16.54 12.079 16.8996 12.079 17.3432C12.079 17.7868 12.4668 18.1464 12.9452 18.1464H19.0596C19.538 18.1464 19.9258 17.7868 19.9258 17.3432Z" fill="#6A5DB8"/>
<path fill-rule="evenodd" clip-rule="evenodd" d="M17.8887 20.1772C17.8887 19.7336 17.5009 19.374 17.0225 19.374H14.9843C14.506 19.374 14.1181 19.7336 14.1181 20.1772C14.1181 20.6208 14.506 20.9804 14.9843 20.9804H17.0225C17.5009 20.9804 17.8887 20.6208 17.8887 20.1772Z" fill="#6EC1AF"/>
</svg>
