<svg width="614" height="641" viewBox="0 0 614 641" fill="none" xmlns="http://www.w3.org/2000/svg">
<path fill-rule="evenodd" clip-rule="evenodd" d="M231.868 88.0793C274.244 60.7678 328.293 58.0046 372.668 81.9291L473.678 136.387C514.089 158.174 540.335 198.898 543.485 244.7C546.109 282.861 548.733 321.023 551.357 359.184C554.815 409.479 529.973 457.56 487.597 484.872L382.098 552.865C339.721 580.176 285.673 582.939 241.297 559.015C207.627 540.862 173.957 522.71 140.287 504.557C99.8765 482.77 73.63 442.046 70.4806 396.244L62.6085 281.76C59.1502 231.465 83.9919 183.384 126.369 156.072C161.535 133.408 196.701 110.744 231.868 88.0793ZM190.876 487.117C177.399 479.851 163.095 473.372 150.423 464.718C126.787 448.578 111.741 422.563 109.75 393.602L101.878 279.117C99.432 243.545 117.028 208.978 147.718 189.199C173.283 172.723 205.755 171.611 232 186.313L368.998 263.06C306.059 259.672 179 253.5 179 253.5L190.876 487.117ZM329.994 399.105L474.545 306.015C494.436 293.205 505.821 270.691 504.215 247.342C501.995 215.049 483.544 186.42 455.051 171.058L354.041 116.6C327.421 102.248 295.503 101.326 267.699 113.446C253.839 119.488 241.436 128.799 228.785 136.952L428.663 251.172L329.994 399.105ZM511.923 377.041C509.212 407.017 492.532 434.805 466.247 451.745L360.748 519.738C330.058 539.518 291.309 541.265 259.924 524.344C243.318 515.391 232.757 498.38 232.096 479.518L225.915 303.272L302.368 464.369C371.914 420.577 440.88 375.877 509.996 331.413C511.032 346.477 513.288 361.937 511.923 377.041ZM301.171 372.139L348.404 300.175L263.958 296.43L301.171 372.139Z" fill="#6A6CBB"/>
<path d="M256 106.5C259.6 104.5 296.167 96.6667 314 93C334.167 97.5 380.1 110.3 402.5 125.5C430.5 144.5 461.5 154 486 169C510.5 184 514.5 223 520.5 247.5C526.5 272 525 314.5 525.5 342.5C526 370.5 524 395.5 520.5 413.5C517 431.5 496 453.5 448 480.5C400 507.5 398 512.5 378.5 528C359 543.5 348.5 546 309 546C277.4 546 249.833 534 240 528C215.333 517.167 163.4 494.1 153 488.5C140 481.5 117.5 464 108.5 453.5C99.5 443 92.5 387.5 92.5 370C92.5 352.5 85.5 304.5 85.5 294C85.5 283.5 92.5 232 92.5 227C92.5 222 113 199.5 123.5 191C131.9 184.2 182.667 150.833 207 135C221.833 126.333 252.4 108.5 256 106.5Z" fill="#6A6CBB"/>
<path fill-rule="evenodd" clip-rule="evenodd" d="M190.876 487.118C177.399 479.852 163.095 473.372 150.423 464.718C126.787 448.578 111.741 422.564 109.75 393.602L101.878 279.118C99.4319 243.546 117.028 208.979 147.718 189.2C173.283 172.724 205.755 171.612 232 186.314L368.998 263.061L179.5 253.781L190.876 487.118ZM329.994 399.106L474.545 306.015C494.436 293.206 505.821 270.692 504.215 247.343C501.995 215.049 483.544 186.42 455.051 171.059L354.041 116.601C327.421 102.249 295.503 101.327 267.699 113.447C253.839 119.488 241.436 128.8 228.785 136.953L428.663 251.173L329.994 399.106ZM511.922 377.041C509.212 407.017 492.532 434.805 466.247 451.746L360.748 519.739C330.058 539.518 291.309 541.265 259.924 524.344C243.318 515.391 232.757 498.38 232.096 479.518L225.915 303.273L302.368 464.369C371.914 420.577 440.88 375.878 509.996 331.413C511.032 346.478 513.288 361.938 511.922 377.041Z" fill="white" stroke="#6A6CBB" stroke-width="14" stroke-linejoin="round"/>
</svg>
