<svg width="33" height="33" viewBox="0 0 33 33" fill="none" xmlns="http://www.w3.org/2000/svg">
<path fill-rule="evenodd" clip-rule="evenodd" d="M19.3061 0.829952C17.2409 -0.276651 14.7591 -0.27665 12.6939 0.829952L5.69387 4.5808C3.4195 5.79949 2 8.17056 2 10.7508V19.0139C2 21.1217 2.94978 23.1173 4.58561 24.4465L6.39474 25.9166L8.86779 27.9738C9.32296 30.0618 10.7988 31.7842 12.7984 32.5519C14.9617 33.3824 17.4055 32.9694 19.1758 31.4742L27.5253 24.4048C29.095 23.0747 30 21.1216 30 19.0642V10.7508C30 8.17055 28.5805 5.79948 26.3061 4.5808L19.3061 0.829952ZM14.1108 3.47422L7.11078 7.22507C5.81115 7.92146 5 9.27636 5 10.7508V19.0139C5 20.2184 5.54273 21.3587 6.47749 22.1182L8.3 23.5992L11.317 26.1088C11.5001 26.2612 11.6255 26.4717 11.6723 26.7053L11.7873 27.279C12.0131 28.4061 12.8005 29.3391 13.8737 29.7511C15.0156 30.1895 16.3055 29.9716 17.24 29.1823L19.3 27.4423L25.5859 22.1159C26.4828 21.3559 27 20.2398 27 19.0642V10.7508C27 9.27636 26.1889 7.92146 24.8892 7.22507L17.8892 3.47422C16.7091 2.84188 15.2909 2.84188 14.1108 3.47422Z" fill="url(#paint0_linear_54920_9273)"/>
<defs>
<linearGradient id="paint0_linear_54920_9273" x1="21.5" y1="-1.03805" x2="10" y2="51.9619" gradientUnits="userSpaceOnUse">
<stop offset="0.317726" stop-color="#8370F7"/>
<stop offset="1" stop-color="#62DBB7"/>
</linearGradient>
</defs>
</svg>
