<svg width="614" height="641" viewBox="0 0 614 641" fill="none" xmlns="http://www.w3.org/2000/svg">
<path fill-rule="evenodd" clip-rule="evenodd" d="M231.868 88.0803C274.244 60.7688 328.293 58.0056 372.668 81.93L473.678 136.388C514.089 158.175 540.335 198.899 543.485 244.701C546.109 282.862 548.733 321.024 551.357 359.185C554.815 409.48 529.973 457.561 487.597 484.873L382.098 552.866C339.721 580.177 285.673 582.94 241.297 559.016C207.627 540.863 173.957 522.711 140.287 504.558C99.8765 482.771 73.63 442.047 70.4806 396.245L62.6085 281.761C59.1502 231.466 83.9919 183.385 126.369 156.073C161.535 133.409 196.701 110.745 231.868 88.0803ZM190.876 487.118C177.399 479.852 163.095 473.373 150.423 464.719C126.787 448.579 111.741 422.564 109.75 393.603L101.878 279.118C99.432 243.546 117.028 208.979 147.718 189.2C173.283 172.724 205.755 171.612 232 186.314L368.998 263.061C306.059 259.673 179 253.501 179 253.501L190.876 487.118ZM329.994 399.106L474.545 306.016C494.436 293.206 505.821 270.692 504.215 247.343C501.995 215.05 483.544 186.421 455.051 171.059L354.041 116.601C327.421 102.249 295.503 101.327 267.699 113.447C253.839 119.489 241.436 128.8 228.785 136.953L428.663 251.173L329.994 399.106ZM511.923 377.042C509.212 407.018 492.532 434.806 466.247 451.746L360.748 519.739C330.058 539.519 291.309 541.266 259.924 524.345C243.318 515.392 232.757 498.381 232.096 479.519L225.915 303.273L302.368 464.37C371.914 420.578 440.88 375.878 509.996 331.414C511.032 346.478 513.288 361.938 511.923 377.042ZM301.171 372.14L348.404 300.176L263.958 296.431L301.171 372.14Z" fill="#6A6CBB"/>
<path d="M366.898 262.457L231.755 186.75C205.675 172.14 173.4 173.243 147.989 189.62C117.448 209.303 99.9436 243.698 102.377 279.084L110.249 393.568C112.23 422.376 127.195 448.251 150.705 464.306C159.716 470.459 169.541 475.503 179.337 480.532C183.021 482.424 186.702 484.313 190.333 486.259L179.001 253.805C178.994 253.665 179.047 253.527 179.146 253.428C179.246 253.328 179.384 253.275 179.524 253.282L366.898 262.457ZM331.743 397.385L474.275 305.595C494.014 292.883 505.309 270.542 503.717 247.377C501.508 215.255 483.155 186.779 454.814 171.499L353.804 117.041C327.323 102.765 295.567 101.844 267.898 113.905C257.378 118.491 247.712 124.961 238.093 131.4C235.313 133.26 232.538 135.118 229.747 136.927L428.911 250.739C429.031 250.808 429.117 250.923 429.149 251.058C429.181 251.193 429.156 251.335 429.079 251.45L331.743 397.385ZM226.499 305.67L232.596 479.501C233.251 498.185 243.712 515.036 260.161 523.904C291.382 540.736 329.936 539.002 360.477 519.319L465.976 451.326C492.133 434.467 508.728 406.817 511.425 376.996C512.447 365.69 511.432 354.198 510.423 342.771C510.114 339.269 509.806 335.773 509.556 332.291C495.597 341.272 481.644 350.262 467.69 359.253C412.795 394.622 357.898 429.994 302.635 464.792C302.514 464.869 302.366 464.889 302.229 464.849C302.092 464.81 301.978 464.713 301.917 464.584L226.499 305.67Z" fill="white" stroke="#6A6CBB" stroke-linejoin="round"/>
</svg>
