<svg width="33" height="33" viewBox="0 0 33 33" fill="none" xmlns="http://www.w3.org/2000/svg">
<path fill-rule="evenodd" clip-rule="evenodd" d="M19.3061 0.829952C17.2409 -0.276651 14.7591 -0.27665 12.6939 0.829952L5.69387 4.5808C3.4195 5.79949 2 8.17056 2 10.7508V19.0139C2 21.1217 2.94978 23.1173 4.58561 24.4465L6.39474 25.9166L8.86779 27.9738C9.32296 30.0618 10.7988 31.7842 12.7984 32.5519C14.9617 33.3824 17.4055 32.9694 19.1758 31.4742L27.5253 24.4048C29.095 23.0747 30 21.1216 30 19.0642V10.7508C30 8.17055 28.5805 5.79948 26.3061 4.5808L19.3061 0.829952ZM14.1371 4.98036L8.13715 8.13796C6.82287 8.82962 6 10.1925 6 11.6777V18.5529C6 19.7697 6.55386 20.9204 7.50491 21.6794L9 22.8725L11.744 25.1144C11.9096 25.2497 12.0233 25.4379 12.0661 25.6474L12.1618 26.1166C12.3723 27.1485 13.0978 27.9999 14.0832 28.3715C15.1137 28.7601 16.2734 28.5658 17.121 27.8627L19 26.3039L24.5587 21.6778C25.4719 20.9179 26 19.7913 26 18.6033V11.6777C26 10.1925 25.1771 8.82962 23.8629 8.13796L17.8628 4.98036C16.6968 4.36668 15.3032 4.36668 14.1371 4.98036Z" fill="url(#paint0_linear_54920_9273)"/>
<defs>
<linearGradient id="paint0_linear_54920_9273" x1="21.5" y1="-1.03805" x2="10" y2="51.9619" gradientUnits="userSpaceOnUse">
<stop offset="0.317726" stop-color="#8370F7"/>
<stop offset="1" stop-color="#62DBB7"/>
</linearGradient>
</defs>
</svg>
