<svg width="614" height="641" viewBox="0 0 614 641" fill="none" xmlns="http://www.w3.org/2000/svg">
<path fill-rule="evenodd" clip-rule="evenodd" d="M231.868 88.0793C274.244 60.7678 328.293 58.0046 372.668 81.9291L473.678 136.387C514.089 158.174 540.335 198.898 543.485 244.7C546.109 282.861 548.733 321.023 551.357 359.184C554.815 409.479 529.973 457.56 487.597 484.872L382.098 552.865C339.721 580.176 285.673 582.939 241.297 559.015C207.627 540.862 173.957 522.71 140.287 504.557C99.8765 482.77 73.63 442.046 70.4806 396.244L62.6085 281.76C59.1502 231.465 83.9919 183.384 126.369 156.072C161.535 133.408 196.701 110.744 231.868 88.0793ZM190.876 487.117C177.399 479.851 163.095 473.372 150.423 464.718C126.787 448.578 111.741 422.563 109.75 393.602L101.878 279.117C99.432 243.545 117.028 208.978 147.718 189.199C173.283 172.723 205.755 171.611 232 186.313L368.998 263.06C306.059 259.672 179 253.5 179 253.5L190.876 487.117ZM329.994 399.105L474.545 306.015C494.436 293.205 505.821 270.691 504.215 247.342C501.995 215.049 483.544 186.42 455.051 171.058L354.041 116.6C327.421 102.248 295.503 101.326 267.699 113.446C253.839 119.488 241.436 128.799 228.785 136.952L428.663 251.172L329.994 399.105ZM511.923 377.041C509.212 407.017 492.532 434.805 466.247 451.745L360.748 519.738C330.058 539.518 291.309 541.265 259.924 524.344C243.318 515.391 232.757 498.38 232.096 479.518L225.915 303.272L302.368 464.369C371.914 420.577 440.88 375.877 509.996 331.413C511.032 346.477 513.288 361.937 511.923 377.041ZM301.171 372.139L348.404 300.175L263.958 296.43L301.171 372.139Z" fill="#6A6CBB"/>
<path d="M356.397 259.44L230.533 188.931C205.271 174.779 173.988 175.838 149.344 191.721C119.547 210.925 102.502 244.46 104.871 278.912L112.743 393.397C114.671 421.439 129.235 446.617 152.114 462.241C160.99 468.302 170.596 473.233 180.335 478.233C182.759 479.477 185.191 480.726 187.623 481.997L176.504 253.927C176.462 253.082 176.78 252.258 177.379 251.66C177.978 251.061 178.801 250.743 179.647 250.785L356.397 259.44ZM340.487 388.78L472.921 303.493C491.905 291.268 502.752 269.792 501.222 247.549C499.073 216.282 481.214 188.573 453.627 173.7L352.618 119.242C326.836 105.342 295.887 104.432 268.897 116.197C258.603 120.685 249.194 126.981 239.617 133.39C237.929 134.52 236.235 135.653 234.53 136.781L430.151 248.568C430.873 248.981 431.392 249.675 431.583 250.484C431.773 251.293 431.62 252.146 431.158 252.838L340.487 388.78ZM229.421 317.658L235.094 479.413C235.718 497.211 245.68 513.257 261.348 521.704C291.745 538.092 329.326 536.421 359.123 517.217L464.622 449.224C490.139 432.779 506.309 405.817 508.935 376.771C509.935 365.708 508.949 354.533 507.946 343.165C507.756 341.004 507.564 338.836 507.386 336.66C494.605 344.885 481.828 353.118 469.049 361.351C414.153 396.721 359.242 432.102 303.967 466.908C303.241 467.365 302.355 467.489 301.531 467.25C300.708 467.011 300.026 466.43 299.658 465.656L229.421 317.658Z" fill="white" stroke="#6A6CBB" stroke-width="6" stroke-linejoin="round"/>
</svg>
