<svg width="60" height="60" viewBox="0 0 60 60" fill="none" xmlns="http://www.w3.org/2000/svg">
<path fill-rule="evenodd" clip-rule="evenodd" d="M41.751 32.3365C41.4936 34.891 41.1867 37.5293 40.7404 40.0825C40.1658 43.3687 39.3784 46.3983 38.2354 48.8453C37.0911 51.295 35.6806 52.9707 33.9626 53.8503C30.5853 55.5794 26.5574 55.339 23.4831 53.2628L11.3768 45.0871C8.58892 43.2043 6.96058 40.0652 7.03503 36.717L7.04875 36.0998L26.7424 48.7897C27.4821 49.28 28.2636 49.3929 28.6706 49.4305C29.148 49.4748 29.5916 49.4524 29.9019 49.4248C31.3239 49.2987 32.3689 48.4128 32.8986 47.4164L41.751 32.3365ZM41.4132 23.9547L19.3122 23.9473L29.9391 42.6424L41.4132 23.9547ZM22.075 38.296C20.2223 36.9599 18.3196 35.5498 16.5092 34.0897C13.8495 31.9447 11.4789 29.7624 9.80089 27.6376C8.09061 25.4719 7.3256 23.6492 7.35832 22.1776C7.44042 18.4854 9.58078 15.0871 12.9581 13.358L27.0374 6.14974C30.4147 4.42063 34.4426 4.661 37.5169 6.73717L37.624 6.80951C30.2347 10.5954 22.8429 14.3682 15.4465 18.155C14.6531 18.5611 13.8094 19.2165 13.5745 19.5594C13.3046 19.9534 12.4561 21.226 13.0153 22.8926M46.8332 47.2608L48.4034 23.3898C48.4055 23.3579 48.4069 23.326 48.4076 23.294C48.4251 22.5041 48.1652 21.856 48.0085 21.5168C47.8293 21.1288 47.6175 20.7958 47.4564 20.5625C46.631 19.3674 45.3074 18.9086 44.1654 18.9576L26.941 19.1493C27.5467 18.8659 28.1598 18.5821 28.7783 18.3005C30.4403 17.6064 32.1383 16.9299 33.8335 16.3189C37.1902 15.1092 40.4239 14.1985 43.2461 13.9008C46.1023 13.5994 48.212 13.9599 49.6232 14.913C52.4111 16.7957 54.0394 19.9348 53.965 23.283L53.6417 37.8224C53.5596 41.5146 51.4192 44.9129 48.0419 46.642L46.8332 47.2608ZM36.268 58.2945C31.2744 60.8511 25.2747 60.5182 20.6539 57.3977L8.54757 49.2219C4.34884 46.3863 1.89156 41.6492 2.00368 36.6066C2.11144 31.7601 2.21921 26.9137 2.32697 22.0672C2.45036 16.5177 5.65914 11.4703 10.6528 8.91369L24.732 1.70547C29.7256 -0.85114 35.7253 -0.51824 40.3461 2.60234C44.3816 5.3276 48.417 8.05286 52.4524 10.7781C56.6512 13.6137 59.1084 18.3508 58.9963 23.3934L58.673 37.9328C58.5496 43.4823 55.3409 48.5297 50.3472 51.0863C45.6542 53.4891 40.9611 55.8918 36.268 58.2945Z" fill="url(#paint0_linear_54934_8106)"/>
<defs>
<linearGradient id="paint0_linear_54934_8106" x1="30.5" y1="0" x2="30.5" y2="137" gradientUnits="userSpaceOnUse">
<stop offset="0.068652" stop-color="#6A5DB8"/>
<stop offset="0.352388" stop-color="#8370F7"/>
<stop offset="0.564361" stop-color="#66D0BE"/>
</linearGradient>
</defs>
</svg>
