<svg width="22" height="20" viewBox="0 0 22 20" fill="none" xmlns="http://www.w3.org/2000/svg">
<path d="M2.17275 6.63842C1.25443 5.31196 2.20381 3.5 3.81714 3.5H18.1829C19.7962 3.5 20.7456 5.31196 19.8272 6.63842L13.5965 15.6384C13.2229 16.178 12.6084 16.5 11.9521 16.5H10.0479C9.39162 16.5 8.77709 16.178 8.40352 15.6384L2.17275 6.63842Z" fill="white"/>
<rect x="8" y="4.5" width="11" height="2" rx="1" fill="#6A5DB8"/>
<rect x="3" y="4.5" width="4" height="2" rx="1" fill="#6A5DB8"/>
<rect x="13" y="7.5" width="4" height="2" rx="1" fill="#6A5DB8"/>
<rect x="5" y="7.5" width="7" height="2" rx="1" fill="#6A5DB8"/>
<rect x="7" y="10.5" width="8" height="2" rx="1" fill="#6A5DB8"/>
<rect x="9" y="13.5" width="4" height="2" rx="1" fill="#519DAA"/>
</svg>
