<svg width="34" height="34" viewBox="0 0 34 34" fill="none" xmlns="http://www.w3.org/2000/svg">
<path d="M8.11078 7.76316L15.1108 4.01231C16.2909 3.37997 17.7091 3.37997 18.8892 4.01231L25.8892 7.76316C27.1889 8.45955 28 9.81444 28 11.2889V19.6023C28 20.7779 27.4828 21.894 26.5859 22.654L20.3 27.9804L18.24 29.7204C17.3055 30.5096 16.0156 30.7276 14.8737 30.2892C13.8005 29.8772 13.0131 28.9442 12.7873 27.8171L12.6723 27.2434C12.6255 27.0098 12.5001 26.7993 12.317 26.6469L9.3 24.1373L7.47749 22.6563C6.54273 21.8968 6 20.7564 6 19.552V11.2889C6 9.81445 6.81115 8.45955 8.11078 7.76316Z" fill="white" stroke="url(#paint0_linear_54884_9095)" stroke-width="6"/>
<path d="M10.042 8.90589L15.042 6.09913C16.2581 5.41648 17.7419 5.41648 18.958 6.09913L23.958 8.90588C25.2192 9.61387 26 10.9476 26 12.3939V19.0214C26 20.1648 25.5106 21.2536 24.6555 22.0128L19.7 26.4118L18.0285 27.8909C17.2602 28.5707 16.1739 28.7582 15.2222 28.3754C14.367 28.0315 13.7453 27.2762 13.5722 26.3708L13.4584 25.7762C13.4206 25.5782 13.3174 25.3986 13.1655 25.2662L10.7 23.1176L9.40716 22.0171C8.51439 21.2571 8 20.1437 8 18.9712V12.3939C8 10.9476 8.78078 9.61387 10.042 8.90589Z" fill="white"/>
<mask id="path-4-inside-1_54884_9095" fill="white">
<path fill-rule="evenodd" clip-rule="evenodd" d="M19.543 13.203C19.543 12.8147 19.2035 12.5 18.7848 12.5H10.7576C10.3389 12.5 9.99951 12.8147 9.99951 13.203C9.99951 13.5912 10.3389 13.906 10.7576 13.906H18.7848C19.2035 13.906 19.543 13.5912 19.543 13.203Z"/>
</mask>
<path fill-rule="evenodd" clip-rule="evenodd" d="M19.543 13.203C19.543 12.8147 19.2035 12.5 18.7848 12.5H10.7576C10.3389 12.5 9.99951 12.8147 9.99951 13.203C9.99951 13.5912 10.3389 13.906 10.7576 13.906H18.7848C19.2035 13.906 19.543 13.5912 19.543 13.203Z" fill="#6A5DB8"/>
<path d="M18.7848 12.3C19.2995 12.3 19.743 12.6903 19.743 13.203H19.343C19.343 12.9391 19.1076 12.7 18.7848 12.7V12.3ZM10.7576 12.3H18.7848V12.7H10.7576V12.3ZM9.79951 13.203C9.79951 12.6903 10.243 12.3 10.7576 12.3V12.7C10.4349 12.7 10.1995 12.9391 10.1995 13.203H9.79951ZM10.7576 14.106C10.243 14.106 9.79951 13.7156 9.79951 13.203H10.1995C10.1995 13.4668 10.4349 13.706 10.7576 13.706V14.106ZM18.7848 14.106H10.7576V13.706H18.7848V14.106ZM19.743 13.203C19.743 13.7156 19.2995 14.106 18.7848 14.106V13.706C19.1076 13.706 19.343 13.4668 19.343 13.203H19.743Z" fill="white" mask="url(#path-4-inside-1_54884_9095)"/>
<mask id="path-6-inside-2_54884_9095" fill="white">
<path fill-rule="evenodd" clip-rule="evenodd" d="M24.002 13.203C24.002 12.8147 23.6625 12.5 23.2438 12.5H21.46C21.0413 12.5 20.7019 12.8147 20.7019 13.203C20.7019 13.5912 21.0413 13.906 21.46 13.906H23.2438C23.6625 13.906 24.002 13.5912 24.002 13.203Z"/>
</mask>
<path fill-rule="evenodd" clip-rule="evenodd" d="M24.002 13.203C24.002 12.8147 23.6625 12.5 23.2438 12.5H21.46C21.0413 12.5 20.7019 12.8147 20.7019 13.203C20.7019 13.5912 21.0413 13.906 21.46 13.906H23.2438C23.6625 13.906 24.002 13.5912 24.002 13.203Z" fill="#B8B2DD"/>
<path d="M23.2438 12.3C23.7585 12.3 24.202 12.6903 24.202 13.203H23.802C23.802 12.9391 23.5666 12.7 23.2438 12.7V12.3ZM21.46 12.3H23.2438V12.7H21.46V12.3ZM20.5019 13.203C20.5019 12.6903 20.9453 12.3 21.46 12.3V12.7C21.1373 12.7 20.9019 12.9391 20.9019 13.203H20.5019ZM21.46 14.106C20.9453 14.106 20.5019 13.7156 20.5019 13.203H20.9019C20.9019 13.4668 21.1373 13.706 21.46 13.706V14.106ZM23.2438 14.106H21.46V13.706H23.2438V14.106ZM24.202 13.203C24.202 13.7156 23.7585 14.106 23.2438 14.106V13.706C23.5666 13.706 23.802 13.4668 23.802 13.203H24.202Z" fill="white" mask="url(#path-6-inside-2_54884_9095)"/>
<mask id="path-8-inside-3_54884_9095" fill="white">
<path fill-rule="evenodd" clip-rule="evenodd" d="M15.082 15.6844C15.082 15.2962 14.7426 14.9814 14.3239 14.9814H12.5401C12.1214 14.9814 11.782 15.2962 11.782 15.6844C11.782 16.0727 12.1214 16.3874 12.5401 16.3874H14.3239C14.7426 16.3874 15.082 16.0727 15.082 15.6844Z"/>
</mask>
<path fill-rule="evenodd" clip-rule="evenodd" d="M15.082 15.6844C15.082 15.2962 14.7426 14.9814 14.3239 14.9814H12.5401C12.1214 14.9814 11.782 15.2962 11.782 15.6844C11.782 16.0727 12.1214 16.3874 12.5401 16.3874H14.3239C14.7426 16.3874 15.082 16.0727 15.082 15.6844Z" fill="#B8B2DD"/>
<path d="M14.3239 14.7814C14.8386 14.7814 15.282 15.1718 15.282 15.6844H14.882C14.882 15.4206 14.6466 15.1814 14.3239 15.1814V14.7814ZM12.5401 14.7814H14.3239V15.1814H12.5401V14.7814ZM11.582 15.6844C11.582 15.1718 12.0254 14.7814 12.5401 14.7814V15.1814C12.2173 15.1814 11.982 15.4206 11.982 15.6844H11.582ZM12.5401 16.5874C12.0254 16.5874 11.582 16.1971 11.582 15.6844H11.982C11.982 15.9483 12.2173 16.1874 12.5401 16.1874V16.5874ZM14.3239 16.5874H12.5401V16.1874H14.3239V16.5874ZM15.282 15.6844C15.282 16.1971 14.8386 16.5874 14.3239 16.5874V16.1874C14.6466 16.1874 14.882 15.9483 14.882 15.6844H15.282Z" fill="white" mask="url(#path-8-inside-3_54884_9095)"/>
<mask id="path-10-inside-4_54884_9095" fill="white">
<path fill-rule="evenodd" clip-rule="evenodd" d="M22.2207 15.6844C22.2207 15.2962 21.8813 14.9814 21.4626 14.9814H17.003C16.5843 14.9814 16.2449 15.2962 16.2449 15.6844C16.2449 16.0727 16.5843 16.3874 17.003 16.3874H21.4626C21.8813 16.3874 22.2207 16.0727 22.2207 15.6844Z"/>
</mask>
<path fill-rule="evenodd" clip-rule="evenodd" d="M22.2207 15.6844C22.2207 15.2962 21.8813 14.9814 21.4626 14.9814H17.003C16.5843 14.9814 16.2449 15.2962 16.2449 15.6844C16.2449 16.0727 16.5843 16.3874 17.003 16.3874H21.4626C21.8813 16.3874 22.2207 16.0727 22.2207 15.6844Z" fill="#6A5DB8"/>
<path d="M21.4626 14.7814C21.9772 14.7814 22.4207 15.1718 22.4207 15.6844H22.0207C22.0207 15.4206 21.7853 15.1814 21.4626 15.1814V14.7814ZM17.003 14.7814H21.4626V15.1814H17.003V14.7814ZM16.0449 15.6844C16.0449 15.1718 16.4884 14.7814 17.003 14.7814V15.1814C16.6803 15.1814 16.4449 15.4206 16.4449 15.6844H16.0449ZM17.003 16.5874C16.4884 16.5874 16.0449 16.1971 16.0449 15.6844H16.4449C16.4449 15.9483 16.6803 16.1874 17.003 16.1874V16.5874ZM21.4626 16.5874H17.003V16.1874H21.4626V16.5874ZM22.4207 15.6844C22.4207 16.1971 21.9772 16.5874 21.4626 16.5874V16.1874C21.7853 16.1874 22.0207 15.9483 22.0207 15.6844H22.4207Z" fill="white" mask="url(#path-10-inside-4_54884_9095)"/>
<mask id="path-12-inside-5_54884_9095" fill="white">
<path fill-rule="evenodd" clip-rule="evenodd" d="M20.4355 18.1659C20.4355 17.7776 20.0961 17.4629 19.6774 17.4629H14.326C13.9073 17.4629 13.5678 17.7776 13.5678 18.1659C13.5678 18.5541 13.9073 18.8689 14.326 18.8689H19.6774C20.0961 18.8689 20.4355 18.5541 20.4355 18.1659Z"/>
</mask>
<path fill-rule="evenodd" clip-rule="evenodd" d="M20.4355 18.1659C20.4355 17.7776 20.0961 17.4629 19.6774 17.4629H14.326C13.9073 17.4629 13.5678 17.7776 13.5678 18.1659C13.5678 18.5541 13.9073 18.8689 14.326 18.8689H19.6774C20.0961 18.8689 20.4355 18.5541 20.4355 18.1659Z" fill="#6A5DB8"/>
<path d="M19.6774 17.2629C20.1921 17.2629 20.6355 17.6532 20.6355 18.1659H20.2355C20.2355 17.902 20.0002 17.6629 19.6774 17.6629V17.2629ZM14.326 17.2629H19.6774V17.6629H14.326V17.2629ZM13.3678 18.1659C13.3678 17.6532 13.8113 17.2629 14.326 17.2629V17.6629C14.0032 17.6629 13.7678 17.902 13.7678 18.1659H13.3678ZM14.326 19.0689C13.8113 19.0689 13.3678 18.6785 13.3678 18.1659H13.7678C13.7678 18.4297 14.0032 18.6689 14.326 18.6689V19.0689ZM19.6774 19.0689H14.326V18.6689H19.6774V19.0689ZM20.6355 18.1659C20.6355 18.6785 20.1921 19.0689 19.6774 19.0689V18.6689C20.0002 18.6689 20.2355 18.4297 20.2355 18.1659H20.6355Z" fill="white" mask="url(#path-12-inside-5_54884_9095)"/>
<mask id="path-14-inside-6_54884_9095" fill="white">
<path fill-rule="evenodd" clip-rule="evenodd" d="M18.6523 20.6463C18.6523 20.2581 18.3129 19.9434 17.8942 19.9434H16.1104C15.6917 19.9434 15.3523 20.2581 15.3523 20.6463C15.3523 21.0346 15.6917 21.3493 16.1104 21.3493H17.8942C18.3129 21.3493 18.6523 21.0346 18.6523 20.6463Z"/>
</mask>
<path fill-rule="evenodd" clip-rule="evenodd" d="M18.6523 20.6463C18.6523 20.2581 18.3129 19.9434 17.8942 19.9434H16.1104C15.6917 19.9434 15.3523 20.2581 15.3523 20.6463C15.3523 21.0346 15.6917 21.3493 16.1104 21.3493H17.8942C18.3129 21.3493 18.6523 21.0346 18.6523 20.6463Z" fill="url(#paint1_linear_54884_9095)"/>
<path d="M17.8942 19.7434C18.4089 19.7434 18.8523 20.1337 18.8523 20.6463H18.4523C18.4523 20.3825 18.217 20.1434 17.8942 20.1434V19.7434ZM16.1104 19.7434H17.8942V20.1434H16.1104V19.7434ZM15.1523 20.6463C15.1523 20.1337 15.5957 19.7434 16.1104 19.7434V20.1434C15.7877 20.1434 15.5523 20.3825 15.5523 20.6463H15.1523ZM16.1104 21.5493C15.5957 21.5493 15.1523 21.159 15.1523 20.6463H15.5523C15.5523 20.9102 15.7877 21.1493 16.1104 21.1493V21.5493ZM17.8942 21.5493H16.1104V21.1493H17.8942V21.5493ZM18.8523 20.6463C18.8523 21.159 18.4089 21.5493 17.8942 21.5493V21.1493C18.217 21.1493 18.4523 20.9102 18.4523 20.6463H18.8523Z" fill="white" mask="url(#path-14-inside-6_54884_9095)"/>
<defs>
<linearGradient id="paint0_linear_54884_9095" x1="22.5" y1="-0.500001" x2="11" y2="52.5" gradientUnits="userSpaceOnUse">
<stop offset="0.276042" stop-color="#7A68E2"/>
<stop offset="1" stop-color="#62DBB7"/>
</linearGradient>
<linearGradient id="paint1_linear_54884_9095" x1="17.0023" y1="19.5" x2="17.0023" y2="21.5" gradientUnits="userSpaceOnUse">
<stop offset="0.177767" stop-color="#68C5A9"/>
<stop offset="1" stop-color="#7BB4BE"/>
</linearGradient>
</defs>
</svg>
