<svg width="26" height="28" viewBox="0 0 26 28" fill="none" xmlns="http://www.w3.org/2000/svg">
<path fill-rule="evenodd" clip-rule="evenodd" d="M0.35541 11.3989C0.244276 8.87377 1.50471 6.47701 3.62409 5.15413L9.59966 1.42433C11.719 0.101453 14.367 0.0587466 16.4916 1.32705L22.0582 4.64996C23.9888 5.80242 25.2104 7.87505 25.3114 10.1695L25.6026 16.7852C25.7137 19.3103 24.4533 21.7071 22.3339 23.0299L16.3583 26.7597C14.2389 28.0826 11.591 28.1253 9.46636 26.857L3.89978 23.5341C1.96918 22.3817 0.747564 20.309 0.646578 18.0146L0.35541 11.3989ZM11.5365 7.74507C12.604 8.17807 13.6715 8.68516 14.6959 9.19146L6.95457 9.0354C6.45584 9.00372 5.87977 9.19739 5.50357 9.71682C5.42149 9.83014 5.31055 9.9962 5.21695 10.1911C5.13716 10.3573 4.99922 10.686 5.0135 11.088C5.13813 14.8038 5.11112 19.741 6.15282 22.3463L4.75401 21.3994L4.75394 21.3917C3.62711 20.6026 2.92434 19.3171 2.86206 17.9021L2.57089 11.2864C2.49695 9.6064 3.33676 7.99334 4.77018 7.09863C5.49933 6.64351 6.45815 6.49597 7.64787 6.63482C8.83623 6.77352 10.1625 7.18776 11.5365 7.74507ZM12.6851 19.8412L17.7838 11.3108L8.07407 11.3108L12.6851 19.8412ZM8.20179 18.5272C8.06856 17.4815 7.97553 16.4121 7.8989 15.3795L11.624 22.5322C12.1243 23.1434 12.801 23.1174 13.0122 23.1065C13.196 23.0971 13.6385 22.9266 13.9752 22.7164C16.9498 20.8597 21.6104 17.8604 23.3231 15.5401L23.3775 16.8435L23.3845 16.8391L23.3871 16.8977C23.461 18.5777 22.6212 20.1907 21.1878 21.0854L15.2122 24.8152C13.7788 25.7099 12.0007 25.7309 10.5871 24.8871C10.0237 24.5508 9.51195 23.823 9.08906 22.6488C8.67414 21.4966 8.39751 20.0633 8.20179 18.5272ZM19.6122 8.74308C16.5247 7.0794 13.2074 4.31848 9.51084 4.11136C9.51084 4.11136 10.1235 3.75508 10.5097 3.51618C10.6021 3.45901 10.7457 3.36884 10.7457 3.36884C12.1792 2.47413 13.9573 2.45313 15.3709 3.29696L20.9375 6.61986C22.2194 7.38506 23.0289 8.75852 23.0959 10.282C23.1299 11.0532 22.7786 11.9537 22.0049 12.9856C21.2404 14.0053 20.1493 15.0386 18.9168 16.0485C18.2944 16.5585 17.6466 17.054 17.0004 17.5315C16.7511 17.7037 16.5023 17.8732 16.2553 18.04L20.3072 11.4313C20.5895 11.0018 20.722 10.3817 20.4613 9.77938C20.4104 9.66182 20.3336 9.50102 20.2285 9.3398C20.1365 9.19883 19.9518 8.94472 19.6493 8.76418C19.6371 8.75687 19.6247 8.74984 19.6122 8.74308Z" fill="url(#paint0_linear_54966_8013)"/>
<defs>
<linearGradient id="paint0_linear_54966_8013" x1="27" y1="51.5" x2="-4.5" y2="-21.5" gradientUnits="userSpaceOnUse">
<stop offset="0.457875" stop-color="#6F58CB"/>
<stop offset="0.828421" stop-color="#9EB1E8"/>
</linearGradient>
</defs>
</svg>
