<svg width="1648" height="478" viewBox="0 0 1648 478" fill="none" xmlns="http://www.w3.org/2000/svg">
<path fill-rule="evenodd" clip-rule="evenodd" d="M286.82 16.8192C247.937 -5.60727 200.045 -5.60634 161.163 16.8216L62.9029 73.4996C23.9794 95.9513 0 137.465 0 182.391V295.609C0 340.535 23.9794 382.049 62.9029 404.5L161.163 461.178C200.045 483.606 247.937 483.607 286.82 461.181L385.093 404.5C424.019 382.049 448 340.535 448 295.606V182.394C448 137.465 424.019 95.9508 385.093 73.4997L286.82 16.8192ZM346.764 175.259L159.668 67.3435L183.212 53.7631C208.394 39.2375 239.411 39.2369 264.594 53.7616L363.237 110.655C389.032 125.533 404.924 153.044 404.924 182.818C404.924 212.593 389.031 240.105 363.235 254.983L269.42 309.088L346.764 175.259ZM140.441 243.418L217.806 377.308L404.924 269.391V296.426C404.924 325.545 389.382 352.45 364.154 367.001L265.635 423.824C239.808 438.72 207.997 438.719 182.171 423.822C156.305 408.902 140.375 381.309 140.389 351.452L140.441 243.418ZM261.794 164.702H107.169L107.065 380.5L83.5962 366.962C58.4123 352.436 42.897 325.576 42.897 296.507V182.884C42.897 153.069 58.8105 125.52 84.6406 110.621C110.444 95.7367 142.226 95.7364 168.03 110.62L261.794 164.702ZM223.902 321.279L152.675 198.012H295.141L223.902 321.279Z" fill="#736EC2"/>
<path d="M601.94 318L528 160H573.75L626.433 280.125H613.724L666.175 160H710.308L636.368 318H601.94Z" fill="#736EC2"/>
<path d="M720.711 318V160H837.629V191.6H761.609V221.855H822.052V253.679H761.609V286.176H837.629V318H720.711Z" fill="#736EC2"/>
<path d="M859.935 318V160H936.879C955.672 160 970.152 164.333 980.319 172.999C990.64 181.664 995.8 193.692 995.8 209.081C995.8 219.39 993.49 228.205 988.868 235.526C984.247 242.698 977.546 248.301 968.766 252.335C959.985 256.219 949.511 258.162 937.341 258.162L939.421 252.559H950.974C957.752 252.559 963.759 254.352 968.997 257.938C974.234 261.523 978.547 266.529 981.936 272.953L1006.66 318H959.985L933.413 267.574C931.719 264.287 929.177 262.046 925.788 260.851C922.553 259.656 918.856 259.058 914.697 259.058H902.682V318H859.935ZM902.682 229.699H929.485C937.803 229.699 944.119 228.13 948.432 224.993C952.745 221.706 954.902 216.85 954.902 210.426C954.902 204.15 952.745 199.444 948.432 196.306C944.119 193.169 937.803 191.6 929.485 191.6H902.682V229.699Z" fill="#736EC2"/>
<path d="M1001.4 318L1077.65 160H1112.31L1189.02 318H1146.27L1126.63 274.522L1143.04 285.952H1047.38L1063.55 274.522L1044.14 318H1001.4ZM1094.75 202.582L1067.71 265.109L1061.24 254.576H1128.94L1123.17 265.109L1095.9 202.582H1094.75Z" fill="#736EC2"/>
<path d="M1399.61 318L1472.16 160H1492.73L1566.44 318H1541.71L1521.61 273.177L1531.78 279.452H1433.11L1443.97 273.177L1423.87 318H1399.61ZM1482.1 185.549L1446.98 266.006L1441.43 260.851H1523.46L1518.84 266.006L1483.02 185.549H1482.1Z" fill="#736EC2"/>
<path d="M1587.97 318V160H1612V318H1587.97Z" fill="#736EC2"/>
<path d="M1260.5 318C1238.16 318 1189 318 1189 318L1208.97 285.183C1217.2 285.23 1247.96 285.183 1260.95 285.183C1270.85 285.183 1277.67 283.951 1281.42 281.488C1285.32 279.025 1287.27 275.838 1287.27 271.926C1287.27 268.448 1286 265.768 1283.45 263.885C1280.9 261.856 1276.1 260.117 1269.05 258.669L1241.6 253.235C1227.05 250.338 1216.17 245.339 1208.97 238.239C1201.77 230.995 1198.17 221.577 1198.17 209.986C1198.17 199.844 1200.95 191.078 1206.5 183.689C1212.2 176.155 1220.15 170.36 1230.35 166.303C1240.55 162.101 1252.47 160 1266.12 160C1273.66 160 1328 160 1328 160L1299.8 192.817C1299.8 192.817 1274.37 192.817 1265.22 192.817C1256.52 192.817 1249.92 194.121 1245.42 196.729C1241.07 199.192 1238.9 202.742 1238.9 207.378C1238.9 210.566 1240.17 213.319 1242.72 215.637C1245.42 217.81 1250.3 219.621 1257.35 221.07L1284.35 226.286C1298.9 229.039 1309.77 233.965 1316.97 241.065C1324.32 248.164 1328 257.437 1328 268.883C1328 278.735 1325.15 287.356 1319.45 294.746C1313.9 302.135 1306.1 307.858 1296.05 311.915C1286 315.972 1274.15 318 1260.5 318Z" fill="#736EC2"/>
</svg>
