<svg width="59" height="59" viewBox="0 0 59 59" fill="none" xmlns="http://www.w3.org/2000/svg">
<path d="M38 23L20.5 25L30.5 39L38 23Z" fill="white" stroke="black"/>
<path d="M24.2493 40.1686L7.93563 31.5337C7.3157 31.2056 6.5692 31.2262 5.96831 31.588C5.36743 31.9498 5 32.6 5 33.3014L5 36.5813C5 41.424 7.62598 45.8855 11.8521 48.1829L23.3521 54.4346C27.1916 56.5218 31.8084 56.5218 35.6479 54.4346C38.6375 52.8094 40.4982 49.6787 40.4969 46.276L40.49 26.8751C40.4897 25.9293 39.8269 25.113 38.9013 24.9186C37.9756 24.7241 37.0404 25.2046 36.6594 26.0703L29.2602 42.8862L24.3838 40.2353C24.3396 40.2113 24.2947 40.189 24.2493 40.1686ZM23.2371 19.3881C23.2539 19.379 23.2705 19.3696 23.287 19.36L39.3367 10.0298C39.9614 9.66659 40.3417 8.99463 40.3313 8.27207C40.321 7.5495 39.9216 6.88871 39.2867 6.54357L35.6479 4.56544C31.8084 2.47819 27.1916 2.47819 23.3521 4.56543L11.8521 10.8171C7.62598 13.1144 5 17.576 5 22.4187C5 26.595 7.31954 30.4257 11.0203 32.3612L26.8953 40.6638C27.7197 41.095 28.7327 40.9007 29.339 40.195C29.9454 39.4893 29.9851 38.4587 29.4347 37.7085L18.0625 22.2074C18.0645 22.2042 18.0664 22.201 18.0684 22.1979L23.2371 19.3881ZM18.065 22.1835L18.0273 22.1593L17.856 21.9259C17.8558 21.9256 17.8556 21.9253 17.8554 21.925L18.065 22.1835ZM41.1376 48.0883C41.1382 48.7933 41.51 49.446 42.1162 49.8061C42.7223 50.1662 43.4734 50.1805 44.0928 49.8438L47.1479 48.1829C51.374 45.8855 54 41.424 54 36.5813L54 22.4187C54 17.576 51.374 13.1144 47.1479 10.8171C44.6408 9.45415 41.6028 9.50482 39.1426 10.9506L21.8067 21.138C20.9879 21.6191 20.6204 22.6098 20.9273 23.5086C21.2342 24.4073 22.1308 24.9663 23.0729 24.8462L41.1357 22.5433C41.1382 22.5477 41.1405 22.5519 41.1429 22.5561L41.1429 36.5813C41.1429 36.589 41.1424 36.5964 41.1416 36.6036C41.1326 36.6806 41.1282 36.7581 41.1283 36.8357L41.1376 48.0883ZM41.4826 22.4991L41.4833 22.499L41.4826 22.4991Z" stroke="url(#paint0_linear_54937_8149)" stroke-width="4" stroke-linejoin="round"/>
<defs>
<linearGradient id="paint0_linear_54937_8149" x1="54.5" y1="57.5" x2="1" y2="-0.500002" gradientUnits="userSpaceOnUse">
<stop stop-color="#6051B5"/>
<stop offset="0.947635" stop-color="#7F7FEF"/>
</linearGradient>
</defs>
</svg>
