<svg width="33" height="33" viewBox="0 0 33 33" fill="none" xmlns="http://www.w3.org/2000/svg">
<path fill-rule="evenodd" clip-rule="evenodd" d="M19.3061 0.829952C17.2409 -0.276651 14.7591 -0.27665 12.6939 0.829952L5.69387 4.5808C3.4195 5.79949 2 8.17056 2 10.7508V19.0139C2 21.1217 2.94978 23.1173 4.58561 24.4465L6.39474 25.9166L8.86779 27.9738C9.32296 30.0618 10.7988 31.7842 12.7984 32.5519C14.9617 33.3824 17.4055 32.9694 19.1758 31.4742L27.5253 24.4048C29.095 23.0747 30 21.1216 30 19.0642V10.7508C30 8.17055 28.5805 5.79948 26.3061 4.5808L19.3061 0.829952ZM14.105 6.01946L9.10497 8.70927C7.80857 9.40668 7 10.7598 7 12.2319V18.2611C7 19.4628 7.5403 20.6009 8.47148 21.3605L9.7 22.3627L12.1682 24.424C12.3182 24.5493 12.4209 24.7222 12.4591 24.9139L12.5549 25.3937C12.7386 26.3145 13.3809 27.0772 14.2571 27.4149C15.1928 27.7756 16.2509 27.5965 17.0157 26.9479L18.7 25.5196L23.5919 21.358C24.4852 20.598 25 19.4842 25 18.3113V12.2319C25 10.7598 24.1914 9.40668 22.895 8.70927L17.895 6.01946C16.7119 5.38295 15.2881 5.38295 14.105 6.01946Z" fill="url(#paint0_linear_54920_9273)"/>
<defs>
<linearGradient id="paint0_linear_54920_9273" x1="21.5" y1="-1.03805" x2="10" y2="51.9619" gradientUnits="userSpaceOnUse">
<stop offset="0.317726" stop-color="#8370F7"/>
<stop offset="1" stop-color="#62DBB7"/>
</linearGradient>
</defs>
</svg>
