<svg width="26" height="28" viewBox="0 0 26 28" fill="none" xmlns="http://www.w3.org/2000/svg">
<path d="M16.2907 24.3435L16.2912 24.3431L21.8798 19.5991C22.8758 18.7536 23.45 17.5131 23.45 16.2066V9.01062C23.45 7.37147 22.5489 5.86504 21.1047 5.08979L15.1047 1.86904C13.7903 1.16347 12.2097 1.16347 10.8953 1.86904L4.89533 5.08979C3.45111 5.86504 2.55 7.37147 2.55 9.01062V16.1563C2.55 17.4949 3.15257 18.7624 4.19069 19.6074L5.71396 20.8474L5.71591 20.849L8.45447 23.1312C8.5421 23.2042 8.60209 23.305 8.62446 23.4169L8.72982 23.9436C8.96486 25.1188 9.78526 26.0919 10.9038 26.5221C12.0961 26.9806 13.4434 26.7527 14.4185 25.9277L16.2907 24.3435Z" stroke="#B8B2DD" stroke-opacity="0.17" stroke-width="0.9"/>
<path d="M6.32009 20.1159L6.32011 20.1159L6.31565 20.1122L4.79043 18.8707C3.97393 18.206 3.5 17.2091 3.5 16.1563V9.01062C3.5 7.7214 4.20874 6.53657 5.34464 5.92682L11.3446 2.70607C12.3785 2.15113 13.6216 2.15113 14.6554 2.70607L20.6554 5.92682C21.7913 6.53657 22.5 7.7214 22.5 9.01062V16.2066C22.5 17.2342 22.0484 18.2098 21.265 18.8748L15.677 23.6183L15.6764 23.6188L13.8049 25.2024C13.0946 25.8034 12.1132 25.9694 11.2449 25.6354C10.4301 25.322 9.83256 24.6133 9.66137 23.7573L9.55601 23.2306C9.49109 22.9059 9.31698 22.6133 9.06265 22.4014L6.32009 20.1159Z" stroke="#6A5DB8"/>
<path fill-rule="evenodd" clip-rule="evenodd" d="M15.543 10.203C15.543 9.81473 15.2035 9.5 14.7848 9.5H6.75764C6.33894 9.5 5.99951 9.81473 5.99951 10.203C5.99951 10.5912 6.33894 10.906 6.75764 10.906H14.7848C15.2035 10.906 15.543 10.5912 15.543 10.203Z" fill="#6A5DB8"/>
<path fill-rule="evenodd" clip-rule="evenodd" d="M20.002 10.203C20.002 9.81473 19.6625 9.5 19.2438 9.5H17.46C17.0413 9.5 16.7019 9.81473 16.7019 10.203C16.7019 10.5912 17.0413 10.906 17.46 10.906H19.2438C19.6625 10.906 20.002 10.5912 20.002 10.203Z" fill="#B8B2DD"/>
<path fill-rule="evenodd" clip-rule="evenodd" d="M11.082 12.6844C11.082 12.2962 10.7426 11.9814 10.3239 11.9814H8.54008C8.12138 11.9814 7.78196 12.2962 7.78196 12.6844C7.78196 13.0727 8.12138 13.3874 8.54008 13.3874H10.3239C10.7426 13.3874 11.082 13.0727 11.082 12.6844Z" fill="#B8B2DD"/>
<path fill-rule="evenodd" clip-rule="evenodd" d="M18.2207 12.6844C18.2207 12.2962 17.8813 11.9814 17.4626 11.9814H13.003C12.5843 11.9814 12.2449 12.2962 12.2449 12.6844C12.2449 13.0727 12.5843 13.3874 13.003 13.3874H17.4626C17.8813 13.3874 18.2207 13.0727 18.2207 12.6844Z" fill="#6A5DB8"/>
<path fill-rule="evenodd" clip-rule="evenodd" d="M16.4355 15.1659C16.4355 14.7776 16.0961 14.4629 15.6774 14.4629H10.326C9.90725 14.4629 9.56783 14.7776 9.56783 15.1659C9.56783 15.5541 9.90725 15.8689 10.326 15.8689H15.6774C16.0961 15.8689 16.4355 15.5541 16.4355 15.1659Z" fill="#6A5DB8"/>
<path fill-rule="evenodd" clip-rule="evenodd" d="M14.6523 17.6463C14.6523 17.2581 14.3129 16.9434 13.8942 16.9434H12.1104C11.6917 16.9434 11.3523 17.2581 11.3523 17.6463C11.3523 18.0346 11.6917 18.3493 12.1104 18.3493H13.8942C14.3129 18.3493 14.6523 18.0346 14.6523 17.6463Z" fill="#6EC1AF"/>
</svg>
