<svg width="43" height="54" viewBox="0 0 43 54" fill="none" xmlns="http://www.w3.org/2000/svg">
<path fill-rule="evenodd" clip-rule="evenodd" d="M15.238 53.0348L15.2379 53.0348C13.1847 51.9209 11.9059 49.7725 11.9059 47.4366C11.9059 46.5603 11.532 45.7256 10.878 45.1423L2.59898 37.7578C0.945513 36.283 0 34.1727 0 31.9571V13.0506C0 10.9224 1.22784 8.98519 3.15247 8.07681L19.1525 0.525184C20.6389 -0.176364 22.3611 -0.176363 23.8475 0.525184L39.8475 8.07681C41.7722 8.98519 43 10.9224 43 13.0506V31.6097C43 34.0625 41.9336 36.3942 40.0782 37.9985L23.6177 52.2305L21.3285 49.583L37.789 35.3509C38.8756 34.4114 39.5 33.046 39.5 31.6097V13.0506C39.5 12.2767 39.0535 11.5723 38.3536 11.242L22.3536 3.69035C21.8131 3.43525 21.1869 3.43525 20.6464 3.69035L4.64635 11.242C3.94649 11.5723 3.5 12.2767 3.5 13.0506V31.9571C3.5 33.175 4.01977 34.3351 4.92871 35.1459L13.2077 42.5303C14.6062 43.7777 15.4059 45.5626 15.4059 47.4366C15.4059 48.4888 15.9819 49.4565 16.9068 49.9583L17.0664 50.0448C18.4448 50.7926 20.1423 50.6086 21.3285 49.583L23.6177 52.2305C21.3298 54.2087 18.0561 54.5635 15.3976 53.1213C15.3975 53.1213 15.3975 53.1213 15.3975 53.1213L15.238 53.0348Z" fill="white"/>
<path d="M9.5 18.5731C9.5 17.863 10.1199 17.2874 10.8846 17.2874H16.4231C17.1878 17.2874 17.8077 17.863 17.8077 18.5731C17.8077 19.2831 17.1878 19.8588 16.4231 19.8588H10.8846C10.1199 19.8588 9.5 19.2831 9.5 18.5731Z" fill="white"/>
<path d="M19.6538 18.5731C19.6538 17.863 20.2738 17.2874 21.0385 17.2874H32.1154C32.8801 17.2874 33.5 17.863 33.5 18.5731C33.5 19.2831 32.8801 19.8588 32.1154 19.8588H21.0385C20.2738 19.8588 19.6538 19.2831 19.6538 18.5731Z" fill="white"/>
<path d="M12.2692 23.7159C12.2692 23.0058 12.8891 22.4302 13.6538 22.4302H21.0385C21.8032 22.4302 22.4231 23.0058 22.4231 23.7159C22.4231 24.426 21.8032 25.0016 21.0385 25.0016H13.6538C12.8891 25.0016 12.2692 24.426 12.2692 23.7159Z" fill="white"/>
<path d="M24.2692 23.7159C24.2692 23.0058 24.8891 22.4302 25.6538 22.4302H29.3462C30.1109 22.4302 30.7308 23.0058 30.7308 23.7159C30.7308 24.426 30.1109 25.0016 29.3462 25.0016H25.6538C24.8891 25.0016 24.2692 24.426 24.2692 23.7159Z" fill="white"/>
<path d="M15.0385 28.8588C15.0385 28.1487 15.6584 27.5731 16.4231 27.5731H26.5769C27.3416 27.5731 27.9615 28.1487 27.9615 28.8588C27.9615 29.5689 27.3416 30.1445 26.5769 30.1445H16.4231C15.6584 30.1445 15.0385 29.5689 15.0385 28.8588Z" fill="white"/>
<path d="M17.8077 34.0016C17.8077 33.2916 18.4276 32.7159 19.1923 32.7159H23.8077C24.5724 32.7159 25.1923 33.2916 25.1923 34.0016C25.1923 34.7117 24.5724 35.2874 23.8077 35.2874H19.1923C18.4276 35.2874 17.8077 34.7117 17.8077 34.0016Z" fill="white" fill-opacity="0.25"/>
</svg>
