<svg width="34" height="34" viewBox="0 0 34 34" fill="none" xmlns="http://www.w3.org/2000/svg">
<path d="M8.11078 7.76316L15.1108 4.01231C16.2909 3.37997 17.7091 3.37997 18.8892 4.01231L25.8892 7.76316C27.1889 8.45955 28 9.81444 28 11.2889V19.6023C28 20.7779 27.4828 21.894 26.5859 22.654L20.3 27.9804L18.24 29.7204C17.3055 30.5096 16.0156 30.7276 14.8737 30.2892C13.8005 29.8772 13.0131 28.9442 12.7873 27.8171L12.6723 27.2434C12.6255 27.0098 12.5001 26.7993 12.317 26.6469L9.3 24.1373L7.47749 22.6563C6.54273 21.8968 6 20.7564 6 19.552V11.2889C6 9.81445 6.81115 8.45955 8.11078 7.76316Z" fill="white" stroke="url(#paint0_linear_54884_9095)" stroke-width="6"/>
<path d="M8.11078 7.76316L15.1108 4.01231C16.2909 3.37997 17.7091 3.37997 18.8892 4.01231L25.8892 7.76316C27.1889 8.45955 28 9.81444 28 11.2889V19.6023C28 20.7779 27.4828 21.894 26.5859 22.654L20.3 27.9804L18.24 29.7204C17.3055 30.5096 16.0156 30.7276 14.8737 30.2892C13.8005 29.8772 13.0131 28.9442 12.7873 27.8171L12.6723 27.2434C12.6255 27.0098 12.5001 26.7993 12.317 26.6469L9.3 24.1373L7.47749 22.6563C6.54273 21.8968 6 20.7564 6 19.552V11.2889C6 9.81445 6.81115 8.45955 8.11078 7.76316Z" fill="white"/>
<path d="M10.1269 9.83517L16.1269 6.92368C16.6782 6.65614 17.3218 6.65614 17.8731 6.92368L23.8731 9.83517C24.5624 10.1696 25 10.8684 25 11.6345V18.794C25 19.3818 24.7414 19.9399 24.293 20.3199L18.293 25.4043C17.5469 26.0365 16.4531 26.0365 15.707 25.4043L9.707 20.3199C9.25857 19.9399 9 19.3818 9 18.794V11.6345C9 10.8684 9.43763 10.1696 10.1269 9.83517Z" fill="#8370F7"/>
<path d="M13.1555 11.7909L16.1555 10.3934C16.6909 10.144 17.3091 10.144 17.8445 10.3934L20.8445 11.7909C21.5494 12.1193 22 12.8263 22 13.6039V16.9813C22 17.5831 21.729 18.1529 21.2621 18.5327L18.2621 20.9732C17.527 21.5713 16.473 21.5713 15.7379 20.9732L12.7379 18.5327C12.271 18.1529 12 17.5831 12 16.9813V13.6039C12 12.8263 12.4506 12.1193 13.1555 11.7909Z" fill="white"/>
<defs>
<linearGradient id="paint0_linear_54884_9095" x1="22.5" y1="-0.500001" x2="11" y2="52.5" gradientUnits="userSpaceOnUse">
<stop offset="0.317726" stop-color="#8370F7"/>
<stop offset="1" stop-color="#62DBB7"/>
</linearGradient>
</defs>
</svg>
