<svg width="28" height="32" viewBox="0 0 28 32" fill="none" xmlns="http://www.w3.org/2000/svg">
<path fill-rule="evenodd" clip-rule="evenodd" d="M4.91601 20.4133L3.20985 22.3752C2.02316 21.3432 1.3418 19.8477 1.3418 18.275V8.88276C1.3418 7.08666 2.38719 5.45483 4.01882 4.70399L5.10572 7.0659C4.39632 7.39236 3.9418 8.10185 3.9418 8.88276V18.275C3.9418 19.0952 4.29714 19.8751 4.91601 20.4133ZM11.4984 28.3371L11.3713 28.2699C10.8699 28.0047 10.5562 27.4839 10.5562 26.9166C10.5562 25.9013 10.1163 24.9358 9.35015 24.2695L4.91601 20.4133L3.20985 22.3752L7.64399 26.2314C7.84232 26.4039 7.9562 26.6538 7.9562 26.9166C7.9562 28.4473 8.80263 29.8525 10.1557 30.5682L10.2828 30.6354L11.4984 28.3371ZM15.1959 3.57686L22.7779 7.0659C23.4873 7.39236 23.9418 8.10185 23.9418 8.88276V18.2752C23.9418 19.0938 23.5806 19.8706 22.9548 20.3981L13.835 28.0862C13.1801 28.6383 12.2556 28.7375 11.4984 28.3371L10.2828 30.6354C11.977 31.5314 14.0455 31.3093 15.5108 30.0741L24.6306 22.386C25.8425 21.3644 26.5418 19.8602 26.5418 18.2752V8.88276C26.5418 7.08666 25.4964 5.45483 23.8648 4.70399L16.2828 1.21494L15.1959 3.57686ZM15.1959 3.57686C14.4 3.21058 13.4836 3.21058 12.6877 3.57686L5.10572 7.0659L4.01882 4.70399L11.6008 1.21494C13.0866 0.531215 14.797 0.531218 16.2828 1.21494L15.1959 3.57686Z" fill="#6A5DB8" fill-opacity="0.2"/>
<path d="M5.10533 7.06649L12.6873 3.57745C13.4833 3.21116 14.3996 3.21116 15.1955 3.57745L22.7775 7.06649C23.4869 7.39294 23.9414 8.10243 23.9414 8.88335V18.2758C23.9414 19.0943 23.5802 19.8712 22.9544 20.3987L13.8346 28.0868C13.1797 28.6389 12.2552 28.7381 11.498 28.3376L11.3709 28.2704C10.8695 28.0052 10.5558 27.4845 10.5558 26.9172C10.5558 25.9019 10.1159 24.9364 9.34976 24.2701L4.91562 20.4139C4.29675 19.8757 3.94141 19.0958 3.94141 18.2756V8.88335C3.94141 8.10243 4.39593 7.39294 5.10533 7.06649Z" fill="white"/>
<path fill-rule="evenodd" clip-rule="evenodd" d="M4.5611 5.88475L12.1431 2.39571C13.2839 1.8707 14.5973 1.8707 15.7382 2.39571L23.3202 5.88475C24.4907 6.4234 25.2406 7.59406 25.2406 8.88257V18.275C25.2406 19.4768 24.7104 20.6173 23.7915 21.3919L14.6718 29.0799C13.6116 29.9736 12.1151 30.1343 10.8894 29.486C9.91741 28.972 9.25503 28.0434 9.25503 26.9165C9.25503 26.2774 8.97814 25.6696 8.4959 25.2502L4.06176 21.3941C3.15898 20.609 2.64062 19.4713 2.64062 18.2748V8.88257C2.64062 7.59406 3.39058 6.4234 4.5611 5.88475ZM12.6865 3.57666L5.10455 7.06571C4.39514 7.39216 3.94062 8.10165 3.94062 8.88257V18.2748C3.94062 19.095 4.29597 19.8749 4.91484 20.4131L9.34898 24.2693C10.1151 24.9356 10.555 25.9011 10.555 26.9165C10.555 27.5644 10.9493 28.0471 11.4972 28.3369C12.2544 28.7374 13.1789 28.6381 13.8339 28.086L22.9536 20.3979C23.5795 19.8704 23.9406 19.0936 23.9406 18.275V8.88257C23.9406 8.10165 23.4861 7.39216 22.7767 7.06571L15.1947 3.57667C14.3988 3.21038 13.4825 3.21038 12.6865 3.57666Z" fill="#6A5DB8"/>
<rect x="10.9414" y="10" width="11" height="2" rx="1" fill="#6A5DB8" stroke="white" stroke-width="0.3"/>
<rect x="5.94141" y="10" width="4" height="2" rx="1" fill="#6A5DB8" stroke="white" stroke-width="0.3"/>
<rect x="15.9414" y="13" width="4" height="2" rx="1" fill="#6A5DB8" stroke="white" stroke-width="0.3"/>
<rect x="7.94141" y="13" width="7" height="2" rx="1" fill="#6A5DB8" stroke="white" stroke-width="0.3"/>
<rect x="9.94141" y="16" width="8" height="2" rx="1" fill="#6A5DB8" stroke="white" stroke-width="0.3"/>
<rect x="11.9414" y="19" width="4" height="2" rx="1" fill="#519DAA" stroke="white" stroke-width="0.3"/>
</svg>
