<svg width="32" height="34" viewBox="0 0 32 34" fill="none" xmlns="http://www.w3.org/2000/svg">
<path d="M20.2919 28.5268L20.2943 28.5247L25.8829 23.7808C27.2259 22.6407 28 20.9682 28 19.2066V12.0106C28 9.80053 26.785 7.76939 24.8378 6.72411L18.8378 3.50336C17.0655 2.55203 14.9345 2.55203 13.1622 3.50336L7.16225 6.72411C5.21498 7.76939 4 9.80053 4 12.0106V19.1563C4 20.9611 4.81245 22.6701 6.21217 23.8095L7.72842 25.0438L10.1773 27.0845L10.2099 27.2476C10.5491 28.9436 11.7331 30.3479 13.3474 30.9688C15.068 31.6305 17.0125 31.3017 18.4197 30.1109L20.2919 28.5268Z" stroke="#B8B2DD" stroke-opacity="0.17" stroke-width="4"/>
<path d="M19.872 28.0306L19.8736 28.0292L25.4622 23.2852C26.6597 22.2687 27.35 20.7773 27.35 19.2066V12.0106C27.35 10.04 26.2666 8.22885 24.5303 7.29681L18.5303 4.07606C16.9501 3.2278 15.0499 3.22779 13.4697 4.07606L7.46967 7.29681C5.73336 8.22885 4.65 10.04 4.65 12.0106V19.1563C4.65 20.7656 5.37444 22.2894 6.62252 23.3054L8.14169 24.5421L10.7697 26.732L10.8473 27.1201C11.1428 28.5978 12.1743 29.8212 13.5808 30.3621C15.0798 30.9386 16.7738 30.6521 17.9999 29.6147L19.872 28.0306Z" fill="white" stroke="#7A68E2" stroke-width="2.7"/>
<path fill-rule="evenodd" clip-rule="evenodd" d="M18.9062 12.6723C18.9062 12.2287 18.5184 11.8691 18.04 11.8691H8.8685C8.39011 11.8691 8.0023 12.2287 8.0023 12.6723C8.0023 13.1159 8.39011 13.4755 8.8685 13.4755H18.04C18.5184 13.4755 18.9062 13.1159 18.9062 12.6723Z" fill="#6A5DB8"/>
<path fill-rule="evenodd" clip-rule="evenodd" d="M24 12.6723C24 12.2287 23.6122 11.8691 23.1338 11.8691H21.0957C20.6173 11.8691 20.2295 12.2287 20.2295 12.6723C20.2295 13.1159 20.6173 13.4755 21.0957 13.4755H23.1338C23.6122 13.4755 24 13.1159 24 12.6723Z" fill="#B8B2DD"/>
<path fill-rule="evenodd" clip-rule="evenodd" d="M13.8086 15.5073C13.8086 15.0637 13.4208 14.7041 12.9424 14.7041H10.9043C10.4259 14.7041 10.0381 15.0637 10.0381 15.5073C10.0381 15.9509 10.4259 16.3105 10.9043 16.3105H12.9424C13.4208 16.3105 13.8086 15.9509 13.8086 15.5073Z" fill="#B8B2DD"/>
<path fill-rule="evenodd" clip-rule="evenodd" d="M21.9648 15.5073C21.9648 15.0637 21.577 14.7041 21.0986 14.7041H16.0033C15.5249 14.7041 15.1371 15.0637 15.1371 15.5073C15.1371 15.9509 15.5249 16.3105 16.0033 16.3105H21.0986C21.577 16.3105 21.9648 15.9509 21.9648 15.5073Z" fill="#6A5DB8"/>
<path fill-rule="evenodd" clip-rule="evenodd" d="M19.9258 18.3432C19.9258 17.8996 19.538 17.54 19.0596 17.54H12.9452C12.4668 17.54 12.079 17.8996 12.079 18.3432C12.079 18.7868 12.4668 19.1464 12.9452 19.1464H19.0596C19.538 19.1464 19.9258 18.7868 19.9258 18.3432Z" fill="#6A5DB8"/>
<path fill-rule="evenodd" clip-rule="evenodd" d="M17.8887 21.1772C17.8887 20.7336 17.5009 20.374 17.0225 20.374H14.9843C14.506 20.374 14.1181 20.7336 14.1181 21.1772C14.1181 21.6208 14.506 21.9804 14.9843 21.9804H17.0225C17.5009 21.9804 17.8887 21.6208 17.8887 21.1772Z" fill="#6EC1AF"/>
</svg>
