<svg width="64" height="64" viewBox="0 0 64 64" fill="none" xmlns="http://www.w3.org/2000/svg">
<path d="M15.1464 16.2419L31.1464 8.69026C31.6869 8.43515 32.3131 8.43515 32.8536 8.69026L48.8536 16.2419C49.5535 16.5722 50 17.2766 50 18.0505V36.6096C50 38.0459 49.3756 39.4113 48.289 40.3508L31.8285 54.5829C30.6423 55.6085 28.9448 55.7925 27.5664 55.0447L27.4068 54.9582C26.4819 54.4564 25.9059 53.4887 25.9059 52.4365C25.9059 50.5625 25.1062 48.7776 23.7077 47.5302L15.4287 40.1458C14.5198 39.335 14 38.1749 14 36.957V18.0505C14 17.2766 14.4465 16.5722 15.1464 16.2419Z" fill="white"/>
<path d="M25.7379 58.0347L25.738 58.0347L25.8975 58.1212C25.8975 58.1212 25.8975 58.1212 25.8976 58.1212C28.5561 59.5634 31.8298 59.2086 34.1177 57.2304L31.8285 54.5829L34.1177 57.2304L50.5782 42.9984C52.4336 41.3941 53.5 39.0624 53.5 36.6096V18.0505C53.5 15.9223 52.2722 13.9851 50.3475 13.0767L34.3475 5.52509C32.8611 4.82354 31.1389 4.82354 29.6525 5.52509L13.6525 13.0767C11.7278 13.9851 10.5 15.9223 10.5 18.0505V36.957C10.5 39.1726 11.4455 41.2829 13.099 42.7577L21.378 50.1422C22.032 50.7255 22.4059 51.5602 22.4059 52.4365C22.4059 54.7724 23.6847 56.9208 25.7379 58.0347Z" stroke="#5E50B2" stroke-opacity="0.06" stroke-width="7"/>
<path d="M15.1464 16.242L31.1464 8.69035C31.6869 8.43525 32.3131 8.43525 32.8536 8.69035L48.8536 16.242C49.5535 16.5723 50 17.2767 50 18.0506V36.6097C50 38.046 49.3756 39.4114 48.289 40.3509L31.8285 54.583C30.6423 55.6086 28.9448 55.7926 27.5664 55.0448L27.4068 54.9583C26.4819 54.4565 25.9059 53.4888 25.9059 52.4366C25.9059 50.5626 25.1062 48.7777 23.7077 47.5303L15.4287 40.1459C14.5198 39.3351 14 38.175 14 36.9571V18.0506C14 17.2767 14.4465 16.5723 15.1464 16.242Z" fill="white"/>
<path fill-rule="evenodd" clip-rule="evenodd" d="M25.738 58.0348L25.7379 58.0348C23.6847 56.9209 22.4059 54.7725 22.4059 52.4366C22.4059 51.5603 22.032 50.7256 21.378 50.1423L13.099 42.7578C11.4455 41.283 10.5 39.1727 10.5 36.9571V18.0506C10.5 15.9224 11.7278 13.9852 13.6525 13.0768L29.6525 5.52518C31.1389 4.82364 32.8611 4.82364 34.3475 5.52518L50.3475 13.0768C52.2722 13.9852 53.5 15.9224 53.5 18.0506V36.6097C53.5 39.0625 52.4336 41.3942 50.5782 42.9985L34.1177 57.2305L31.8285 54.583L48.289 40.3509C49.3756 39.4114 50 38.046 50 36.6097V18.0506C50 17.2767 49.5535 16.5723 48.8536 16.242L32.8536 8.69035C32.3131 8.43525 31.6869 8.43525 31.1464 8.69035L15.1464 16.242C14.4465 16.5723 14 17.2767 14 18.0506V36.9571C14 38.175 14.5198 39.3351 15.4287 40.1459L23.7077 47.5303C25.1062 48.7777 25.9059 50.5626 25.9059 52.4366C25.9059 53.4888 26.4819 54.4565 27.4068 54.9583L27.5664 55.0448C28.9448 55.7926 30.6423 55.6086 31.8285 54.583L34.1177 57.2305C31.8298 59.2087 28.5561 59.5635 25.8976 58.1213C25.8975 58.1213 25.8975 58.1213 25.8975 58.1213L25.738 58.0348Z" fill="#5E50B2"/>
<path d="M20 23.5731C20 22.863 20.6199 22.2874 21.3846 22.2874H26.9231C27.6878 22.2874 28.3077 22.863 28.3077 23.5731C28.3077 24.2831 27.6878 24.8588 26.9231 24.8588H21.3846C20.6199 24.8588 20 24.2831 20 23.5731Z" fill="#5E50B2"/>
<path d="M30.1538 23.5731C30.1538 22.863 30.7738 22.2874 31.5385 22.2874H42.6154C43.3801 22.2874 44 22.863 44 23.5731C44 24.2831 43.3801 24.8588 42.6154 24.8588H31.5385C30.7738 24.8588 30.1538 24.2831 30.1538 23.5731Z" fill="#5E50B2"/>
<path d="M22.7692 28.7159C22.7692 28.0058 23.3891 27.4302 24.1538 27.4302H31.5385C32.3032 27.4302 32.9231 28.0058 32.9231 28.7159C32.9231 29.426 32.3032 30.0016 31.5385 30.0016H24.1538C23.3891 30.0016 22.7692 29.426 22.7692 28.7159Z" fill="#5E50B2"/>
<path d="M34.7692 28.7159C34.7692 28.0058 35.3891 27.4302 36.1538 27.4302H39.8462C40.6109 27.4302 41.2308 28.0058 41.2308 28.7159C41.2308 29.426 40.6109 30.0016 39.8462 30.0016H36.1538C35.3891 30.0016 34.7692 29.426 34.7692 28.7159Z" fill="#5E50B2"/>
<path d="M25.5385 33.8588C25.5385 33.1487 26.1584 32.5731 26.9231 32.5731H37.0769C37.8416 32.5731 38.4615 33.1487 38.4615 33.8588C38.4615 34.5689 37.8416 35.1445 37.0769 35.1445H26.9231C26.1584 35.1445 25.5385 34.5689 25.5385 33.8588Z" fill="#5E50B2"/>
<path d="M28.3077 39.0016C28.3077 38.2916 28.9276 37.7159 29.6923 37.7159H34.3077C35.0724 37.7159 35.6923 38.2916 35.6923 39.0016C35.6923 39.7117 35.0724 40.2874 34.3077 40.2874H29.6923C28.9276 40.2874 28.3077 39.7117 28.3077 39.0016Z" fill="#6ABDA5"/>
</svg>
