<svg width="28" height="34" viewBox="0 0 28 34" fill="none" xmlns="http://www.w3.org/2000/svg">
<path fill-rule="evenodd" clip-rule="evenodd" d="M3.97135 21.9885L2.07562 24.177C0.757072 23.0258 0 21.3575 0 19.6031V9.12573C0 7.12212 1.16155 5.30176 2.97447 4.46418L4.18214 7.09897C3.39391 7.46314 2.88889 8.2546 2.88889 9.12573V19.6031C2.88889 20.518 3.28371 21.3881 3.97135 21.9885ZM11.2851 30.8276L11.1439 30.7527C10.5868 30.4568 10.2382 29.8759 10.2382 29.2431C10.2382 28.1105 9.74944 27.0334 8.89817 26.2901L3.97135 21.9885L2.07562 24.177L7.00244 28.4787C7.22281 28.6711 7.34933 28.9499 7.34933 29.2431C7.34933 30.9506 8.28982 32.5182 9.79325 33.3165L9.93442 33.3915L11.2851 30.8276ZM15.3935 3.20683L23.8179 7.09897C24.6061 7.46314 25.1111 8.2546 25.1111 9.12573V19.6033C25.1111 20.5164 24.7098 21.383 24.0145 21.9715L13.8814 30.5477C13.1537 31.1636 12.1264 31.2744 11.2851 30.8276L9.93442 33.3915C11.8168 34.391 14.1152 34.1433 15.7434 32.7653L25.8765 24.1891C27.223 23.0494 28 21.3714 28 19.6033V9.12573C28 7.12212 26.8385 5.30176 25.0255 4.46418L16.6011 0.57204L15.3935 3.20683ZM15.3935 3.20683C14.5091 2.79823 13.4909 2.79823 12.6065 3.20683L4.18214 7.09897L2.97447 4.46418L11.3989 0.572039C13.0498 -0.190681 14.9503 -0.190678 16.6011 0.57204L15.3935 3.20683Z" fill="#6A5DB8" fill-opacity="0.15"/>
<path d="M4.28032 7.16893L12.6205 3.30428C13.496 2.89857 14.504 2.89857 15.3795 3.30429L23.7197 7.16893C24.5 7.53052 25 8.31639 25 9.18137V19.5849C25 20.4916 24.6027 21.352 23.9143 21.9364L13.8826 30.452C13.1621 31.0636 12.1452 31.1735 11.3122 30.7299L11.1725 30.6555C10.6209 30.3618 10.2758 29.7849 10.2758 29.1566C10.2758 28.032 9.79195 26.9625 8.94919 26.2245L4.07164 21.9532C3.39087 21.3571 3 20.4932 3 19.5847V9.18137C3 8.31639 3.49997 7.53052 4.28032 7.16893Z" fill="white"/>
<path fill-rule="evenodd" clip-rule="evenodd" d="M4.03944 6.17824L12.0911 2.42371C13.3026 1.85876 14.6974 1.85876 15.9089 2.42371L23.9606 6.17824C25.2036 6.75787 26 8.0176 26 9.40415V19.5113C26 20.8045 25.4369 22.0318 24.4612 22.8653L14.7764 31.1383C13.6506 32.1 12.0614 32.2729 10.7598 31.5753C9.72755 31.0221 9.02414 30.0229 9.02414 28.8102C9.02414 28.1225 8.7301 27.4685 8.21799 27.0172L3.50917 22.8677C2.55046 22.0228 2 20.7985 2 19.5111V9.40415C2 8.0176 2.79641 6.75787 4.03944 6.17824ZM12.6682 3.69453L4.61656 7.44905C3.86321 7.80034 3.38053 8.56382 3.38053 9.40415V19.5111C3.38053 20.3936 3.75788 21.2329 4.41509 21.8121L9.12391 25.9616C9.93752 26.6786 10.4047 27.7176 10.4047 28.8102C10.4047 29.5075 10.8234 30.0269 11.4052 30.3387C12.2093 30.7697 13.1911 30.6629 13.8866 30.0687L23.5714 21.7957C24.2359 21.228 24.6195 20.3921 24.6195 19.5113V9.40415C24.6195 8.56382 24.1368 7.80034 23.3834 7.44905L15.3318 3.69453C14.4865 3.30038 13.5135 3.30038 12.6682 3.69453Z" fill="#6A5DB8"/>
<rect x="12" y="11" width="10" height="2" rx="1" fill="#6A5DB8" stroke="white" stroke-width="0.3"/>
<rect x="6" y="11" width="5" height="2" rx="1" fill="#6A5DB8" stroke="white" stroke-width="0.3"/>
<rect x="15.9414" y="14" width="4" height="2" rx="1" fill="#6A5DB8" stroke="white" stroke-width="0.3"/>
<rect x="7.94141" y="14" width="7" height="2" rx="1" fill="#6A5DB8" stroke="white" stroke-width="0.3"/>
<rect x="9.94141" y="17" width="8" height="2" rx="1" fill="#6A5DB8" stroke="white" stroke-width="0.3"/>
<rect x="11.9414" y="20" width="4" height="2" rx="1" fill="#519DAA" stroke="white" stroke-width="0.3"/>
</svg>
