<svg width="49" height="49" viewBox="0 0 49 49" fill="none" xmlns="http://www.w3.org/2000/svg">
<path fill-rule="evenodd" clip-rule="evenodd" d="M18.4286 36.9924L18.4286 36.997L2 28.3014L2 31.5813C2 35.7013 4.23408 39.4833 7.8073 41.4258L19.3073 47.6774C22.5512 49.4409 26.4488 49.4409 29.6927 47.6774C32.0381 46.4024 33.4979 43.9463 33.4969 41.2767L33.49 21.8759L25.9317 39.0532C25.7479 39.471 25.364 39.8201 24.8546 39.8844C24.6656 39.9083 24.4354 39.9266 24.2067 39.9162C23.9878 39.9062 23.7184 39.8681 23.4853 39.7413L18.4286 36.9924ZM17.2819 12.6309L11.9853 15.5103C11.7182 15.6555 11.5234 15.9014 11.3888 16.1119C11.2477 16.3325 11.1366 16.5727 11.0562 16.77C10.8647 17.2403 10.9741 17.7419 11.2428 18.1081L22.8221 33.8916L6.94719 25.589C3.90609 23.9985 2 20.8506 2 17.4187C2 13.2987 4.23408 9.51667 7.8073 7.5742L19.3073 1.32258C22.5512 -0.440863 26.4488 -0.440863 29.6927 1.32258L33.3315 3.30072L17.2819 12.6309ZM38.1376 43.0866L41.1927 41.4258C44.7659 39.4833 47 35.7013 47 31.5813L47 17.4187C47 13.2987 44.7659 9.51667 41.1927 7.57421C39.3021 6.54643 37.0111 6.58465 35.1559 7.6749L17.82 17.8623L36.2304 15.5151C36.6792 15.4579 37.1696 15.6038 37.4881 15.9977C37.6217 16.163 37.7779 16.3759 37.9029 16.6062C38.0225 16.8265 38.1429 17.115 38.1429 17.4187L38.1429 31.5813C38.1429 31.6664 38.1379 31.7507 38.1283 31.834L38.1376 43.0866Z" fill="url(#paint0_linear_54934_8129)"/>
<defs>
<linearGradient id="paint0_linear_54934_8129" x1="24.5" y1="84.5" x2="24.5" y2="0" gradientUnits="userSpaceOnUse">
<stop offset="0.285223" stop-color="#65D2BD"/>
<stop offset="1" stop-color="#8370F7"/>
</linearGradient>
</defs>
</svg>
