<svg width="30" height="36" viewBox="0 0 30 36" fill="none" xmlns="http://www.w3.org/2000/svg">
<path d="M19.5577 30.9192L19.5595 30.9177L26.5182 25.1265C27.7739 24.0815 28.5 22.5325 28.5 20.8989V11.7302C28.5 9.68812 27.3686 7.81413 25.5614 6.86309L17.5614 2.65295C15.958 1.80915 14.042 1.80915 12.4386 2.65295L4.43858 6.86309C2.63144 7.81413 1.5 9.68813 1.5 11.7302V20.8486C1.5 22.5217 2.26156 24.1038 3.56925 25.1475L5.65765 26.8141L8.8371 29.4117L8.92442 29.8398C9.28005 31.583 10.5059 33.0216 12.1706 33.6493C13.9116 34.3058 15.8709 33.9776 17.3029 32.7897L19.5577 30.9192Z" fill="white" stroke="#7A68E2" stroke-width="3"/>
</svg>
