<svg width="30" height="32" viewBox="0 0 30 32" fill="none" xmlns="http://www.w3.org/2000/svg">
<path d="M18.9366 27.1069L18.9384 27.1054L24.527 22.3615C25.7468 21.3259 26.45 19.8067 26.45 18.2066V11.0106C26.45 9.00312 25.3464 7.15817 23.5776 6.20871L17.5776 2.98795C15.9678 2.12383 14.0322 2.12383 12.4224 2.98795L6.42237 6.2087C4.65361 7.15817 3.55 9.00312 3.55 11.0106V18.1563C3.55 19.7957 4.28798 21.348 5.55939 22.383L7.07818 23.6193L9.67854 25.7863L9.74924 26.1398C10.0515 27.651 11.1065 28.9022 12.5449 29.4554C14.078 30.0451 15.8106 29.752 17.0645 28.691L18.9366 27.1069ZM9.64388 25.613L9.64403 25.6137L9.64388 25.613Z" fill="white" stroke="#7A68E2" stroke-width="2.9"/>
</svg>
