<svg width="34" height="34" viewBox="0 0 34 34" fill="none" xmlns="http://www.w3.org/2000/svg">
<path d="M8.11078 7.76316L15.1108 4.01231C16.2909 3.37997 17.7091 3.37997 18.8892 4.01231L25.8892 7.76316C27.1889 8.45955 28 9.81444 28 11.2889V19.6023C28 20.7779 27.4828 21.894 26.5859 22.654L20.3 27.9804L18.24 29.7204C17.3055 30.5096 16.0156 30.7276 14.8737 30.2892C13.8005 29.8772 13.0131 28.9442 12.7873 27.8171L12.6723 27.2434C12.6255 27.0098 12.5001 26.7993 12.317 26.6469L9.3 24.1373L7.47749 22.6563C6.54273 21.8968 6 20.7564 6 19.552V11.2889C6 9.81445 6.81115 8.45955 8.11078 7.76316Z" fill="white" stroke="#7A68E2" stroke-width="6"/>
</svg>
