<svg width="38" height="38" viewBox="0 0 38 38" fill="none" xmlns="http://www.w3.org/2000/svg">
<rect width="38" height="38" rx="8" fill="#6A5DB8"/>
<path fill-rule="evenodd" clip-rule="evenodd" d="M8.97135 23.9885L7.07562 26.177C5.75707 25.0258 5 23.3575 5 21.6031V11.1257C5 9.12212 6.16155 7.30176 7.97447 6.46418L9.18214 9.09897C8.39391 9.46314 7.88889 10.2546 7.88889 11.1257V21.6031C7.88889 22.518 8.28371 23.3881 8.97135 23.9885ZM16.2851 32.8276L16.1439 32.7527C15.5868 32.4568 15.2382 31.8759 15.2382 31.2431C15.2382 30.1105 14.7494 29.0334 13.8982 28.2901L8.97135 23.9885L7.07562 26.177L12.0024 30.4787C12.2228 30.6711 12.3493 30.9499 12.3493 31.2431C12.3493 32.9506 13.2898 34.5182 14.7933 35.3165L14.9344 35.3915L16.2851 32.8276ZM20.3935 5.20683L28.8179 9.09897C29.6061 9.46314 30.1111 10.2546 30.1111 11.1257V21.6033C30.1111 22.5164 29.7098 23.383 29.0145 23.9715L18.8814 32.5477C18.1537 33.1636 17.1264 33.2744 16.2851 32.8276L14.9344 35.3915C16.8168 36.391 19.1152 36.1433 20.7434 34.7653L30.8765 26.1891C32.223 25.0494 33 23.3714 33 21.6033V11.1257C33 9.12212 31.8385 7.30176 30.0255 6.46418L21.6011 2.57204L20.3935 5.20683ZM20.3935 5.20683C19.5091 4.79823 18.4909 4.79823 17.6065 5.20683L9.18214 9.09897L7.97447 6.46418L16.3989 2.57204C18.0498 1.80932 19.9503 1.80932 21.6011 2.57204L20.3935 5.20683Z" fill="white" fill-opacity="0.1"/>
<path d="M9.34086 9.22752L17.681 5.36288C18.5566 4.95716 19.5645 4.95717 20.4401 5.36288L28.7802 9.22752C29.5606 9.58912 30.0605 10.375 30.0605 11.24V21.6435C30.0605 22.5502 29.6633 23.4106 28.9749 23.995L18.9431 32.5106C18.2227 33.1222 17.2057 33.2321 16.3728 32.7885L16.233 32.7141C15.6814 32.4203 15.3364 31.8435 15.3364 31.2152C15.3364 30.0906 14.8525 29.0211 14.0097 28.2831L9.13218 24.0118C8.45142 23.4157 8.06055 22.5518 8.06055 21.6433V11.24C8.06055 10.375 8.56052 9.58912 9.34086 9.22752Z" fill="white"/>
<path fill-rule="evenodd" clip-rule="evenodd" d="M9.09999 8.23683L17.1516 4.48231C18.3632 3.91735 19.7579 3.91736 20.9695 4.48231L29.0211 8.23683C30.2641 8.81646 31.0605 10.0762 31.0605 11.4627V21.5699C31.0605 22.8631 30.4975 24.0904 29.5217 24.9239L19.837 33.1969C18.7112 34.1586 17.1219 34.3315 15.8203 33.6339C14.7881 33.0807 14.0847 32.0815 14.0847 30.8688C14.0847 30.1811 13.7907 29.5271 13.2785 29.0758L8.56972 24.9263C7.61101 24.0814 7.06055 22.8571 7.06055 21.5697V11.4627C7.06055 10.0762 7.85696 8.81646 9.09999 8.23683ZM17.7287 5.75312L9.6771 9.50765C8.92375 9.85894 8.44108 10.6224 8.44108 11.4627V21.5697C8.44108 22.4522 8.81843 23.2915 9.47564 23.8707L14.1845 28.0202C14.9981 28.7372 15.4652 29.7762 15.4652 30.8688C15.4652 31.5661 15.8839 32.0855 16.4657 32.3973C17.2699 32.8283 18.2517 32.7214 18.9472 32.1273L28.6319 23.8543C29.2965 23.2866 29.68 22.4507 29.68 21.5699V11.4627C29.68 10.6224 29.1973 9.85894 28.444 9.50765L20.3924 5.75312C19.5471 5.35897 18.574 5.35897 17.7287 5.75312Z" fill="#6A5DB8"/>
<rect x="17.0605" y="13.0586" width="10" height="2" rx="1" fill="#6A5DB8" stroke="white" stroke-width="0.3"/>
<rect x="11.0605" y="13.0586" width="5" height="2" rx="1" fill="#6A5DB8" stroke="white" stroke-width="0.3"/>
<rect x="21.002" y="16.0586" width="4" height="2" rx="1" fill="#6A5DB8" stroke="white" stroke-width="0.3"/>
<rect x="13.002" y="16.0586" width="7" height="2" rx="1" fill="#6A5DB8" stroke="white" stroke-width="0.3"/>
<rect x="15.002" y="19.0586" width="8" height="2" rx="1" fill="#6A5DB8" stroke="white" stroke-width="0.3"/>
<rect x="17.002" y="22.0586" width="4" height="2" rx="1" fill="#519DAA" stroke="white" stroke-width="0.3"/>
</svg>
