<svg width="34" height="34" viewBox="0 0 34 34" fill="none" xmlns="http://www.w3.org/2000/svg">
<path d="M8.11078 7.76316L15.1108 4.01231C16.2909 3.37997 17.7091 3.37997 18.8892 4.01231L25.8892 7.76316C27.1889 8.45955 28 9.81444 28 11.2889V19.6023C28 20.7779 27.4828 21.894 26.5859 22.654L20.3 27.9804L18.24 29.7204C17.3055 30.5096 16.0156 30.7276 14.8737 30.2892C13.8005 29.8772 13.0131 28.9442 12.7873 27.8171L12.6723 27.2434C12.6255 27.0098 12.5001 26.7993 12.317 26.6469L9.3 24.1373L7.47749 22.6563C6.54273 21.8968 6 20.7564 6 19.552V11.2889C6 9.81445 6.81115 8.45955 8.11078 7.76316Z" fill="white" stroke="url(#paint0_linear_54884_9095)" stroke-width="6"/>
<path d="M7.13715 7.19049L15.1371 2.98036C16.3032 2.36668 17.6968 2.36668 18.8629 2.98036L26.8629 7.19049C28.1771 7.88216 29 9.24506 29 10.7302V19.8989C29 21.087 28.4719 22.2135 27.5587 22.9735L20.6 28.7647L18.3452 30.6352C17.3281 31.479 15.9364 31.7121 14.6999 31.2458C13.5174 30.7999 12.6467 29.7782 12.3942 28.54L12.2793 27.9769C12.228 27.7255 12.0915 27.4996 11.8928 27.3373L8.6 24.6471L6.50491 22.975C5.55386 22.216 5 21.0654 5 19.8486V10.7302C5 9.24507 5.82287 7.88216 7.13715 7.19049Z" fill="white"/>
<mask id="path-4-inside-1_54884_9095" fill="white">
<path fill-rule="evenodd" clip-rule="evenodd" d="M20.6309 11.6095C20.6309 11.055 20.1461 10.6055 19.5481 10.6055H8.08336C7.48536 10.6055 7.00058 11.055 7.00058 11.6095C7.00058 12.164 7.48536 12.6135 8.08336 12.6135H19.5481C20.1461 12.6135 20.6309 12.164 20.6309 11.6095Z"/>
</mask>
<path fill-rule="evenodd" clip-rule="evenodd" d="M20.6309 11.6095C20.6309 11.055 20.1461 10.6055 19.5481 10.6055H8.08336C7.48536 10.6055 7.00058 11.055 7.00058 11.6095C7.00058 12.164 7.48536 12.6135 8.08336 12.6135H19.5481C20.1461 12.6135 20.6309 12.164 20.6309 11.6095Z" fill="#6A5DB8"/>
<path d="M19.5481 10.5055C20.1941 10.5055 20.7309 10.9928 20.7309 11.6095H20.5309C20.5309 11.1172 20.0981 10.7055 19.5481 10.7055V10.5055ZM8.08336 10.5055H19.5481V10.7055H8.08336V10.5055ZM6.90058 11.6095C6.90058 10.9928 7.43738 10.5055 8.08336 10.5055V10.7055C7.53334 10.7055 7.10058 11.1172 7.10058 11.6095H6.90058ZM8.08336 12.7135C7.43738 12.7135 6.90058 12.2262 6.90058 11.6095H7.10058C7.10058 12.1018 7.53334 12.5135 8.08336 12.5135V12.7135ZM19.5481 12.7135H8.08336V12.5135H19.5481V12.7135ZM20.7309 11.6095C20.7309 12.2262 20.1941 12.7135 19.5481 12.7135V12.5135C20.0981 12.5135 20.5309 12.1018 20.5309 11.6095H20.7309Z" fill="white" mask="url(#path-4-inside-1_54884_9095)"/>
<mask id="path-6-inside-2_54884_9095" fill="white">
<path fill-rule="evenodd" clip-rule="evenodd" d="M27 11.6095C27 11.055 26.5152 10.6055 25.9172 10.6055H23.3695C22.7715 10.6055 22.2867 11.055 22.2867 11.6095C22.2867 12.164 22.7715 12.6135 23.3695 12.6135H25.9172C26.5152 12.6135 27 12.164 27 11.6095Z"/>
</mask>
<path fill-rule="evenodd" clip-rule="evenodd" d="M27 11.6095C27 11.055 26.5152 10.6055 25.9172 10.6055H23.3695C22.7715 10.6055 22.2867 11.055 22.2867 11.6095C22.2867 12.164 22.7715 12.6135 23.3695 12.6135H25.9172C26.5152 12.6135 27 12.164 27 11.6095Z" fill="#B8B2DD"/>
<path d="M25.9172 10.5055C26.5632 10.5055 27.1 10.9928 27.1 11.6095H26.9C26.9 11.1172 26.4672 10.7055 25.9172 10.7055V10.5055ZM23.3695 10.5055H25.9172V10.7055H23.3695V10.5055ZM22.1867 11.6095C22.1867 10.9928 22.7235 10.5055 23.3695 10.5055V10.7055C22.8195 10.7055 22.3867 11.1172 22.3867 11.6095H22.1867ZM23.3695 12.7135C22.7235 12.7135 22.1867 12.2262 22.1867 11.6095H22.3867C22.3867 12.1018 22.8195 12.5135 23.3695 12.5135V12.7135ZM25.9172 12.7135H23.3695V12.5135H25.9172V12.7135ZM27.1 11.6095C27.1 12.2262 26.5632 12.7135 25.9172 12.7135V12.5135C26.4672 12.5135 26.9 12.1018 26.9 11.6095H27.1Z" fill="white" mask="url(#path-6-inside-2_54884_9095)"/>
<mask id="path-8-inside-3_54884_9095" fill="white">
<path fill-rule="evenodd" clip-rule="evenodd" d="M14.2598 15.1534C14.2598 14.5989 13.775 14.1494 13.177 14.1494H10.6293C10.0313 14.1494 9.54649 14.5989 9.54649 15.1534C9.54649 15.7079 10.0313 16.1575 10.6293 16.1575H13.177C13.775 16.1575 14.2598 15.7079 14.2598 15.1534Z"/>
</mask>
<path fill-rule="evenodd" clip-rule="evenodd" d="M14.2598 15.1534C14.2598 14.5989 13.775 14.1494 13.177 14.1494H10.6293C10.0313 14.1494 9.54649 14.5989 9.54649 15.1534C9.54649 15.7079 10.0313 16.1575 10.6293 16.1575H13.177C13.775 16.1575 14.2598 15.7079 14.2598 15.1534Z" fill="#B8B2DD"/>
<path d="M13.177 14.0494C13.823 14.0494 14.3598 14.5367 14.3598 15.1534H14.1598C14.1598 14.6611 13.727 14.2494 13.177 14.2494V14.0494ZM10.6293 14.0494H13.177V14.2494H10.6293V14.0494ZM9.44649 15.1534C9.44649 14.5367 9.98329 14.0494 10.6293 14.0494V14.2494C10.0793 14.2494 9.64649 14.6611 9.64649 15.1534H9.44649ZM10.6293 16.2575C9.98329 16.2575 9.44649 15.7701 9.44649 15.1534H9.64649C9.64649 15.6457 10.0793 16.0575 10.6293 16.0575V16.2575ZM13.177 16.2575H10.6293V16.0575H13.177V16.2575ZM14.3598 15.1534C14.3598 15.7701 13.823 16.2575 13.177 16.2575V16.0575C13.727 16.0575 14.1598 15.6457 14.1598 15.1534H14.3598Z" fill="white" mask="url(#path-8-inside-3_54884_9095)"/>
<mask id="path-10-inside-4_54884_9095" fill="white">
<path fill-rule="evenodd" clip-rule="evenodd" d="M24.4551 15.1534C24.4551 14.5989 23.9703 14.1494 23.3723 14.1494H17.003C16.405 14.1494 15.9202 14.5989 15.9202 15.1534C15.9202 15.7079 16.405 16.1575 17.003 16.1575H23.3723C23.9703 16.1575 24.4551 15.7079 24.4551 15.1534Z"/>
</mask>
<path fill-rule="evenodd" clip-rule="evenodd" d="M24.4551 15.1534C24.4551 14.5989 23.9703 14.1494 23.3723 14.1494H17.003C16.405 14.1494 15.9202 14.5989 15.9202 15.1534C15.9202 15.7079 16.405 16.1575 17.003 16.1575H23.3723C23.9703 16.1575 24.4551 15.7079 24.4551 15.1534Z" fill="#6A5DB8"/>
<path d="M23.3723 14.0494C24.0183 14.0494 24.5551 14.5367 24.5551 15.1534H24.3551C24.3551 14.6611 23.9223 14.2494 23.3723 14.2494V14.0494ZM17.003 14.0494H23.3723V14.2494H17.003V14.0494ZM15.8202 15.1534C15.8202 14.5367 16.357 14.0494 17.003 14.0494V14.2494C16.453 14.2494 16.0202 14.6611 16.0202 15.1534H15.8202ZM17.003 16.2575C16.357 16.2575 15.8202 15.7701 15.8202 15.1534H16.0202C16.0202 15.6457 16.453 16.0575 17.003 16.0575V16.2575ZM23.3723 16.2575H17.003V16.0575H23.3723V16.2575ZM24.5551 15.1534C24.5551 15.7701 24.0183 16.2575 23.3723 16.2575V16.0575C23.9223 16.0575 24.3551 15.6457 24.3551 15.1534H24.5551Z" fill="white" mask="url(#path-10-inside-4_54884_9095)"/>
<mask id="path-12-inside-5_54884_9095" fill="white">
<path fill-rule="evenodd" clip-rule="evenodd" d="M21.9062 18.6974C21.9062 18.1429 21.4215 17.6934 20.8235 17.6934H13.1803C12.5823 17.6934 12.0975 18.1429 12.0975 18.6974C12.0975 19.2519 12.5823 19.7014 13.1803 19.7014H20.8235C21.4215 19.7014 21.9062 19.2519 21.9062 18.6974Z"/>
</mask>
<path fill-rule="evenodd" clip-rule="evenodd" d="M21.9062 18.6974C21.9062 18.1429 21.4215 17.6934 20.8235 17.6934H13.1803C12.5823 17.6934 12.0975 18.1429 12.0975 18.6974C12.0975 19.2519 12.5823 19.7014 13.1803 19.7014H20.8235C21.4215 19.7014 21.9062 19.2519 21.9062 18.6974Z" fill="#6A5DB8"/>
<path d="M20.8235 17.5934C21.4695 17.5934 22.0063 18.0807 22.0063 18.6974H21.8062C21.8062 18.2051 21.3735 17.7934 20.8235 17.7934V17.5934ZM13.1803 17.5934H20.8235V17.7934H13.1803V17.5934ZM11.9975 18.6974C11.9975 18.0807 12.5343 17.5934 13.1803 17.5934V17.7934C12.6303 17.7934 12.1975 18.2051 12.1975 18.6974H11.9975ZM13.1803 19.8014C12.5343 19.8014 11.9975 19.3141 11.9975 18.6974H12.1975C12.1975 19.1897 12.6303 19.6014 13.1803 19.6014V19.8014ZM20.8235 19.8014H13.1803V19.6014H20.8235V19.8014ZM22.0063 18.6974C22.0063 19.3141 21.4695 19.8014 20.8235 19.8014V19.6014C21.3735 19.6014 21.8062 19.1897 21.8062 18.6974H22.0063Z" fill="white" mask="url(#path-12-inside-5_54884_9095)"/>
<mask id="path-14-inside-6_54884_9095" fill="white">
<path fill-rule="evenodd" clip-rule="evenodd" d="M19.3594 22.2403C19.3594 21.6858 18.8746 21.2363 18.2766 21.2363H15.7289C15.1309 21.2363 14.6461 21.6858 14.6461 22.2403C14.6461 22.7949 15.1309 23.2444 15.7289 23.2444H18.2766C18.8746 23.2444 19.3594 22.7949 19.3594 22.2403Z"/>
</mask>
<path fill-rule="evenodd" clip-rule="evenodd" d="M19.3594 22.2403C19.3594 21.6858 18.8746 21.2363 18.2766 21.2363H15.7289C15.1309 21.2363 14.6461 21.6858 14.6461 22.2403C14.6461 22.7949 15.1309 23.2444 15.7289 23.2444H18.2766C18.8746 23.2444 19.3594 22.7949 19.3594 22.2403Z" fill="url(#paint1_linear_54884_9095)"/>
<path d="M18.2766 21.1363C18.9226 21.1363 19.4594 21.6236 19.4594 22.2403H19.2594C19.2594 21.748 18.8266 21.3363 18.2766 21.3363V21.1363ZM15.7289 21.1363H18.2766V21.3363H15.7289V21.1363ZM14.5461 22.2403C14.5461 21.6236 15.0829 21.1363 15.7289 21.1363V21.3363C15.1789 21.3363 14.7461 21.748 14.7461 22.2403H14.5461ZM15.7289 23.3444C15.0829 23.3444 14.5461 22.8571 14.5461 22.2403H14.7461C14.7461 22.7326 15.1789 23.1444 15.7289 23.1444V23.3444ZM18.2766 23.3444H15.7289V23.1444H18.2766V23.3444ZM19.4594 22.2403C19.4594 22.8571 18.9226 23.3444 18.2766 23.3444V23.1444C18.8266 23.1444 19.2594 22.7326 19.2594 22.2403H19.4594Z" fill="white" mask="url(#path-14-inside-6_54884_9095)"/>
<defs>
<linearGradient id="paint0_linear_54884_9095" x1="22.5" y1="-0.500001" x2="11" y2="52.5" gradientUnits="userSpaceOnUse">
<stop offset="0.317726" stop-color="#8370F7"/>
<stop offset="1" stop-color="#62DBB7"/>
</linearGradient>
<linearGradient id="paint1_linear_54884_9095" x1="17.0027" y1="20.6031" x2="17.0027" y2="23.4596" gradientUnits="userSpaceOnUse">
<stop offset="0.177767" stop-color="#68C5A9"/>
<stop offset="1" stop-color="#7BB4BE"/>
</linearGradient>
</defs>
</svg>
