<svg width="34" height="34" viewBox="0 0 34 34" fill="none" xmlns="http://www.w3.org/2000/svg">
<path d="M8.11078 7.76316L15.1108 4.01231C16.2909 3.37997 17.7091 3.37997 18.8892 4.01231L25.8892 7.76316C27.1889 8.45955 28 9.81445 28 11.2889V19.6023C28 20.7779 27.4828 21.894 26.5859 22.654L20.3 27.9804C18.2783 29.688 15.286 29.5635 13.4131 27.694L12.6 26.8824L9.3 24.1373L7.47749 22.6563C6.54273 21.8968 6 20.7564 6 19.552V11.2889C6 9.81445 6.81115 8.45955 8.11078 7.76316Z" fill="white" stroke="url(#paint0_linear_54884_9095)" stroke-width="6"/>
<path d="M8.11078 7.76316L15.1108 4.01231C16.2909 3.37997 17.7091 3.37997 18.8892 4.01231L25.8892 7.76316C27.1889 8.45955 28 9.81445 28 11.2889V19.6213C28 20.7859 27.4924 21.8928 26.6097 22.6526L21.15 27.3529L20.0639 28.2703C18.5774 29.5259 16.4544 29.6901 14.7924 28.6781C14.5977 28.5595 14.4123 28.4264 14.2377 28.2799L9.3 24.1373L7.47749 22.6563C6.54273 21.8968 6 20.7564 6 19.552V11.2889C6 9.81445 6.81115 8.45955 8.11078 7.76316Z" fill="white"/>
<rect x="7" y="9" width="20" height="3" rx="1.5" fill="#8370F7"/>
<rect x="10" y="14" width="14" height="3" rx="1.5" fill="#8370F7"/>
<rect x="13" y="19" width="8" height="3" rx="1.5" fill="#8370F7"/>
<rect x="15" y="24" width="4" height="3" rx="1.5" fill="#8370F7"/>
<defs>
<linearGradient id="paint0_linear_54884_9095" x1="22.5" y1="-0.500001" x2="11" y2="52.5" gradientUnits="userSpaceOnUse">
<stop offset="0.317726" stop-color="#8370F7"/>
<stop offset="1" stop-color="#62DBB7"/>
</linearGradient>
</defs>
</svg>
