<svg width="443" height="443" viewBox="0 0 443 443" fill="none" xmlns="http://www.w3.org/2000/svg">
<path d="M93.988 88.0853L208.488 32.9687C216.711 29.0104 226.289 29.0104 234.512 32.9687L349.012 88.0853C359.397 93.0843 366 103.591 366 115.117V263.569C366 272.179 362.3 280.375 355.842 286.07L220.25 405.638C210.684 414.073 196.847 415.583 185.687 409.409L184.84 408.94C177.274 404.754 172.578 396.79 172.578 388.143C172.578 372.804 166.11 358.175 154.763 347.853L86.8125 286.039C80.5627 280.353 77 272.296 77 263.847V115.117C77 103.591 83.6029 93.0843 93.988 88.0853Z" fill="white"/>
<path fill-rule="evenodd" clip-rule="evenodd" d="M66.6249 308.23C54.1254 296.859 47 280.745 47 263.847V115.117C47 92.0653 60.2059 71.0521 80.9761 61.054L195.476 5.93749C211.922 -1.97915 231.078 -1.97917 247.524 5.93748L362.024 61.054C382.794 71.0521 396 92.0653 396 115.117V263.569C396 280.79 388.6 297.181 375.684 308.571L240.092 428.139C220.734 445.209 192.696 447.572 170.317 435.19C153.201 425.721 142.578 407.704 142.578 388.143C142.578 381.252 139.672 374.681 134.575 370.044L66.6249 308.23ZM184.84 408.94C177.274 404.754 172.578 396.79 172.578 388.143C172.578 372.804 166.11 358.175 154.763 347.853L86.8125 286.039C80.5627 280.353 77 272.296 77 263.847V115.117C77 103.591 83.6029 93.0843 93.988 88.0853L208.488 32.9687C216.711 29.0104 226.289 29.0104 234.512 32.9687L349.012 88.0853C359.397 93.0843 366 103.591 366 115.117V263.569C366 272.179 362.3 280.375 355.842 286.07L220.25 405.638C210.304 414.409 196.236 415.245 184.84 408.94Z" fill="#5D57B2"/>
<path d="M129 152.419C129 147.054 133.778 142.705 139.673 142.705H182.365C188.26 142.705 193.038 147.054 193.038 152.419C193.038 157.784 188.26 162.134 182.365 162.134H139.673C133.779 162.134 129 157.784 129 152.419Z" fill="#5D57B2"/>
<path d="M207.269 152.419C207.269 147.054 212.048 142.705 217.942 142.705H303.327C309.221 142.705 314 147.054 314 152.419C314 157.784 309.221 162.134 303.327 162.134H217.942C212.048 162.134 207.269 157.784 207.269 152.419Z" fill="#5D57B2"/>
<path d="M150.346 191.277C150.346 185.911 155.125 181.562 161.019 181.562H217.942C223.837 181.562 228.615 185.911 228.615 191.277C228.615 196.642 223.837 200.991 217.942 200.991H161.019C155.125 200.991 150.346 196.642 150.346 191.277Z" fill="#5D57B2"/>
<path d="M242.846 191.277C242.846 185.911 247.625 181.562 253.519 181.562H281.981C287.875 181.562 292.654 185.911 292.654 191.277C292.654 196.642 287.875 200.991 281.981 200.991H253.519C247.625 200.991 242.846 196.642 242.846 191.277Z" fill="#5D57B2"/>
<path d="M171.692 230.134C171.692 224.769 176.471 220.419 182.365 220.419H260.635C266.529 220.419 271.308 224.769 271.308 230.134C271.308 235.499 266.529 239.848 260.635 239.848H182.365C176.471 239.848 171.692 235.499 171.692 230.134Z" fill="#5D57B2"/>
<path d="M193.038 268.991C193.038 263.626 197.817 259.277 203.712 259.277H239.288C245.183 259.277 249.962 263.626 249.962 268.991C249.962 274.356 245.183 278.705 239.288 278.705H203.712C197.817 278.705 193.038 274.356 193.038 268.991Z" fill="#519DAA"/>
</svg>
